<svg xmlns="http://www.w3.org/2000/svg" width="54.651" height="77.267" viewBox="0 0 54.651 77.267">
  <g id="Group_273" data-name="Group 273" transform="translate(459.821 -15990.501)">
    <path id="Path_287" data-name="Path 287" d="M-444.4,16014.727a3.325,3.325,0,0,1-.276.413.328.328,0,0,1-.534.007.373.373,0,0,1-.071-.238,24.211,24.211,0,0,0,0-3.653,12.2,12.2,0,0,0-.268-2.042,5.662,5.662,0,0,0-.993-2.058c-.429-.6-.875-1.188-1.341-1.758a7.765,7.765,0,0,0-.907-.923c-.7-.611-1.431-1.2-2.147-1.8a.7.7,0,0,0-1.034-.018,1.8,1.8,0,0,0-.7.882.518.518,0,0,0,.008.482.314.314,0,0,0,.424.154,4.534,4.534,0,0,1,.529-.177,2.054,2.054,0,0,1,.525-.031.381.381,0,0,1,.362.294.364.364,0,0,1-.276.344,3.314,3.314,0,0,0-.9.485.936.936,0,0,0-.418,1.02c.03.162.021.33.192.438a.565.565,0,0,0,.658.03,5.972,5.972,0,0,1,2-.764,3.166,3.166,0,0,1,.585-.046.282.282,0,0,1,.31.221.3.3,0,0,1-.181.339,2.884,2.884,0,0,1-.406.169,5.931,5.931,0,0,0-1.959,1.058,5.71,5.71,0,0,0-.427.405,1.428,1.428,0,0,0-.209,1.466c.11.223.232.242.481.114.514-.265,1.024-.544,1.557-.766a4.3,4.3,0,0,1,1.133-.3,4.657,4.657,0,0,1,1.052.057.648.648,0,0,1,.328.177.18.18,0,0,1-.092.317,1.273,1.273,0,0,1-.292.038,4.5,4.5,0,0,0-2.261.767,14.077,14.077,0,0,0-1.359.934,2.032,2.032,0,0,0-.83,1.345,1.753,1.753,0,0,0,.047.553c.033.161.142.2.291.131a2.239,2.239,0,0,0,.225-.139,7.583,7.583,0,0,1,2.615-1.109,6.354,6.354,0,0,1,1.141-.089.9.9,0,0,1,.434.15c.142.085.124.217-.028.295a.822.822,0,0,1-.279.084,6.41,6.41,0,0,0-3.25,1.422c-.4.313-.789.648-1.163,1a2.207,2.207,0,0,0-.775,1.569,1.379,1.379,0,0,0,.07.549c.205.506.48.541.926.3a1.045,1.045,0,0,0,.176-.156,8.81,8.81,0,0,1,3.467-2,2.809,2.809,0,0,1,1.166-.1,1.15,1.15,0,0,1,.479.2c.165.114.119.287-.08.347a.97.97,0,0,1-.29.038,2.637,2.637,0,0,0-1,.21,6.118,6.118,0,0,0-1.463.813,12.292,12.292,0,0,0-2.035,1.915,1.547,1.547,0,0,0-.251.429.784.784,0,0,0,.065.785c.1.145.173.309.261.463a.344.344,0,0,0,.462.2,1.684,1.684,0,0,0,.779-.395,8.555,8.555,0,0,1,3.278-1.919,4.233,4.233,0,0,1,1.467-.286.972.972,0,0,1,.262.032.156.156,0,0,1,.047.291,1.053,1.053,0,0,1-.265.123,10.922,10.922,0,0,0-2.063.93,7.622,7.622,0,0,0-1.889,1.584,2.012,2.012,0,0,0-.553,1.678,1.415,1.415,0,0,0,.34.738.55.55,0,0,0,.5.2,2.2,2.2,0,0,0,1.158-.459,13.916,13.916,0,0,1,3.393-2.16,2.871,2.871,0,0,1,1.2-.261,1.151,1.151,0,0,1,.423.1c.182.081.183.231.013.329a1.556,1.556,0,0,1-.3.129,7.667,7.667,0,0,0-2.448,1.387c-.539.425-1.05.889-1.55,1.359a6.271,6.271,0,0,0-.725.85,1.9,1.9,0,0,0-.345,1.339.55.55,0,0,0,.6.52,1.3,1.3,0,0,0,.92-.321,17.958,17.958,0,0,1,2.557-1.84,8.983,8.983,0,0,1,3.038-1.156,2.735,2.735,0,0,1,.728.035c.061.007.114.088.17.135-.047.057-.082.138-.142.163a5.21,5.21,0,0,1-.5.179,9.358,9.358,0,0,0-2.782,1.449c-.579.439-1.144.9-1.7,1.368a6.941,6.941,0,0,0-1.168,1.4.948.948,0,0,0-.081,1.058.444.444,0,0,0,.391.262,2.1,2.1,0,0,0,1.487-.439,22.392,22.392,0,0,1,3.652-2.371,12.133,12.133,0,0,1,2.356-.914.557.557,0,0,1,.231-.037.305.305,0,0,1,.207.122.262.262,0,0,1-.059.229,1.527,1.527,0,0,1-.316.212c-.654.379-1.314.75-1.963,1.137a24.676,24.676,0,0,0-3.241,2.45,2.773,2.773,0,0,0-.45.541c-.152.217-.279.451-.414.679a1.334,1.334,0,0,0,.032,1.452,1.077,1.077,0,0,0,1.44.393,5.045,5.045,0,0,0,.6-.381,33.042,33.042,0,0,1,3.87-2.527,9.868,9.868,0,0,1,1.918-.824,1.972,1.972,0,0,1,.43-.085.234.234,0,0,1,.19.1.293.293,0,0,1-.036.239.91.91,0,0,1-.271.222,39.455,39.455,0,0,0-5.863,4.2c-.173.145-.348.288-.523.431a2.9,2.9,0,0,0-.869,1.242.776.776,0,0,0,.887,1.067,2.064,2.064,0,0,0,.657-.244c.458-.267.908-.549,1.343-.852a24.2,24.2,0,0,1,3.367-2,28.013,28.013,0,0,0,6.251-4.182c.425-.365.856-.723,1.289-1.078a.985.985,0,0,1,.329-.185.238.238,0,0,1,.308.332,3.839,3.839,0,0,1-.373.666,3.624,3.624,0,0,1-.472.563c-.972.932-1.937,1.87-2.933,2.775a11.663,11.663,0,0,1-2.605,1.708,33.133,33.133,0,0,0-3.38,1.859c-.964.642-1.908,1.315-2.849,1.992a1.808,1.808,0,0,0-.659,1.184,1.132,1.132,0,0,0,.932,1.446,1.545,1.545,0,0,0,.814.016c.218-.062.445-.09.655-.168a2.563,2.563,0,0,0,.6-.3,27.722,27.722,0,0,1,2.4-1.553c.324-.183.628-.4.934-.616a40.913,40.913,0,0,1,3.694-2.2,21.842,21.842,0,0,0,2.158-1.378,12.059,12.059,0,0,0,1.892-1.811c.321-.357.63-.727.96-1.077a.894.894,0,0,1,.549-.373.689.689,0,0,1-.042.628,10.889,10.889,0,0,1-1.287,2.142q-.416.516-.847,1.021a6.878,6.878,0,0,1-1.462,1.274c-1.387.913-2.828,1.736-4.275,2.55a20.66,20.66,0,0,0-3.067,2.085c-.589.489-1.159,1-1.736,1.507a2.338,2.338,0,0,0-.773,1.356,1.3,1.3,0,0,0,.924,1.393,1.015,1.015,0,0,0,.49-.022,3.867,3.867,0,0,0,1.4-.724,16.15,16.15,0,0,1,2.105-1.512c1.1-.686,2.189-1.389,3.287-2.079,1.014-.639,2.053-1.24,3.044-1.911a20.569,20.569,0,0,0,4.455-3.964c.205-.251.417-.5.629-.742.171-.2.308-.247.452-.165a.37.37,0,0,1,.109.522c-.278.5-.562.992-.882,1.462a13.705,13.705,0,0,1-2.82,2.952,14.967,14.967,0,0,1-1.426,1.042,45.286,45.286,0,0,0-4.209,2.871c-.779.611-1.627,1.136-2.413,1.74a12.268,12.268,0,0,0-1.393,1.267,3.941,3.941,0,0,0-.906,1.536,1.449,1.449,0,0,0,.02.953,2.3,2.3,0,0,0,.673.987.963.963,0,0,0,1.357-.02q2.066-1.824,4.138-3.641c.333-.29.7-.548,1.049-.812,1.07-.8,2.136-1.6,3.215-2.391q1.75-1.277,3.524-2.521c.6-.423,1.231-.81,1.849-1.21a11.873,11.873,0,0,0,2.509-2.129c.246-.281.505-.55.767-.817a31.343,31.343,0,0,0,2.771-3.44c.549-.751.986-1.584,1.477-2.377.207-.334.419-.664.639-.989a.736.736,0,0,1,.234-.218c.162-.095.3,0,.277.188a.868.868,0,0,1-.059.228c-.185.485-.35.981-.562,1.456a20.542,20.542,0,0,1-2.387,4.22,42.019,42.019,0,0,1-2.835,3.388,9.978,9.978,0,0,1-1.9,1.58,4.562,4.562,0,0,0-.409.288,39.523,39.523,0,0,1-3.324,2.341,39.831,39.831,0,0,0-4.847,3.6c-.462.41-.951.793-1.444,1.166a11.4,11.4,0,0,0-1.894,1.848c-.181.219-.376.428-.576.631a2.454,2.454,0,0,0-.578.843,5.6,5.6,0,0,1-.263.625,1.231,1.231,0,0,0,.259,1.486,1.67,1.67,0,0,0,.8.526,1.122,1.122,0,0,0,.488.04,1.649,1.649,0,0,0,.977-.554,31.315,31.315,0,0,1,2.922-2.951,9.947,9.947,0,0,1,1.71-1.2c1.461-.81,2.888-1.674,4.275-2.606.22-.147.442-.294.675-.421a17.318,17.318,0,0,0,3.015-2.155l1.253-1.074a9.54,9.54,0,0,0,1.462-1.572q.552-.747,1.128-1.476a8.347,8.347,0,0,0,.837-1.315c.574-1.1,1.154-2.19,1.719-3.291.183-.357.325-.734.5-1.1.034-.072.115-.174.17-.171a.283.283,0,0,1,.22.144,1.129,1.129,0,0,1,.066.514,5.8,5.8,0,0,1-.279,1.021,33.955,33.955,0,0,1-2.073,4.587,22.072,22.072,0,0,1-1.984,2.78,22.181,22.181,0,0,1-4.014,3.886,15.186,15.186,0,0,1-1.651,1.022c-1.023.584-2.078,1.115-3.083,1.728a26.427,26.427,0,0,0-5.206,4.131,4.222,4.222,0,0,0-1.032,1.732,1.811,1.811,0,0,0,.269,1.653,1.891,1.891,0,0,0,.717.681,1.526,1.526,0,0,0,1.6-.253c.273-.255.545-.511.811-.772a20.5,20.5,0,0,1,2.645-2.208c1.263-.883,2.535-1.755,3.793-2.647,1.587-1.126,3.174-2.251,4.707-3.447a17.365,17.365,0,0,0,3.508-3.432c.333-.46.612-.959.921-1.437a2.561,2.561,0,0,1,.335-.444c.143-.14.292-.087.306.11a1.655,1.655,0,0,1-.05.578,7.615,7.615,0,0,1-1.253,2.484,17.676,17.676,0,0,1-1.864,2.047c-.445.43-.923.824-1.386,1.234-.133.117-.267.232-.4.348q-1.278,1.115-2.556,2.228c-.111.1-.236.176-.355.263l-2.214,1.614c-.357.26-.7.532-1.073.775a19.326,19.326,0,0,0-2.454,1.881q-1.38,1.266-2.725,2.566a2.336,2.336,0,0,0-.634,1.868,1.085,1.085,0,0,0,.772.911,2.181,2.181,0,0,0,1.73-.231c.911-.542,1.859-1.026,2.741-1.612a49.161,49.161,0,0,0,6.253-4.766c.591-.548,1.215-1.059,1.821-1.589a13.526,13.526,0,0,0,2.2-2.532,17.615,17.615,0,0,0,1.226-2.179,4.656,4.656,0,0,1,.438-.7c.137-.183.266-.153.323.069a1.1,1.1,0,0,1,.015.435,6.118,6.118,0,0,1-.711,2.019c-.418.744-.862,1.475-1.322,2.2a13.326,13.326,0,0,1-1.573,1.832,50.129,50.129,0,0,1-4.639,4.313,41.74,41.74,0,0,1-4.546,3.213c-.714.45-1.434.9-2.106,1.408a1.949,1.949,0,0,0-.792,1.919,1.267,1.267,0,0,0,.316.655.774.774,0,0,0,.59.288,1.18,1.18,0,0,1,.118,0,2.124,2.124,0,0,0,1.317-.308,17.372,17.372,0,0,0,2.172-1.408c1.811-1.4,3.638-2.779,5.439-4.192a30.084,30.084,0,0,0,3.049-2.779c.353-.364.643-.792.972-1.183q.814-.971,1.643-1.928c.088-.1.192-.216.352-.153.115.045.167.239.113.422a1.167,1.167,0,0,1-.128.3,42.447,42.447,0,0,1-2.432,3.688,31.165,31.165,0,0,1-2.965,3.2c-1.558,1.485-3.14,2.944-4.8,4.315a5.217,5.217,0,0,1-.627.438c-.47.284-.958.543-1.422.837a6.154,6.154,0,0,1-2.637.942,2.483,2.483,0,0,1-.934,0,1.825,1.825,0,0,1-1.243-.956,7.581,7.581,0,0,1-.4-.945c-.643-1.889-1.386-3.738-2.107-5.6a25.127,25.127,0,0,0-1.785-3.613,15.9,15.9,0,0,0-2.948-3.585c-.366-.342-.737-.679-1.094-1.031-.244-.241-.473-.5-.7-.759-.668-.773-1.342-1.541-1.991-2.33-.474-.576-.942-1.161-1.359-1.779a39.625,39.625,0,0,1-2.936-4.9c-.15-.308-.284-.625-.413-.942-.254-.628-.487-1.267-.754-1.89a13.748,13.748,0,0,1-.659-2.044c-.225-.885-.5-1.756-.736-2.638-.1-.36-.131-.735-.2-1.1a2.228,2.228,0,0,0-.087-.371,20.678,20.678,0,0,0-1.191-2.66c-.368-.682-.8-1.331-1.2-2a22.741,22.741,0,0,1-1.46-2.59c-.13-.3-.294-.577-.446-.863-.064-.12-.138-.234-.22-.373a5.479,5.479,0,0,1-1.674.132,7.269,7.269,0,0,1-2.084-.348,4.463,4.463,0,0,1-2.008-1.393,1.552,1.552,0,0,1-.253-1.5,2.866,2.866,0,0,1,.963-1.452c.612-.525,1.242-1.027,1.865-1.538.067-.056.136-.108.2-.162-.128-.29-.247-.569-.372-.845a5.151,5.151,0,0,1-.254-3.205c.081-.412.173-.822.266-1.259-.089-.006-.173-.019-.256-.018a8.747,8.747,0,0,1-3.4-.728,3.888,3.888,0,0,1-2.324-2.857,3.915,3.915,0,0,1,.053-1.755,1,1,0,0,1,.5-.666,5.481,5.481,0,0,1,.9-.429,36.88,36.88,0,0,1,4.192-1.182c.086-.019.171-.04.288-.066,0-.127.005-.251,0-.375a4.311,4.311,0,0,1,.1-1.463c.041-.136-.031-.222-.114-.312a3.808,3.808,0,0,1-.875-1.584,2.443,2.443,0,0,1,.149-1.692c.023-.052.045-.1.071-.165-.046-.039-.079-.074-.118-.1a7.745,7.745,0,0,1-1.975-1.965c-.2-.277-.386-.569-.584-.851a1.766,1.766,0,0,1-.306-.938c-.032-.51-.075-1.019-.121-1.527a1.835,1.835,0,0,0-.079-.4,10.118,10.118,0,0,0-1.19-2.652,1.089,1.089,0,0,1-.1-.177.536.536,0,0,1,.448-.777.944.944,0,0,1,.482.091,13.226,13.226,0,0,1,3.363,2.359c.837.86,1.7,1.7,2.526,2.561.393.411.741.864,1.124,1.314a2.372,2.372,0,0,1,1.12-.01,2.4,2.4,0,0,1,.61.2,11.164,11.164,0,0,1,1.116.659,3.166,3.166,0,0,1,.862.835c.2.293.391.587.585.879.858-.119,1.7-.235,2.534-.43s1.682-.288,2.525-.419c.864-.135,1.728-.261,2.592-.391a28.234,28.234,0,0,1,6.347-.254,18.094,18.094,0,0,1,2.842.487c.7.168,1.4.366,2.1.563a3.63,3.63,0,0,1,1.467.847,17.134,17.134,0,0,1,2,2.237,42.9,42.9,0,0,1,4.2,6.328c.568,1.086,1.052,2.217,1.546,3.34a1.151,1.151,0,0,0,.652.67,9.232,9.232,0,0,1,1.576.856c.091.058.181.117.27.18.54.374,1.072.762,1.624,1.119.412.266.856.48,1.274.736.444.272.872.568,1.31.851a3.7,3.7,0,0,1,1.348,1.674,7.544,7.544,0,0,1,.617,3.273,30.109,30.109,0,0,0,.161,3.857c.172,1.525.453,3.032.734,4.539q.308,1.651.52,3.319c.071.562.032,1.138.047,1.707.017.656.031,1.314.063,1.972.03.628.1,1.254.119,1.882.039,1.237.067,2.475.077,3.714.009.953-.028,1.906-.023,2.859.007,1.17.016,2.339.06,3.507a39.444,39.444,0,0,0,.63,5.113,39.478,39.478,0,0,0,1.586,6,19.947,19.947,0,0,1,.71,2.733c.011.059.02.116.027.176.038.352.032.36-.287.512-.211.1-.421.2-.65.311-.03-.061-.055-.1-.071-.143a31.753,31.753,0,0,1-1.087-3.481c-.313-1.267-.67-2.523-.982-3.791a38.995,38.995,0,0,1-.814-4.551c-.1-.79-.2-1.579-.274-2.372-.051-.557-.069-1.118-.075-1.677-.011-.895.006-1.789,0-2.683-.006-1.22-.029-2.437-.028-3.656q0-1.623-.131-3.239c-.1-1.263-.147-2.531-.245-3.795-.052-.684-.161-1.364-.248-2.046-.133-1.053-.263-2.106-.406-3.157-.092-.671-.221-1.337-.307-2.009-.105-.818-.2-1.638-.267-2.46-.113-1.37-.184-2.745-.307-4.114a6.478,6.478,0,0,0-.539-1.952.966.966,0,0,0-.289-.364q-1.08-.842-2.179-1.66c-.338-.252-.687-.492-1.043-.72-.637-.405-1.283-.8-1.926-1.194a.525.525,0,0,0-.1-.017,1.815,1.815,0,0,0,.046.212,6.171,6.171,0,0,0,1.675,2.317c.607.587,1.2,1.191,1.794,1.79.1.1.179.209.268.314a3.127,3.127,0,0,1,.681,1.782c.136,1.291.208,2.585.247,3.883.006.205.014.412.029.617a1.552,1.552,0,0,1-.138.8,1.061,1.061,0,0,1-.2.288.33.33,0,0,1-.55-.061,1.034,1.034,0,0,1-.149-.438c-.071-.861-.165-1.725-.174-2.588a9.3,9.3,0,0,0-.408-2.609,2.98,2.98,0,0,0-.941-1.4c-.372-.32-.731-.656-1.081-1a3.329,3.329,0,0,1-.355-.469c-.347-.488-.681-.986-1.042-1.464a8.4,8.4,0,0,1-1.038-1.844c-.28-.67-.558-1.344-.8-2.025a25.426,25.426,0,0,0-1.781-3.81,43.281,43.281,0,0,0-4.895-6.992,4.385,4.385,0,0,0-2.9-1.812,38.381,38.381,0,0,0-4.178-.872,7.729,7.729,0,0,0-1.294-.019c-.579.016-1.161.021-1.735.09-1.238.146-2.474.318-3.707.5q-2.04.3-4.075.629c-.746.122-1.486.278-2.226.432-.373.077-.741.183-1.109.281a.825.825,0,0,0-.239.109.333.333,0,0,0-.129.482,2.2,2.2,0,0,0,.237.373c.412.513.832,1.019,1.25,1.526a.055.055,0,0,0,.035.01c.019-.383.025-.771.063-1.154a3.761,3.761,0,0,1,.153-.628.776.776,0,0,1,.1-.21.3.3,0,0,1,.349-.154c.143.052.173.172.178.308.006.216.015.431.028.646a4.654,4.654,0,0,0,.4,1.5,1.83,1.83,0,0,0,.476.665,1.4,1.4,0,0,0,.264.185c.14.075.293.152.441.035.13-.1.074-.252.051-.386a5.231,5.231,0,0,1,.035-2.137,3.991,3.991,0,0,1,.3-.762,1.188,1.188,0,0,1,.237-.3.216.216,0,0,1,.292-.059.486.486,0,0,1,.15.262.754.754,0,0,1-.042.258,5.531,5.531,0,0,0,.362,3.315.812.812,0,0,0,1.2.414.827.827,0,0,0,.423-.807,13.9,13.9,0,0,1,.086-2.675,2.811,2.811,0,0,1,.384-1.076c.138-.239.293-.329.436-.267s.2.242.153.5a9.235,9.235,0,0,0,.022,2.787,2.038,2.038,0,0,0,.125.483.745.745,0,0,0,.716.52,5.412,5.412,0,0,0,1.464-.04.719.719,0,0,0,.576-.625,2.085,2.085,0,0,0,.017-.411,7.9,7.9,0,0,1,.112-1.7,2.8,2.8,0,0,1,.44-1.084,2.678,2.678,0,0,1,.246-.293.239.239,0,0,1,.3-.062.243.243,0,0,1,.129.273,2.378,2.378,0,0,1-.055.289,7.517,7.517,0,0,0-.1,2.637,1.292,1.292,0,0,0,.692,1.038.724.724,0,0,0,1.072-.368,3.78,3.78,0,0,0,.292-1.256,4.526,4.526,0,0,1,.4-1.887c.126-.244.278-.474.42-.708a.612.612,0,0,1,.092-.115c.1-.1.2-.207.359-.137.116.05.165.2.117.392-.052.209-.133.412-.181.622a5.79,5.79,0,0,0,.039,3.027,1.8,1.8,0,0,0,.241.5.489.489,0,0,0,.736.184,1.865,1.865,0,0,0,.871-.887,5.9,5.9,0,0,1,1.064-1.653,8.681,8.681,0,0,1,.887-.77.971.971,0,0,1,.4-.159.266.266,0,0,1,.221.093.288.288,0,0,1-.006.243,1.15,1.15,0,0,1-.2.252,7.3,7.3,0,0,0-1.483,2.557,2.9,2.9,0,0,0-.152,1.19,2.635,2.635,0,0,0,.13.51.191.191,0,0,0,.256.132.947.947,0,0,0,.6-.4,6.733,6.733,0,0,1,2.423-2.062,2.334,2.334,0,0,1,.38-.157.432.432,0,0,1,.228-.014.207.207,0,0,1,.1.375,1.355,1.355,0,0,1-.163.126,7.622,7.622,0,0,0-2.229,2.442,3.069,3.069,0,0,0-.287,2.285,1.333,1.333,0,0,0,.276.508.391.391,0,0,0,.6.021,2.994,2.994,0,0,0,.3-.322,7.535,7.535,0,0,1,2.137-1.829,5.089,5.089,0,0,1,.836-.361.991.991,0,0,1,.461-.017.164.164,0,0,1,.081.293.873.873,0,0,1-.238.17,5.328,5.328,0,0,0-1.42,1.089,12.316,12.316,0,0,0-1.512,1.918,1.751,1.751,0,0,0-.177,1.282.563.563,0,0,0,.895.316,5.8,5.8,0,0,0,.744-.573c.289-.252.55-.534.839-.785a4.179,4.179,0,0,1,1.3-.8,2.442,2.442,0,0,1,.482-.131.937.937,0,0,1,.375.029c.071.021.168.108.171.17a.463.463,0,0,1-.117.246c-.024.035-.083.05-.129.066a2.669,2.669,0,0,0-1.074.707c-.506.533-1.009,1.074-1.469,1.648a1.9,1.9,0,0,0-.45,1.425c.037.329.161.44.484.4a1.5,1.5,0,0,0,.656-.242,4.881,4.881,0,0,1,1.8-.837,2.993,2.993,0,0,1,1.055-.025,1.043,1.043,0,0,1,.253.074c.1.044.2.105.187.237s-.12.17-.229.19c-.144.027-.293.034-.435.07a3.135,3.135,0,0,0-.645.2,5.976,5.976,0,0,0-2.151,1.7c-.375.492-.783.958-1.157,1.451a4.824,4.824,0,0,0-.75,1.429,1.084,1.084,0,0,0,.309,1.182c.658.633,1.331,1.251,2,1.876.065.061.127.123.188.188a11.6,11.6,0,0,0,1.127,1.075c.513.408.966.892,1.452,1.335.647.588,1.308,1.16,1.95,1.753a16.614,16.614,0,0,1,1.346,1.318,3.393,3.393,0,0,1,.885,1.893,2.3,2.3,0,0,1-.259,1.313,5.291,5.291,0,0,1-2.056,2.178,2.477,2.477,0,0,1-2.042.265,4.03,4.03,0,0,1-.733-.373,7.259,7.259,0,0,1-1.718-1.372c-.868-.923-1.791-1.794-2.68-2.7-.786-.8-1.556-1.61-2.334-2.416-.219-.226-.444-.445-.661-.674-.155-.163-.3-.332-.451-.5s-.26-.219-.461-.12a1.778,1.778,0,0,0-.41.282,10.73,10.73,0,0,1-2.13,1.469c-.163.09-.33.174-.5.247a.221.221,0,0,0-.161.242c.019.471.024.942.039,1.414a.593.593,0,0,1-.117.413c-.2.251-.508.25-.639-.039-.162-.356-.284-.731-.41-1.1a9.613,9.613,0,0,0-.88-1.855,24.932,24.932,0,0,0-2.16-2.755c-.334-.413-.666-.827-1.016-1.226q-.584-.664-1.2-1.3a10.464,10.464,0,0,1-1.277-1.54c-.311-.477-.657-.932-.971-1.407-.575-.866-1.139-1.741-1.707-2.613C-444.263,16014.928-444.327,16014.832-444.4,16014.727Zm-9.366-13.4a2.179,2.179,0,0,0,.389,1c.234.322.337.322.559-.016a2.253,2.253,0,0,1,.843-.717,2.114,2.114,0,0,1,.381-.155,1.042,1.042,0,0,1,1.029.167c.883.7,1.774,1.4,2.648,2.114a7.719,7.719,0,0,1,1.244,1.374c.288.386.578.771.877,1.148.56.709,1.151,1.4,1.68,2.127.329.454.688.876,1.048,1.3.694.82,1.473,1.553,2.234,2.307q1.318,1.307,2.583,2.668c.849.913,1.655,1.868,2.5,2.786q2.671,2.909,5.366,5.8c.949,1.022,1.911,2.033,2.864,3.054.932,1,1.836,2.022,2.8,2.993.738.747,1.542,1.428,2.313,2.142a2.55,2.55,0,0,0,1.269.58,1.362,1.362,0,0,0,1.021-.165,5.224,5.224,0,0,0,.744-.572c.164-.151.276-.357.432-.519a2.374,2.374,0,0,0,.561-.988,1.247,1.247,0,0,0-.051-.944,5.627,5.627,0,0,0-1.222-1.649q-1.721-1.611-3.47-3.193c-1.34-1.212-2.693-2.41-4.04-3.613-.029-.025-.06-.051-.089-.077-.836-.773-1.685-1.535-2.505-2.325-.927-.895-1.831-1.812-2.836-2.619-.874-.7-1.739-1.411-2.56-2.174q-2.061-1.917-4.153-3.8c-.773-.7-1.557-1.384-2.355-2.052a10.868,10.868,0,0,0-1.219-.875,3.346,3.346,0,0,0-1.165-.473,1.952,1.952,0,0,1-.793-.3,15.441,15.441,0,0,1-1.349-.994,16.2,16.2,0,0,1-1.472-1.486,14.153,14.153,0,0,1-1.059-1.448,1.519,1.519,0,0,1-.211-1.161.678.678,0,0,1,.547-.613,4.293,4.293,0,0,0,.561-.179c.184-.065.222-.155.1-.3a4.458,4.458,0,0,0-1.161-1.157c-.172-.095-.35-.178-.525-.267a2.012,2.012,0,0,0-2.175.136,6.17,6.17,0,0,0-1.913,2.092A2.135,2.135,0,0,0-453.762,16001.322Zm14.5,6.588c.07-.269.114-.5.192-.716a2.329,2.329,0,0,1,.252-.493.254.254,0,0,1,.313-.1.252.252,0,0,1,.149.265c0,.216,0,.432,0,.647a3.083,3.083,0,0,0,.272,1.284.63.63,0,0,0,.574.386.178.178,0,0,0,.211-.118,4.089,4.089,0,0,0,.158-.531,2.718,2.718,0,0,1,.689-1.377.842.842,0,0,1,.363-.232c.208-.06.329.107.248.313-.014.036-.036.068-.05.105a4.006,4.006,0,0,0-.023,3.123,1.926,1.926,0,0,0,.694.858.437.437,0,0,0,.651-.088.886.886,0,0,0,.218-.5,5.875,5.875,0,0,1,.628-2.164,2.713,2.713,0,0,1,.31-.463c.143-.172.3-.21.408-.13.153.11.1.254.061.4a11.1,11.1,0,0,0-.417,3,2.554,2.554,0,0,0,.526,1.561,1.334,1.334,0,0,0,.263.274.415.415,0,0,0,.6-.075,1.117,1.117,0,0,0,.267-.64,5.07,5.07,0,0,1,.354-1.6,3.376,3.376,0,0,1,.211-.42.238.238,0,0,1,.3-.127.412.412,0,0,1,.209.218,1.106,1.106,0,0,1,.016.378c-.032.657-.069,1.313-.1,1.971a3.735,3.735,0,0,0,.182,1.188.923.923,0,0,0,.395.533.613.613,0,0,0,.956-.395,4.189,4.189,0,0,1,.186-.588.614.614,0,0,1,.173-.232.241.241,0,0,1,.422.171,2.5,2.5,0,0,1,.006.324,2.9,2.9,0,0,0,.5,1.549.438.438,0,0,0,.7.047.639.639,0,0,0,.167-.569,2.427,2.427,0,0,0-.479-1.03,6.644,6.644,0,0,1-.446-.622c-.409-.7-.817-1.41-1.2-2.129a13.592,13.592,0,0,1-1.244-3.172,1.175,1.175,0,0,0-.5-.739,7.755,7.755,0,0,0-1.812-.967,6.7,6.7,0,0,0-1.9-.364,24.649,24.649,0,0,1-2.983-.328,1.747,1.747,0,0,0-.812.054c-.692.217-1.39.414-2.086.621-.193.059-.384.124-.577.188l-.025.072C-440.476,16006.953-439.908,16007.452-439.26,16007.91Zm.407,12.192-.018.046c.228.342.455.686.686,1.026a3.1,3.1,0,0,0,.221.276q.834.971,1.671,1.941c.045.053.1.1.138.154q.345.42.689.843c.322.4.638.8.967,1.187.158.187.2.191.4.08a14.435,14.435,0,0,0,2.033-1.3c.212-.171.415-.354.633-.539-.389-.422-.749-.823-1.127-1.209a.873.873,0,0,0-.359-.187c-.56-.18-1.14-.31-1.684-.529-1.283-.516-2.551-1.073-3.825-1.613C-438.567,16020.217-438.71,16020.161-438.853,16020.1Zm-18.726-9.445c-.015-.111-.026-.207-.041-.3a3.664,3.664,0,0,1,.136-1.427.255.255,0,0,1,.223-.207.282.282,0,0,1,.3.136,1.1,1.1,0,0,1,.115.3c.036.152.056.309.078.465a3.717,3.717,0,0,0,.655,1.685,1.18,1.18,0,0,0,.9.536.535.535,0,0,0,.571-.812l-.013-.026a3.559,3.559,0,0,1-.343-2.542,1.343,1.343,0,0,1,.133-.355.293.293,0,0,1,.293-.162.3.3,0,0,1,.253.22,1.373,1.373,0,0,1,.067.286c.029.2.052.409.072.613a3.294,3.294,0,0,0,.307,1.133,1.238,1.238,0,0,0,.252.355.352.352,0,0,0,.265.059.217.217,0,0,0,.175-.239c-.013-.521,0-1.043-.042-1.561-.037-.459-.131-.913-.208-1.367-.05-.3-.114-.592-.171-.881-.588.184-1.148.36-1.711.531-.835.255-1.673.5-2.507.76a5.826,5.826,0,0,0-.544.224.32.32,0,0,0-.2.266,2.769,2.769,0,0,0,.536,2.168A.343.343,0,0,0-457.579,16010.657Zm15.484,5.312c.058-.119.085-.19.125-.254a6.45,6.45,0,0,1,.449-.685c.154-.187.331-.222.436-.14.152.118.072.269.042.407a4.06,4.06,0,0,0-.167,1.19,7.391,7.391,0,0,0,.374,1.389.677.677,0,0,0,1.166.18,1.279,1.279,0,0,0,.237-.622,6.59,6.59,0,0,1,.182-.8.26.26,0,0,1,.251-.215.3.3,0,0,1,.276.23.945.945,0,0,1,.053.2c.022.155.03.313.057.468a2.061,2.061,0,0,0,.3.917c.252.338.525.66.8.977a2.319,2.319,0,0,0,1.167.652.441.441,0,0,0,.282-.016.582.582,0,0,0,.169-.892c-.558-.62-1.125-1.233-1.679-1.857-.788-.889-1.567-1.786-2.348-2.681-.166-.19-.324-.388-.475-.57l-2.608.712ZM-457,15992.624c.087.257.167.517.264.771a4.191,4.191,0,0,1,.28,1.229c.028.461.064.92.1,1.38a.718.718,0,0,0,.076.308,10.435,10.435,0,0,0,2.163,2.7,1.411,1.411,0,0,0,.127.081,5.511,5.511,0,0,1,1.816-1.744l-.776-.954a1.583,1.583,0,0,0-.156.065,1.644,1.644,0,0,1-1.058.164,1.129,1.129,0,0,1-1.012-.859,1.655,1.655,0,0,1,.222-1.388A9.091,9.091,0,0,0-457,15992.624Zm4.071,26.938c-.072.06-.126.1-.177.146-.512.458-1.026.915-1.534,1.377a2.142,2.142,0,0,0-.357.39,2.7,2.7,0,0,0-.271.551.41.41,0,0,0,.1.435,3.529,3.529,0,0,0,2.234,1.135c.111.017.217.008.251-.127-.014-.022-.02-.045-.034-.056a2.275,2.275,0,0,1-.884-1.666.89.89,0,0,1,.046-.371.276.276,0,0,1,.264-.2.271.271,0,0,1,.251.174c.112.207.231.411.336.621a1.714,1.714,0,0,0,1.232.869,1.333,1.333,0,0,0,.264,0C-451.865,16021.753-452.229,16020.589-452.932,16019.562Zm25.544-2.381-2.5-.777,1.743,1.558Zm-16.6-6.664-.053.019.083,1.119h1.022Zm1.926,2.534.007-.085a4.636,4.636,0,0,0-.544-.034c-.343.019-.684.06-1.025.091l-.371.031.332.457Zm-12.258-18.04c.02.544.1.618.529.547a1.615,1.615,0,0,0-.113-.136C-454.026,15995.3-454.15,15995.178-454.32,15995.011Z"/>
    <path id="Path_288" data-name="Path 288" d="M-418.711,16066.831c.37-.3.737-.613,1.112-.911.676-.538,1.359-1.066,2.035-1.6.362-.287.724-.574,1.067-.883.584-.524,1.163-1.057,1.725-1.6.309-.3.582-.636.866-.962.218-.252.435-.506.639-.77.433-.559.856-1.126,1.287-1.686a1.259,1.259,0,0,1,.282-.3.386.386,0,0,1,.315-.071c.075.04.113.2.119.3a.672.672,0,0,1-.084.309,6.734,6.734,0,0,1-.314.6,35.037,35.037,0,0,1-2.316,3.515,21.418,21.418,0,0,1-1.54,1.7c-.429.445-.895.854-1.342,1.281a1.081,1.081,0,0,1-.481.269c-.937.252-1.871.517-2.808.771-.178.048-.362.072-.543.107Z"/>
    <path id="Path_289" data-name="Path 289" d="M-424.384,16020.406a.55.55,0,0,1-.565-.641,1.028,1.028,0,0,1,.225-.467c.631-.687,1.258-1.378,1.925-2.027a5.922,5.922,0,0,1,1.987-1.241,2.975,2.975,0,0,1,.622-.164.3.3,0,0,1,.381.194c.044.148-.02.262-.2.384-.48.321-.976.624-1.431.979a7.667,7.667,0,0,0-.946.924c-.524.585-1.026,1.19-1.535,1.788A.632.632,0,0,1-424.384,16020.406Z"/>
    <path id="Path_290" data-name="Path 290" d="M-418.018,16018.229a.681.681,0,0,1,.205.006c.057.018.132.066.144.116s-.035.121-.069.176a.255.255,0,0,1-.1.063,4.227,4.227,0,0,0-1,.767,15.374,15.374,0,0,0-1.641,1.844c-.264.354-.532.7-.8,1.055a1.361,1.361,0,0,1-.133.157.534.534,0,0,1-.649.1.556.556,0,0,1-.259-.632.832.832,0,0,1,.126-.263,11.694,11.694,0,0,1,2.959-2.917,4.1,4.1,0,0,1,.618-.336,4.745,4.745,0,0,1,.587-.168Z"/>
    <path id="Path_291" data-name="Path 291" d="M-419.359,16024.817a.527.527,0,0,1-.524-.609.881.881,0,0,1,.143-.348,12.288,12.288,0,0,1,2.344-2.588,5.158,5.158,0,0,1,1.275-.783c.261-.109.41-.087.5.06s.038.292-.183.471a12.759,12.759,0,0,0-2.517,2.786c-.17.251-.356.493-.541.734A.66.66,0,0,1-419.359,16024.817Z"/>
    <path id="Path_292" data-name="Path 292" d="M-411.075,16064.759c.241-.229.492-.447.718-.688a8.2,8.2,0,0,0,.7-.827c.441-.614.857-1.245,1.289-1.864.045-.064.146-.146.2-.133a.351.351,0,0,1,.2.183.576.576,0,0,1,.036.287,1.1,1.1,0,0,1-.074.313,10.227,10.227,0,0,1-1.1,2.1.479.479,0,0,1-.216.187c-.57.174-1.145.334-1.718.5Z"/>
    <path id="Path_293" data-name="Path 293" d="M-417.007,16027.145a.522.522,0,0,1-.569-.337.538.538,0,0,1,.207-.6c.272-.239.536-.487.8-.735.136-.128.255-.272.4-.395.2-.172.411-.332.623-.491a.3.3,0,0,1,.38-.04.368.368,0,0,1,.121.423.784.784,0,0,1-.113.238c-.364.486-.725.975-1.106,1.447a2.023,2.023,0,0,1-.454.371A1.222,1.222,0,0,1-417.007,16027.145Z"/>
    <path id="Path_294" data-name="Path 294" d="M-421.09,16030.933a6.205,6.205,0,0,1-.616-.185,5.2,5.2,0,0,1-1.817-1.231q-1.055-1.109-2.086-2.243c-1.973-2.178-3.922-4.376-5.913-6.536-3.222-3.5-6.428-7.012-9.871-10.3-.809-.773-1.568-1.6-2.35-2.4a1.426,1.426,0,0,1-.395-.612.312.312,0,0,1,.036-.262.312.312,0,0,1,.264.012,1.815,1.815,0,0,1,.369.24c.451.365.911.719,1.342,1.107,2.236,2.01,4.446,4.048,6.529,6.22,2.537,2.644,5.048,5.313,7.5,8.038,1.433,1.591,2.9,3.154,4.342,4.735.318.349.6.73.923,1.072a8.163,8.163,0,0,0,.853.767c.268.213.565.39.85.582a.476.476,0,0,0,.578,0c.192-.135.375-.282.569-.413.066-.044.178-.1.227-.069.072.039.111.144.152.227.014.028-.006.076-.016.114A1.749,1.749,0,0,1-421.09,16030.933Z"/>
    <path id="Path_295" data-name="Path 295" d="M-452.325,16000.545a1.408,1.408,0,0,1,.13-.282,4.712,4.712,0,0,1,2.226-1.719.687.687,0,0,1,.626.03.363.363,0,0,1,.16.219c.018.115-.077.193-.185.237a.282.282,0,0,1-.056.017,2.573,2.573,0,0,0-1.384.791c-.261.249-.478.545-.72.815a2.185,2.185,0,0,1-.278.254.274.274,0,0,1-.33.027A.419.419,0,0,1-452.325,16000.545Z"/>
  </g>
</svg>
