<svg xmlns="http://www.w3.org/2000/svg" width="48.177" height="82.866" viewBox="0 0 48.177 82.866">
  <g id="Group_268" data-name="Group 268" transform="translate(453.514 -15743.999)">
    <path id="Path_268" data-name="Path 268" d="M-406.529,15821.371c0-.338,0-.612,0-.885a4.676,4.676,0,0,0-.034-.581c-.074-.5-.176-.986-.237-1.482a1.824,1.824,0,0,0-.218-.727c-.186-.312-.39-.612-.6-.911a7.4,7.4,0,0,1-1.113-2.23c-.067-.245-.175-.479-.234-.727a3.493,3.493,0,0,1-.124-.782c-.007-1.287.007-2.574.012-3.86,0-.227-.007-.452,0-.679.035-1.217.068-2.434.114-3.65.028-.727.074-1.451.12-2.177.04-.646.111-1.292.133-1.938a34.463,34.463,0,0,0-.005-3.594c-.091-1.274-.172-2.55-.261-3.823-.073-1.029-.117-2.062-.236-3.086-.116-.994-.3-1.981-.472-2.969-.342-1.963-.7-3.925-1.045-5.888-.143-.812-.246-1.633-.411-2.439a13.458,13.458,0,0,0-2.409-5.485c-.154-.2-.29-.421-.452-.618a6.219,6.219,0,0,0-.612-.676,44.8,44.8,0,0,1-3.666-3.749c-.6-.688-1.171-1.4-1.759-2.1a1.516,1.516,0,0,0-.3-.284q-2.051-1.414-4.107-2.817c-.016-.011-.036-.015-.027-.011l-1.814,2.277a1.971,1.971,0,0,0,1.178-.2c.348-.181.707-.338,1.067-.491a.859.859,0,0,1,.346-.051.2.2,0,0,1,.158.1.252.252,0,0,1-.041.21.857.857,0,0,1-.271.169,2.629,2.629,0,0,0-.88.631,1.518,1.518,0,0,0-.353.668.671.671,0,0,0,.3.714.521.521,0,0,0,.631.049,3.559,3.559,0,0,0,.525-.324,3.9,3.9,0,0,1,1.737-.759.856.856,0,0,1,.262-.022.215.215,0,0,1,.149.111.212.212,0,0,1-.045.182,1.1,1.1,0,0,1-.247.158,5.014,5.014,0,0,0-1.2.841.826.826,0,0,0-.276.686.394.394,0,0,0,.035.171,1.419,1.419,0,0,0,.762.519.625.625,0,0,0,.577-.131c.436-.284.872-.565,1.312-.842a1.479,1.479,0,0,1,.325-.136.256.256,0,0,1,.337.1c.072.13-.021.221-.111.3-.415.375-.832.75-1.245,1.127a.973.973,0,0,0-.3,1.29,2.123,2.123,0,0,0,.232.441.428.428,0,0,0,.7.076,5.89,5.89,0,0,1,1.533-.98,2.854,2.854,0,0,1,.392-.125c.1-.024.215,0,.24.111a.284.284,0,0,1-.068.229c-.219.2-.451.379-.684.56a6.474,6.474,0,0,0-1.107,1.056.792.792,0,0,0,.007,1.092c.139.165.3.308.442.474a.86.86,0,0,0,1.232-.021,13.832,13.832,0,0,1,1.145-1.059,3.335,3.335,0,0,1,.52-.332c.086-.05.19-.085.267.014s.024.188-.039.267c-.05.062-.11.113-.161.173-.314.363-.632.726-.94,1.1a1.969,1.969,0,0,0-.371.763.9.9,0,0,0,.5,1.1.964.964,0,0,0,1.16-.295c.39-.493.784-.982,1.177-1.474.03-.038.054-.092.094-.109.065-.03.16-.07.205-.044a.228.228,0,0,1,.078.2,1.152,1.152,0,0,1-.137.323c-.235.42-.478.835-.712,1.256-.081.146-.143.3-.218.45a1.552,1.552,0,0,0,.164,1.641,4.671,4.671,0,0,0,.342.479.458.458,0,0,0,.817-.052c.1-.146.185-.3.29-.444.246-.331.5-.657.75-.984a.488.488,0,0,1,.368-.221.314.314,0,0,1,0,.386c-.13.253-.272.5-.4.754-.14.271-.283.54-.406.818a1.731,1.731,0,0,0,.337,1.89.4.4,0,0,0,.681-.07q.344-.533.7-1.055a.728.728,0,0,1,.211-.2.206.206,0,0,1,.186-.015.294.294,0,0,1,.083.2.5.5,0,0,1-.068.192c-.17.376-.352.746-.51,1.128a4.858,4.858,0,0,0-.254.778,2.036,2.036,0,0,0,.393,1.613.269.269,0,0,0,.434.044,1.744,1.744,0,0,0,.271-.379c.069-.117.11-.252.175-.372a.965.965,0,0,1,.139-.161l.072.021a1.228,1.228,0,0,1,.021.295,7.717,7.717,0,0,1-.186.892,3.169,3.169,0,0,0,.04,1.91c.167.523.332,1.048.468,1.579a2.77,2.77,0,0,1,.045.7,1.016,1.016,0,0,1-.1.291l-.067.009a1.855,1.855,0,0,1-.112-.21,36.44,36.44,0,0,0-2.577-5.161,18.492,18.492,0,0,0-2.214-3.046c-.87-.975-1.707-1.979-2.645-2.891-.7-.679-1.4-1.349-2.09-2.037a6.232,6.232,0,0,1-1.568-2.5c-.135-.42-.313-.827-.471-1.239a1.309,1.309,0,0,0-.472-.625c-.145-.1-.278-.22-.428-.313a18.485,18.485,0,0,1-4.367-3.835c-.229-.269-.467-.53-.7-.793q-.785-.86-1.572-1.717a4.785,4.785,0,0,0-1.254-1.014.706.706,0,0,0-.537-.093,3.949,3.949,0,0,0-.75.243,1.314,1.314,0,0,0-.661.965c-.063.3.1.475.41.446a1.323,1.323,0,0,0,.363-.108,2.7,2.7,0,0,1,1.268-.2.628.628,0,0,1,.229.044c.061.031.14.1.139.155s-.076.128-.135.166a.521.521,0,0,1-.2.046,3.413,3.413,0,0,0-1.51.628,1.206,1.206,0,0,0-.527,1.362c.109.387.263.483.649.372a3.087,3.087,0,0,0,.616-.274,7.143,7.143,0,0,1,2.157-.762.646.646,0,0,1,.29,0,.256.256,0,0,1,.145.158.208.208,0,0,1-.086.168,1.589,1.589,0,0,1-.266.119c-.35.156-.705.3-1.046.472a5.1,5.1,0,0,0-1.685,1.448,1.86,1.86,0,0,0-.328,1.535.658.658,0,0,0,.047.14c.227.551.66.636,1.074.2a8.566,8.566,0,0,1,2.445-1.822,12.245,12.245,0,0,1,1.231-.484,1.051,1.051,0,0,1,.434-.05.329.329,0,0,1,.219.16c.054.1-.033.186-.12.239a2.486,2.486,0,0,1-.313.162,8.979,8.979,0,0,0-3.279,2.584,2.1,2.1,0,0,0-.523,1.408.775.775,0,0,0,1.1.7,1.739,1.739,0,0,0,.407-.283c.542-.47,1.057-.973,1.619-1.416a7.631,7.631,0,0,1,2.873-1.312,1.3,1.3,0,0,1,.495,0,.265.265,0,0,1,.172.165c.027.1-.072.146-.162.171a8.467,8.467,0,0,0-1.731.806,6.367,6.367,0,0,0-1.439,1.116c-.363.359-.736.712-1.07,1.1a4.688,4.688,0,0,0-.567.855.791.791,0,0,0,.033.866.767.767,0,0,0,.924.309,2.592,2.592,0,0,0,.61-.344,8.272,8.272,0,0,0,.672-.618,9.975,9.975,0,0,1,3.1-2.105c.426-.177.867-.315,1.3-.466a.663.663,0,0,1,.258-.034.173.173,0,0,1,.122.1.176.176,0,0,1-.063.144.9.9,0,0,1-.206.111,13.2,13.2,0,0,0-4.675,3.79,3.881,3.881,0,0,0-.466.815.8.8,0,0,0,.026.739,4.4,4.4,0,0,0,.377.6.645.645,0,0,0,.956.142,4.474,4.474,0,0,0,.535-.461c.5-.489.968-1.006,1.484-1.474a10.189,10.189,0,0,1,2.661-1.827,3.8,3.8,0,0,1,.556-.19.632.632,0,0,1,.363.024.653.653,0,0,1-.118.135c-.091.058-.191.1-.288.149a8.444,8.444,0,0,0-2.761,2.352c-.715.872-1.345,1.814-2.012,2.726a2.632,2.632,0,0,0-.476,1.524,2.141,2.141,0,0,0,.332,1.175,1.2,1.2,0,0,0,.383.357.554.554,0,0,0,.687-.023,2.38,2.38,0,0,0,.447-.462c.314-.451.607-.917.9-1.38a11.482,11.482,0,0,1,3-3.17c.415-.3.846-.572,1.272-.853.1-.067.22-.115.332-.174a.192.192,0,0,1-.016.319q-.3.267-.6.525a15.08,15.08,0,0,0-2.036,2.083,33.255,33.255,0,0,0-2.5,3.884,9.061,9.061,0,0,0-.917,2.665,8.272,8.272,0,0,0-.2,1.842.75.75,0,0,0,.19.57.32.32,0,0,0,.426.068.808.808,0,0,0,.363-.372c.4-.757.775-1.523,1.2-2.266.467-.818.986-1.606,1.464-2.418a14.557,14.557,0,0,1,2.042-2.658,9.607,9.607,0,0,1,2.189-1.822c.106-.06.206-.166.348-.08.035.144-.091.186-.163.255a17.6,17.6,0,0,0-3.1,3.951c-.67,1.152-1.236,2.365-1.835,3.56-.533,1.061-1.048,2.132-1.568,3.2a9.666,9.666,0,0,0-.712,1.931,5.154,5.154,0,0,0,.032,2.163c.043.242.089.482.146.722a1.323,1.323,0,0,0,.126.328c.152.279.3.313.572.136a1.488,1.488,0,0,0,.449-.572,24.694,24.694,0,0,0,1.08-2.353,29.758,29.758,0,0,1,1.38-2.732c.765-1.351,1.478-2.729,2.268-4.064a23,23,0,0,1,2.611-3.7c.124-.139.253-.273.39-.4.113-.1.12-.1.321-.02a.887.887,0,0,1-.213.405,33.387,33.387,0,0,0-2.621,4.57c-.559,1.213-1.088,2.438-1.735,3.608-.308.558-.6,1.126-.859,1.709-.368.835-.689,1.69-1.041,2.532a20.3,20.3,0,0,1-1.034,2.244,4.6,4.6,0,0,0-.35.81,1.033,1.033,0,0,0,.2,1,.851.851,0,0,0,.981.127,2.231,2.231,0,0,0,.518-.473q.518-.7.983-1.432a47.935,47.935,0,0,0,2.5-4.171c.547-1.086,1.027-2.207,1.535-3.313q.72-1.566,1.438-3.133.411-.9.825-1.793c.043-.093.1-.177.161-.278a.273.273,0,0,1,.1.362c-.141.47-.269.944-.429,1.407-.677,1.958-1.355,3.916-2.049,5.868a18.729,18.729,0,0,1-1.314,2.862c-.579,1.038-1.162,2.074-1.736,3.115a13.729,13.729,0,0,1-1.473,2.128c-.923,1.109-1.823,2.242-2.789,3.313a20.288,20.288,0,0,1-3.111,2.746c-.435.319-.856.659-1.267,1.008-.756.643-1.514,1.283-2.245,1.953a16.877,16.877,0,0,0-2.5,2.971c-.454.663-.9,1.334-1.308,2.028a7.1,7.1,0,0,0-.6,1.371,2.686,2.686,0,0,0-.084.932.879.879,0,0,0,.438.7c.123.08.254.147.384.219a1.374,1.374,0,0,0,1.377-.019,4.726,4.726,0,0,0,1.56-1.278c.668-.848,1.311-1.721,2.027-2.526a37.769,37.769,0,0,1,4-3.955,39.811,39.811,0,0,0,3.354-3.1q1.288-1.355,2.543-2.745a10.772,10.772,0,0,0,1.6-2.566c.956-1.973,1.713-4.031,2.471-6.085.666-1.8,1.287-3.628,1.911-5.448.19-.557.32-1.134.485-1.7a2.071,2.071,0,0,1,.151-.31.338.338,0,0,1,.119.376c-.063.566-.1,1.137-.211,1.694a62.086,62.086,0,0,1-2.237,8.238c-.209.613-.379,1.239-.56,1.861a18.932,18.932,0,0,1-1.225,2.932,16.924,16.924,0,0,1-2.8,3.813,62.488,62.488,0,0,1-5.338,5.157c-.624.552-1.19,1.171-1.763,1.776-.547.578-1.093,1.158-1.593,1.775-.55.679-1.045,1.4-1.567,2.1-.187.253-.38.5-.575.748a4.725,4.725,0,0,0-.962,1.87,6.082,6.082,0,0,0-.106.787.858.858,0,0,0,.25.643.751.751,0,0,0,.87.147,2.537,2.537,0,0,0,.546-.346c.443-.388.884-.779,1.3-1.2.477-.479.927-.989,1.386-1.487.076-.082.192-.153.116-.338-.112.025-.233.045-.349.08a3.675,3.675,0,0,1-1.16.185,2.174,2.174,0,0,1-.628-.126.48.48,0,0,1-.241-.238.316.316,0,0,1,.247-.447c.791-.194,1.584-.378,2.375-.574.495-.122,1-.229,1.478-.4a3.33,3.33,0,0,0,1.41-.986c.7-.8,1.388-1.63,2.082-2.444a3.635,3.635,0,0,1,.393-.439,14.7,14.7,0,0,0,1.614-1.794,47.591,47.591,0,0,0,3.246-4.414c.473-.709.964-1.412,1.368-2.161.485-.9.918-1.825,1.319-2.763a36.752,36.752,0,0,0,2.007-6.371c.357-1.579.639-3.176.956-4.765a1.061,1.061,0,0,1,.069-.254.176.176,0,0,1,.131-.093.179.179,0,0,1,.125.1.651.651,0,0,1,.032.229,31.964,31.964,0,0,1-.246,4.264,36.244,36.244,0,0,1-.847,4.274,33.744,33.744,0,0,1-1.246,3.773,22.379,22.379,0,0,1-2.146,4.123c-.787,1.233-1.6,2.452-2.455,3.64a25.213,25.213,0,0,1-2.311,2.633c-.312.325-.587.688-.876,1.033a.821.821,0,0,0-.066.132c.19-.032.353-.055.514-.087q.894-.179,1.788-.361a3.679,3.679,0,0,0,2.3-1.327,25.39,25.39,0,0,0,2.069-3.01,28.331,28.331,0,0,0,1.807-3.736c.514-1.36,1.049-2.712,1.553-4.074.186-.506.311-1.034.459-1.553.158-.558.31-1.116.467-1.674a1.475,1.475,0,0,1,.084-.188.361.361,0,0,1,.217.4,14.675,14.675,0,0,1-.1,1.469,26.414,26.414,0,0,1-1.28,4.589,58.6,58.6,0,0,1-2.883,6.581.77.77,0,0,0-.134.647,2.352,2.352,0,0,0,.276-.158,5.212,5.212,0,0,0,1.076-1.125c.741-1.017,1.408-2.082,2.054-3.16.052-.086.105-.181.224-.139s.128.143.116.245c-.028.234-.044.471-.093.7a7.49,7.49,0,0,1-2.912,4.567c-.581.437-1.181.847-1.761,1.283a6.228,6.228,0,0,0-1.411,1.411c-.643.93-1.29,1.856-1.9,2.808a45.275,45.275,0,0,1-3.546,4.7q-1.329,1.579-2.76,3.067a12,12,0,0,0-1.579,1.822.3.3,0,0,1-.308.118c-.579-.024-1.158-.04-1.736-.078-.657-.042-1.312-.1-1.968-.159-.048,0-.1-.013-.167-.024-.084-.33-.15-.668-.254-.991-.364-1.132-.739-2.259-1.117-3.385a3.681,3.681,0,0,0-.236-.474c-.519-1.026-1.054-2.043-1.548-3.081a2.11,2.11,0,0,0-.975-.986,8.839,8.839,0,0,1-2-1.443q-.693-.64-1.388-1.278a8.035,8.035,0,0,1-1.305-1.513c-.722-1.111-1.451-2.218-2.171-3.331a2.459,2.459,0,0,1-.231-.478,17.77,17.77,0,0,0-1.2-2.358,4.558,4.558,0,0,0-.622-.82,11.45,11.45,0,0,1-1.264-1.771,17.241,17.241,0,0,0-1.117-1.662,5.4,5.4,0,0,1-.872-1.66,13.259,13.259,0,0,1-.507-2.176c-.149-1.02-.365-2.028-.556-3.041a1.681,1.681,0,0,0-.088-.312,8.817,8.817,0,0,0-1.071-1.992,6.841,6.841,0,0,0-1.511-1.437,3.463,3.463,0,0,1-1.2-1.567c-.313-.753-.653-1.494-.952-2.252a9.223,9.223,0,0,1-.517-1.563,3.954,3.954,0,0,1,.133-2.352,11.7,11.7,0,0,1,1.456-2.687,11.173,11.173,0,0,1,1.15-1.3,3.424,3.424,0,0,1,2.3-.912c.087,0,.174,0,.284,0,.007-.1.015-.189.019-.273a9.4,9.4,0,0,1,.559-3.029,4.893,4.893,0,0,1,1.981-2.348,5.84,5.84,0,0,1,3.3-1c.067,0,.133-.011.213-.018l.136-1.1c-.139,0-.254,0-.369,0a4.2,4.2,0,0,1-1.439-.272,1.679,1.679,0,0,1-1.117-1.641,2.768,2.768,0,0,1,1.123-2.407c.39-.311.764-.641,1.158-.974a12.439,12.439,0,0,1-5.12-8.976,12.142,12.142,0,0,1,2.451-8.729,12.515,12.515,0,0,1,16.075-3.454,12.583,12.583,0,0,1,5.228,16.482c.363.271.724.556,1.1.819.564.394,1.142.766,1.706,1.16.41.285.814.584,1.21.891a5.4,5.4,0,0,1,.957.954c1.179,1.513,2.461,2.938,3.749,4.355.336.369.734.683,1.106,1.018a6.459,6.459,0,0,1,1.347,1.434,28.165,28.165,0,0,1,1.767,3.295,24.313,24.313,0,0,1,1.078,3.423c.411,1.57.641,3.177.935,4.77.218,1.178.444,2.355.6,3.543.143,1.09.207,2.19.286,3.288.047.646.054,1.3.081,1.944a2.9,2.9,0,0,0,.025.323c.273,1.814.231,3.647.325,5.472a35.557,35.557,0,0,1-.115,3.649c-.058,1.147-.2,2.288-.2,3.441,0,1.05-.071,2.1-.107,3.149-.008.227,0,.452,0,.679-.02.745-.045,1.492-.066,2.238a5.307,5.307,0,0,0,.262,1.856,8.223,8.223,0,0,0,.535,1.462c.187.333.4.647.6.978.239.405.487.809.7,1.229a3.017,3.017,0,0,1,.177.682c.145.682.3,1.36.422,2.046.086.5.133.346-.269.638C-405.932,15820.972-406.21,15821.153-406.529,15821.371Zm-29.985-62.874c.66.286,1.276.555,1.894.82s1.243.529,1.866.793,1.246.519,1.867.784,1.222.533,1.881.822l-.59.325a32.306,32.306,0,0,0,2.423,2.539,8.146,8.146,0,0,0,1.765-2.323c-.056-.011-.112-.025-.168-.034-.593-.083-1.187-.158-1.779-.249a2.909,2.909,0,0,1-1.006-.316c-.119-.067-.207-.161-.159-.312s.165-.155.288-.148l2.94.178c.134.008.269.012.4.018a10,10,0,0,0,.6-1.593.407.407,0,0,0-.1-.028q-.957.028-1.915.06a24.051,24.051,0,0,1-3.15-.043,2.39,2.39,0,0,1-.517-.1.258.258,0,0,1-.147-.187.333.333,0,0,1,.125-.209.381.381,0,0,1,.192-.065c.2-.029.409-.06.614-.074,1.42-.1,2.84-.2,4.26-.307.292-.021.584-.044.894-.066a9.808,9.808,0,0,0,.214-2.166c-.136.034-.248.063-.359.093-1.49.391-2.98.785-4.471,1.172a5.75,5.75,0,0,1-.752.138.32.32,0,0,1-.363-.19c-.042-.167.065-.253.188-.328a1.213,1.213,0,0,1,.152-.09c.4-.166.789-.358,1.2-.487,1.358-.425,2.723-.826,4.085-1.238.091-.026.18-.06.282-.095a9.558,9.558,0,0,0-.427-2.276c-.142.08-.252.144-.363.2-1.293.705-2.583,1.415-3.881,2.111a5.628,5.628,0,0,1-.793.309.6.6,0,0,1-.289.032.292.292,0,0,1-.2-.133.33.33,0,0,1,.057-.237.59.59,0,0,1,.178-.15c.227-.156.45-.317.685-.459q1.983-1.189,3.972-2.371c.108-.065.215-.132.335-.206a10.1,10.1,0,0,0-.887-1.776c-.231.2-.425.378-.635.539-1.239.952-2.477,1.9-3.725,2.843a5.767,5.767,0,0,1-.764.436.22.22,0,0,1-.312-.071c-.084-.127-.006-.223.08-.31a23.18,23.18,0,0,1,1.957-1.832c.9-.725,1.8-1.46,2.7-2.192a2.63,2.63,0,0,0,.186-.188,10.039,10.039,0,0,0-.935-1.113c-.066.052-.1.081-.141.111-.774.67-1.53,1.356-2.234,2.1-.236.25-.483.49-.731.728a1.539,1.539,0,0,1-.28.212.245.245,0,0,1-.326-.007.242.242,0,0,1-.03-.3,2.954,2.954,0,0,1,.226-.377,17.654,17.654,0,0,1,2.6-2.807c.093-.083.18-.173.305-.291l-1.279-1c-.073.108-.124.18-.169.253-.186.3-.364.606-.556.9-.314.487-.63.974-.959,1.45a1.645,1.645,0,0,1-.382.4.235.235,0,0,1-.377-.224.67.67,0,0,1,.057-.226c.085-.2.167-.4.269-.589.388-.717.784-1.43,1.176-2.145.05-.092.1-.186.148-.292a10.207,10.207,0,0,0-1.841-.824c-.055.364-.1.7-.156,1.037-.082.515-.162,1.028-.26,1.539-.051.27-.2.4-.377.375s-.267-.157-.255-.433c.024-.549.057-1.1.1-1.646.03-.369.088-.736.136-1.122a9.359,9.359,0,0,0-2.376-.34c.062.34.116.639.17.938a7.939,7.939,0,0,1,.162,1.786.809.809,0,0,1-.093.361.222.222,0,0,1-.4-.014,1.052,1.052,0,0,1-.1-.3c-.141-.672-.275-1.346-.416-2.019-.054-.256-.122-.51-.184-.771a8.657,8.657,0,0,0-1.895.226c.139.372.27.711.392,1.053q.3.831.582,1.667a.583.583,0,0,1-.017.514.406.406,0,0,1-.223.161c-.111.027-.168-.066-.212-.163q-.615-1.386-1.235-2.77c-.039-.087-.08-.174-.127-.275a10.158,10.158,0,0,0-2.013.79c.376.534.729,1.041,1.088,1.543.182.255.382.5.561.757a.823.823,0,0,1,.147.346.369.369,0,0,1-.108.251.2.2,0,0,1-.27,0,2.752,2.752,0,0,1-.229-.185,10.878,10.878,0,0,1-1.691-2c-.07-.1-.144-.2-.226-.32a11.042,11.042,0,0,0-1.662,1.218c.157.134.282.243.413.347.494.389.993.771,1.483,1.165a4.873,4.873,0,0,1,.541.5.292.292,0,0,1,.029.425c-.13.128-.247.05-.371-.021a26.441,26.441,0,0,1-2.51-1.648c-.069-.053-.143-.1-.23-.152a11.208,11.208,0,0,0-1.571,2.026c.191.048.342.082.492.125.622.177,1.245.351,1.863.541a.877.877,0,0,1,.342.218.234.234,0,0,1-.151.423,1.6,1.6,0,0,1-.466-.04c-.557-.114-1.112-.241-1.669-.355-.276-.058-.555-.1-.837-.147a9.69,9.69,0,0,0-.742,1.891c.275.019.519.038.763.052.764.041,1.529.079,2.294.123a1.02,1.02,0,0,1,.344.067.267.267,0,0,1,.152.183.282.282,0,0,1-.144.192.713.713,0,0,1-.309.088q-1.189.056-2.382.094c-.3.01-.6,0-.926,0a8.476,8.476,0,0,0-.241,1.917c.2-.042.374-.085.546-.112q1.353-.208,2.707-.409c.2-.03.408-.062.613-.078.177-.014.3.068.315.2.018.152-.08.232-.2.288a.757.757,0,0,1-.11.044c-.368.1-.732.222-1.1.3-.863.188-1.73.355-2.6.533a1.173,1.173,0,0,0-.19.074,9.535,9.535,0,0,0,.207,1.8c.1-.032.172-.053.243-.079q.735-.264,1.468-.53c.637-.229,1.273-.462,1.911-.688a3.321,3.321,0,0,1,.425-.115.239.239,0,0,1,.3.117c.063.142-.015.245-.126.326a1.676,1.676,0,0,1-.171.115c-.239.136-.47.289-.72.4-.952.418-1.911.822-2.867,1.232-.087.037-.172.079-.252.114a4.878,4.878,0,0,0,.6,1.575c.143-.083.285-.172.432-.25.986-.528,1.97-1.062,2.963-1.578.347-.181.718-.315,1.08-.467.23-.1.372-.069.441.069s.006.26-.207.4c-.107.07-.219.133-.328.2l-3.771,2.247c-.09.054-.174.118-.284.192l.716,1.146c.084-.049.135-.076.183-.107.848-.569,1.7-1.137,2.543-1.71.316-.217.619-.45.928-.676.091-.065.185-.123.294-.036a.217.217,0,0,1,.069.288,1.746,1.746,0,0,1-.263.42,6.523,6.523,0,0,1-.715.657c-.724.558-1.46,1.1-2.192,1.646l-.3.22a10.832,10.832,0,0,0,1.054,1.1c.379-.358.723-.71,1.094-1.03.676-.584,1.368-1.15,2.053-1.725a.276.276,0,0,1,.347-.063.287.287,0,0,1,.081.371,1.289,1.289,0,0,1-.215.348c-.25.277-.509.546-.772.81-.562.563-1.13,1.121-1.694,1.684-.061.061-.115.13-.184.21a10.535,10.535,0,0,0,1.7,1.1c.064-.108.119-.2.171-.293.5-.9,1-1.8,1.509-2.7.174-.308.364-.605.549-.906a.238.238,0,0,1,.275-.124.236.236,0,0,1,.183.238.731.731,0,0,1-.007.2,4.121,4.121,0,0,1-.162.564,28.277,28.277,0,0,1-1.554,3.107c-.051.09-.1.184-.155.3a9.629,9.629,0,0,0,1.976.619c.033-.111.056-.186.078-.261q.559-1.969,1.119-3.937c.063-.22.2-.325.372-.307a.389.389,0,0,1,.322.368.75.75,0,0,1,0,.206c-.045.281-.083.564-.149.84-.229.966-.469,1.928-.7,2.891-.029.12-.05.242-.078.383a10.545,10.545,0,0,0,2.042.081c-.024-.49-.05-.951-.067-1.411a11.074,11.074,0,0,1,.088-2.352,5.416,5.416,0,0,1,.835-2.245,2.035,2.035,0,0,0,.111-.214c-.4-.178-.768-.351-1.145-.512-1.063-.454-2.128-.9-3.189-1.357a.654.654,0,0,1-.3-.223c-.181-.31-.332-.637-.507-.98.337-.183.661-.361.99-.533a4.648,4.648,0,0,0,1.659-1.33,2.357,2.357,0,0,0,.406-1.979,3.822,3.822,0,0,0-.153-.437l-4.444,2.371c.039-.494.075-.932.106-1.369a.3.3,0,0,1,.207-.259c.262-.132.521-.27.78-.408l1.607-.86c.307-.166.613-.334.979-.534a4.312,4.312,0,0,0-.613-.313,2.657,2.657,0,0,0-1.892.189c-.691.3-1.35.675-2.023,1.018-.12.061-.24.121-.395.2.04-.5.079-.949.113-1.4.008-.1.075-.146.158-.187.271-.139.538-.282.806-.426.681-.367,1.361-.738,2.044-1.1.666-.355,1.337-.7,2-1.059.692-.37,1.378-.749,2.069-1.121.133-.072.275-.126.432-.2,0,.1.005.167,0,.234-.03.342-.076.683-.09,1.024a.4.4,0,0,1-.266.377c-.474.236-.942.484-1.411.73-.091.048-.175.108-.251.157l1.138.911,2.084-1.1c.028.046.047.063.046.078-.037.42-.081.84-.114,1.26a.285.285,0,0,1-.174.249c-.27.141-.54.278-.808.42-.137.073-.27.154-.4.226a.484.484,0,0,0,0,.111,3.65,3.65,0,0,1-.466,3.2A5.653,5.653,0,0,1-436.514,15758.5Zm.533,14.9a.586.586,0,0,1-.294.62c-.187.126-.385.236-.572.363a13.57,13.57,0,0,0-2.507,2.04,1.455,1.455,0,0,0-.349.945.476.476,0,0,0,.217.426.85.85,0,0,0,.988.021c.131-.087.258-.18.384-.272a14.249,14.249,0,0,1,3.5-1.8,5.215,5.215,0,0,1,.917-.194c.086-.015.2,0,.208.109a.357.357,0,0,1-.1.2.355.355,0,0,1-.122.08c-.3.168-.6.341-.9.5a11.378,11.378,0,0,0-2.6,1.813,4.082,4.082,0,0,0-1.018,1.529.823.823,0,0,0,.145.932.852.852,0,0,0,.917.24,1.925,1.925,0,0,0,.563-.3c.3-.234.562-.523.869-.751a17.951,17.951,0,0,1,3.1-1.811,4.646,4.646,0,0,1,.616-.2c.091-.027.194-.034.226.066a.342.342,0,0,1-.06.211.28.28,0,0,1-.111.093,13.54,13.54,0,0,0-1.96,1.457c-.7.6-1.386,1.22-2.068,1.842a1.756,1.756,0,0,0-.526.938.62.62,0,0,0,.247.7,2.97,2.97,0,0,0,.687.316.673.673,0,0,0,.681-.177,12.273,12.273,0,0,1,2.692-1.787c.339-.176.695-.32,1.05-.463a.926.926,0,0,1,.373-.055.225.225,0,0,1,.168.13c.017.057-.034.14-.068.205-.016.03-.061.046-.094.067-.5.343-1.011.678-1.508,1.027a11.136,11.136,0,0,0-1.706,1.535,2.876,2.876,0,0,0-.212.282.7.7,0,0,0,.24,1.016,1.84,1.84,0,0,0,.69.23,3.148,3.148,0,0,0,1.69-.3,1.338,1.338,0,0,0,.524-.416,5.474,5.474,0,0,0,1.224-3.13,3.859,3.859,0,0,0-.21-1.565c-.27-.653-.541-1.308-.86-1.937-.409-.8-.87-1.583-1.3-2.375q-.537-.98-1.061-1.97c-.051-.1-.144-.2-.024-.354a1.293,1.293,0,0,1,.331.13,3.7,3.7,0,0,1,.605.51c.312.351.609.718.886,1.1.322.443.614.908.925,1.36.272.4.541.795.832,1.177.186.245.364.271.686.154a1.351,1.351,0,0,0-.067-.187c-.281-.528-.551-1.064-.851-1.582a28.456,28.456,0,0,0-1.688-2.377c-.8-1.1-1.678-2.153-2.386-3.327a2.93,2.93,0,0,0-1.088-.972.571.571,0,0,0-.223-.06,2.382,2.382,0,0,0-1.019.106c-.93.31-1.862.617-2.782.954a1.952,1.952,0,0,0-1.111,1.158.89.89,0,0,0-.06.315c-.007.182.074.23.235.156.053-.024.1-.06.155-.084.6-.265,1.193-.556,1.808-.783a7.753,7.753,0,0,1,1.258-.29,1.32,1.32,0,0,1,.466.025.317.317,0,0,1,.275.3.316.316,0,0,1-.233.307c-.073.027-.151.044-.224.07a7.944,7.944,0,0,0-.851.327c-.646.331-1.289.672-1.912,1.044a3.536,3.536,0,0,0-.737.626,1.546,1.546,0,0,0-.428,1.012.515.515,0,0,0,.592.564.87.87,0,0,0,.469-.228,11.6,11.6,0,0,1,2.232-1.365,4.12,4.12,0,0,1,.814-.239A1.693,1.693,0,0,1-435.981,15773.393Zm-10.218,3.512c.06-.007.082,0,.1-.014a.98.98,0,0,0,.122-.082,9.761,9.761,0,0,1,2.042-1.165,6.467,6.467,0,0,1,.951-.3,1.881,1.881,0,0,1,.555-.021.231.231,0,0,1,.165.135.269.269,0,0,1-.085.2.753.753,0,0,1-.2.114,7.8,7.8,0,0,0-1.016.524q-1.068.76-2.083,1.591a2.887,2.887,0,0,0-1.069,1.813,1.457,1.457,0,0,0-.027.145c-.012.21.1.289.3.206a1.177,1.177,0,0,0,.2-.121c.593-.4,1.172-.828,1.78-1.206a7.757,7.757,0,0,1,2.372-1.015,1.039,1.039,0,0,1,.32-.03c.171.016.243.161.136.292a.949.949,0,0,1-.277.206c-.223.124-.459.224-.675.359a21.986,21.986,0,0,0-3.208,2.534,2.42,2.42,0,0,0-.733,1.914.448.448,0,0,0,.409.463.684.684,0,0,0,.531-.124c.28-.2.559-.4.82-.623a9.656,9.656,0,0,1,3.436-1.946q.324-.1.653-.179c.105-.025.232-.037.279.092s-.06.173-.143.227a1.107,1.107,0,0,1-.128.073c-.281.139-.562.28-.845.417a6.362,6.362,0,0,0-1.647,1.126c-.575.551-1.15,1.1-1.734,1.643a2.085,2.085,0,0,0-.587,1.068,1.025,1.025,0,0,0,.783,1.281.227.227,0,0,0,.236-.065c.579-.516,1.156-1.033,1.745-1.538a10.423,10.423,0,0,1,2.4-1.529,10.068,10.068,0,0,1,.967-.352c.11-.039.222-.031.271.1s-.045.2-.141.255a14.445,14.445,0,0,0-2.126,1.578,11.556,11.556,0,0,0-1.6,1.642,2.161,2.161,0,0,0-.368.732.486.486,0,0,0,.067.477,1.674,1.674,0,0,0,.47.386,1.2,1.2,0,0,0,1.48-.281,14.323,14.323,0,0,1,2.363-1.849,4.671,4.671,0,0,1,.79-.386.881.881,0,0,1,.374-.057c.175.007.234.146.131.29a1.038,1.038,0,0,1-.188.185c-.387.319-.772.639-1.165.95a9.98,9.98,0,0,0-1.393,1.394c-.2.231-.194.358,0,.6a1.365,1.365,0,0,0,.937.434,3.115,3.115,0,0,0,1.387-.2,1.944,1.944,0,0,0,.735-.42,5.544,5.544,0,0,0,.739-.912,1.718,1.718,0,0,0,.262-1.43,4.7,4.7,0,0,0-.19-.68,11.35,11.35,0,0,0-1.955-3.474,11.061,11.061,0,0,1-1.54-2.33c-.453-.968-.857-1.961-1.243-2.959a7.57,7.57,0,0,1-.54-2.285,2.225,2.225,0,0,0-.1-.408c-.309.021-.592.048-.875.061a4.431,4.431,0,0,0-1.989.584,3.324,3.324,0,0,0-1.239,1.193A1.189,1.189,0,0,0-446.2,15776.9Zm19.5,16.188c-.022,0-.046,0-.058.012-.052.046-.1.094-.15.143a15.85,15.85,0,0,1-3.953,2.9,23.25,23.25,0,0,0-2.408,1.3q-.526.352-1.056.7a15.4,15.4,0,0,0-2.154,1.593c-.886.836-1.774,1.671-2.63,2.537-.745.753-1.454,1.544-2.166,2.329a1.721,1.721,0,0,0-.419,1.229,4.5,4.5,0,0,0,.6,2.1.818.818,0,0,0,1.344.2c.211-.176.422-.353.624-.539.333-.3.675-.6.983-.93a28.157,28.157,0,0,1,2.114-2.135,8.656,8.656,0,0,0,.638-.61,22.709,22.709,0,0,1,2.4-2.3c2.056-1.612,4.1-3.243,6.287-4.678.237-.156.461-.335.686-.51s.22-.176.126-.437c-.1-.277-.209-.553-.285-.837C-426.354,15794.478-426.521,15793.792-426.7,15793.092Zm-.4-6.311-.069-.016a.312.312,0,0,0-.059.055c-.3.479-.611.959-.912,1.441a15.308,15.308,0,0,1-1.661,1.984,1.8,1.8,0,0,1-.244.213c-.309.242-.625.475-.932.721a24.884,24.884,0,0,1-3.5,2.224c-1.156.645-2.382,1.162-3.508,1.866a23.76,23.76,0,0,0-2.516,1.743,27.368,27.368,0,0,0-2.674,2.613,6.815,6.815,0,0,0-1.07,1.51,3.586,3.586,0,0,0-.386,1.439.96.96,0,0,0,.279.72.34.34,0,0,0,.368.122,4.4,4.4,0,0,0,.449-.137,4.772,4.772,0,0,0,1.464-1.023q1.092-1.009,2.19-2.014a25.422,25.422,0,0,1,3.034-2.179c.96-.647,1.952-1.249,2.945-1.847.6-.364,1.226-.7,1.859-1.016a15.825,15.825,0,0,0,2.426-1.443,13.265,13.265,0,0,0,2.486-2.329.876.876,0,0,0,.187-.68c-.063-.792-.117-1.586-.151-2.381C-427.12,15787.841-427.1,15787.311-427.1,15786.781Zm-.683-4.181a3.55,3.55,0,0,0-1.33,1.3c-.214.362-.414.735-.628,1.1a3.094,3.094,0,0,1-1.011,1.053,3.935,3.935,0,0,1-1.625.572,3.2,3.2,0,0,0-1.5.562c-.381.276-.756.563-1.131.848a.793.793,0,0,0-.187.186,7.282,7.282,0,0,1-1.122,1.205,4.786,4.786,0,0,1-2.014,1.175.51.51,0,0,0-.3.22c-.211.308-.429.61-.66.9a2.8,2.8,0,0,1-2.006,1.1c-.235.021-.471.039-.7.08a1.72,1.72,0,0,0-.5.15,11.1,11.1,0,0,0-3.406,2.77,2.393,2.393,0,0,0-.588,1.476,1.106,1.106,0,0,0,1,1.073,1.5,1.5,0,0,0,.962-.312q.86-.671,1.707-1.354c.6-.487,1.168-1.029,1.806-1.464a32.971,32.971,0,0,1,3.517-2.032,42.446,42.446,0,0,0,4.148-2.229,17.5,17.5,0,0,0,1.981-1.324c.243-.214.5-.418.752-.616a9.563,9.563,0,0,0,1.432-1.4,18.209,18.209,0,0,0,1.534-2.159c.15-.242.3-.481.44-.732a.482.482,0,0,0,.069-.33C-427.34,15783.825-427.561,15783.229-427.785,15782.6Zm2.585,14.942a1,1,0,0,0-.113.056c-.626.475-1.257.944-1.876,1.427q-1.86,1.449-3.709,2.911a23.679,23.679,0,0,0-2.682,2.39c-1.357,1.463-2.641,2.988-3.9,4.535a5,5,0,0,0-1.177,2.774,1.34,1.34,0,0,0,.461,1.124.44.44,0,0,0,.494.1,2.27,2.27,0,0,0,.706-.405c.429-.443.817-.927,1.208-1.405.361-.44.686-.911,1.06-1.339q.912-1.043,1.87-2.043c.495-.516,1.016-1.01,1.544-1.494.5-.457,1.019-.893,1.537-1.33.412-.348.818-.709,1.256-1.021a23.335,23.335,0,0,0,4.578-4.311,2.127,2.127,0,0,0,.117-.181A6.67,6.67,0,0,1-425.2,15797.543Zm-3.4,28.736c.072-.076.133-.139.192-.2,1.086-1.2,2.166-2.411,3.259-3.608,1.485-1.625,2.915-3.3,4.257-5.042.76-.987,1.474-2.011,2.209-3.019a.811.811,0,0,0,.093-.149.22.22,0,0,0-.177-.327,1.3,1.3,0,0,0-.378.029c-.336.07-.673.141-1,.23a7.664,7.664,0,0,0-1.236.372,9.76,9.76,0,0,0-2.089,1.306,19.86,19.86,0,0,0-2.967,2.9c-.6.73-1.206,1.449-1.785,2.192a6,6,0,0,0-1.281,2.616,2.955,2.955,0,0,0,.3,2.132A1.268,1.268,0,0,0-428.6,15826.279Zm-22.462-39.214c.086-.111.159-.2.229-.294.261-.344.507-.7.786-1.029a4.91,4.91,0,0,1,1.736-1.339.962.962,0,0,1,.216-.092.206.206,0,0,1,.174.05.208.208,0,0,1-.01.183.536.536,0,0,1-.164.166,6.748,6.748,0,0,0-1.761,2.076,2.07,2.07,0,0,0-.316,1,.847.847,0,0,0,.5.8.692.692,0,0,0,.781-.339c.041-.055.08-.112.123-.166.166-.206.325-.42.5-.616a3.336,3.336,0,0,1,.881-.774c.107-.057.228-.173.344-.047.134.146-.022.244-.1.352-.388.566-.786,1.128-1.161,1.7a1.215,1.215,0,0,0-.223.838.455.455,0,0,0,.776.325,2.474,2.474,0,0,0,.359-.346c.267-.3.516-.618.792-.91a4.223,4.223,0,0,1,.524-.427c.08-.06.177-.1.265-.01a.2.2,0,0,1,0,.271c-.077.125-.161.245-.242.368l-.81,1.23a.842.842,0,0,0-.161.526.514.514,0,0,0,.3.5.5.5,0,0,0,.6-.182c.323-.33.647-.66.989-.968a3.425,3.425,0,0,1,.586-.39.217.217,0,0,1,.2,0,.244.244,0,0,1,.018.21.933.933,0,0,1-.159.243c-.214.269-.441.527-.643.806a1.6,1.6,0,0,0-.213.448.287.287,0,0,0,.153.373.917.917,0,0,0,.3.1,1.856,1.856,0,0,0,1.364-.44c.2-.144.377-.314.575-.461a3.286,3.286,0,0,1,.428-.257c.091-.048.213-.058.261.045a.32.32,0,0,1-.014.268,5.4,5.4,0,0,1-.366.422,1.247,1.247,0,0,0-.189.258c-.076.159-.032.276.131.326a1.1,1.1,0,0,0,.432.061,6.7,6.7,0,0,0,.986-.165,2.145,2.145,0,0,0,1.261-1.041c.008-.014,0-.038,0-.058s-.026-.031-.043-.037a.515.515,0,0,0-.113-.027,7.8,7.8,0,0,1-2.375-.647,7.963,7.963,0,0,1-3.43-2.877,11.1,11.1,0,0,1-1.342-2.582,12.187,12.187,0,0,1-.557-3.271c-.006-.075-.018-.151-.03-.257a3.049,3.049,0,0,0-2.172.579,6.929,6.929,0,0,0-2.195,3.354,2.565,2.565,0,0,0-.05.445,1.33,1.33,0,0,0,.267-.152.945.945,0,0,0,.135-.228,6.245,6.245,0,0,1,2.847-2.724,1,1,0,0,1,.244-.1c.051-.01.112.028.228.063-.126.107-.2.179-.283.241a7.158,7.158,0,0,0-1.4,1.345,9,9,0,0,0-1.538,3.16,2,2,0,0,0,.084,1.384,5.9,5.9,0,0,0,.333.657.678.678,0,0,0,.63.363c.2-.01.275-.146.174-.323a1.83,1.83,0,0,0-.14-.189,3.838,3.838,0,0,1-.681-1.328.612.612,0,0,1,.034-.511c.014-.022.047-.032.08-.053Zm9.312-19.859c-.174.156-.338.294-.491.444-.267.26-.512.545-.791.791a1.86,1.86,0,0,0-.6,1.757.432.432,0,0,0,.219.361,2.487,2.487,0,0,0,1.413.249,2.415,2.415,0,0,1-.863-.594,1.1,1.1,0,0,1-.221-.306.235.235,0,0,1,.017-.214.241.241,0,0,1,.21-.033,2.358,2.358,0,0,1,.434.18,2.629,2.629,0,0,0,1.253.264.376.376,0,0,0,.219-.053c.124-.094.225-.219.348-.313s.255-.16.421-.262l-.3-.072a1.935,1.935,0,0,1-1.216-.813.532.532,0,0,1-.091-.183.187.187,0,0,1,.044-.155.269.269,0,0,1,.184-.032.384.384,0,0,1,.148.092,1.713,1.713,0,0,0,.741.34,3.407,3.407,0,0,0,1.515-.053,2.093,2.093,0,0,0,.238-.094A12.47,12.47,0,0,1-441.749,15767.206Zm-3.546,25.649-.021-.081c-.092-.025-.183-.055-.276-.076a4.186,4.186,0,0,1-1.224-.481c-.149-.092-.289-.2-.438-.3-.235-.147-.349-.127-.529.089a1.528,1.528,0,0,0-.331.773.637.637,0,0,0,.147.577,1.206,1.206,0,0,0,1.5.242c.325-.18.643-.372.959-.566A1.645,1.645,0,0,0-445.3,15792.855Zm-4.1-1.106a1.375,1.375,0,0,0,.865-.517c.079-.1.039-.179-.045-.254-.381-.339-.759-.681-1.141-1.019-.151-.135-.244-.127-.367.03a1.188,1.188,0,0,0-.168,1.17A1.149,1.149,0,0,0-449.393,15791.749Zm20.944-12.717c-.159.189-.282.338-.406.483a.392.392,0,0,0-.07.409,6,6,0,0,1,.3,1.788,1.491,1.491,0,0,0,.038.221c.212-.131.4-.241.587-.368a.264.264,0,0,0,.076-.176.77.77,0,0,0-.024-.232c-.116-.565-.232-1.131-.354-1.7C-428.334,15779.334-428.388,15779.212-428.449,15779.032Z"/>
    <path id="Path_269" data-name="Path 269" d="M-422.28,15826.784c.034-.044.067-.088.1-.13.917-1.051,1.851-2.085,2.828-3.081a29.9,29.9,0,0,0,3.2-3.924c1.137-1.638,2.165-3.345,3.2-5.047.665-1.091,1.285-2.2,1.892-3.326a3.745,3.745,0,0,1,.248-.4.441.441,0,0,1,.176-.146c.108-.049.2.015.2.136a.814.814,0,0,1-.038.26c-.176.521-.344,1.044-.542,1.556-.385,1-.748,2.007-1.2,2.977-.369.8-.838,1.553-1.277,2.318a36.557,36.557,0,0,1-2.872,4.312,35.05,35.05,0,0,1-2.395,2.716c-.483.5-.943,1.027-1.407,1.546a.408.408,0,0,1-.291.172c-.588.033-1.176.071-1.764.105C-422.234,15826.828-422.249,15826.807-422.28,15826.784Z"/>
    <path id="Path_270" data-name="Path 270" d="M-416.3,15825.862c.31-.382.578-.707.839-1.037.622-.784,1.3-1.528,1.846-2.369.84-1.282,1.57-2.626,2.278-3.985a31.311,31.311,0,0,0,1.4-2.887.542.542,0,0,1,.124-.2c.058-.054.152-.126.208-.11a.264.264,0,0,1,.145.192,4.121,4.121,0,0,1-.007.909c-.089.5-.227.993-.363,1.484a11.9,11.9,0,0,1-1.08,2.382,33.6,33.6,0,0,1-1.883,3.3c-.333.484-.7.944-1.068,1.406a.7.7,0,0,1-.295.227c-.647.23-1.3.443-1.951.66A1.806,1.806,0,0,1-416.3,15825.862Z"/>
    <path id="Path_271" data-name="Path 271" d="M-411.157,15823.931c.078-.121.121-.191.167-.26.4-.594.829-1.171,1.2-1.785s.677-1.262,1.011-1.895c.2-.373.389-.749.59-1.12a1.14,1.14,0,0,1,.189-.26.225.225,0,0,1,.174-.069.192.192,0,0,1,.1.151,3.114,3.114,0,0,1-.037.642,14.818,14.818,0,0,1-1.356,3.442.715.715,0,0,1-.344.345c-.487.233-.967.479-1.451.718C-410.974,15823.869-411.038,15823.886-411.157,15823.931Z"/>
  </g>
</svg>
