<svg xmlns="http://www.w3.org/2000/svg" width="89.023" height="64.671" viewBox="0 0 89.023 64.671">
  <g id="Group_264" data-name="Group 264" transform="translate(112.213 -15749.895)">
    <g id="Group_260" data-name="Group 260">
      <path id="Path_252" data-name="Path 252" d="M-63.281,15779.786l.006-10.271,1.606-1.6a8.408,8.408,0,0,0,.947.055h0a6.384,6.384,0,0,0,4.572-1.669c2-1.992,3.485-7.288,3.547-7.513l.195-.7-.694.221c-.233.074-5.719,1.84-7.457,3.574a6.913,6.913,0,0,0-1.671,5.48l-1.045,1.042,0-5.03a6.851,6.851,0,0,0,2.733-5.022c0-2.819-2.689-7.616-2.8-7.819l-.358-.635-.334.647-.094.185-.124.248-.077.157c-.684,1.4-2.316,4.93-2.443,6.974-.005.081-.008.16-.008.237a6.928,6.928,0,0,0,2.722,5.078l-.007,6.513-.968-.97a6.869,6.869,0,0,0-1.614-5.52c-1.992-2-7.288-3.485-7.512-3.548l-.7-.194.221.694c.075.231,1.84,5.718,3.575,7.456a6.594,6.594,0,0,0,4.636,1.713h0a7.67,7.67,0,0,0,.842-.043l1.521,1.524,0,8.7m.374.74"/>
    </g>
    <g id="Group_263" data-name="Group 263">
      <g id="Group_261" data-name="Group 261">
        <path id="Path_253" data-name="Path 253" d="M-68.588,15801.213c.068.047.112.083.162.111a23.905,23.905,0,0,0,3.24,1.515,1.816,1.816,0,0,0,.237.067.359.359,0,0,1,.223.625.545.545,0,0,1-.525.205,8.757,8.757,0,0,1-1.2-.244,16.681,16.681,0,0,1-3.519-1.53,6.547,6.547,0,0,1-2.087-2.058,2.463,2.463,0,0,0-1.935-1.131,13.522,13.522,0,0,0-2.949.115,16.872,16.872,0,0,1-2.359.089,4.6,4.6,0,0,1-1.6-.342,24.821,24.821,0,0,0-3.128-.961,11.176,11.176,0,0,0-1.42-.319,21.277,21.277,0,0,0-2.713-.23,2.683,2.683,0,0,1-2.658-1.541,1.626,1.626,0,0,1-.082-1.308,11.433,11.433,0,0,1,.618-1.521,6.584,6.584,0,0,1,.749-.967.665.665,0,0,1,.135-.1.7.7,0,0,0-.123-.107q-.875-.431-1.751-.854c-1.1-.532-2.191-1.069-3.231-1.708-.35-.216-.7-.427-1.061-.626a4.821,4.821,0,0,0-.471-.19c-.232-.1-.456-.216-.694-.294-.911-.3-1.843-.544-2.735-.894a12.226,12.226,0,0,1-1.875-.98,19.37,19.37,0,0,0-2.286-1.376,19.657,19.657,0,0,0-3.608-1.417,9.473,9.473,0,0,0-1.479-.217,3.157,3.157,0,0,0-1.89.576.9.9,0,0,0-.315.519.757.757,0,0,0,.3,1,12.155,12.155,0,0,1,.931.8.684.684,0,0,0,.965-.241c.116-.166.224-.338.342-.5a2.005,2.005,0,0,1,1.07-.833.719.719,0,0,1,.417.032.183.183,0,0,1,.046.334,3.043,3.043,0,0,0-.981,2.187,1.158,1.158,0,0,0,.441,1.113c.133.105.278.2.4.316a.682.682,0,0,0,.934.011,3.372,3.372,0,0,0,.606-.644,5.922,5.922,0,0,1,1.018-1.191c.22-.178.4-.218.571-.12a.208.208,0,0,1,.086.317c-.271.5-.545,1.006-.8,1.519a2.825,2.825,0,0,0-.206.628,1.262,1.262,0,0,0,.577,1.316,1.86,1.86,0,0,0,.492.235c.413.1.657-.05.952-.479a8.122,8.122,0,0,1,.762-.986,4.643,4.643,0,0,1,.762-.587.517.517,0,0,1,.559-.023c.183.094.207.219.052.353a3.618,3.618,0,0,0-1.068,1.735,1.59,1.59,0,0,0,.035,1.287.443.443,0,0,0,.123.164,12.518,12.518,0,0,0,1.165.694.88.88,0,0,0,.913-.144,2.252,2.252,0,0,0,.617-.682,3.364,3.364,0,0,1,1.471-1.457.688.688,0,0,1,.324-.075.309.309,0,0,1,.226.154.3.3,0,0,1-.057.269,4.71,4.71,0,0,0-1.27,2.283,1.67,1.67,0,0,0,.149,1.408.659.659,0,0,0,.168.176c.4.3.812.6,1.213.909a.839.839,0,0,0,.877.093,2.379,2.379,0,0,0,1.142-1.039,5.11,5.11,0,0,1,1.2-1.473,4.471,4.471,0,0,1,.531-.33c.122-.067.266-.092.357.044s.021.259-.1.342a2.689,2.689,0,0,0-.865,1.394,11.549,11.549,0,0,0-.45,1.464,1.954,1.954,0,0,0,.109,1.352.961.961,0,0,0,.282.365q1.255.864,2.533,1.7a2.429,2.429,0,0,0,.666.312.976.976,0,0,0,.529-.019,1.606,1.606,0,0,0,.848-.691,5,5,0,0,1,.622-.707.538.538,0,0,1,.3-.147.333.333,0,0,1,.275.1.317.317,0,0,1-.01.29,4.016,4.016,0,0,0-.645,1.644,1.148,1.148,0,0,0,.511,1.118c.349.192.7.376,1.064.541a1.354,1.354,0,0,0,1.475-.464c.225-.295.419-.615.614-.932a4.6,4.6,0,0,1,.992-1.233,1.08,1.08,0,0,1,.122-.09.28.28,0,0,1,.38.024.284.284,0,0,1,.008.384,2.878,2.878,0,0,0-.313.444,7.813,7.813,0,0,0-.689,2.06,2.007,2.007,0,0,0,.029.637.694.694,0,0,0,.447.543c.653.271,1.291.579,1.951.829a1.019,1.019,0,0,0,1.042-.236,4,4,0,0,0,.965-1.32,5.64,5.64,0,0,1,1.317-1.768.444.444,0,0,1,.486-.115c.168.065.194.188.116.349a10.962,10.962,0,0,0-1.156,3.009,1.636,1.636,0,0,0,.4,1.317.457.457,0,0,0,.2.133c.291.1.592.183.878.3a1.158,1.158,0,0,0,1.078-.176,2.255,2.255,0,0,0,.918-1.211,5.468,5.468,0,0,1,1.447-2.215,2.932,2.932,0,0,1,.584-.38.267.267,0,0,1,.384.087c.092.153,0,.265-.1.386a2.3,2.3,0,0,0-.34.51c-.247.553-.5,1.107-.7,1.678a3.892,3.892,0,0,0-.189,1.831.313.313,0,0,0,.322.3c.694.093,1.387.2,2.08.3a1.657,1.657,0,0,0,.231,0l.014-.062c-.192-.081-.382-.167-.577-.241-.443-.168-.89-.323-1.33-.5a.829.829,0,0,1-.313-.229c-.109-.131-.03-.281.141-.294a8.5,8.5,0,0,1,2.686.256c.209.051.419.1.629.138a.777.777,0,0,0,.877-.494c.136-.358.24-.731.4-1.082a3.452,3.452,0,0,1,.407-.61.4.4,0,0,1,.2-.16.621.621,0,0,1,.369.015c.127.061.133.205.11.352q-.15.933-.278,1.869a1.263,1.263,0,0,0,.01.378.767.767,0,0,0,.521.688c1.117.4,2.22.84,3.328,1.263a.6.6,0,0,0,.866-.445c.113-.5.193-1,.277-1.506a7.36,7.36,0,0,1,.941-2.74,1.129,1.129,0,0,1,.389-.368.437.437,0,0,1,.347.035c.126.064.084.2.055.324-.087.375-.165.752-.247,1.127a10.709,10.709,0,0,0-.3,2.968,2.28,2.28,0,0,0,.246,1.079.73.73,0,0,0,.54.366,9.235,9.235,0,0,0,2.024.054.906.906,0,0,0,.846-.768,4.256,4.256,0,0,0,.095-.747,16.555,16.555,0,0,1,.483-3.216,8.743,8.743,0,0,1,1.232-2.895c.253-.377.492-.764.736-1.148a4.85,4.85,0,0,0,.658-1.94c.183-1.256.346-2.515.531-3.77a14.438,14.438,0,0,1,1.61-4.982,7.345,7.345,0,0,1,2-2.276,1.117,1.117,0,0,1,.368-.184.694.694,0,0,1,.275.038.824.824,0,0,1-.09.258c-.416.5-.865.973-1.258,1.489a7.165,7.165,0,0,0-1.181,2.523c-.169.628-.332,1.259-.446,1.9s-.169,1.313-.248,1.972c-.166,1.379-.308,2.761-.506,4.134a5.59,5.59,0,0,1-.955,2.253,8.969,8.969,0,0,0-1.386,3.633c-.087.563-.17,1.124-.257,1.686a2.211,2.211,0,0,0,.273,1.295.62.62,0,0,0,.609.213c.786-.187,1.572-.375,2.354-.578a1.187,1.187,0,0,0,.651-.555,2.722,2.722,0,0,0,.4-1.248c.109-.946.213-1.895.367-2.834.142-.871.312-1.742.533-2.6.169-.651.434-1.276.66-1.912s.5-1.284.684-1.945a11.919,11.919,0,0,0,.245-1.55c.149-1.081.248-2.172.45-3.243a5.255,5.255,0,0,1,1.732-3.1.707.707,0,0,1,.229-.164.8.8,0,0,1,.276.011c-.009.091.013.205-.034.269-.189.261-.421.49-.6.758a5.407,5.407,0,0,0-.795,2.111,40.065,40.065,0,0,0-.407,4.089,12.352,12.352,0,0,1-.559,2.818,19.7,19.7,0,0,0-.663,2.74c-.15.954-.33,1.9-.453,2.86-.1.75-.137,1.51-.177,2.266a1.359,1.359,0,0,0,.129.582.582.582,0,0,0,.544.346q.756.041,1.509.11a.626.626,0,0,0,.661-.336,3.153,3.153,0,0,0,.366-1.319c.085-.969.186-1.936.294-2.9.065-.589.146-1.178.237-1.764.1-.661.21-1.322.34-1.978.179-.9.357-1.8.578-2.686a18.249,18.249,0,0,1,1.3-3.83,5.822,5.822,0,0,1,1.171-1.55.341.341,0,0,1,.137-.1.241.241,0,0,1,.189.016.226.226,0,0,1,.063.2.985.985,0,0,1-.177.309,5.17,5.17,0,0,0-1.062,2.116c-.277,1.114-.552,2.229-.772,3.356-.187.959-.309,1.933-.432,2.9-.14,1.1-.275,2.206-.366,3.313a25.564,25.564,0,0,0-.131,4.294,3.086,3.086,0,0,0,.666,1.779c.3.361.563.762.838,1.147.164.229.411.268.58.04a2.309,2.309,0,0,0,.386-.728c.168-.6.292-1.215.42-1.825a24.234,24.234,0,0,1,1.157-4.114c.377-.937.735-1.882,1.151-2.8a15.942,15.942,0,0,1,2.407-3.641,30.713,30.713,0,0,1,2.966-2.871,6.1,6.1,0,0,0,1.487-2.237,7.624,7.624,0,0,0,.555-2.139c.013-.122.044-.248.2-.251a.228.228,0,0,1,.23.234,3.686,3.686,0,0,1,.017.792,14.683,14.683,0,0,1-.291,1.714,5.938,5.938,0,0,1-1.433,2.594,38.457,38.457,0,0,0-3.295,3.885,15.913,15.913,0,0,0-1.911,3.626c-.328.875-.659,1.749-.947,2.637-.224.689-.4,1.4-.567,2.1s-.312,1.405-.447,2.112c-.132.688-.242,1.38-.353,2.072s-.2,1.361-.314,2.04a.905.905,0,0,1-.488.688,1.539,1.539,0,0,1-.754.021.985.985,0,0,1-.782-.658,17.756,17.756,0,0,0-1.816-3.1,3.49,3.49,0,0,0-1.192-1.173,5.028,5.028,0,0,0-1.966-.52,12.353,12.353,0,0,0-3.364.346c-1.027.242-2.066.442-3.075.742a12.918,12.918,0,0,1-4.335.375,10.933,10.933,0,0,1-3.258-.655c-1.05-.382-2.091-.788-3.138-1.176a1.085,1.085,0,0,0-.423-.069,20.064,20.064,0,0,1-3.139-.156c-.7-.07-1.408-.147-2.108-.243s-1.378-.19-2.056-.335c-.9-.192-1.8-.416-2.685-.655a24.1,24.1,0,0,1-3.446-1.268c-.387-.17-.773-.343-1.161-.513-1.715-.752-3.435-1.494-5.145-2.259a26.657,26.657,0,0,1-3.009-1.716,82.168,82.168,0,0,1-7.138-4.936q-3.336-2.568-6.849-4.884c-.818-.538-1.646-1.062-2.46-1.6a17.8,17.8,0,0,1-2.657-2.251q-1.042-1.036-2.09-2.065a1.718,1.718,0,0,1-.492-1.283.84.84,0,0,0,0-.112,1.815,1.815,0,0,1,.969-1.972,4.109,4.109,0,0,1,2.283-.651c.433.02.867.033,1.337.051a1.39,1.39,0,0,0-.166-.165,7.688,7.688,0,0,1-1.819-1.992,1.874,1.874,0,0,1-.152-1.913,4.062,4.062,0,0,1,1.711-2.058,5.116,5.116,0,0,1,2.229-.534,6.274,6.274,0,0,1,3.134.75c.141.069.309.2.426.165.1-.028.147-.249.211-.388a3.3,3.3,0,0,1,2.037-1.726,6.992,6.992,0,0,1,2.882-.31,7.268,7.268,0,0,1,1.96.5,15.983,15.983,0,0,1,3.079,1.405c.507.317.976.7,1.457,1.056.531.4,1.059.8,1.585,1.2.089.068.155.086.249.013a3.834,3.834,0,0,1,1.484-.64,10.668,10.668,0,0,1,3.43-.213,14.317,14.317,0,0,1,3.321.742,23.4,23.4,0,0,1,3.861,1.789c1.094.592,2.222,1.118,3.318,1.706,1.474.792,2.922,1.634,4.4,2.422a20.355,20.355,0,0,0,4.951,2.016c.369.086.74.163,1.1.269a1.753,1.753,0,0,0,1-.118c.694-.188,1.39-.373,2.081-.575.962-.283,1.92-.584,2.882-.871a6.878,6.878,0,0,1,1.151-.307,18.5,18.5,0,0,1,3.261-.246,3.712,3.712,0,0,0,.417,0,7.7,7.7,0,0,1,2.331.364,15.142,15.142,0,0,1,2.252.836,2.081,2.081,0,0,0,.808.153c.955.007,1.91,0,2.863-.038a3.983,3.983,0,0,0,.95-.233c.927-.272,1.843-.584,2.778-.821a8.322,8.322,0,0,1,1.632-.219,11.235,11.235,0,0,1,3.319.184,8.517,8.517,0,0,1,2.988,1.253,7.7,7.7,0,0,1,2.217,2.678,16.272,16.272,0,0,1,1.379,3.438c.193.711.312,1.442.449,2.168.122.645.231,1.293.331,1.941s.173,1.288.267,1.932c.109.743.2,1.49.348,2.226.234,1.163.5,2.319.77,3.477a35.139,35.139,0,0,0,1.519,5.192c.517,1.295,1.091,2.567,1.646,3.847a.986.986,0,0,1-.075.905.255.255,0,0,1-.034.045.937.937,0,0,1-1.266-.122c-.25-.474-.48-.96-.688-1.454-.434-1.035-.885-2.066-1.26-3.125s-.686-2.111-.974-3.184c-.322-1.2-.6-2.4-.869-3.611q-.313-1.412-.547-2.844c-.16-.99-.25-1.992-.414-2.98-.209-1.259-.4-2.523-.71-3.759a12.4,12.4,0,0,0-1.773-4.1,9.7,9.7,0,0,0-.792-.966,3.943,3.943,0,0,0-1.515-.945,8.036,8.036,0,0,0-2.057-.565,3.521,3.521,0,0,0-.454-.03,13.817,13.817,0,0,0-2.628.105c-.575.111-1.141.273-1.7.437-.782.226-1.557.477-2.336.712-.108.033-.232.018-.335.058a.428.428,0,0,0-.21.183c-.021.043.038.151.089.2a1.215,1.215,0,0,0,1.1.4,2.77,2.77,0,0,0,.864-.361,5.215,5.215,0,0,1,1.508-.69,3.838,3.838,0,0,1,.6-.078.249.249,0,0,1,.295.184c.03.149-.094.205-.2.261a7.688,7.688,0,0,0-1.153.605,2.1,2.1,0,0,0-.8,1.027.487.487,0,0,0,.006.331,1.557,1.557,0,0,0,.847.742,1.057,1.057,0,0,0,1.222-.41c.4-.446.809-.885,1.243-1.3a5.1,5.1,0,0,1,1.539-.878.231.231,0,0,1,.326.1.227.227,0,0,1-.1.312,1.839,1.839,0,0,1-.289.18,3.114,3.114,0,0,0-1.3,1.26,8.511,8.511,0,0,0-.962,2.152.6.6,0,0,0,.124.595,5.906,5.906,0,0,1,.58.837.712.712,0,0,1-.036.823.687.687,0,0,1-1.013.086,10.176,10.176,0,0,1-.885-.854,30.634,30.634,0,0,0-2.672-2.579,27.979,27.979,0,0,0-4.341-2.937,12.561,12.561,0,0,0-2.324-1.057,7.833,7.833,0,0,0-2.577-.479c-.587.019-1.176.011-1.763.036-.314.014-.625.082-.94.111a11.63,11.63,0,0,0-2.106.513c-1.129.322-2.243.7-3.382.983a19.919,19.919,0,0,0-4.084,1.537c-1.256.621-2.523,1.222-3.788,1.823a19.094,19.094,0,0,1-3.128,1.076,9.238,9.238,0,0,1-3.007.205c-.208-.011-.417-.015-.625-.014a11.184,11.184,0,0,1-1.959-.188,6.822,6.822,0,0,0-1.059-.057c-1.111-.015-2.223-.034-3.335-.025-.928.007-1.861.007-2.784.095a23.113,23.113,0,0,0-2.424.42,4.892,4.892,0,0,0-1.155.355,2.706,2.706,0,0,0-1.617,2.015,1.643,1.643,0,0,0,0,.47.777.777,0,0,0,.469.623,1.664,1.664,0,0,0,.861.177,6.348,6.348,0,0,0,.81-.064,1.636,1.636,0,0,0,.992-.649,4.112,4.112,0,0,1,1.39-1.316,1.852,1.852,0,0,1,.5-.159.286.286,0,0,1,.331.166.27.27,0,0,1-.1.336,3.719,3.719,0,0,0-.9,1.116.542.542,0,0,0,.317.858,16.455,16.455,0,0,0,2.048.467,1.189,1.189,0,0,0,1.154-.627c.308-.461.59-.941.922-1.385a4.522,4.522,0,0,1,.689-.672.79.79,0,0,1,.363-.193.438.438,0,0,1,.334.093.245.245,0,0,1-.034.357,4.431,4.431,0,0,0-.812,1.293c-.165.369-.319.743-.457,1.122a.706.706,0,0,0,.408.836,3.753,3.753,0,0,0,.923.2,1.027,1.027,0,0,0,.955-.551c.322-.563.6-1.149.922-1.718a5.291,5.291,0,0,1,1.224-1.554,2.918,2.918,0,0,1,.606-.38.543.543,0,0,1,.363-.011.19.19,0,0,1,.078.343,4.789,4.789,0,0,0-1.035,1.637c-.183.366-.33.751-.476,1.134a.763.763,0,0,0,.088.79.421.421,0,0,0,.371.181c.632-.016,1.264-.023,1.9-.027a3.183,3.183,0,0,1,.472.029,1.466,1.466,0,0,0,1.554-.99,9.463,9.463,0,0,1,2.075-3.619,6.68,6.68,0,0,1,.559-.511.654.654,0,0,1,.195-.116.286.286,0,0,1,.346.07.25.25,0,0,1-.017.332c-.156.223-.332.431-.477.659a10.973,10.973,0,0,0-1.477,3.549c-.049.223-.093.445-.146.666a1.567,1.567,0,0,0,.079.895.575.575,0,0,0,.236.283c.609.346,1.218.69,1.844,1a1.114,1.114,0,0,0,.835.029c.477-.148.587-.561.672-.971a20.551,20.551,0,0,1,2.113-6.344,10.133,10.133,0,0,1,2.585-3.039c.06-.046.124-.113.19-.118a.4.4,0,0,1,.286.061.313.313,0,0,1,.034.284,1.587,1.587,0,0,1-.275.359,12.776,12.776,0,0,0-2.619,5.012,20.05,20.05,0,0,0-.738,3.806,1.2,1.2,0,0,0,.114.56,1.419,1.419,0,0,0,.768.867,2.08,2.08,0,0,0,.418.112,7.924,7.924,0,0,0,1.048.115,1.2,1.2,0,0,0,1.121-.958c.079-.453.119-.912.2-1.364.037-.216.13-.419.182-.633.065-.264.112-.531.17-.8a22.247,22.247,0,0,1,.944-3.076,16.006,16.006,0,0,1,1.608-3.275,14.472,14.472,0,0,1,2.037-2.511.854.854,0,0,1,.222-.175.234.234,0,0,1,.2.009.334.334,0,0,1,.064.215c0,.042-.042.09-.074.129a13,13,0,0,0-1.713,2.936c-.428.969-.757,1.98-1.111,2.979a20.676,20.676,0,0,0-.778,3.063c-.115.607-.22,1.219-.3,1.831a1.267,1.267,0,0,0,.308,1,.471.471,0,0,0,.375.156,11.765,11.765,0,0,0,1.233-.346c.264-.086.513-.215.772-.316a.7.7,0,0,1,.673.031.576.576,0,0,1,.058.87,2.8,2.8,0,0,1-1.021.673,9.68,9.68,0,0,1-2.6.737,18.289,18.289,0,0,1-4.159.118c-.359-.027-.72-.024-1.08-.021a10.062,10.062,0,0,1-2.053-.2c-.093-.018-.187-.028-.281-.04C-68.519,15801.179-68.536,15801.192-68.588,15801.213Zm-12.9-11.229a.732.732,0,0,0-.074-.117c-.218-.2-.425-.417-.658-.6-.4-.313-.822-.609-1.239-.9a12.914,12.914,0,0,0-2.262-1.339,18.349,18.349,0,0,1-3.062-1.614q-1.634-1.119-3.276-2.226a24.413,24.413,0,0,0-4.333-2.113,19.756,19.756,0,0,1-2.155-.875,16.118,16.118,0,0,1-2.32-1.632,11.9,11.9,0,0,0-2.388-1.589,5.111,5.111,0,0,0-3.25-.531,2.222,2.222,0,0,0-1.468.748,7.808,7.808,0,0,0-.632,1.027.809.809,0,0,0,.062.831c.085.141.179.275.274.41a5.019,5.019,0,0,0,1.282,1.4.542.542,0,0,0,.824-.185,3.845,3.845,0,0,1,1.541-1.473,2.743,2.743,0,0,1,.692-.243c.075-.017.21.078.258.158.027.046-.054.172-.108.246-.038.051-.116.073-.173.112a4.033,4.033,0,0,0-.541.38,3.468,3.468,0,0,0-.919,1.955.85.85,0,0,0,.494.839c.272.119.543.238.81.37a.8.8,0,0,0,.891-.082,1.515,1.515,0,0,0,.343-.418,5.089,5.089,0,0,1,1.659-1.738,1.7,1.7,0,0,1,1.058-.359c.153.015.3.037.324.225s-.114.25-.254.277a1.325,1.325,0,0,0-.663.416,5.063,5.063,0,0,0-1.147,1.9.686.686,0,0,0,0,.368,1.741,1.741,0,0,0,.972,1.146.9.9,0,0,0,.939-.009,3.945,3.945,0,0,0,.627-.452,9.26,9.26,0,0,0,.651-.685,3.588,3.588,0,0,1,1.533-1.043.255.255,0,0,1,.345.109.259.259,0,0,1-.116.345,3.783,3.783,0,0,0-1.129,1.427,2.015,2.015,0,0,0-.352,1.252.511.511,0,0,0,.221.393,2.42,2.42,0,0,0,1.436.327,1.131,1.131,0,0,0,1.053-.547,1.386,1.386,0,0,1,.128-.165,5.3,5.3,0,0,1,1.512-1.361,1.1,1.1,0,0,1,.761-.167c.184.04.334.191.321.326-.018.188-.165.227-.316.276a1.008,1.008,0,0,0-.324.179,5.647,5.647,0,0,0-1.258,1.623.29.29,0,0,0-.052.178,1.149,1.149,0,0,0,.455.837q.627.372,1.251.75a1.644,1.644,0,0,0,1.935-.309,3.269,3.269,0,0,1,1.582-1.192.672.672,0,0,1,.4-.023c.365.131.369.156.066.387a5.1,5.1,0,0,0-1.2,1.47,1.09,1.09,0,0,0-.089.863.859.859,0,0,0,.285.494,13.99,13.99,0,0,0,1.432.765,1.01,1.01,0,0,0,.579.1c.369-.074.721-.231,1.087-.326a16.771,16.771,0,0,1,3.7-.556c.581-.018,1.163-.014,1.744-.021C-81.656,15790-81.589,15789.99-81.485,15789.983Zm11.985-.806a1.474,1.474,0,0,0-.223-.15c-.529-.205-1.06-.4-1.59-.605-.82-.311-1.65-.6-2.459-.938-.762-.319-1.509-.677-2.253-1.037-.669-.325-1.34-.651-1.982-1.026s-1.233-.869-1.893-1.221c-1.258-.672-2.543-1.294-3.829-1.909-.665-.319-1.36-.574-2.037-.869a18.847,18.847,0,0,1-3.3-2c-.763-.538-1.482-1.139-2.228-1.7-.488-.368-.975-.745-1.489-1.075a12.179,12.179,0,0,0-2.236-1.067,7.355,7.355,0,0,0-3.181-.657,5.66,5.66,0,0,0-1.891.425,2.446,2.446,0,0,0-1.126,1.059c-.063.1-.091.2.033.3.37.285.73.583,1.1.863a.854.854,0,0,0,.372.168,1.312,1.312,0,0,0,1.155-.379,3.612,3.612,0,0,1,1.821-1,2,2,0,0,1,.6-.032.317.317,0,0,1,.221.207c.012.08-.089.182-.152.266-.023.029-.079.036-.121.048a2.935,2.935,0,0,0-1.775,1.442.646.646,0,0,0,.366.96,4.966,4.966,0,0,1,.61.258,1.3,1.3,0,0,0,1.366-.037c.37-.228.739-.459,1.12-.668a11.944,11.944,0,0,1,1.1-.538,1.105,1.105,0,0,1,.777-.085c.128.042.261.1.245.269s-.145.186-.273.217a3.228,3.228,0,0,0-1.664,1.033.57.57,0,0,0,.208.984c.448.187.878.417,1.32.618a2.7,2.7,0,0,0,.687.262,1.626,1.626,0,0,0,1.109-.22,8.189,8.189,0,0,1,1.023-.527,1.187,1.187,0,0,1,.9-.059.355.355,0,0,1,.2.218c.014.072-.066.185-.134.244a2.671,2.671,0,0,1-.286.144,2.908,2.908,0,0,0-.718.5c-.461.58-.432.892.121,1.28.351.245.72.466,1.087.688a1.008,1.008,0,0,0,.747.137,1.8,1.8,0,0,0,.818-.318,2.372,2.372,0,0,1,.37-.229,2.577,2.577,0,0,1,1.779-.365c.153.03.3.1.3.269s-.146.211-.283.265a7.292,7.292,0,0,0-.9.4.855.855,0,0,0-.489.594.821.821,0,0,0,.439.891c.672.351,1.352.684,2.033,1.014a1.8,1.8,0,0,0,1.9-.132,3.8,3.8,0,0,1,.963-.512,1.226,1.226,0,0,1,.867-.07c.26.1.291.3.067.47a1.8,1.8,0,0,1-.318.165,1.946,1.946,0,0,0-.959.9.717.717,0,0,0,.156.864,4.287,4.287,0,0,1,.3.317,1.84,1.84,0,0,0,1.061.709,8.478,8.478,0,0,0,1.357.038.8.8,0,0,0,.558-.241,4.953,4.953,0,0,1,1.478-.942,1.576,1.576,0,0,1,1.011-.155c.133.034.264.092.272.25s-.119.207-.239.258a3.67,3.67,0,0,0-.4.18,6.344,6.344,0,0,0-1.408,1.2.7.7,0,0,0-.073.121,1.3,1.3,0,0,0,.143.03q2.159.085,4.317.164a1.669,1.669,0,0,0,.449-.056c.576-.14,1.154-.275,1.725-.438C-70.34,15789.493-69.949,15789.335-69.5,15789.178Zm4.5-2.187-.017-.056c-.181-.053-.361-.1-.541-.159a23.186,23.186,0,0,1-4.148-1.84c-1.387-.738-2.742-1.539-4.123-2.289-1.3-.705-2.616-1.374-3.918-2.072a14.721,14.721,0,0,0-2.253-1.16c-.951-.319-1.9-.647-2.862-.929a10.192,10.192,0,0,0-3.047-.288,18.168,18.168,0,0,0-1.953.223,1.1,1.1,0,0,0-.206.074c.079.06.121.1.168.127q.824.521,1.649,1.043a1.57,1.57,0,0,0,1.419.121c.3-.106.594-.244.887-.374a1.636,1.636,0,0,1,1.529-.021c.108.061.253.2.246.292-.012.178-.206.164-.351.167a1.728,1.728,0,0,0-1.1.4.362.362,0,0,0,.029.606,2.1,2.1,0,0,0,.3.153,15.473,15.473,0,0,0,1.568.656,1.985,1.985,0,0,0,1.715-.186,2.7,2.7,0,0,1,1.137-.44,3.253,3.253,0,0,1,.843.023.372.372,0,0,1,.24.242c.035.149-.115.205-.242.236a1.431,1.431,0,0,1-.28.046,1.941,1.941,0,0,0-1.119.507.424.424,0,0,0-.094.606.8.8,0,0,0,.22.229q.762.514,1.536,1.009a.954.954,0,0,0,.364.146,3.308,3.308,0,0,0,1.97-.25,2.107,2.107,0,0,1,1.585-.159.721.721,0,0,1,.271.124.312.312,0,0,1,.1.239c-.015.069-.117.126-.19.175a.241.241,0,0,1-.129.018,1.632,1.632,0,0,0-1.168.584.408.408,0,0,0,.132.709c.53.236,1.06.471,1.6.694a3.12,3.12,0,0,0,2.827-.079,1.6,1.6,0,0,1,1.166-.215c.247.063.415.215.4.371-.028.226-.218.261-.393.327a2.465,2.465,0,0,0-.592.28c-.276.2-.259.406.026.6a2.8,2.8,0,0,0,1.259.49,3.1,3.1,0,0,0,1.967-.3,13,13,0,0,1,1.371-.591A1.753,1.753,0,0,0-65,15786.991Z"/>
        <path id="Path_254" data-name="Path 254" d="M-38.785,15814.477c-.19,0-.38-.011-.569,0s-.214-.062-.18-.213c.1-.475.192-.953.318-1.423.308-1.139.6-2.284.963-3.406.339-1.05.723-2.089,1.152-3.1.594-1.407,1.2-2.812,1.89-4.174.586-1.158,1.277-2.265,1.952-3.376a19.2,19.2,0,0,0,1.539-2.908,2.788,2.788,0,0,0,.121-.456c.05-.235.166-.372.306-.345s.215.192.184.422a9.489,9.489,0,0,1-.928,2.771c-.457.972-1.005,1.9-1.459,2.869-.432.927-.807,1.879-1.185,2.829-.4,1.008-.8,2.02-1.159,3.044q-.581,1.661-1.078,3.352c-.281.948-.514,1.914-.761,2.873-.087.336-.161.676-.229,1.016-.026.129-.088.19-.214.191h-.663Z"/>
        <path id="Path_255" data-name="Path 255" d="M-34.079,15814.293c-.189,0-.379-.008-.568,0-.156.009-.209-.046-.177-.2.112-.544.189-1.1.336-1.631.316-1.157.6-2.327,1.022-3.448.51-1.369,1.128-2.7,1.725-4.039.515-1.151,1.067-2.286,1.6-3.43a2.011,2.011,0,0,1,.144-.266.26.26,0,0,1,.34-.127.26.26,0,0,1,.134.321,6.069,6.069,0,0,1-.171.642c-.4,1.156-.816,2.307-1.215,3.464s-.808,2.288-1.156,3.448c-.336,1.117-.611,2.253-.89,3.387-.134.545-.221,1.1-.319,1.654-.025.14-.079.2-.221.192-.2-.007-.392,0-.588,0Z"/>
        <path id="Path_256" data-name="Path 256" d="M-28,15808.639c-.107.741-.2,1.416-.3,2.09-.078.525-.165,1.049-.246,1.572-.072.461-.134.924-.218,1.384a.279.279,0,0,1-.187.169c-.311.056-.626.082-.939.127-.158.021-.21-.033-.176-.188.208-.956.394-1.918.625-2.868.194-.8.436-1.582.665-2.37a2.585,2.585,0,0,1,.209-.507.3.3,0,0,1,.211-.15.275.275,0,0,1,.214.145A5.687,5.687,0,0,1-28,15808.639Z"/>
      </g>
      <g id="Group_262" data-name="Group 262">
        <path id="Path_257" data-name="Path 257" d="M-65.275,15779.655c-4.377.313-11.56,7.828-14.374,10.8.312.156,3.441.144,3.753.457h6.4a5.84,5.84,0,0,1,5.315-3.6l4.768-1.084c2.97-.625,5.225-1.533,8.195-1.221-2.814-3.752-7.179-5.043-12.182-5.355"/>
      </g>
    </g>
  </g>
</svg>
