<svg xmlns="http://www.w3.org/2000/svg" width="62.557" height="84.72" viewBox="0 0 62.557 84.72">
  <path id="Path_296" data-name="Path 296" d="M-44.835,16045.191c.39-.062.735-.124,1.083-.167a1.876,1.876,0,0,1,1.324.4,3.58,3.58,0,0,1,1.387,1.922c.127.4.287.793.434,1.189a2.972,2.972,0,0,1-.108,2.372c-.181.389-.4.759-.617,1.153.331.487.674.978,1,1.478q1.29,1.972,2.569,3.951c.054.082.1.168.15.253a1.088,1.088,0,0,1,.068.131c.07.178-.1.4-.442.576-.144.072-.205.05-.33-.128-.6-.86-1.2-1.724-1.812-2.58-.221-.312-.468-.605-.7-.91-.332-.438-.66-.879-.988-1.319-.082-.109-.16-.221-.258-.355-.147.185-.276.354-.412.515-.474.563-.931,1.142-1.432,1.68a21.31,21.31,0,0,1-3.391,2.957,18.2,18.2,0,0,1-5.42,2.589q-1.613.467-3.262.778a1.769,1.769,0,0,0-.431.179.305.305,0,0,0-.181.291c.075.131.211.112.334.118a8.081,8.081,0,0,0,1.729-.149,21.438,21.438,0,0,0,5.547-1.737,15.088,15.088,0,0,0,2.073-1.177q1.147-.776,2.28-1.574a6.071,6.071,0,0,0,1.3-1.148c.044-.056.17-.11.219-.086a.3.3,0,0,1,.15.221.734.734,0,0,1-.107.388,3.989,3.989,0,0,1-.588.73,21.992,21.992,0,0,1-6.63,4.318,21.741,21.741,0,0,1-4.144,1.229,20.247,20.247,0,0,1-2.077.216,3.029,3.029,0,0,0-1.628.522,4.435,4.435,0,0,1-.733.365c-.089.04-.188.058-.28.09-.232.08-.31.164-.293.313a.45.45,0,0,0,.362.376,4.633,4.633,0,0,0,.557.054,20.484,20.484,0,0,0,4.977-.439,20.924,20.924,0,0,0,6.026-2.308c.8-.459,1.586-.945,2.379-1.418a11.667,11.667,0,0,0,2.378-1.921,2.368,2.368,0,0,1,.323-.3.235.235,0,0,1,.209.006.2.2,0,0,1,.052.178.976.976,0,0,1-.131.262,7.216,7.216,0,0,1-1.778,1.948,29.638,29.638,0,0,1-5.134,3.221,20.327,20.327,0,0,1-3.2,1.172,19.184,19.184,0,0,1-5.491.787h-.3c-.11.146-.021.231.043.313.146.184.3.363.453.543.286.337.25.46-.174.579-.085.024-.171.049-.257.065a.6.6,0,0,1-.65-.228c-.34-.432-.72-.833-1.056-1.269-.371-.481-.716-.983-1.062-1.484a.464.464,0,0,0-.381-.221c-.447-.04-.891-.115-1.325-.175a4.207,4.207,0,0,1-2.113,2.008,4.079,4.079,0,0,1-.119,1.367,3.956,3.956,0,0,1-1.036,1.722,1.173,1.173,0,0,0-.31.484,2.179,2.179,0,0,1-.711.991,7.591,7.591,0,0,1-3.217,1.586,15.792,15.792,0,0,1-5.325.267,21.336,21.336,0,0,1-4.037-.779,14.417,14.417,0,0,1-2.391-.908,14.176,14.176,0,0,1-3.8-2.8,1.058,1.058,0,0,0-.653-.335,7.485,7.485,0,0,1-2.919-1.2,10.74,10.74,0,0,1-1.9-1.614,17.9,17.9,0,0,1-1.694-2,16.269,16.269,0,0,1-1.911-3.675c-.121-.32-.225-.648-.348-.97-.032-.084-.092-.2-.164-.219a3.293,3.293,0,0,1-1.386-1.06,8.442,8.442,0,0,1-1.455-2.542,30.112,30.112,0,0,1-1.521-4.978,15.078,15.078,0,0,1-.416-2.792,12.175,12.175,0,0,1,.281-3.6,2.933,2.933,0,0,1,.635-1.279,1.126,1.126,0,0,0,.291-.854,3.583,3.583,0,0,1,.6-2.03,2.848,2.848,0,0,1,1.114-1.025q.064-.034.126-.073c.008,0,.011-.015.033-.049a1.089,1.089,0,0,1-.026-1.027,7.132,7.132,0,0,1,.58-1.539.33.33,0,0,0,0-.353c-.289-.568-.583-1.136-.829-1.723a5.4,5.4,0,0,1-.212-.943.681.681,0,0,1,.31-.712c.194-.15.4-.28.608-.415.251-.166.275-.222.225-.51-.136-.783-.009-1.146.8-1.647a7.251,7.251,0,0,1,.706-.336,5.252,5.252,0,0,1,0-.533,1.3,1.3,0,0,1,.739-1.031,3.082,3.082,0,0,1,1.538-.328c.491,0,.982.014,1.472.03.383.014.765.04,1.147.063a.9.9,0,0,1,.847.527c.239.506.486,1.01.766,1.493.452.781.893,1.575,1.417,2.308a9.821,9.821,0,0,0,1.309,1.392,17.95,17.95,0,0,0,2.276,1.819,6.509,6.509,0,0,0,1.775.91c.129.038.262.066.458.117-.094-.142-.148-.23-.21-.313a7.278,7.278,0,0,1-1.42-3.325,4.037,4.037,0,0,1,.416-2.743,3.36,3.36,0,0,1,1.459-1.29,5.128,5.128,0,0,1,.737-.227c-.072-.2-.154-.408-.224-.62a6.936,6.936,0,0,1-.182-3.746,3.922,3.922,0,0,1,.667-1.464,8.31,8.31,0,0,1,1.406-1.618.306.306,0,0,0,.1-.259,13.009,13.009,0,0,1,1.964-6.1,4.557,4.557,0,0,1,1.651-1.6c.493-.284.971-.6,1.454-.9a.459.459,0,0,0,.25-.306,3.914,3.914,0,0,1,1.508-2.287c.584-.463,1.17-.924,1.763-1.376a11.171,11.171,0,0,1,3.621-1.791c.166-.049.209-.154.26-.281a6.726,6.726,0,0,1,1.127-1.99c.257-.295.537-.57.829-.877-.126-.269-.248-.557-.392-.833a29.953,29.953,0,0,0-1.765-3.06,8.06,8.06,0,0,0-1.742-1.74,8.555,8.555,0,0,0-4.593-1.81,10.394,10.394,0,0,0-3.539.239,13.31,13.31,0,0,0-3.17,1.241,7.726,7.726,0,0,0-1.517,1.158c-.591.546-1.195,1.078-1.783,1.628q-.473.442-.909.923a1.834,1.834,0,0,1-.761.536c-.7.236-1.4.469-2.1.674-1.149.333-2.305.645-3.459.962a1.781,1.781,0,0,1-.433.075c-.362.006-.525-.239-.373-.566.3-.64.584-1.286.915-1.908a37.573,37.573,0,0,1,2.44-4c.3-.433.653-.836.968-1.261.451-.607.891-1.223,1.332-1.836a6.945,6.945,0,0,1,1.305-1.434.827.827,0,0,1,1.148-.01c.229.184.444.384.652.563.511-.319,1.067-.687,1.644-1.021.4-.23.829-.4,1.235-.621.744-.4,1.477-.817,2.222-1.214.562-.3,1.135-.581,1.705-.863a1.441,1.441,0,0,1,.868-.082.849.849,0,0,1,.63.525,3.586,3.586,0,0,1,.2.458.354.354,0,0,0,.3.246c.689.152,1.376.317,2.066.465a21.169,21.169,0,0,1,5.345,1.787,6.972,6.972,0,0,0,.8.365.625.625,0,0,1,.447.563.574.574,0,0,1-.328.575c-.031.019-.061.038-.119.075.145.135.274.252.4.373a16.61,16.61,0,0,1,3.575,4.97,11.685,11.685,0,0,1,1.034,3.427.366.366,0,0,0,.174.254,3.577,3.577,0,0,1,.471.388,2.634,2.634,0,0,1,.6,1.659c.061.7.056,1.412.056,2.118,0,.539-.035,1.079-.059,1.618a2.437,2.437,0,0,0,.267,1.162,8.9,8.9,0,0,0,1.282,1.969c.355.419.685.858,1.019,1.295.257.335.515.67.75,1.02a9.91,9.91,0,0,1,.884,1.986c.447,1.153.879,2.312,1.358,3.452a5.286,5.286,0,0,0,1.306,1.867,11.877,11.877,0,0,1,2.189,2.647,9.592,9.592,0,0,1,.919,2.383,27.8,27.8,0,0,1,.762,4.286c.217,1.841.414,3.687.657,5.524a47.93,47.93,0,0,0,1.364,6.688c.236.841.495,1.675.745,2.513A1.719,1.719,0,0,0-44.835,16045.191Zm-9.72-20.544c.127.272.226.483.323.7a.943.943,0,0,1,.094.243c.025.176-.1.259-.256.185a.386.386,0,0,1-.139-.105c-.3-.388-.626-.761-.889-1.173-.6-.936-1.166-1.888-1.738-2.838a8.993,8.993,0,0,1-1.294-4.74,15.765,15.765,0,0,0-.08-1.97,30.3,30.3,0,0,0-.773-4.018,10.712,10.712,0,0,1-.307-3.152c.032-1,.08-2,.094-3a2.1,2.1,0,0,0-.228-1.114,1.021,1.021,0,0,0-.664-.536,5.062,5.062,0,0,0-1.346-.086,2.147,2.147,0,0,0-1.357.563.866.866,0,0,0-.187.225c-.087.154-.007.271.17.264a.479.479,0,0,0,.113-.028,3.834,3.834,0,0,1,1.665-.062,3.044,3.044,0,0,1,.587.176.2.2,0,0,1,.127.266.374.374,0,0,1-.2.182,1.461,1.461,0,0,1-.407.055,6.321,6.321,0,0,0-2.718.8,1.874,1.874,0,0,0-1.006,1.31.377.377,0,0,0,.259.49.927.927,0,0,0,.633,0,5.974,5.974,0,0,1,2.467-.288,1.964,1.964,0,0,1,.428.1c.159.057.223.161.2.287a.253.253,0,0,1-.256.2c-.029,0-.059,0-.088,0-.2.017-.393.022-.586.054a6.471,6.471,0,0,0-2.654.991,2.137,2.137,0,0,0-.945,1.3c-.125.535.169.862.7.753a7.573,7.573,0,0,0,.789-.232,6.124,6.124,0,0,1,2.812-.329c.261.041.52.1.777.16a.206.206,0,0,1,.164.245.208.208,0,0,1-.2.187c-.135.021-.273.03-.409.046-.42.048-.842.081-1.258.151a7.455,7.455,0,0,0-2.526,1.02,1.438,1.438,0,0,0-.763,1.454c.033.352.162.492.513.511a1.931,1.931,0,0,0,.8-.161,6.26,6.26,0,0,1,3.242-.358,3.169,3.169,0,0,1,.678.182.323.323,0,0,1,.194.413c-.052.15-.181.212-.384.193a7.013,7.013,0,0,0-2.05.125,5.785,5.785,0,0,0-1.961.853,3.312,3.312,0,0,0-.64.559,1.3,1.3,0,0,0-.311,1.014.6.6,0,0,0,.118.324,1,1,0,0,0,1.034.412,3.649,3.649,0,0,0,.447-.143c.453-.162.9-.342,1.357-.488a5.44,5.44,0,0,1,2.472-.227c.126.019.252.034.376.062a.244.244,0,0,1,.225.235.256.256,0,0,1-.2.259,4.061,4.061,0,0,1-.487.1c-.339.054-.684.082-1.018.157a10.089,10.089,0,0,0-2.918,1.232,3.171,3.171,0,0,0-.6.47,1.517,1.517,0,0,0-.327,1.788.952.952,0,0,0,.975.611,2.255,2.255,0,0,0,.647-.176,18.144,18.144,0,0,1,2.2-.751,5.147,5.147,0,0,1,1.782-.131,2.257,2.257,0,0,1,.406.067.286.286,0,0,1,.241.264.3.3,0,0,1-.246.293,2.43,2.43,0,0,1-.377.064,5.9,5.9,0,0,0-1.742.411c-.8.35-1.6.7-2.387,1.078a1.853,1.853,0,0,0-.613.449,3.206,3.206,0,0,0-.84,2.145,11.086,11.086,0,0,1-.119,1.406.42.42,0,0,1-.446.416.472.472,0,0,1-.482-.455c-.03-.3-.047-.606-.072-.909-.006-.072-.02-.145-.039-.271-.075.1-.118.151-.152.208a14.405,14.405,0,0,0-1.367,3.122.831.831,0,0,0-.039.29.325.325,0,0,0,.344.324.548.548,0,0,0,.41-.2,23.017,23.017,0,0,1,3.024-2.3,17.45,17.45,0,0,1,3.614-1.709,10.364,10.364,0,0,1,2.045-.546,4.455,4.455,0,0,1,.791-.012.252.252,0,0,1,.27.225c.011.162-.114.216-.239.256-.093.029-.19.047-.285.071-.209.056-.422.1-.624.172-.545.2-1.088.4-1.625.611a16.513,16.513,0,0,0-4.6,2.715c-1.069.91-2.1,1.87-3.141,2.811a1.862,1.862,0,0,0-.231.267,4.186,4.186,0,0,0-.845,1.982c-.04.282-.1.562-.127.845a.434.434,0,0,0,.6.49,1.073,1.073,0,0,0,.292-.137,4.573,4.573,0,0,0,.467-.357c.809-.718,1.638-1.409,2.512-2.048a31.89,31.89,0,0,1,4.211-2.593,39.635,39.635,0,0,1,3.717-1.71,23.249,23.249,0,0,1,5.535-1.472,1.254,1.254,0,0,1,.234-.019c.115.007.228.058.233.181a.515.515,0,0,1-.088.289.388.388,0,0,1-.2.107c-.14.045-.283.081-.426.114a31.06,31.06,0,0,0-5.971,2.069,37.936,37.936,0,0,0-5.3,3.06A38.472,38.472,0,0,0-66.1,16035a14.573,14.573,0,0,0-1.94,1.972,4.122,4.122,0,0,0-.818,1.807,1.058,1.058,0,0,0-.018.264.92.92,0,0,0,1.213.867,2.425,2.425,0,0,0,.731-.367c.607-.466,1.192-.962,1.783-1.449.531-.437,1.039-.9,1.591-1.312q1.657-1.228,3.354-2.4a36.963,36.963,0,0,1,4.655-2.772,16.163,16.163,0,0,1,3.444-1.276c.353-.082.712-.139,1.07-.2a.223.223,0,0,1,.269.131.208.208,0,0,1-.125.268,2.891,2.891,0,0,1-.5.232,22.49,22.49,0,0,0-4.97,2.345c-1.125.7-2.21,1.467-3.291,2.233-1.539,1.091-3.047,2.225-4.477,3.459-.892.771-1.792,1.533-2.686,2.3a6.545,6.545,0,0,0-1,1.075,2.426,2.426,0,0,0-.462,1.609.887.887,0,0,0,1.2.855,1.2,1.2,0,0,0,.327-.13,8.237,8.237,0,0,0,.78-.524c.706-.564,1.375-1.179,2.1-1.709,1.74-1.267,3.49-2.52,5.265-3.733a28.4,28.4,0,0,1,5.249-2.846,13.656,13.656,0,0,1,2.1-.669c.113-.026.223-.029.276.1s-.026.187-.109.247a2.195,2.195,0,0,1-.224.141,2.02,2.02,0,0,1-.215.1,31.156,31.156,0,0,0-5.62,3.146c-1.638,1.135-3.212,2.364-4.812,3.555-1.182.881-2.337,1.8-3.446,2.77-.369.324-.75.635-1.128.949a3.782,3.782,0,0,1-1.511.767c-.266.068-.533.134-.8.184a23.446,23.446,0,0,0-3.25.827,2.685,2.685,0,0,0-.945.527.791.791,0,0,0-.239,1.006c.146.342.329.669.492,1a.84.84,0,0,0,.732.473,2.49,2.49,0,0,0,1.019-.1,22.837,22.837,0,0,1,4.017-.9,9.511,9.511,0,0,0,4.333-1.721,32.36,32.36,0,0,0,2.828-2.265c.76-.684,1.5-1.387,2.3-2.028a18.946,18.946,0,0,1,7.339-3.75.808.808,0,0,1,.258-.046.239.239,0,0,1,.18.111.229.229,0,0,1-.059.2,1.305,1.305,0,0,1-.305.174c-.738.344-1.481.677-2.214,1.032a20.736,20.736,0,0,0-3.1,1.918,27.759,27.759,0,0,0-2.857,2.461,32.29,32.29,0,0,1-3.958,3.3,10.258,10.258,0,0,1-4.24,1.74c-1.065.166-2.119.41-3.175.635a2.668,2.668,0,0,0-.718.253.779.779,0,0,0-.206,1.3c.286.312.588.606.873.918a1.009,1.009,0,0,0,.609.331,2.549,2.549,0,0,0,1.225-.054c1.586-.558,3.212-.973,4.837-1.392a8.5,8.5,0,0,0,3.3-1.56c.39-.314.785-.625,1.156-.961.67-.607,1.323-1.232,1.986-1.847a31.951,31.951,0,0,1,3.692-2.784,16.273,16.273,0,0,1,1.526-.945c.544-.291,1.117-.531,1.685-.771a1.69,1.69,0,0,1,.545-.1c.053,0,.144.077.161.137a.324.324,0,0,1-.061.208c-.02.035-.081.049-.123.072-.629.363-1.288.685-1.881,1.1a42.373,42.373,0,0,0-4.649,3.759c-.74.69-1.453,1.409-2.179,2.115a10.4,10.4,0,0,1-4.981,2.771c-1.137.265-2.254.609-3.379.924a1.422,1.422,0,0,0-.4.178.4.4,0,0,0-.144.587.863.863,0,0,0,.179.23,1.966,1.966,0,0,0,1.008.521,13.384,13.384,0,0,0,1.639.165c.676.021,1.355.006,2.031-.029a4.413,4.413,0,0,0,1.937-.429,4.237,4.237,0,0,1,.4-.178,11.409,11.409,0,0,0,3.61-2.346q1.789-1.711,3.619-3.379a16.069,16.069,0,0,1,3.67-2.491c.193-.1.394-.178.6-.255.094-.036.215-.043.251.072a.271.271,0,0,1-.06.23,6.623,6.623,0,0,1-.522.432c-.542.424-1.089.839-1.627,1.267a19.9,19.9,0,0,0-2.536,2.418,31.462,31.462,0,0,1-4.025,3.8,1.927,1.927,0,0,0-.147.146,15.882,15.882,0,0,0,4.838-1.735,35.355,35.355,0,0,0,3.1-1.973,25.122,25.122,0,0,0,3.8-3.427c.072-.078.135-.165.189-.231-.284-.72-.6-1.4-.823-2.107-.463-1.439-.912-2.884-1.308-4.342a49.632,49.632,0,0,1-1.324-6.936c-.218-1.773-.423-3.547-.628-5.321a23.213,23.213,0,0,0-.658-3.587,8.2,8.2,0,0,0-.795-2.084,10.517,10.517,0,0,0-1.965-2.375,6.409,6.409,0,0,1-1.628-2.354c-.525-1.27-1-2.559-1.5-3.839a6.027,6.027,0,0,0-.876-1.725c-.237-.287-.443-.6-.668-.9s-.464-.6-.7-.9l-.051.028.42,2.421c.246.082.472.146.688.233a.332.332,0,0,1,.24.336c-.011.187-.155.237-.3.281-.176.055-.355.1-.553.155.057.825-.032,1.637.068,2.462.2-.011.381-.035.556-.026.273.014.546.042.817.079a.284.284,0,0,1,.26.246.317.317,0,0,1-.208.324.97.97,0,0,1-.22.08c-.115.026-.233.038-.348.063a2.251,2.251,0,0,0-.725.211,9.382,9.382,0,0,0,.74,2,.3.3,0,0,0,.081.02c.049,0,.1-.017.145-.025a3.582,3.582,0,0,1,1.606.024c.224.064.312.142.317.293s-.087.257-.324.317c-.172.043-.348.063-.52.1a3.48,3.48,0,0,0-.8.246l.818,1.726c.338-.04.649-.073.96-.113a4.6,4.6,0,0,1,1.493.095c.133.026.244.092.251.246a.277.277,0,0,1-.216.282,1.881,1.881,0,0,1-.257.058Zm-39.954,15.5a.685.685,0,0,0-.015.1c0,.4.005.8.015,1.2a.3.3,0,0,0,.073.181,6.009,6.009,0,0,1,1.012,1.749,39.972,39.972,0,0,1,1.521,4.329,14.562,14.562,0,0,1,.728,4.251c0,.134,0,.269,0,.4a6.74,6.74,0,0,1,2.181,1.207,30.186,30.186,0,0,1,3.779,3.709,22.718,22.718,0,0,1,3.271,4.91.25.25,0,0,0,.266.171,19.342,19.342,0,0,1,3.194.255,32.239,32.239,0,0,1,3.855.8,23.015,23.015,0,0,1,4.383,1.692c.528.279,1.043.583,1.576.882a3.991,3.991,0,0,1,1.383-.7,2.963,2.963,0,0,1-.023-1.653,4.226,4.226,0,0,1-1.811-1.261,2.264,2.264,0,0,1-.5-.79c-.175-.53-.33-1.068-.474-1.607a1.371,1.371,0,0,1,.16-1.05,3.059,3.059,0,0,1,.976-1.045c.381-.255.772-.5,1.179-.756-.081-.054-.158-.109-.239-.159a10.982,10.982,0,0,1-1.865-1.383c-.63-.605-1.25-1.22-1.852-1.853a12.76,12.76,0,0,1-2.29-3.124c-.39-.792-.756-1.6-1.144-2.389a16.2,16.2,0,0,1-1.249-3.453,11.19,11.19,0,0,0-.743-2.045c-.088-.194-.2-.381-.3-.583-.11.015-.2.03-.3.039-.244.022-.488.055-.732.059q-1.03.012-2.061,0c-.323,0-.647-.025-.968-.062-.731-.083-1.46-.18-2.189-.271a2.634,2.634,0,0,1-1.112-.354c-.256-.164-.513-.328-.763-.5-.176-.12-.341-.255-.518-.388-.05.06-.085.105-.124.148a1.618,1.618,0,0,1-1.371.616,4.483,4.483,0,0,1-.943-.2.557.557,0,0,0-.618.13c-.148.144-.313.269-.472.4a1.552,1.552,0,0,1-2.06-.153c-.392-.425-.769-.864-1.146-1.3a.392.392,0,0,0-.288-.168A6.626,6.626,0,0,0-94.509,16040.145Zm11.609-47.534c-.24.271-.449.478-.625.71-.526.7-1.032,1.411-1.56,2.106-.4.524-.842,1.014-1.219,1.551-.959,1.367-1.891,2.753-2.833,4.131-.08.117-.153.239-.244.383a.486.486,0,0,0,.127,0,23.134,23.134,0,0,1,2.469-.869c.726-.239,1.447-.5,2.171-.745a1.185,1.185,0,0,0,.561-.41,4.776,4.776,0,0,1,.475-.523c.774-.738,1.551-1.476,2.333-2.2a7.955,7.955,0,0,1,1.331-1.019,13.774,13.774,0,0,1,2.9-1.275,11.77,11.77,0,0,1,4.742-.487,9.825,9.825,0,0,1,4.766,1.718,9.727,9.727,0,0,1,2.914,3.035c.447.761.842,1.552,1.254,2.332.173.327.331.662.5,1,.085-.021.152-.034.217-.052s.143-.044.227-.071c-.027-.067-.043-.112-.063-.155a22.447,22.447,0,0,0-1.966-3.52,15.552,15.552,0,0,0-2.65-3.032,9.6,9.6,0,0,0-3.124-1.852,9.544,9.544,0,0,0-4.915-.253,21.563,21.563,0,0,0-3.524,1.049,10.4,10.4,0,0,0-2.376,1.225c-.725.5-1.438,1.029-2.165,1.533a9.716,9.716,0,0,0-1.929,1.765c-.176.211-.367.41-.562.6-.121.122-.226.125-.306.037-.1-.105-.039-.2.026-.29.195-.283.394-.563.577-.854a6.29,6.29,0,0,1,1.312-1.543c.744-.611,1.476-1.238,2.24-1.824a13.712,13.712,0,0,1,1.591-1.06,17.148,17.148,0,0,1,3.155-1.3,12.728,12.728,0,0,1,4.838-.69,9.346,9.346,0,0,1,3.873,1.115,12.081,12.081,0,0,1,3.706,3.189,19.522,19.522,0,0,1,3.073,5.608c.026.072.059.14.085.2.121.013.219.027.316.033s.188,0,.29,0c-.015-.086-.024-.155-.04-.222a13.935,13.935,0,0,0-2.266-4.853,18.335,18.335,0,0,0-1.992-2.321c-.271-.268-.555-.523-.843-.773a.615.615,0,0,1-.208-.635,2.33,2.33,0,0,1,.075-.231c-.058-.031-.108-.059-.159-.084a19.35,19.35,0,0,0-4.289-1.434c-.947-.216-1.894-.435-2.843-.639a.877.877,0,0,1-.718-.616c-.057-.173-.147-.336-.226-.514-.1.039-.173.061-.242.1-.538.282-1.086.55-1.611.855-.831.486-1.677.94-2.545,1.355a8.812,8.812,0,0,0-2.546,1.676.832.832,0,0,1-.16.127.588.588,0,0,1-.8-.1c-.11-.148-.2-.311-.3-.469S-82.775,15992.823-82.9,15992.61Zm-7.192,35.414a.125.125,0,0,0-.049-.015c-1-.009-2-.019-3.005-.022a.566.566,0,0,0-.577.548,1.5,1.5,0,0,0,.123.564c.162.39.35.769.533,1.148a16.1,16.1,0,0,0,1.516,2.622c.806,1.088,1.623,2.169,2.468,3.227a23.469,23.469,0,0,0,4.183,4.081,2.624,2.624,0,0,0,1.289.609c1.081.122,2.157.281,3.248.315a15.143,15.143,0,0,0,2.612-.079,13.95,13.95,0,0,0,2.54-.626.48.48,0,0,0,.087-.054c-.031-.029-.042-.049-.058-.057-.6-.312-1.2-.622-1.806-.927a.378.378,0,0,0-.223-.028,11.066,11.066,0,0,1-2.5.138,8.816,8.816,0,0,1-3.144-.7,11.262,11.262,0,0,1-2.829-1.841,19.3,19.3,0,0,1-3.161-3.6,35.475,35.475,0,0,1-2.148-3.655,1.25,1.25,0,0,1-.137-.354.306.306,0,0,1,.064-.234c.075-.078.164-.012.231.048a1.02,1.02,0,0,1,.145.147c.351.473.734.925,1.043,1.424a26.743,26.743,0,0,0,3.25,4.181,12.877,12.877,0,0,0,3.226,2.5,8.35,8.35,0,0,0,4.669.94c.013,0,.025-.022.054-.049-.051-.047-.1-.094-.147-.136-.38-.327-.765-.646-1.138-.979a.632.632,0,0,0-.45-.162,8.1,8.1,0,0,1-1.143-.077,6.756,6.756,0,0,1-3.133-1.551,22.622,22.622,0,0,1-2.69-2.549,13.817,13.817,0,0,1-2.241-3.231C-89.628,16029.069-89.855,16028.547-90.092,16028.024Zm16.781-15.125a.3.3,0,0,0-.1,0,1.113,1.113,0,0,0-.239.113,4.862,4.862,0,0,0-1.544,1.469,2.258,2.258,0,0,0-.176.3.321.321,0,0,0,.009.24c.021.035.142.03.212.017.163-.034.32-.1.484-.125a4.413,4.413,0,0,1,.671-.058.245.245,0,0,1,.191.141c.014.053-.066.146-.125.2a.85.85,0,0,1-.21.1,6.468,6.468,0,0,0-2.154,1.613,1.117,1.117,0,0,0-.272.842c.018.3.136.364.4.233a6.873,6.873,0,0,1,1.9-.6,2.36,2.36,0,0,1,.557-.019.263.263,0,0,1,.193.143.281.281,0,0,1-.086.227.8.8,0,0,1-.284.146,9.408,9.408,0,0,0-1.657.761,3.282,3.282,0,0,0-1.286,1.384,2.664,2.664,0,0,0-.241.813,1.211,1.211,0,0,0,.047.55.433.433,0,0,0,.653.279.969.969,0,0,0,.239-.167,7.2,7.2,0,0,1,2.963-1.513.364.364,0,0,1,.144-.016.19.19,0,0,1,.129.311.562.562,0,0,1-.16.127c-.17.1-.343.188-.517.281a6.164,6.164,0,0,0-2.32,2.085,2.025,2.025,0,0,0-.3.664,1.4,1.4,0,0,0,.5,1.229.435.435,0,0,0,.467.1,1.045,1.045,0,0,0,.492-.3,6.481,6.481,0,0,1,2.408-1.653c.219-.088.444-.156.669-.228a.213.213,0,0,1,.275.108.216.216,0,0,1-.078.286c-.031.023-.065.044-.1.064-.2.129-.4.255-.591.388a6.693,6.693,0,0,0-1.9,1.866,1.546,1.546,0,0,0-.275.674,1.456,1.456,0,0,0,.8,1.339.568.568,0,0,0,.684-.1,1.973,1.973,0,0,0,.184-.19,5.7,5.7,0,0,1,1.843-1.348c.152-.067.307-.132.464-.184.177-.058.306-.019.357.1.063.148-.029.244-.128.328a4.409,4.409,0,0,1-.351.269,5.79,5.79,0,0,0-1.3,1.315,1.312,1.312,0,0,0-.241.715.61.61,0,0,0,.234.544,2.033,2.033,0,0,0,1.426.448.714.714,0,0,0,.251-.07A2.307,2.307,0,0,0-69,16028a2.3,2.3,0,0,0,.256-1.285,10.476,10.476,0,0,0-.365-1.724,36.026,36.026,0,0,0-2.079-4.834.394.394,0,0,0-.177-.184,1.765,1.765,0,0,1-.9-.97,8.982,8.982,0,0,1-.631-1.927c-.122-.665-.209-1.337-.307-2.007a9.685,9.685,0,0,1-.112-1.761C-73.307,16013.173-73.311,16013.038-73.311,16012.9Zm29.3,34.709a2.426,2.426,0,0,1,.221-.181c.209-.124.531-.009.509.191a1.768,1.768,0,0,1-.182.825c-.288.432-.557.882-.885,1.281a19.313,19.313,0,0,1-3.374,3.23,28.716,28.716,0,0,1-4.389,2.738,16.441,16.441,0,0,1-4.8,1.556c-.91.142-1.822.275-2.737.39-.69.088-1.383.179-2.078.2a16.382,16.382,0,0,1-4.045-.251,1.279,1.279,0,0,0-.829.1,6.984,6.984,0,0,0-2.032,1.385,1.339,1.339,0,0,0-.231.339c-.085.163-.067.188.131.318.115-.083.231-.173.353-.254.572-.381,1.143-.763,1.72-1.136a2.677,2.677,0,0,1,.451-.215.253.253,0,0,1,.322.055c.092.119.033.229-.045.32a2.316,2.316,0,0,1-.309.313c-.519.421-1.044.834-1.566,1.251-.056.045-.108.1-.189.169l.823.328.132-.145a14.148,14.148,0,0,1,1.99-1.878.643.643,0,0,1,.168-.117.441.441,0,0,1,.246-.008.193.193,0,0,1,.11.246.737.737,0,0,1-.119.264c-.157.2-.32.4-.493.586-.339.368-.688.729-1.031,1.094-.051.054-.09.117-.16.21l.677.161c.314-.364.582-.705.88-1.017.373-.389.771-.755,1.16-1.129.079-.076.167-.152.283-.065a.255.255,0,0,1,.073.32,1.355,1.355,0,0,1-.183.333c-.372.483-.752.959-1.128,1.438-.07.089-.139.18-.234.3l.844.15c.052-.1.088-.18.134-.255.317-.52.629-1.042.959-1.554a3.056,3.056,0,0,1,.407-.463.23.23,0,0,1,.3-.047.245.245,0,0,1,.124.275,1.385,1.385,0,0,1-.128.358c-.248.469-.505.933-.756,1.4-.064.118-.121.241-.2.4a3.281,3.281,0,0,0,.872.039,7.619,7.619,0,0,1,.8-1.907,5.242,5.242,0,0,1,.387-.59.266.266,0,0,1,.219-.1.351.351,0,0,1,.183.2.462.462,0,0,1-.014.259,4.977,4.977,0,0,1-.15.477c-.165.462-.336.922-.5,1.385-.035.1-.054.2-.087.32h.7c.028-.1.055-.192.081-.286a10.694,10.694,0,0,1,.818-2.016c.063-.12.135-.223.292-.193.125.023.2.13.193.322a1.741,1.741,0,0,1-.051.407c-.108.418-.229.833-.344,1.249-.033.118-.059.236-.1.381a1.247,1.247,0,0,0,1.091-.655c.16-.324.307-.656.442-.991a.831.831,0,0,1,.523-.481,3.17,3.17,0,0,1,.426-.111c.211-.046.425-.077.635-.128a23.312,23.312,0,0,0,4.635-1.6,24.9,24.9,0,0,0,2.964-1.628,25.058,25.058,0,0,0,4.868-4.109,14.646,14.646,0,0,0,1.512-1.954,3.065,3.065,0,0,0,.522-1.723,1.929,1.929,0,0,0-.949-1.572,1.62,1.62,0,0,0-1.355-.12Zm-23.677-39.883c.19.134.333.234.478.334a.228.228,0,0,1,.082.287c-.037.107-.135.093-.225.076-.116-.02-.232-.043-.349-.055a4.5,4.5,0,0,0-.7-.059,2.771,2.771,0,0,0-1.763.972.269.269,0,0,0,.113.454.979.979,0,0,0,.229.045c.427.06.856.111,1.282.182a2.071,2.071,0,0,1,.448.141c.162.067.225.178.188.289-.045.135-.154.162-.28.168-.569.028-1.139.039-1.7.1a4.639,4.639,0,0,0-1.028.235,1.828,1.828,0,0,0-1.1,1.672.4.4,0,0,0,.259.391,1.605,1.605,0,0,0,.423.1c.215.017.432,0,.648,0a5.731,5.731,0,0,1,1.6.187,2.575,2.575,0,0,1,.437.171c.184.092.254.205.209.313-.06.144-.188.154-.322.147-.1-.006-.2-.014-.294-.019a4.5,4.5,0,0,0-2.317.426.908.908,0,0,0-.541.685,2.1,2.1,0,0,0,.079.957.5.5,0,0,0,.523.393c.3-.013.609-.015.91-.047a4.845,4.845,0,0,1,1.924.154c.253.077.345.167.309.292-.054.189-.221.156-.365.167-.313.025-.628.036-.937.084a3.535,3.535,0,0,0-1.282.414,1.571,1.571,0,0,0-.356.3.711.711,0,0,0-.045.825.6.6,0,0,0,.594.4c.226,0,.452-.006.678,0a2.147,2.147,0,0,0,1.347-.436,4.106,4.106,0,0,0,1.12-1.312,3.091,3.091,0,0,0,.469-1.039,12.971,12.971,0,0,0,.125-2.41,32.706,32.706,0,0,1,.277-5.876c.036-.209.052-.421.081-.668A3.223,3.223,0,0,0-67.688,16007.726Zm-2.736,60.567c-.316-.172-.644-.347-.969-.528a17.124,17.124,0,0,0-3.393-1.405,44.811,44.811,0,0,0-4.73-1.084,5.729,5.729,0,0,0-1.422-.064,3.326,3.326,0,0,1-1.374,2.514c.036.039.046.058.062.066a15.32,15.32,0,0,0,4.325,1.661,23.244,23.244,0,0,0,4.078.543c.882.035,1.765.03,2.648.038a1.682,1.682,0,0,0,.3-.044Zm-10.787-38.442.314-.081c.218-.055.435-.116.656-.159a1.214,1.214,0,0,1,.352-.008c.1.011.206.062.2.177a.365.365,0,0,1-.111.218,1.53,1.53,0,0,1-.224.139c-.3.215-.612.424-.9.654a1.452,1.452,0,0,0-.414,1.757.233.233,0,0,0,.241.172.653.653,0,0,0,.5-.211,4.862,4.862,0,0,1,1.313-.834,1.858,1.858,0,0,1,.416-.14.227.227,0,0,1,.192.086.256.256,0,0,1-.025.21.85.85,0,0,1-.169.162,7.89,7.89,0,0,0-1.454,1.77.775.775,0,0,0,.032.935c.06.078.115.16.18.232a.5.5,0,0,0,.85.022c.115-.121.228-.245.347-.362a6.982,6.982,0,0,1,1.3-1.058.5.5,0,0,1,.209-.1.368.368,0,0,1,.259.079.363.363,0,0,1,.044.269c-.011.068-.081.131-.132.189-.2.24-.418.472-.611.718-.261.332-.52.667-.753,1.019a.723.723,0,0,0,.146,1.023c.167.151.334.3.506.449a.644.644,0,0,0,.979-.107c.151-.206.283-.426.425-.639a3.606,3.606,0,0,1,.8-.855,1.616,1.616,0,0,1,.277-.166.193.193,0,0,1,.263.057.517.517,0,0,1,.038.245c0,.034-.035.069-.053.1-.214.431-.432.858-.64,1.293-.106.221-.2.447-.291.676a.539.539,0,0,0,.261.771,4.691,4.691,0,0,0,.417.221.74.74,0,0,0,1.139-.418c.18-.425.357-.852.542-1.274a3.437,3.437,0,0,1,.252-.5.238.238,0,0,1,.444,0,1,1,0,0,1,.142.409,1.7,1.7,0,0,1-.031.556c-.11.457-.246.908-.374,1.361-.029.1-.077.2-.1.308a.464.464,0,0,0,.353.609,3.614,3.614,0,0,0,.374.075.33.33,0,0,0,.389-.193,5.344,5.344,0,0,0,.286-.612,5.527,5.527,0,0,0,.284-2.029,3.7,3.7,0,0,0-.173-.828.547.547,0,0,0-.384-.366,10.815,10.815,0,0,1-1.255-.574,13,13,0,0,1-3.279-2.752,21.4,21.4,0,0,1-2.575-3.508.543.543,0,0,0-.755-.23,2.638,2.638,0,0,0-.894.752A1.361,1.361,0,0,0-81.211,16029.851Zm2.033-6.352c.126-.029.227-.059.329-.076a1.183,1.183,0,0,1,.348-.033.334.334,0,0,1,.222.152c.025.053-.034.16-.078.23a.7.7,0,0,1-.154.134c-.15.128-.307.247-.447.384a1.445,1.445,0,0,0-.455,1.254c.041.336.183.4.471.229a4.866,4.866,0,0,1,.578-.286.861.861,0,0,1,.287-.057c.112-.008.236.019.263.14a.606.606,0,0,1-.05.271c-.01.034-.051.059-.077.088-.232.268-.457.54-.7.8a.827.827,0,0,0-.129,1c.193.4.434.5.829.283.18-.1.337-.235.511-.347.248-.157.5-.311.753-.457a.253.253,0,0,1,.345.063c.1.124.044.237-.04.346-.133.17-.268.339-.4.511-.207.274-.424.542-.612.829a.7.7,0,0,0,.059.969c.049.062.1.121.149.184a.524.524,0,0,0,.724.172,1.231,1.231,0,0,0,.341-.271,4.613,4.613,0,0,1,1.01-.852c.123-.073.246-.188.4-.062.1.084.076.175-.057.395q-.473.781-.935,1.569a.875.875,0,0,0-.018.875,1.6,1.6,0,0,0,.33.407.692.692,0,0,0,1.093-.068c.044-.053.081-.111.123-.165.256-.336.51-.674.771-1.006.173-.222.3-.271.438-.193s.183.228.08.473c-.193.461-.415.909-.615,1.367a4.215,4.215,0,0,0-.213.607.489.489,0,0,0,.253.6c.093.053.181.118.273.174a.838.838,0,0,0,1.172-.292c.192-.342.358-.7.522-1.055.13-.285.238-.58.359-.87.047-.112.107-.216.25-.215s.206.1.25.217a.885.885,0,0,1,.073.283,3.11,3.11,0,0,1-.021.528,4.668,4.668,0,0,1-.465,1.482.794.794,0,0,0-.092.275.283.283,0,0,0,.411.316.619.619,0,0,0,.36-.329c.1-.193.195-.386.278-.585a3.259,3.259,0,0,0,.257-1.9,5.645,5.645,0,0,0-.58-1.537c-.063-.122-.162-.123-.269-.135a4.288,4.288,0,0,1-1.643-.522,9.633,9.633,0,0,1-1.387-.992,13.935,13.935,0,0,1-2.323-2.324,11.8,11.8,0,0,1-2-3.971c-.074-.271-.146-.542-.221-.82A3.4,3.4,0,0,0-79.178,16023.5Zm-13.219,33.878a13.122,13.122,0,0,0,1.95,3.449c.626.779,1.3,1.518,1.961,2.271a7.49,7.49,0,0,0,2.029,1.543l1.272-1.389c-1.231-2.459-4.979-7.354-6.194-8.08A5.962,5.962,0,0,1-92.4,16057.377Zm2.338-16.844c-.028-.045-.047-.079-.069-.111-1.207-1.745-2.421-3.483-3.619-5.235-.382-.558-.724-1.144-1.081-1.72a1.792,1.792,0,0,1-.155-.316.3.3,0,0,1,.085-.373.3.3,0,0,1,.38.036.963.963,0,0,1,.156.134c.232.266.478.521.688.8q2.2,2.975,4.381,5.959c.064.086.13.171.2.266a2.184,2.184,0,0,1,1.185.174.765.765,0,0,0,.9-.272c-.1-.1-.179-.191-.27-.277-.541-.513-1.1-1.006-1.622-1.541-.6-.619-1.2-1.25-1.734-1.924-.765-.958-1.5-1.941-2.2-2.949a15.793,15.793,0,0,1-1.57-3.092c-.029-.07-.057-.143-.1-.241-.191.137-.367.26-.54.388a.415.415,0,0,0-.161.468,2.2,2.2,0,0,1,.065.377,1.461,1.461,0,0,1-.693,1.287c-.187.141-.39.262-.616.412a2.485,2.485,0,0,0,.124.349c.073.139.17.264.254.4.519.82,1.013,1.66,1.563,2.46.639.93,1.315,1.835,2,2.732.48.634.981,1.252,1.508,1.847C-90.626,16040.988-90.621,16041.083-90.059,16040.533Zm20.481,1.741a.914.914,0,0,0-.1.021,20.51,20.51,0,0,0-4.078,1.752,2.018,2.018,0,0,0-.983,1.3.985.985,0,0,0,.342,1.106,1.508,1.508,0,0,0,1.183.335,4.914,4.914,0,0,0,.922-.188,22.913,22.913,0,0,1,3-.757c.285-.052.567-.123.842-.184Zm-24.541,11.616a.962.962,0,0,0-.42.669,5.134,5.134,0,0,0,.1,2.1c.171.684.39,1.356.612,2.027a16.591,16.591,0,0,0,1.056,2.458,14.366,14.366,0,0,0,3.1,3.933,7.689,7.689,0,0,0,2.841,1.68,6.8,6.8,0,0,0,2.04.359,3.7,3.7,0,0,0,1.5-.237,2.039,2.039,0,0,0,1.139-1.382c.008-.024,0-.056-.012-.118-.2.081-.392.146-.571.234a6.684,6.684,0,0,1-1.382.494,2.519,2.519,0,0,1-1.077.057,6.806,6.806,0,0,1-2.94-1.276,13.685,13.685,0,0,1-2.46-2.355c-.521-.65-1.047-1.3-1.506-1.994a12.752,12.752,0,0,1-1.343-2.709,12.2,12.2,0,0,1-.671-2.916A9.994,9.994,0,0,1-94.119,16053.891Zm-1.6,2.743.076-.016c0-.585,0-1.169,0-1.754a.535.535,0,0,0-.086-.212,9.491,9.491,0,0,1-.473-.944c-.232-.635-.448-1.277-.625-1.929a46.946,46.946,0,0,1-.989-4.6,16.6,16.6,0,0,1-.3-3.275,2.124,2.124,0,0,0-.015-.265.294.294,0,0,0-.034-.139c-.153-.207-.313-.41-.509-.663-.055.337-.118.624-.148.913a22.015,22.015,0,0,0-.083,2.556,15.46,15.46,0,0,0,.367,2.975c.179.854.383,1.7.6,2.55a14.427,14.427,0,0,0,.5,1.723c.251.647.581,1.265.881,1.892A5.318,5.318,0,0,0-95.715,16056.634Zm33.075,6.1c.046.175.093.334.127.494.023.108.094.135.188.15.27.049.539.105.809.155a3.422,3.422,0,0,0,.492.081,5.655,5.655,0,0,0,1.6-.189,2.16,2.16,0,0,0,1.054-.556,4.526,4.526,0,0,0,.413-.459c.354-.471.7-.948,1.041-1.426a.7.7,0,0,1,.389-.292c1.2-.337,2.4-.682,3.594-1.023a16.436,16.436,0,0,0,4.938-2.377,19.669,19.669,0,0,0,3.933-3.619c.916-1.113,1.766-2.282,2.653-3.42a.338.338,0,0,0,.049-.376c-.246.38-.478.778-.749,1.147a21.117,21.117,0,0,1-3.158,3.364,25.542,25.542,0,0,1-5.695,3.841,24.156,24.156,0,0,1-3.23,1.337,13.065,13.065,0,0,1-2.882.7.4.4,0,0,0-.1.03c-.13.289-.244.571-.381.841a2.539,2.539,0,0,1-1.728,1.395,8.2,8.2,0,0,1-2.54.206C-62.081,16062.718-62.346,16062.734-62.64,16062.734Zm-34.38-18.77c-.02.031-.029.04-.028.047a34.284,34.284,0,0,0,.628,4.514,37.084,37.084,0,0,0,.958,3.914c.117.361.257.717.388,1.078l.959-.763a34.57,34.57,0,0,0-2.2-8.868Zm29.532,24.7c-.167.253-.323.467-.456.7a3.223,3.223,0,0,1-2.136,1.574,12.393,12.393,0,0,1-2.1.262,21.421,21.421,0,0,1-5.557-.453,14.805,14.805,0,0,1-5.69-2.367.617.617,0,0,0-.614-.062c.2.171.371.316.546.453a11.9,11.9,0,0,0,3.194,1.853,20.612,20.612,0,0,0,3.336.935,17.721,17.721,0,0,0,2.592.336c.606.022,1.215,0,1.823-.011a8.906,8.906,0,0,0,4.124-1.042,3.735,3.735,0,0,0,1.1-.956.366.366,0,0,0,.087-.183A1.367,1.367,0,0,0-67.488,16068.661Zm-1.888-1.97a5.537,5.537,0,0,0-1.047-.665,22.9,22.9,0,0,0-3.075-1.168,23.359,23.359,0,0,0-3.215-.818c-.782-.137-1.564-.275-2.351-.375-.641-.081-1.288-.119-1.933-.15a7.343,7.343,0,0,0-1.732.051,3.874,3.874,0,0,0-2.012,1.15,1.394,1.394,0,0,0-.366.458.909.909,0,0,0,.783.027c.295-.133.582-.282.876-.416a6.817,6.817,0,0,1,1.872-.68,7.458,7.458,0,0,1,2.316,0,42.138,42.138,0,0,1,4.51.985,18.514,18.514,0,0,1,4.352,1.836c.193.115.389.224.592.339ZM-92.9,16055.83c.051-.106.084-.165.107-.228a6.333,6.333,0,0,0,.385-1.627c.047-.437.052-.881.09-1.319a8.344,8.344,0,0,0-.2-2.688c-.217-.9-.491-1.8-.756-2.689a29.3,29.3,0,0,0-1.664-4.4,1.626,1.626,0,0,0-1.275-.968.46.46,0,0,0-.16.033.464.464,0,0,0,.05.177,4.531,4.531,0,0,1,.4.469,8.663,8.663,0,0,1,.691,1.3c.4,1.055.787,2.116,1.1,3.2a31.17,31.17,0,0,1,1.109,5.32,9.211,9.211,0,0,1,.009,2.375A1.882,1.882,0,0,0-92.9,16055.83Zm22.1-19.7a3.729,3.729,0,0,1,.23,1.746,5.808,5.808,0,0,1-.607,2.289,1.666,1.666,0,0,1-1.634.986,5.829,5.829,0,0,0-2.276.4.967.967,0,0,0-.5.4.579.579,0,0,0,.467.9,1.653,1.653,0,0,0,.3,0,5.288,5.288,0,0,0,1.611-.443,23.809,23.809,0,0,1,3.174-1.257c.071-.022.138-.057.216-.089a22.465,22.465,0,0,1-.314-4.93Zm-12.312,26.34c-.068-.128-.112-.224-.168-.313-.355-.576-.7-1.158-1.072-1.725a23.151,23.151,0,0,0-2.941-3.631c-.581-.586-1.171-1.163-1.776-1.722a8.658,8.658,0,0,0-1.613-1.229c-.151-.084-.305-.161-.488-.26v.354c.408.319.81.6,1.175.928a20.35,20.35,0,0,1,2.5,2.734,35.833,35.833,0,0,1,3.291,4.908,1.4,1.4,0,0,0,.117.163Zm18.168-.029a.694.694,0,0,0-.764.481,1.2,1.2,0,0,1-.093.15,2.766,2.766,0,0,0-.378,1.549.739.739,0,0,0,.477.679.994.994,0,0,0,.972-.158,10.063,10.063,0,0,0,.8-.73,1.14,1.14,0,0,0,.312-.715A1.305,1.305,0,0,0-64.949,16062.439Zm-2.678-36.721c.226-.351.432-.648.615-.961a1.759,1.759,0,0,0,.193-.486c.215-.927.421-1.855.624-2.785a1.08,1.08,0,0,0,.014-.321c-.058-.665-.121-1.329-.185-1.993a.943.943,0,0,0-.068-.187c-.025.091-.035.128-.044.165-.441,1.893-.906,3.779-1.24,5.7A1.5,1.5,0,0,0-67.627,16025.719Zm-1.843,43.817a2.318,2.318,0,0,0,.782-.719,5.259,5.259,0,0,1,1.537-1.64,2.214,2.214,0,0,1,.393-.193.273.273,0,0,1,.324.067.28.28,0,0,1,0,.355,3.118,3.118,0,0,1-.273.319l.335.536a2.265,2.265,0,0,0,.385-1.6.326.326,0,0,0-.134-.2c-.157-.1-.33-.168-.5-.252a.39.39,0,0,0-.418,0c-.14.09-.294.161-.424.262a6.122,6.122,0,0,0-2.015,2.9A.713.713,0,0,0-69.47,16069.536Zm1.02-46.409.975-3.863-1.285.75c-.11.47-.235.974-.342,1.481a.6.6,0,0,0,.045.336c.145.342.307.678.464,1.015C-68.553,16022.931-68.508,16023.014-68.45,16023.127Zm-27.863,15.992a1.843,1.843,0,0,0-.963.676,3.025,3.025,0,0,0-.473,2.246,1.62,1.62,0,0,0,.275.607.525.525,0,0,0,.587.216c-.043-.062-.061-.112-.1-.134a.765.765,0,0,1-.329-.811,3.489,3.489,0,0,1,.73-1.86.69.69,0,0,1,.312-.2.288.288,0,0,1,.343.1c.077.105.019.2-.025.3-.084.193-.154.394-.237.607l.719.113c0-.289.006-.542,0-.794,0-.054-.069-.105-.111-.154-.146-.17-.3-.333-.44-.508C-96.13,16039.4-96.217,16039.258-96.313,16039.119Zm2.417-.072.031-.077-1.9-2.614c-.1.413-.2.78-.281,1.152a.35.35,0,0,0,.073.238c.277.392.566.773.842,1.166a.315.315,0,0,0,.3.136C-94.521,16039.044-94.208,16039.047-93.9,16039.047Zm27.071,23.473.331-.456-1.863-.615A3.015,3.015,0,0,0-66.825,16062.52Z" transform="translate(100.086 -15988.335)"/>
</svg>
