<svg xmlns="http://www.w3.org/2000/svg" width="54.376" height="94.521" viewBox="0 0 54.376 94.521">
  <g id="Group_259" data-name="Group 259" transform="translate(826.791 -15980.405)">
    <path id="Path_242" data-name="Path 242" d="M-777.758,16031.951c-.117.245,0,.47.055.7a2.846,2.846,0,0,1,.077.376,9.187,9.187,0,0,0,.179,1.32.35.35,0,0,1,.008.056c.038.416.069.833.118,1.247.037.313.1.623.148.934.017.1.041.2.061.3.012.064,0,.146.038.189.162.192.119.422.138.642.012.146.049.29.075.436a.789.789,0,0,1,.018.082c.034.352.071.7.1,1.055a10.072,10.072,0,0,0,.188,1.457,1.383,1.383,0,0,1,.013.224,1.64,1.64,0,0,0,.084.661c.038.077.008.186.018.278.017.156.045.311.062.467a.96.96,0,0,1,.008.307,2.04,2.04,0,0,0,.01.887,4.154,4.154,0,0,1,.015.476c.013.165.043.328.065.492a.318.318,0,0,1,.005.11,2.4,2.4,0,0,0,.006,1.1.591.591,0,0,1,0,.251,2.051,2.051,0,0,0,0,1.021.3.3,0,0,1,0,.167,2.043,2.043,0,0,0-.042.972c.049.336.037.669.066,1,.014.167.006.337.014.5.025.473.051.946.081,1.419a1.33,1.33,0,0,0,.052.186.388.388,0,0,1,.019.159,2.28,2.28,0,0,0,.01,1.049,2.846,2.846,0,0,1,.018.335c.019.192.045.386.065.578a.582.582,0,0,1,0,.2,1.691,1.691,0,0,0,.012.856.508.508,0,0,1,.012.11,2.783,2.783,0,0,0,.08.747.658.658,0,0,1,0,.416c-.092.23.029.417.062.622.014.09.048.178.053.269a1.39,1.39,0,0,0,.1.516,10.215,10.215,0,0,0,.379.951.553.553,0,0,1,.04.189c.015.1.01.209.123.267a.117.117,0,0,1,.049.063,3.224,3.224,0,0,0,.646,1.073c.175.213.368.412.53.634.246.336.487.678.7,1.034a3.539,3.539,0,0,1,.393,1.263c.039.228.118.446.175.669.018.072.017.15.039.221a1.016,1.016,0,0,0,.1.25c.1.161.113.273-.022.4-.3.276-.613.539-.93.815-.063-.058-.12-.085-.139-.129-.08-.187-.154-.377-.221-.57a13.82,13.82,0,0,1-.4-1.581,3.322,3.322,0,0,0-.107-.458,2.766,2.766,0,0,0-.245-.492,4.677,4.677,0,0,0-.35-.466c-.2-.247-.423-.48-.619-.733a4.2,4.2,0,0,1-.364-.573c-.064-.12-.172-.2-.225-.336a9,9,0,0,0-.484-.959c-.012-.025-.04-.052-.037-.073a1.126,1.126,0,0,0-.252-.688,1.7,1.7,0,0,1-.181-.712c-.026-.249-.059-.5-.091-.746-.05-.4-.1-.808-.151-1.212a1.026,1.026,0,0,1-.007-.336.493.493,0,0,0-.065-.473.1.1,0,0,1-.015-.078,2.921,2.921,0,0,0-.03-1.159,3.178,3.178,0,0,1-.011-.448,1.284,1.284,0,0,0-.07-.521.844.844,0,0,1,0-.357,3.1,3.1,0,0,0,.025-.359c-.017-.315-.045-.63-.072-.945-.035-.406-.077-.812-.108-1.218-.009-.127.024-.257.014-.383a4.3,4.3,0,0,0-.064-1.031,1.055,1.055,0,0,1,.019-.3c0-.241,0-.482,0-.724,0-.147-.006-.295,0-.442,0-.232.013-.464.014-.7,0-.3-.006-.611-.007-.916,0-.074.015-.149.009-.223-.015-.194-.046-.388-.057-.581a1.465,1.465,0,0,0-.065-.579.444.444,0,0,1-.006-.277,1.687,1.687,0,0,0-.006-.855.692.692,0,0,1-.012-.111c-.039-.473-.069-.946-.12-1.418-.043-.4-.112-.788-.17-1.182,0-.027,0-.057-.007-.084a12.311,12.311,0,0,0-.131-1.277,9.272,9.272,0,0,0-.334-1.632.208.208,0,0,1-.013-.055c-.039-.358-.072-.72-.118-1.077-.052-.4-.117-.807-.175-1.209-.007-.048-.013-.094-.018-.14a10.971,10.971,0,0,0-.142-1.221c-.068-.3-.007-.642-.211-.914a.129.129,0,0,1-.016-.081,6.186,6.186,0,0,0-.149-1.133,3.593,3.593,0,0,0-.088-.408q-.144-.634-.289-1.271c-.038-.161-.08-.323-.122-.485a1.2,1.2,0,0,1-.04-.133c-.051-.368-.083-.739-.151-1.1a3.134,3.134,0,0,0-.225-.945,1.287,1.287,0,0,1-.055-.242c-.027-.086-.065-.168-.1-.251-.021-.051-.065-.1-.063-.149a2.8,2.8,0,0,0-.263-.877c-.077-.275-.174-.546-.278-.812-.093-.239-.208-.472-.314-.706-.007-.018-.026-.031-.028-.048a6.924,6.924,0,0,0-.432-1.185,1.6,1.6,0,0,0-.2-.422c-.206-.294-.266-.668-.523-.933a.1.1,0,0,1-.025-.049,3.878,3.878,0,0,0-.4-.836c-.14-.283-.3-.556-.447-.834-.157-.294-.311-.588-.465-.882-.009-.017-.013-.038-.026-.05a4.248,4.248,0,0,1-.764-1.147c-.173-.3-.4-.558-.6-.838s-.38-.541-.568-.812-.368-.526-.544-.794c-.121-.186-.224-.382-.342-.568-.151-.239-.3-.48-.467-.708a4.165,4.165,0,0,1-.425-.681,6.457,6.457,0,0,0-.473-.739c-.2-.3-.392-.607-.591-.909-.107-.163-.216-.324-.331-.48-.137-.187-.29-.363-.422-.555-.118-.17-.214-.356-.326-.531s-.228-.34-.346-.507c-.25-.356-.507-.709-.752-1.069-.106-.156-.184-.331-.285-.49-.069-.107-.156-.2-.235-.3-.276-.348-.554-.693-.828-1.042-.08-.1-.147-.215-.229-.316-.182-.223-.372-.44-.556-.663-.4-.479-.775-.977-1.2-1.428-.171-.182-.331-.371-.5-.555-.289-.32-.584-.636-.881-.947a2.16,2.16,0,0,0-.244-.184c-.225-.172-.391-.423-.683-.5-.132-.037-.268-.065-.4-.115-.171-.066-.332-.158-.5-.224-.38-.144-.763-.277-1.145-.415-.252-.09-.5-.188-.756-.264a5.774,5.774,0,0,0-.62-.132c-.182-.032-.366-.056-.55-.078-.286-.037-.573-.07-.858-.109-.082-.011-.161-.041-.243-.056-.059-.01-.12-.008-.227-.015a6.71,6.71,0,0,0,.448.753c.006.007.018.014.018.021,0,.2.145.332.224.494.1.2.158.418.247.611a2.621,2.621,0,0,0,.275.593.548.548,0,0,1,.07.178c.014.044,0,.1.03.135a3.832,3.832,0,0,1,.35.846c.2.426.346.879.518,1.318.135.344.264.689.417,1.024a4.921,4.921,0,0,0,.31.484,1.881,1.881,0,0,1,.1.237l.059-.009a.525.525,0,0,0,.024-.168,3.523,3.523,0,0,1,.007-1.464.3.3,0,0,0,.014-.138c-.132-.5.17-.926.224-1.393a9.386,9.386,0,0,0,.6-1.4.586.586,0,0,1,.71-.387l.21.352a2.918,2.918,0,0,0-.437,1.294,2.6,2.6,0,0,0-.09.407,2.278,2.278,0,0,0,.014.358c0,.018.023.047.02.049-.2.143-.012.348-.079.5a1.856,1.856,0,0,0-.077.72,1.741,1.741,0,0,0,.054.323.369.369,0,0,1,.017.161,1.507,1.507,0,0,0,.005.957,1.381,1.381,0,0,1,.025.335.659.659,0,0,0,.138.5c.044.043.033.14.053.21a5.01,5.01,0,0,0,.15.5c.024.063.1.11.155.157.093.076.2.139.287.22a.65.65,0,0,0,.952.012,3.666,3.666,0,0,0,.317-.387c.14-.175.269-.358.421-.521a9.276,9.276,0,0,1,.789-.787.794.794,0,0,1,.615-.281c.037.006.072.018.116.028a.373.373,0,0,1-.087.418,7.193,7.193,0,0,0-.714.993,4.419,4.419,0,0,0-.624,1.687,1.656,1.656,0,0,0,.083.774.682.682,0,0,0,.933.339,2.206,2.206,0,0,0,.775-.788,2.76,2.76,0,0,1,.944-.852c.318-.156.311-.172.541-.146.1.244.09.3-.109.408a1.227,1.227,0,0,0-.381.4,4.9,4.9,0,0,0-.549.971c-.071.172-.13.349-.191.524a.27.27,0,0,0-.022.138,1.487,1.487,0,0,0,.56,1.11c.069.042.12.114.19.153a.832.832,0,0,0,1.207-.139,4.586,4.586,0,0,1,.592-.471,2.736,2.736,0,0,1,.588-.248c.229-.078.356.109.492.236a.239.239,0,0,1-.091.337.625.625,0,0,0-.321.366c-.144.286-.294.57-.453.877.279.109.541.219.809.313.35.122.707.223,1.055.349a9.986,9.986,0,0,1,.955.388,2.484,2.484,0,0,1,.52.371.26.26,0,0,1,.05.376.291.291,0,0,1-.368.109l-1.937-.626a.8.8,0,0,0-.172-.013.776.776,0,0,0,.091.13c.089.081.187.153.274.237.288.276.568.562.86.832.177.165.378.3.556.467.237.217.459.449.692.669.16.15.334.285.492.437.268.258.53.521.792.784a9.2,9.2,0,0,1,.868.9,3.336,3.336,0,0,1,.516.645c.055.127.193.218.29.328a2.033,2.033,0,0,1,.379.607,1.934,1.934,0,0,0,.2.321,10.835,10.835,0,0,1,.529,1.191,5.439,5.439,0,0,1,.245.819,1.177,1.177,0,0,0,.083.176.578.578,0,0,1,.065.122c.04.237.08.475.106.713s.042.461.077.691a1.347,1.347,0,0,1-.308,1.119.389.389,0,0,1-.445.153.559.559,0,0,1-.4-.388.624.624,0,0,0-.138-.326c-.053-.054-.047-.176-.049-.267a5.418,5.418,0,0,0-.194-1.18c-.081-.332-.16-.665-.243-1a.784.784,0,0,0-.07-.146c-.032-.062-.068-.124-.1-.187-.042-.093-.078-.188-.119-.28a.9.9,0,0,1-.072-.15,1.851,1.851,0,0,0-.356-.7c-.09-.115-.144-.259-.233-.373-.335-.43-.668-.862-1.023-1.274-.189-.22-.426-.4-.635-.6-.178-.175-.343-.361-.519-.536-.11-.111-.242-.2-.345-.317-.263-.3-.578-.539-.867-.808-.188-.175-.347-.382-.533-.56-.254-.24-.536-.452-.778-.7-.178-.186-.43-.293-.553-.534-.011-.023-.039-.039-.061-.057q-.673-.536-1.345-1.071c-.215-.173-.426-.348-.64-.52a.751.751,0,0,0-.094-.058c-.37-.228-.745-.446-1.108-.684-.338-.221-.662-.463-1-.691a10.349,10.349,0,0,0-.989-.659,5.147,5.147,0,0,1-1.144-.811,2.4,2.4,0,0,1-.573-.875,1.409,1.409,0,0,0-.312-.544c-.1-.091-.129-.243-.218-.344a4.97,4.97,0,0,0-.826-.644,3.092,3.092,0,0,1-.879-.84c-.28-.459-.6-.893-.9-1.344a2.708,2.708,0,0,1-.5-1.071.321.321,0,0,0-.113-.217c-.191-.1-.219-.294-.274-.466-.169-.533-.32-1.071-.489-1.6-.05-.157-.141-.3-.2-.453-.134-.316-.249-.64-.4-.948-.187-.392-.4-.771-.6-1.158-.157-.3-.311-.606-.472-.906-.048-.091-.127-.163-.172-.255a5.231,5.231,0,0,0-.793-1.06,4.354,4.354,0,0,0-.887-.652,1.158,1.158,0,0,0-.718-.187.9.9,0,0,0-.82.533,4.441,4.441,0,0,0-.262.792c-.075.275-.13.557-.187.838a.793.793,0,0,0,.019.2l.374-.276a2.444,2.444,0,0,1,1.233-.5,2.107,2.107,0,0,1,.5.028.217.217,0,0,1,.2.231c-.005.136-.1.188-.224.21a.137.137,0,0,1-.028,0,1.661,1.661,0,0,0-1.317.744,5.2,5.2,0,0,0-.956,1.821,1.649,1.649,0,0,0,.042,1,.583.583,0,0,0,.547-.2,7.639,7.639,0,0,1,.652-.575,3.224,3.224,0,0,1,2.073-.659.525.525,0,0,1,.194.021.436.436,0,0,1,.2.159c.049.11-.038.2-.134.246a.987.987,0,0,1-.341.116,2.332,2.332,0,0,0-1.531.8,8.132,8.132,0,0,0-1.664,2.679,2.178,2.178,0,0,0-.11.872.709.709,0,0,0,.088.265c.124.244.223.283.47.158a3.216,3.216,0,0,0,.521-.327c.472-.367.928-.758,1.406-1.118a5.9,5.9,0,0,1,.791-.477,1.939,1.939,0,0,1,1.175-.186,1.226,1.226,0,0,1,.366.124.185.185,0,0,1,.065.164c-.012.047-.084.084-.137.113a.259.259,0,0,1-.111.009,2.173,2.173,0,0,0-1.471.6,11.954,11.954,0,0,0-1.516,1.653c-.065.08-.124.164-.192.242a4.765,4.765,0,0,0-.951,2.279.877.877,0,0,0,.03.275.183.183,0,0,0,.22.166.787.787,0,0,0,.321-.083,2.641,2.641,0,0,0,.453-.328c.553-.5,1.091-1.025,1.651-1.521a4.241,4.241,0,0,1,1.868-.988,1.189,1.189,0,0,1,.691.017c.11.04.216.09.215.227s-.1.193-.211.235a1.093,1.093,0,0,1-.215.059,2.829,2.829,0,0,0-1.735.9,15.34,15.34,0,0,0-1.914,2.524,2.6,2.6,0,0,0-.327,1.176,1.146,1.146,0,0,0,.194.652.373.373,0,0,0,.477.117,1.356,1.356,0,0,0,.544-.429c.532-.642,1.061-1.285,1.613-1.908a5.564,5.564,0,0,1,1.253-1.118,2.519,2.519,0,0,1,1.573-.417c.046,0,.1-.006.137.016.059.037.136.09.147.146a.218.218,0,0,1-.077.189.775.775,0,0,1-.339.107,1.773,1.773,0,0,0-1.275.567,10.431,10.431,0,0,0-2.251,3.428,1.545,1.545,0,0,0-.136.765.5.5,0,0,0,.75.435,1.2,1.2,0,0,0,.384-.277,5.535,5.535,0,0,0,.551-.7,8.486,8.486,0,0,1,1.735-2.048,5.09,5.09,0,0,1,2.181-.983.555.555,0,0,1,.056-.009c.1-.009.2-.006.239.1s-.023.2-.114.257a2,2,0,0,1-.3.146c-.164.068-.332.125-.5.191a3.228,3.228,0,0,0-1.123.773,7.767,7.767,0,0,0-1.607,2.581,2.623,2.623,0,0,0-.273,1.329,1.589,1.589,0,0,0,.153.5.331.331,0,0,0,.5.15,1.22,1.22,0,0,0,.583-.543,10.638,10.638,0,0,1,1.3-1.963,5.677,5.677,0,0,1,2.506-1.788,1.375,1.375,0,0,1,.383-.065.182.182,0,0,1,.144.1.273.273,0,0,1-.067.191.41.41,0,0,1-.17.095,4.764,4.764,0,0,0-2.447,2.256,13.092,13.092,0,0,0-.982,2.141,3.31,3.31,0,0,0-.123,1.605,1.226,1.226,0,0,0,.221.476c.093.141.178.148.3.039a1.419,1.419,0,0,0,.317-.351,13.874,13.874,0,0,1,3.2-3.657,4.318,4.318,0,0,1,1.78-.979,2.825,2.825,0,0,1,.637-.051.184.184,0,0,1,.2.193.192.192,0,0,1-.195.2,2.968,2.968,0,0,0-1.938,1.132,21.7,21.7,0,0,0-2.323,2.884,6.49,6.49,0,0,0-.907,1.857,9.471,9.471,0,0,0-.152,1.055.132.132,0,0,0,0,.056c.093.282.169.571.285.843.087.2.176.231.385.151a.958.958,0,0,0,.339-.23,2.882,2.882,0,0,0,.27-.392c.527-.785,1.021-1.594,1.587-2.349a8.446,8.446,0,0,1,3.955-2.9.4.4,0,0,1,.188-.042c.074.015.175.056.2.112a.273.273,0,0,1-.065.217.506.506,0,0,1-.193.108,6.838,6.838,0,0,0-2.85,2.3,26.543,26.543,0,0,0-2.056,3.412,7.005,7.005,0,0,0-.715,1.7,6.669,6.669,0,0,0-.118.72.6.6,0,0,0,.032.247c.058.187.165.256.341.174a2.18,2.18,0,0,0,.589-.369,18.944,18.944,0,0,0,1.826-1.942,17.219,17.219,0,0,1,2.079-2.24c.476-.422.942-.857,1.432-1.264a5.457,5.457,0,0,1,1.523-.885.634.634,0,0,1,.593.014.255.255,0,0,1,.109.173c0,.039-.076.1-.13.122a6.567,6.567,0,0,0-2.4,1.563,21.621,21.621,0,0,0-1.986,2.14c-.188.245-.364.5-.552.744-.274.356-.543.717-.836,1.058a7.447,7.447,0,0,0-.812,1.106q-.262.448-.554.879a2.768,2.768,0,0,0-.46,1.2c-.064.472-.1.949-.14,1.424a.53.53,0,0,0,.178.453.305.305,0,0,0,.472.033,3.424,3.424,0,0,0,.508-.521c.342-.456.656-.934.995-1.393s.7-.949,1.08-1.4c.645-.767,1.3-1.52,1.97-2.269a10.922,10.922,0,0,1,2.031-1.765c.534-.362,1.068-.727,1.614-1.072a2.675,2.675,0,0,1,.569-.229c.1-.033.216-.043.256.091.034.114-.057.166-.14.215a17.037,17.037,0,0,0-2.859,2.207,11.7,11.7,0,0,0-1.664,2.043c-.382.543-.78,1.075-1.179,1.607a15.232,15.232,0,0,0-1.6,2.633c-.283.6-.6,1.187-.888,1.782a5.466,5.466,0,0,0-.548,2.445,3.037,3.037,0,0,0,.246.941c.069.194.2.228.413.182a.682.682,0,0,0,.458-.3q.492-.769.985-1.534c.629-.976,1.266-1.945,1.885-2.927.379-.6.725-1.225,1.1-1.831a19.638,19.638,0,0,1,3.037-3.918,11.653,11.653,0,0,1,1.671-1.369,1.768,1.768,0,0,0,.28-.271c.123-.13.214-.158.314-.087s.126.181.036.325a1.487,1.487,0,0,1-.336.405,12.7,12.7,0,0,0-2.353,2.438,19,19,0,0,0-1.707,2.6c-.23.429-.432.873-.672,1.3-.557.984-1.129,1.962-1.694,2.942-.294.511-.59,1.021-.876,1.535-.209.376-.412.756-.6,1.144a6.483,6.483,0,0,0-.654,1.754,3.5,3.5,0,0,0,.133,1.637.652.652,0,0,0,.988.263,1.536,1.536,0,0,0,.488-.639c.333-.731.668-1.463.942-2.221a10.309,10.309,0,0,1,1.442-2.561c.53-.725,1.122-1.4,1.585-2.179.331-.555.679-1.1,1.037-1.637.439-.663.872-1.333,1.352-1.966a9.928,9.928,0,0,1,1.74-1.787,2.745,2.745,0,0,1,.589-.313.178.178,0,0,1,.244.077.179.179,0,0,1-.089.239,7.266,7.266,0,0,0-1.673,1.758,9.775,9.775,0,0,0-1.19,2.031,22.774,22.774,0,0,1-2.265,3.839,3.356,3.356,0,0,0-.35.605c-.283.611-.55,1.23-.829,1.844-.186.407-.41.8-.568,1.221-.283.753-.51,1.526-.794,2.279-.238.629-.518,1.242-.792,1.857a2.578,2.578,0,0,1-.3.477.476.476,0,0,1-.722.141.746.746,0,0,1-.132-.1c-.365-.377-.749-.736-1.087-1.136a7.435,7.435,0,0,1-.814-1.261,16.3,16.3,0,0,1-.9-1.913,15.793,15.793,0,0,1-.523-1.646c-.159-.592-.279-1.194-.412-1.793-.089-.4-.181-.8-.256-1.2-.052-.274-.074-.554-.116-.828-.056-.376-.12-.752-.177-1.128-.013-.083,0-.168-.014-.251-.024-.2-.053-.406-.08-.609,0-.018-.011-.036-.013-.054-.035-.474-.085-.948-.1-1.422-.018-.59,0-1.181-.011-1.771a1.152,1.152,0,0,0-.1-.426c-.233-.528-.5-1.043-.712-1.577a9.722,9.722,0,0,1-.273-.965,2.8,2.8,0,0,0-.345-.964.475.475,0,0,1-.044-.187,6.8,6.8,0,0,0-.131-.683c-.046-.156-.133-.3-.188-.458a3.454,3.454,0,0,1-.209-.627c-.016-.11-.142-.118-.211-.022-.054.076-.1.158-.15.235a.3.3,0,0,0,.005.34,2.576,2.576,0,0,1,.13.3c.024.061.017.139.054.187a.918.918,0,0,1,.149.441c.047.313.146.618.165.931.023.39-.012.783-.025,1.174,0,.046-.024.091-.025.137a4.521,4.521,0,0,1-.345,1.4,5.154,5.154,0,0,1-.294.78,2.781,2.781,0,0,1-.624.937.246.246,0,0,0-.059.061,2.647,2.647,0,0,1-1.054.8,3.606,3.606,0,0,1-.508.234c-.146.056-.3.075-.452.128-.342.122-.727.058-1.055.245a.332.332,0,0,1-.192.02c-.377-.049-.758-.085-1.129-.163a6.14,6.14,0,0,1-.736-.248c-.034-.012-.068-.021-.149-.042.028.274-.06.529.1.765a.228.228,0,0,1,.024.125,1.659,1.659,0,0,0-.019.22,3.088,3.088,0,0,1-.256,1.271c-.091.313-.355.493-.482.768-.022.048-.038.1-.071.181a1,1,0,0,0,.212-.032c.3-.13.607-.248.894-.4q1.453-.792,2.894-1.611c.31-.176.6-.378.906-.563a1.223,1.223,0,0,1,.276-.136c.2-.062.334.07.285.274a.4.4,0,0,1-.089.172c-.44.484-.87.979-1.332,1.442a4.216,4.216,0,0,1-.781.593c-1.241.77-2.478,1.546-3.743,2.275-.924.533-1.888.994-2.833,1.489a5.9,5.9,0,0,0-1.036.6,2.6,2.6,0,0,1-.547.263,2.707,2.707,0,0,0-.249.128,28.2,28.2,0,0,0-2.845,1.956c-.336.268-.643.572-.96.863a4.416,4.416,0,0,0-1.3,2.191,3.135,3.135,0,0,0-.09.353c-.018.126-.05.264.084.359a.168.168,0,0,1,.039.073c.106.292.126.313.432.27a3.284,3.284,0,0,0,1.167-.464,11.567,11.567,0,0,0,1.8-1.294,19.6,19.6,0,0,1,3.4-2.431c.312-.17.64-.311.951-.482.68-.376,1.353-.763,2.028-1.146q2.295-1.3,4.589-2.607c.349-.2.689-.416,1.035-.623a2.127,2.127,0,0,1,.344-.187c.2-.074.293,0,.252.211a1.192,1.192,0,0,1-.426.709c-.523.426-1.042.857-1.589,1.248-.882.633-1.8,1.22-2.679,1.854-1.033.743-2.044,1.518-3.065,2.278-.654.484-1.325.947-1.959,1.458a33.087,33.087,0,0,0-3.306,3.04,4.272,4.272,0,0,0-1,1.893,2.114,2.114,0,0,0-.025.67.816.816,0,0,0,.718.6,1.759,1.759,0,0,0,.845-.276,7.292,7.292,0,0,0,1.7-1.366,30.414,30.414,0,0,1,4.414-4.026c1.114-.853,2.225-1.715,3.37-2.525a19.633,19.633,0,0,1,2.383-1.583c.225-.114.456-.217.689-.313a.345.345,0,0,1,.377,0,1.87,1.87,0,0,1-.17.241c-.5.508-.988,1.024-1.5,1.513-.6.567-1.193,1.141-1.835,1.654a35.819,35.819,0,0,0-3.029,2.842c-.737.745-1.506,1.459-2.239,2.208-.484.494-.95,1.011-1.387,1.546a5.265,5.265,0,0,0-.943,1.775,3.812,3.812,0,0,0-.138.715,1.45,1.45,0,0,0,.193.939,2.352,2.352,0,0,0,.612.716,1.131,1.131,0,0,0,1.33,0,4.963,4.963,0,0,0,1.036-1.1c.715-.961,1.432-1.923,2.191-2.85a26.867,26.867,0,0,1,2.4-2.521c.306-.288.608-.583.933-.851.527-.434,1.069-.848,1.608-1.267.148-.115.313-.208.456-.328a5.837,5.837,0,0,1,1.435-.816.688.688,0,0,1,.35-.056c.166.021.207.16.091.285-.205.219-.419.429-.635.636a36.276,36.276,0,0,0-2.748,2.889c-.8.962-1.623,1.92-2.332,2.951-.811,1.182-1.685,2.316-2.478,3.508a6.539,6.539,0,0,0-.962,1.8,11.737,11.737,0,0,0-.314,1.508,1.046,1.046,0,0,0,.725,1.131.519.519,0,0,0,.3.01,2.873,2.873,0,0,0,1.646-1.233c.588-.969,1.165-1.943,1.769-2.9a21.367,21.367,0,0,1,2.829-3.407,27.015,27.015,0,0,1,3.233-2.6,2.965,2.965,0,0,1,.647-.334.294.294,0,0,1,.253.027c.1.079.042.192-.027.275-.283.337-.574.666-.853,1.007q-.586.718-1.159,1.445c-.486.618-.972,1.236-1.447,1.863a9.049,9.049,0,0,0-.546.815q-1.375,2.287-2.741,4.577c-.159.265-.3.539-.461.8a3.676,3.676,0,0,0-.476,2.188.835.835,0,0,0,.572.788.677.677,0,0,0,.617-.043,3.5,3.5,0,0,0,.881-.815,8.661,8.661,0,0,0,.86-1.312c.565-.96,1.118-1.929,1.722-2.863a17.137,17.137,0,0,1,1.229-1.6c.525-.634,1.065-1.257,1.621-1.862.467-.512.966-.993,1.454-1.484a3.088,3.088,0,0,1,.3-.251.192.192,0,0,1,.278-.008.2.2,0,0,1,.009.281c-.119.179-.238.358-.364.533a16.2,16.2,0,0,0-1.107,1.789c-.412.767-.853,1.518-1.279,2.275-.522.93-1.046,1.86-1.561,2.794a7.292,7.292,0,0,0-.312.689c-.3.707-.586,1.417-.889,2.121a1.114,1.114,0,0,0,.016,1.051.4.4,0,0,0,.384.222,3.768,3.768,0,0,0,1.32-.225,3.693,3.693,0,0,1,1.34-.275c.15.006.208-.089.266-.206.247-.5.49-1.011.757-1.5a10.517,10.517,0,0,1,.639-1.055,19.9,19.9,0,0,1,1.866-2.494,10.577,10.577,0,0,1,1.526-1.363.364.364,0,0,1,.368-.095.757.757,0,0,1-.207.636c-.153.2-.319.393-.458.6a13.1,13.1,0,0,0-1.265,2.626c-.182.48-.334.974-.514,1.455-.115.307-.256.6-.385.9-.028.065-.054.131-.092.221.085.006.154.032.187.009a4.706,4.706,0,0,1,.51-.249,11.34,11.34,0,0,0,1-.637,5.049,5.049,0,0,0,1.119-1.014c.181-.233.346-.471.512-.713a3.172,3.172,0,0,1,.433-.421c.2-.2.405-.4.607-.6.013-.013.02-.039.034-.043.171-.039.317-.148.475-.2a5.81,5.81,0,0,1,.877-.152,4.671,4.671,0,0,1,.58-.068c.155,0,.311.042.468.052s.3.063.418-.079a.112.112,0,0,1,.094-.023,1,1,0,0,0,.806-.1.119.119,0,0,1,.054-.016,4.077,4.077,0,0,0,1.431-.519,7.849,7.849,0,0,0,.845-.454c.169-.1.366-.157.54-.253a2.258,2.258,0,0,0,.943-.76q.636-1.059,1.3-2.1a18.441,18.441,0,0,0,1.576-3.224c.564-1.416,1.123-2.835,1.7-4.246a8.03,8.03,0,0,0,.654-2.685c.01-.22.075-.321.192-.329s.224.1.249.292a3.235,3.235,0,0,1,.022.614c-.067,1.029-.239,2.044-.4,3.062-.1.628-.159,1.265-.3,1.884a26.489,26.489,0,0,1-1.393,4.412c-.381.906-.72,1.829-1.1,2.738-.171.414-.374.816-.581,1.215-.478.923-.952,1.848-1.456,2.757a14.381,14.381,0,0,1-.872,1.34c-.412.58-.843,1.146-1.274,1.712a6.859,6.859,0,0,1-.531.617.761.761,0,0,1-.328.2c-.193.051-.326-.1-.281-.3a.573.573,0,0,1,.053-.129q.742-1.371,1.484-2.741.366-.68.714-1.369c.384-.76.762-1.524,1.143-2.286.045-.091.091-.181.163-.326a3.352,3.352,0,0,0-.4.221c-.264.2-.507.426-.783.6-.361.234-.744.432-1.12.643a5.774,5.774,0,0,1-.782.418,5.013,5.013,0,0,1-1.073.373c-.055.009-.125,0-.162.034a1,1,0,0,1-.643.134c-.109.009-.214.049-.322.067a.437.437,0,0,1-.218.018,1.592,1.592,0,0,0-.83-.056c-.315.049-.633.026-.939.088a.935.935,0,0,0-.559.287c-.293.341-.6.671-.915,1-.178.185-.388.338-.563.525-.336.359-.731.652-1.082,1a3.775,3.775,0,0,1-1.23.771,7.251,7.251,0,0,1-1.619.546.379.379,0,0,0-.312.247,24.618,24.618,0,0,0-1.315,3.521c-.138.552-.2,1.122-.3,1.685a1.782,1.782,0,0,0,.117.908c.084.234.192.462.283.694a8.439,8.439,0,0,0,.311.82c.089.173.143.354.217.53a.431.431,0,0,0,.484.2,1.627,1.627,0,0,0,.5-.286c.187-.167.324-.389.5-.568a4.26,4.26,0,0,0,.858-1.56c.583-1.552,1.16-3.1,1.87-4.6q.476-1,.992-1.982a3.931,3.931,0,0,1,.413-.566.306.306,0,0,1,.362-.147c.121.046.18.2.136.391-.08.347-.174.689-.256,1.036-.118.5-.215,1.007-.35,1.5a32.825,32.825,0,0,1-1.108,3.179q-.878,2.281-1.757,4.558c-.1.254-.218.5-.321.749a.5.5,0,0,1-.362.317c-.433.117-.862.251-1.293.378a.157.157,0,0,1-.054.014,4.544,4.544,0,0,0-1.075.158.471.471,0,0,1-.09-.018c-.063-.149-.147-.314-.2-.488-.047-.146-.007-.321-.165-.429-.027-.019-.025-.087-.029-.133a1.263,1.263,0,0,0-.15-.5,3.551,3.551,0,0,1-.162-.559c-.1-.29-.218-.572-.306-.865s-.243-.552-.319-.852a2.867,2.867,0,0,0-.214-.522,5.812,5.812,0,0,1-.36-.9,2.548,2.548,0,0,0-.179-.372c-.115-.241-.231-.481-.343-.723a4.614,4.614,0,0,0-.255-.55,2.807,2.807,0,0,0-.326-.567,1.077,1.077,0,0,1-.217-.381,3.946,3.946,0,0,0-.407-.71c-.15-.229-.315-.448-.463-.68-.278-.433-.644-.8-.918-1.235a.316.316,0,0,0-.15-.111,1.863,1.863,0,0,0-.418-.15,1.637,1.637,0,0,1-.649-.236,7.322,7.322,0,0,1-.976-.6c-.275-.243-.607-.424-.871-.677-.224-.214-.526-.329-.706-.594-.039-.057-.128-.075-.18-.125-.273-.261-.594-.461-.853-.739a4.593,4.593,0,0,0-.636-.534,5.985,5.985,0,0,1-.935-.977c-.13-.153-.255-.309-.378-.467-.164-.21-.332-.417-.484-.636-.177-.254-.336-.521-.512-.776-.111-.163-.253-.307-.357-.475-.194-.312-.354-.646-.56-.95s-.293-.649-.515-.939a3.052,3.052,0,0,1-.265-.6,4.748,4.748,0,0,0-.266-.515c-.137-.22-.292-.429-.441-.642a1.5,1.5,0,0,0-.114-.124c-.187-.209-.366-.427-.562-.626s-.432-.4-.64-.605c-.118-.117-.208-.262-.325-.38-.305-.306-.634-.59-.924-.909-.235-.26-.421-.564-.642-.839a2.945,2.945,0,0,0-.473-.541,1.361,1.361,0,0,1-.268-.351q-.284-.431-.555-.868a1.445,1.445,0,0,1-.077-.205c-.028-.067-.061-.131-.094-.2s-.067-.125-.1-.189c-.037-.084-.069-.172-.1-.257a1.656,1.656,0,0,1-.089-.229.987.987,0,0,0-.137-.354,1.683,1.683,0,0,1-.154-.5,3.649,3.649,0,0,0-.242-.879c-.157-.274-.1-.58-.233-.846a.66.66,0,0,1-.034-.192.568.568,0,0,0-.027-.192c-.251-.444-.205-.979-.436-1.43-.044-.087.007-.24-.051-.3-.2-.192-.126-.484-.3-.694-.105-.124-.138-.331-.244-.488-.25-.373-.469-.768-.726-1.137a2.774,2.774,0,0,0-.76-.823,4.691,4.691,0,0,1-.633-.582.421.421,0,0,0-.1-.093,4.16,4.16,0,0,1-1.137-.971,3.982,3.982,0,0,1-.486-.49c-.2-.3-.357-.629-.549-.936-.216-.345-.373-.719-.61-1.056a5.95,5.95,0,0,1-.705-1.37c-.093-.249-.254-.476-.322-.73-.078-.291-.284-.543-.252-.87a2.943,2.943,0,0,0-.07-.434,3.039,3.039,0,0,1,0-.557,7.424,7.424,0,0,0,.113-.987.122.122,0,0,1,.018-.076c.208-.221.2-.53.327-.786a4.119,4.119,0,0,1,.333-.662,1.42,1.42,0,0,0,.153-.382,5.016,5.016,0,0,1,.5-.959,9.328,9.328,0,0,1,.66-.924,4.5,4.5,0,0,1,1.144-1.181c.06-.037.1-.107.153-.154a2.174,2.174,0,0,1,.854-.405c.027-.008.065-.008.078-.025.144-.19.351-.141.541-.143a.9.9,0,0,0,.584-.152c.005-.026.024-.061.013-.079-.175-.318-.067-.677-.142-1.016a2.62,2.62,0,0,1,.082-.823,2.665,2.665,0,0,0,.04-.274,4.908,4.908,0,0,1,.339-1.6,4.3,4.3,0,0,1,.3-.687,3.815,3.815,0,0,1,.447-.628,10.351,10.351,0,0,1,.845-.884,3.9,3.9,0,0,1,.676-.432c.288-.166.578-.332.88-.473a6.254,6.254,0,0,1,.658-.223c.219-.073.444-.135.657-.225a.625.625,0,0,1,.461-.027.467.467,0,0,0,.4-.047.82.82,0,0,1,.258-.087.164.164,0,0,0,.159-.189,1.084,1.084,0,0,0,0-.279,1.331,1.331,0,0,1,.054-.681,2.282,2.282,0,0,1,.194-.513c.123-.268.258-.529.39-.793a.545.545,0,0,1,.062-.088c.1-.131.2-.263.3-.394a2.479,2.479,0,0,1,.205-.259c.15-.146.308-.286.469-.421q.371-.311.752-.61c.155-.122.319-.233.483-.344a.488.488,0,0,1,.156-.052c.115-.027.243-.015.314-.148.019-.036.1-.042.151-.058s.132-.009.158-.043c.127-.169.313-.141.483-.163.295-.04.591-.072.885-.113a1.192,1.192,0,0,0,.214-.063,2.977,2.977,0,0,1,1.032-.2c.137,0,.274-.033.411-.045a.676.676,0,0,1,.128.025c.07.012.141.02.238.031.026-.371-.248-.673-.1-1.078a5.654,5.654,0,0,0-.67.2.484.484,0,0,1-.149.074,7.028,7.028,0,0,1-1.19.106,5.075,5.075,0,0,1-1.35-.31,4.937,4.937,0,0,1-1.126-.655,1.387,1.387,0,0,1-.55-.531.383.383,0,0,0-.095-.1,2.062,2.062,0,0,1-.474-.733c-.085-.186-.129-.392-.214-.562-.215-.43-.218-.912-.4-1.344a.641.641,0,0,1-.026-.193,2.168,2.168,0,0,0-.094-.745.387.387,0,0,1-.008-.2,6.29,6.29,0,0,1,.232-1.368c.128-.349.216-.711.36-1.053.1-.235.281-.437.4-.668a7.921,7.921,0,0,1,.59-.892,8.341,8.341,0,0,1,.619-.624,5.424,5.424,0,0,1,.773-.588,2.728,2.728,0,0,1,.571-.271c.317-.151.628-.316.949-.461.491-.221.984-.435,1.483-.637a1.758,1.758,0,0,1,.393-.074c.1-.327.176-.63.289-.919a1.979,1.979,0,0,1,.788-.94.932.932,0,0,1,.4-.213c.023,0,.04-.067.06-.1l0,.007c.273-.051.546-.109.821-.152a2.294,2.294,0,0,1,1.083.219,6.85,6.85,0,0,1,1.2.675,2.078,2.078,0,0,1,.913.968c.11.262.216.247.464.222a4.2,4.2,0,0,1,1.541.054,3.8,3.8,0,0,0,.746.09,6.6,6.6,0,0,1,1.857.471c.241.09.5.142.732.246.413.187.815.4,1.22.6a.486.486,0,0,1,.174.138,2.762,2.762,0,0,0,.708.546,5.042,5.042,0,0,1,.889.731,1.289,1.289,0,0,0,.2.193,2.19,2.19,0,0,1,.574.583.372.372,0,0,0,.058.061,6.536,6.536,0,0,1,.831.978c.056.08.168.119.232.194.374.439.741.884,1.111,1.327.105.126.216.248.318.377.246.313.493.627.73.947.265.357.542.709.774,1.089.254.414.518.826.8,1.219s.564.806.836,1.216c.328.492.676.971,1.005,1.462.109.163.179.353.281.521s.216.3.315.459c.127.2.237.407.366.6.173.266.357.525.535.788.052.077.1.16.147.237.128.188.261.376.388.566.19.281.373.567.566.848a3.471,3.471,0,0,1,.437.625c.088.224.323.315.386.558.04.152.2.271.3.409s.183.268.267.406c.217.356.438.712.644,1.074a4.534,4.534,0,0,1,.25.553c.047.118.165.178.2.316a3.447,3.447,0,0,0,.294.563c.221.432.439.867.654,1.3a4.235,4.235,0,0,0,.256.548,4.75,4.75,0,0,1,.343.845,1.548,1.548,0,0,1,.226.68c.235.152.106.479.318.657.072.062.039.234.079.348.14.393.317.773.429,1.173.12.426.252.847.344,1.284.119.563.166,1.139.3,1.7a5.54,5.54,0,0,0,.231,1,3.692,3.692,0,0,1,.149.792.785.785,0,0,0,.049.188,1.953,1.953,0,0,1,.138.677,6.782,6.782,0,0,0,.131.823c.009.045.07.081.108.121Zm-36.036-15.992c.172.124.26.151.435.075a2.135,2.135,0,0,0,.382-.23c.319-.23.62-.486.948-.7a3.311,3.311,0,0,1,2.338-.605c.231.033.354.122.345.257s-.118.218-.344.223a1.988,1.988,0,0,0-1.243.521,12.115,12.115,0,0,0-2.4,2.655,4.247,4.247,0,0,0-.33.587.477.477,0,0,0,0,.508c.073.1.341.089.526-.028a2.041,2.041,0,0,0,.413-.333,6.479,6.479,0,0,1,2.513-1.6,5.818,5.818,0,0,1,1.058-.267,1.673,1.673,0,0,1,.556.027.246.246,0,0,1,.165.157.254.254,0,0,1-.092.211.951.951,0,0,1-.311.112c-.1.023-.207.016-.3.043a3.882,3.882,0,0,0-1.737.985,8.7,8.7,0,0,0-1.82,2.81,2.964,2.964,0,0,0-.156.595.539.539,0,0,0,.141.491c.085.094.145.211.227.308a.61.61,0,0,0,.542.285.732.732,0,0,0,.466-.229c.395-.4.788-.8,1.188-1.193a6,6,0,0,1,.549-.479c.327-.25.666-.486,1-.729a2.888,2.888,0,0,1,.979-.478,4.28,4.28,0,0,1,.857-.118c.2-.009.31.093.322.21s-.09.221-.308.263a2.689,2.689,0,0,0-1.653.979c-.082.1-.165.2-.252.3a6.454,6.454,0,0,0-1.412,2.369c-.062.206-.153.4-.2.611a.38.38,0,0,0,.507.474,1.64,1.64,0,0,0,.541-.334,14.842,14.842,0,0,1,2.088-1.562,5.575,5.575,0,0,1,1.423-.655,4.079,4.079,0,0,1,.519-.121c.184-.034.3.014.336.126s-.025.207-.2.29c-.059.027-.119.054-.18.077a5.917,5.917,0,0,0-2.8,2.379,4.513,4.513,0,0,0-.353.669,1.423,1.423,0,0,0-.129.9c.1.469.344.634.809.516a.777.777,0,0,0,.236-.088,5.4,5.4,0,0,0,.682-.485,10.364,10.364,0,0,0,.8-.831,6.441,6.441,0,0,1,1.631-1.318,2.45,2.45,0,0,1,.651-.248.764.764,0,0,1,.4.056.271.271,0,0,1,.126.2c.013.105-.078.159-.173.19a1.06,1.06,0,0,0-.285.1,4.8,4.8,0,0,0-.633.511,10.6,10.6,0,0,0-1.959,2.723,6.632,6.632,0,0,0-.255.681c-.082.228.054.377.205.5a2.527,2.527,0,0,0,.325.153c.221.132.476.074.7.142a.367.367,0,0,0,.344-.043.256.256,0,0,1,.284-.033.554.554,0,0,0,.272,0,1.718,1.718,0,0,0,.211-.069,1.29,1.29,0,0,1,.4-.093c.181.015.237-.166.384-.189a1.246,1.246,0,0,0,.6-.355,2.691,2.691,0,0,0,.652-1.023c.1-.241.111-.523.312-.724a.117.117,0,0,0,.01-.1c-.042-.086-.005-.119.057-.181a.449.449,0,0,0,.066-.255c.006-.052-.043-.117-.026-.159a2.5,2.5,0,0,0,.061-.97c0-.191-.073-.381-.085-.573a2.113,2.113,0,0,0-.263-.926.266.266,0,0,1-.048-.129c.02-.275-.166-.482-.258-.713a7.95,7.95,0,0,0-.657-1.219,1.681,1.681,0,0,0-.478-.608.274.274,0,0,1-.073-.081c-.129-.2-.26-.4-.384-.607a7.927,7.927,0,0,1-.493-.865c-.053-.118-.173-.16-.2-.269a2,2,0,0,0-.33-.559c-.177-.269-.392-.512-.577-.774-.133-.189-.236-.4-.37-.588-.086-.122-.127-.224-.024-.353a.335.335,0,0,1,.4-.126.627.627,0,0,1,.255.164,1.135,1.135,0,0,0,.439.327.754.754,0,0,1,.206.14c.18.181.349.373.53.554.084.085.2.141.274.232a6.9,6.9,0,0,1,.563.762c.4.663.9,1.244,1.345,1.874a.3.3,0,0,0,.178.122c.163.017.329.006.531.006a1.106,1.106,0,0,0-.067-.2c-.028-.045-.09-.068-.117-.113-.216-.363-.446-.717-.674-1.072-.147-.228-.293-.456-.447-.678a5.831,5.831,0,0,0-.465-.591c-.263-.3-.528-.592-.817-.863-.22-.206-.491-.359-.716-.562-.384-.343-.758-.7-1.109-1.076a9.221,9.221,0,0,1-.687-.934c-.225-.317-.463-.625-.688-.942a4.027,4.027,0,0,1-.463-.728.594.594,0,0,0-.316-.318,3.62,3.62,0,0,0-1.573-.285.722.722,0,0,0-.111.016,2.035,2.035,0,0,1-.468.052c-.326-.039-.619.125-.936.116a.112.112,0,0,0-.054.017c-.263.133-.53.257-.785.4-.138.08-.241.224-.381.292-.283.14-.4.467-.689.587-.035.015-.053.071-.077.11-.047.078-.088.159-.139.234-.119.176-.26.34-.36.525C-813.569,16015.427-813.67,16015.686-813.794,16015.959Zm-5.986,5.8c.182-.179.312-.311.446-.438a4.623,4.623,0,0,1,1.572-1.06,2.633,2.633,0,0,1,1.167-.053.216.216,0,0,1,.2.206.221.221,0,0,1-.156.24.863.863,0,0,1-.245.053,1.633,1.633,0,0,0-1.05.477c-.3.3-.61.584-.884.9a3.343,3.343,0,0,0-.529.788c-.224.5-.4,1.028-.579,1.549a1.022,1.022,0,0,0-.02.417c.019.2.15.287.332.21a1.412,1.412,0,0,0,.371-.242c.139-.124.253-.275.385-.408a5.432,5.432,0,0,1,1.683-1.2,2.052,2.052,0,0,1,1.454-.049c.2.058.3.177.281.3s-.1.167-.334.182l-.057,0a1.981,1.981,0,0,0-1.273.509,8.99,8.99,0,0,0-1.506,1.694,4.329,4.329,0,0,0-.612,1.2,6.675,6.675,0,0,1-.184.761.937.937,0,0,0,.029.783c.241.569.653.532.973.243a2.686,2.686,0,0,0,.2-.2c.137-.154.261-.32.407-.464.526-.521,1.045-1.048,1.593-1.542a2.674,2.674,0,0,1,1.28-.671,4.37,4.37,0,0,1,.725-.051.239.239,0,0,1,.262.206c.02.122-.074.224-.243.259a1.141,1.141,0,0,1-.251.02.627.627,0,0,0-.439.156,6.847,6.847,0,0,0-1.444,1.633,9.4,9.4,0,0,0-.881,2.121,2.386,2.386,0,0,0-.1.942.567.567,0,0,0,.426.5.537.537,0,0,0,.609-.162,2.418,2.418,0,0,0,.255-.369,9.484,9.484,0,0,1,1.038-1.464,4.422,4.422,0,0,1,1.96-1.358,2.973,2.973,0,0,1,1.137-.1.223.223,0,0,1,.227.175.216.216,0,0,1-.136.251,1.11,1.11,0,0,1-.316.112,2.322,2.322,0,0,0-1.138.572,5.055,5.055,0,0,0-1.06,1.192,3.341,3.341,0,0,0-.315.652,6.24,6.24,0,0,0-.208.786,1.29,1.29,0,0,0,.213,1.2.423.423,0,0,0,.309.165,1.151,1.151,0,0,0,1.075-.41,7.79,7.79,0,0,1,.8-.827,9.147,9.147,0,0,1,1.95-1.46,4.683,4.683,0,0,1,.871-.3.691.691,0,0,1,.358.023.246.246,0,0,1,.143.177c0,.064-.065.143-.119.2-.036.036-.107.031-.157.056a4.129,4.129,0,0,0-.767.4,5.1,5.1,0,0,0-2,2.9c-.045.2.035.334.241.333a.958.958,0,0,0,.6-.111.283.283,0,0,1,.156-.052,2.5,2.5,0,0,0,1.063-.3,2.5,2.5,0,0,0,1.092-.808,4.108,4.108,0,0,0,.5-.794,1.284,1.284,0,0,0,.152-.669c-.042-.333-.076-.666-.115-1-.005-.036-.012-.088-.036-.1-.176-.1-.161-.325-.3-.456a1.414,1.414,0,0,1-.22-.351c-.149-.266-.288-.538-.442-.8-.143-.244-.3-.479-.449-.723-.1-.17-.194-.347-.3-.516a4.21,4.21,0,0,0-.643-.755c-.247-.24-.441-.531-.678-.784a9.359,9.359,0,0,1-.579-.749c-.061-.081-.11-.172-.177-.248a2.925,2.925,0,0,1-.426-.482c-.128-.246-.421-.347-.5-.622-.232-.1-.309-.342-.46-.513a2.988,2.988,0,0,1-.532-.779,6.262,6.262,0,0,1-.653-1.708c0-.033-.04-.062-.054-.1a.844.844,0,0,1-.085-.225,2.176,2.176,0,0,0-.179-.8,2.783,2.783,0,0,1-.148-1.306c0-.184-.037-.238-.222-.205s-.383.069-.574.105a.231.231,0,0,0-.107.029.892.892,0,0,1-.585.142.481.481,0,0,0-.191.036c-.42.194-.84.388-1.254.595a1.351,1.351,0,0,0-.347.254c-.258.26-.509.527-.749.8a2.453,2.453,0,0,0-.249.4,2.216,2.216,0,0,0-.134.271A.92.92,0,0,0-819.78,16021.756Zm-1.385,4.327a.764.764,0,0,0-.3.007c-.259.118-.591,0-.805.249a1.287,1.287,0,0,0-.737.468,6.416,6.416,0,0,0-.759.868,9.042,9.042,0,0,0-.573.922c-.166.293-.254.622-.439.911a3.223,3.223,0,0,0-.3.716,7.2,7.2,0,0,0-.312,1.062,3.281,3.281,0,0,0,.11,1.3.43.43,0,0,0,.051.1c.041.079.083.158.123.238.029.057.054.116.081.174.037.08.079.159.109.242.022.061.015.133.042.19.131.273.256.552.407.813.228.393.487.767.71,1.16a.654.654,0,0,0,.449.3c.139.039.4-.153.429-.3a.274.274,0,0,0-.136-.286,3.625,3.625,0,0,1-.77-.937c-.117-.187-.236-.373-.37-.548a1.118,1.118,0,0,1-.287-.881,1.6,1.6,0,0,0,.017-.249,4.347,4.347,0,0,1,.233-1.517,3.562,3.562,0,0,1,.921-1.392,2.082,2.082,0,0,1,.516-.323.242.242,0,0,1,.3.1.241.241,0,0,1-.043.309,4.362,4.362,0,0,0-.805,1.862c-.067.328-.078.668-.139,1a.925.925,0,0,0,.053.493.242.242,0,0,0,.33.172.853.853,0,0,0,.46-.3c.157-.187.3-.38.466-.563a3.19,3.19,0,0,1,1.122-.913,1.052,1.052,0,0,1,.238-.081.268.268,0,0,1,.307.144.258.258,0,0,1-.057.31.769.769,0,0,1-.149.128,1.953,1.953,0,0,0-.575.64,2.821,2.821,0,0,0-.343,1,1.25,1.25,0,0,0,.155.963.527.527,0,0,0,.783.194c.272-.185.528-.391.8-.567a8.4,8.4,0,0,1,.8-.459.592.592,0,0,1,.543-.006.291.291,0,0,1,.188.259c0,.119-.08.182-.179.229a1.989,1.989,0,0,0-.246.134,2.116,2.116,0,0,0-.808,1.273.273.273,0,0,0,.016.214.753.753,0,0,0,.675.375.975.975,0,0,0,.74-.339c.07-.088.162-.156.232-.244a2.644,2.644,0,0,1,.965-.708,1.334,1.334,0,0,1,.786-.157.333.333,0,0,1,.3.254c.034.136-.029.24-.194.335a.79.79,0,0,1-.1.048,2.587,2.587,0,0,0-.809.595.881.881,0,0,0-.238.643c0,.127.021.282.185.308a2.068,2.068,0,0,0,1.047.058.61.61,0,0,1,.222,0,8.507,8.507,0,0,0,.891.03c.508-.034,1.013-.106,1.519-.156a1.429,1.429,0,0,0,.59-.219c.295-.171.439-.476.667-.705.052-.052.1-.121,0-.2a1.072,1.072,0,0,1-.726-.008c-.181-.063-.382-.069-.566-.129a5.474,5.474,0,0,1-.959-.354,1.69,1.69,0,0,0-.692-.242.533.533,0,0,1-.184-.055c-.176-.083-.351-.169-.523-.262a.444.444,0,0,1-.112-.118c-.034-.044-.053-.1-.094-.133-.267-.189-.537-.374-.808-.559-.045-.032-.1-.05-.143-.085-.2-.171-.389-.363-.6-.515a8.156,8.156,0,0,1-1.15-.957c-.146-.15-.32-.273-.47-.421-.171-.167-.275-.4-.5-.516-.02-.01-.029-.046-.042-.07a4.978,4.978,0,0,1-.615-1.392,1.469,1.469,0,0,0-.177-.489.644.644,0,0,1-.107-.274c-.011-.084,0-.189-.041-.247-.205-.268-.155-.6-.259-.9-.05-.143,0-.314-.147-.434-.037-.029-.026-.123-.032-.187-.039-.435-.077-.871-.116-1.306A.381.381,0,0,0-821.165,16026.083Zm12.611-25.4c-.066-.009-.117-.031-.133-.017-.178.168-.45.1-.615.213s-.356.1-.5.193a1.1,1.1,0,0,1-.481.186.209.209,0,0,0-.073.038c-.184.108-.369.216-.552.326a2.451,2.451,0,0,0-.478.3,7,7,0,0,0-.815.917,5.681,5.681,0,0,0-.648,1.148,4.685,4.685,0,0,0-.359,1.418,8.373,8.373,0,0,0,.121,1.331c0,.009.009.017.011.025.084.293.16.59.254.878a2.339,2.339,0,0,0,.231.561,2.357,2.357,0,0,0,.819.793,2.1,2.1,0,0,1,.232.154,1.385,1.385,0,0,0,1.031.275.433.433,0,0,0,.3-.726,4.766,4.766,0,0,1-.893-1.569,6.931,6.931,0,0,1-.2-.833,2.918,2.918,0,0,1,.112-1.106.781.781,0,0,1,.233-.5.383.383,0,0,1,.4-.044.224.224,0,0,1,.154.241,4.148,4.148,0,0,0,.206,1.235,4.1,4.1,0,0,0,.674,1.426.874.874,0,0,0,.256.213.214.214,0,0,0,.329-.1.648.648,0,0,0,.06-.539.483.483,0,0,1-.019-.32.588.588,0,0,0-.021-.405c-.054-.159-.17-.321-.035-.5-.062-.455.115-.9.033-1.361a1.738,1.738,0,0,1,.068-.462c.028-.25.044-.5.067-.751s.016-.512.022-.764a4.565,4.565,0,0,0,.075-1.276.065.065,0,0,1,.011-.053C-808.523,16001.088-808.584,16000.891-808.554,16000.682Zm-8,37.813c-.046-.027-.066-.048-.09-.052-.4-.065-.807-.108-1.2-.2-.441-.1-.877-.223-1.308-.36-.146-.047-.237-.027-.308.09a3.387,3.387,0,0,0-.562,1.36.49.49,0,0,0,.041.266,7.677,7.677,0,0,0,.4.7c.162.243.279.268.57.191a1.367,1.367,0,0,0,.683-.41,12.04,12.04,0,0,1,1.608-1.433C-816.662,16038.605-816.614,16038.553-816.552,16038.5Zm-5.413-2.341a.763.763,0,0,0-.485.4,1.153,1.153,0,0,0-.092.57.388.388,0,0,0,.242.4,1.013,1.013,0,0,1,.4.244.727.727,0,0,0,.775.259,2.306,2.306,0,0,0,1.068-.521c.011-.009.006-.035.011-.081a2.472,2.472,0,0,1-.324-.165C-820.906,16036.9-821.434,16036.525-821.965,16036.154Zm22.626,27.757a1.372,1.372,0,0,0-.316.029c-.265.091-.526.191-.783.3a.584.584,0,0,0-.2.181,1.625,1.625,0,0,0-.273.842c-.036.295.14.459.434.434a.611.611,0,0,0,.551-.369c.178-.4.365-.8.543-1.2A1.233,1.233,0,0,0-799.339,16063.911Z"/>
    <path id="Path_243" data-name="Path 243" d="M-785.575,16071.9c.1-.267.179-.465.254-.663,1.036-2.71,2.079-5.418,3.1-8.133.687-1.821,1.352-3.651,2.017-5.481.249-.687.476-1.381.693-2.077a4.976,4.976,0,0,0,.12-.714.922.922,0,0,1,.031-.192.208.208,0,0,1,.375-.072.726.726,0,0,1,.149.381,6.173,6.173,0,0,1-.026,1.063,24.078,24.078,0,0,1-.815,3.555c-.928,3.134-2,6.221-3.1,9.3-.23.643-.491,1.274-.726,1.917a.68.68,0,0,1-.41.426c-.467.193-.926.4-1.389.605C-785.362,16071.838-785.434,16071.854-785.575,16071.9Z"/>
    <path id="Path_244" data-name="Path 244" d="M-792.634,16046.829c-.228,0-.317-.134-.208-.293.121-.177.268-.337.4-.5.461-.554.947-1.09,1.376-1.667a10.443,10.443,0,0,0,.7-1.214c.081-.147.125-.314.207-.461.631-1.121,1.01-2.356,1.571-3.509.552-1.137,1.093-2.28,1.687-3.395.374-.7.83-1.357,1.264-2.024.644-.989,1.4-1.895,2.14-2.815a8.183,8.183,0,0,1,1.467-1.426,1.658,1.658,0,0,1,.391-.212c.052-.02.132.032.2.052-.026.062-.035.146-.082.182a7.29,7.29,0,0,0-1.942,2.37c-.375.691-.8,1.354-1.179,2.042a34.732,34.732,0,0,0-1.609,3.244c-.321.757-.722,1.48-1.067,2.229-.294.638-.558,1.287-.839,1.932-.156.359-.314.72-.479,1.075-.146.314-.312.618-.455.934a5.817,5.817,0,0,1-1.676,2.116c-.355.289-.7.6-1.056.88a5.718,5.718,0,0,1-.609.4A.794.794,0,0,1-792.634,16046.829Z"/>
    <path id="Path_245" data-name="Path 245" d="M-788.943,16053.574c-.222,0-.329-.165-.24-.332a1.415,1.415,0,0,1,.241-.309c.4-.4.793-.8,1.2-1.183a12.963,12.963,0,0,0,2.115-2.787,29.912,29.912,0,0,0,1.747-3.735c.62-1.435,1.243-2.868,1.9-4.287a8.356,8.356,0,0,1,2.261-3.007.73.73,0,0,1,.2-.146c.071-.023.189-.028.229.014a.3.3,0,0,1,.059.246.736.736,0,0,1-.167.254c-.217.257-.458.5-.655.77a6.009,6.009,0,0,0-.921,1.852c-.257.883-.6,1.733-.916,2.594-.553,1.514-1.085,3.035-1.767,4.494a14.535,14.535,0,0,1-2.333,3.691,6.052,6.052,0,0,1-1.524,1.183c-.39.222-.8.405-1.2.6A2.268,2.268,0,0,1-788.943,16053.574Z"/>
    <path id="Path_246" data-name="Path 246" d="M-780.152,16033.289c-.032.166-.159.24-.259.334a10.2,10.2,0,0,0-1.44,1.53c-.092.129-.177.264-.26.4a18.207,18.207,0,0,0-1.587,3.462,44.735,44.735,0,0,1-2.931,6.614,26.119,26.119,0,0,1-1.334,2.273,7.227,7.227,0,0,1-1.535,1.662c-.495.385-.979.782-1.469,1.174a1.248,1.248,0,0,1-.212.135.224.224,0,0,1-.283-.047.222.222,0,0,1-.018-.285.638.638,0,0,1,.065-.092c.542-.681,1.086-1.358,1.626-2.041q.426-.539.837-1.089a31.164,31.164,0,0,0,2.153-3.841c.134-.246.251-.5.39-.745a30.306,30.306,0,0,0,1.279-2.9,31.115,31.115,0,0,1,1.358-2.9,12.192,12.192,0,0,1,2.552-3.11,7.835,7.835,0,0,1,.722-.533C-780.4,16033.225-780.286,16033.162-780.152,16033.289Z"/>
    <path id="Path_247" data-name="Path 247" d="M-780.1,16069.1c.167-.414.325-.835.5-1.244.523-1.2,1.051-2.4,1.462-3.646.247-.746.434-1.511.755-2.231.095-.215.178-.434.268-.649.041-.1.1-.209.219-.173a.373.373,0,0,1,.2.208.816.816,0,0,1,.032.332c-.037.69-.069,1.383-.123,2.071a7.48,7.48,0,0,1-.4,1.749c-.245.736-.505,1.469-.773,2.2a.735.735,0,0,1-.266.344c-.558.36-1.129.7-1.7,1.047a.721.721,0,0,1-.125.043Z"/>
    <path id="Path_248" data-name="Path 248" d="M-791.723,16073.211a1.238,1.238,0,0,1,.035-.189c.335-.833.647-1.678,1.017-2.494.272-.6.625-1.172.934-1.76a7.119,7.119,0,0,1,.766-1.174c.041-.051.08-.1.124-.151.074-.084.147-.188.277-.153a.35.35,0,0,1,.268.3,1.668,1.668,0,0,1,0,.474,19.973,19.973,0,0,1-1.321,4.428.413.413,0,0,1-.29.272c-.552.146-1.1.294-1.655.441A1.068,1.068,0,0,1-791.723,16073.211Z"/>
    <path id="Path_249" data-name="Path 249" d="M-806.714,15996.831l.006-.014,0,.021Z"/>
    <path id="Path_250" data-name="Path 250" d="M-777.761,16031.959l0-.021.006.014Z"/>
    <g id="Group_258" data-name="Group 258">
      <path id="Path_251" data-name="Path 251" d="M-804.486,15988.015a4.392,4.392,0,0,0-.446-.444c-.189-.174-.39-.335-.578-.511-.227-.212-.443-.435-.669-.646-.2-.188-.418-.359-.611-.554s-.382-.423-.569-.637c-.224-.257-.447-.514-.666-.775-.077-.092-.134-.2-.209-.295q-.683-.842-1.37-1.68a3.219,3.219,0,0,0-.475-.536c-.139-.106-.191-.264-.312-.371s-.263-.239-.389-.363c-.276-.274-.549-.551-.793-.8-.176.027-.3.043-.427.069a.577.577,0,0,0-.256.085,1.353,1.353,0,0,0-.481.726,2.583,2.583,0,0,1-.066.328c-.143.424-.152.875-.26,1.3a3.875,3.875,0,0,0-.03.759c0,.065-.012.13-.021.194-.048.349-.1.7-.14,1.047a2.435,2.435,0,0,0-.025.714,1.646,1.646,0,0,1-.021.474c-.045.378-.1.753-.145,1.13-.032.288-.035.577-.069.865-.036.3-.094.6-.143.905-.019.118-.043.236-.059.354-.029.219-.067.437-.076.656-.009.249.04.5.007.748a.694.694,0,0,0,.088.54c.139.216.257.388.53.4a.368.368,0,0,1,.137.052l.428-.146a.688.688,0,0,0,.156-.057,5.73,5.73,0,0,1,1.219-.519,2.476,2.476,0,0,1,.6-.126c.26-.03.287.006.317.263.038.322.081.645.122.966.005.036.005.089.027.105.139.1.109.247.13.382a4.839,4.839,0,0,0,.145.85,1.624,1.624,0,0,0,.348.793.792.792,0,0,0,.665.191c.327-.1.651-.217.98-.311a4.486,4.486,0,0,1,1-.307.251.251,0,0,0,.1-.044,4.131,4.131,0,0,1,.567-.3.951.951,0,0,0,.318-.2.878.878,0,0,0,.147-1.063,7.271,7.271,0,0,1-.682-1.225c-.168-.325-.309-.664-.483-1.041l.45-.129c.054-.015.133-.011.156-.045.094-.141.24-.128.374-.155.046-.01.116-.012.13-.04.081-.157.232-.131.365-.157.044-.009.1-.016.127-.046.15-.186.394-.2.584-.316A.805.805,0,0,0-804.486,15988.015Zm-1.918.316c-.343.139-.69.27-1.038.4-.217.079-.445.135-.658.223a1.039,1.039,0,0,0-.264.205c-.089.078-.173.163-.253.237a2.99,2.99,0,0,0,.072.553,2.87,2.87,0,0,0,.262.514,7.083,7.083,0,0,1,.439.8c.156.384.363.748.546,1.116-.046.176-.206.194-.329.237-.3.105-.618.188-.966.291-.013-.1-.031-.216-.041-.33-.016-.2.05-.415-.139-.572-.018-.014-.017-.053-.02-.08-.042-.295-.072-.592-.127-.884-.047-.244-.119-.483-.184-.723a2.2,2.2,0,0,0-.307-.7.728.728,0,0,0-.539-.3.823.823,0,0,0-.669.123.354.354,0,0,1-.129.05c-.329.093-.659.181-.988.276-.183.055-.393.039-.535.208-.016.02-.081,0-.129-.006.051-.355.1-.692.149-1.029s.137-.691.158-1.04a4.065,4.065,0,0,0,.047-.742,2.622,2.622,0,0,1,.047-.554c.006-.056.023-.11.03-.165.049-.386.107-.771.142-1.157.016-.182-.035-.368-.017-.549.035-.35.1-.7.146-1.044.024-.2.02-.41.029-.616q.016-.334.035-.666l.074-.043a.974.974,0,0,1,.206.158c.27.348.551.686.84,1.019.317.365.6.764.9,1.14.185.229.414.428.577.67.125.188.306.318.424.5a6.653,6.653,0,0,0,.933,1.017c.223.223.446.446.675.662.207.194.421.382.632.57C-806.268,15988.193-806.271,15988.277-806.4,15988.331Z"/>
    </g>
  </g>
</svg>
