<svg xmlns="http://www.w3.org/2000/svg" width="56.835" height="76.07" viewBox="0 0 56.835 76.07">
  <g id="Group_269" data-name="Group 269" transform="translate(822.405 -15868.247)">
    <path id="Path_272" data-name="Path 272" d="M-784.071,15897.064a6.13,6.13,0,0,1-.162.608,7.741,7.741,0,0,1-.863,1.571c-.661.978-1.394,1.9-2.146,2.808a22.35,22.35,0,0,0-2.34,3.354,9.68,9.68,0,0,0-.623,1.469c.053-.032.109-.061.159-.1a20.31,20.31,0,0,0,2.325-1.992,15.279,15.279,0,0,0,1.427-1.566,1.654,1.654,0,0,1,.281-.3.181.181,0,0,1,.3.156.655.655,0,0,1-.066.283,12.259,12.259,0,0,1-.622,1.1,15.839,15.839,0,0,1-1.991,2.245c-.068.066-.146.126-.219.188l.034.048c.039-.02.078-.036.114-.059a16.123,16.123,0,0,0,4.259-3.77,16.782,16.782,0,0,0,1.815-3.025c.113-.229.233-.455.353-.679a.37.37,0,0,1,.123-.161.382.382,0,0,1,.266-.053.342.342,0,0,1,.153.222.6.6,0,0,1-.03.26,11.218,11.218,0,0,1-2.451,5,15.649,15.649,0,0,1-3.449,3.017,2.036,2.036,0,0,0-.321.242,4.805,4.805,0,0,0,1.221-.409,9.582,9.582,0,0,0,2.361-1.43c.156-.134.327-.251.492-.373.147-.108.277-.114.373-.022s.089.218-.014.372a6.719,6.719,0,0,1-2.344,2.108c-.427.239-.883.427-1.325.638-.033.016-.064.035-.142.08a2.47,2.47,0,0,0,1.005-.036,5.765,5.765,0,0,0,2.292-1.226,9.736,9.736,0,0,0,2.254-2.811l1.716-3.19a.261.261,0,0,1,.061-.1.255.255,0,0,1,.15-.058c.028,0,.072.072.071.111a2.588,2.588,0,0,1-.034.558,9.072,9.072,0,0,1-.335,1.218q-.486,1.263-1.039,2.5a9.03,9.03,0,0,1-1.224,1.9.387.387,0,0,0-.124.373.458.458,0,0,0,.411-.088,10.333,10.333,0,0,0,3.462-3.512c.2-.348.4-.7.6-1.046a1.259,1.259,0,0,1,.254-.32.344.344,0,0,1,.264-.058c.122.025.155.145.13.261-.052.239-.105.479-.176.713a8.331,8.331,0,0,1-1.984,3.37c-.17.177-.346.349-.515.526-.22.229-.183.385.119.5a1.464,1.464,0,0,0,.814.049,3.058,3.058,0,0,0,1.132-.477,6.523,6.523,0,0,0,1.789-1.812c.107-.164.231-.318.353-.471a.241.241,0,0,1,.311-.1.226.226,0,0,1,.094.309,9.327,9.327,0,0,1-.462,1.079,6.949,6.949,0,0,1-1.361,1.692,4.213,4.213,0,0,1-2.219,1.013c-.039.008-.085,0-.116.016-.053.032-.141.087-.136.12.009.063.065.156.118.169a5.942,5.942,0,0,0,.865.163,5.515,5.515,0,0,0,4.133-1.374,1.555,1.555,0,0,1,.215-.153.186.186,0,0,1,.264.039.421.421,0,0,1,.04.27.541.541,0,0,1-.125.2,5.064,5.064,0,0,1-1.7,1.383,5.813,5.813,0,0,1-3.531.655c-.156-.017-.308-.062-.462-.09-.124-.022-.26-.07-.346.07-.063.1-.007.22.175.323a10.156,10.156,0,0,0,.936.5,9.186,9.186,0,0,0,2.18.7,5.629,5.629,0,0,0,3.447-.45.658.658,0,0,1,.215-.091.336.336,0,0,1,.232.064c.079.071.024.162-.04.23a.942.942,0,0,1-.11.1,5.384,5.384,0,0,1-3.045,1.2,7.793,7.793,0,0,1-2.583-.338c-.18-.047-.355-.113-.536-.159s-.355-.081-.482.1a.54.54,0,0,0,.095.573,3.607,3.607,0,0,0,.556.432,4.361,4.361,0,0,0,1.29.487,10.86,10.86,0,0,0,3.715.247c.292-.03.58-.1.87-.147a1.721,1.721,0,0,1,.381-.021c.114.009.224.075.215.2,0,.062-.1.134-.169.168a6.351,6.351,0,0,1-2.733.624,12.391,12.391,0,0,1-2.728-.178q-.561-.117-1.124-.222a.493.493,0,0,0-.532.158.6.6,0,0,0,.159.849,7.28,7.28,0,0,0,1.591.687,8.078,8.078,0,0,0,2.907.362c.341-.025.68-.086,1.019-.144.1-.017.2-.039.259.065s-.015.2-.1.273a1.94,1.94,0,0,1-.818.387,7.685,7.685,0,0,1-5.2-.515,1.987,1.987,0,0,0-.3-.129.465.465,0,0,0-.608.354.759.759,0,0,0,.591,1.027q2.807.779,5.606,1.591a.3.3,0,0,0,.375-.122c.357-.492.746-.965,1.068-1.48a16.992,16.992,0,0,0,2.139-4.983,4.872,4.872,0,0,0,.161-1.81,4.113,4.113,0,0,0-.172-.743c-.123-.371-.27-.736-.416-1.1a5.254,5.254,0,0,0-.482-.9,8.648,8.648,0,0,1-.642-1.289c-.5-1.161-.986-2.332-1.478-3.5-.289-.687-.571-1.379-.875-2.059a2.483,2.483,0,0,0-.4-.612,4.8,4.8,0,0,0-1.416-1.131,11.506,11.506,0,0,1-2.072-1.5c-1.055-.883-2.136-1.733-3.126-2.691a60.479,60.479,0,0,1-4.621-5.033c-.85-1.031-1.718-2.046-2.565-3.08-.435-.531-.814-1.11-1.265-1.627a42.94,42.94,0,0,1-4.255-6.106q-.328-.542-.672-1.073c-.729-1.132-1.352-2.323-2.007-3.5-.45-.806-.87-1.628-1.312-2.437-.231-.422-.476-.837-.726-1.247a11.67,11.67,0,0,1-1.037-2.337c-.128-.371-.24-.748-.377-1.115-.074-.2-.185-.385-.291-.6l1.353-.208c.04.1.083.2.118.294.2.594.387,1.2.616,1.78a12.836,12.836,0,0,0,.638,1.355c.528.986,1.071,1.964,1.617,2.94.888,1.585,1.79,3.161,2.672,4.749a32.492,32.492,0,0,0,2.935,4.408c.578.73,1.069,1.529,1.646,2.262.845,1.072,1.728,2.115,2.6,3.164,1.207,1.448,2.4,2.912,3.674,4.3a43.37,43.37,0,0,0,4.954,4.616c.285.226.563.46.843.69a8.614,8.614,0,0,0,1.516,1.014,5.908,5.908,0,0,1,1.846,1.663,2.245,2.245,0,0,1,.285.546c.751,1.792,1.49,3.589,2.249,5.378.211.5.495.96.716,1.452.287.634.553,1.278.812,1.925a5.016,5.016,0,0,1,.2,2.98,17.1,17.1,0,0,1-1.581,4.205,13.842,13.842,0,0,1-1.862,2.855.355.355,0,0,0-.033.082l2.612.747-6.064,21.374h.374q4.245,0,8.489,0a9.007,9.007,0,0,1,1.874.171,1.1,1.1,0,0,1,.355.129.4.4,0,0,1,0,.687.854.854,0,0,1-.3.117,8.614,8.614,0,0,1-1.755.177q-4.584,0-9.168,0H-797c-2.741,0-5.483.016-8.224-.006-1.876-.013-3.752-.069-5.627-.119-.687-.019-1.373-.071-2.06-.11a.669.669,0,0,1-.2-.036.367.367,0,0,1-.257-.358.357.357,0,0,1,.243-.365.855.855,0,0,1,.257-.054c2.433-.136,4.867-.223,7.3-.233h.288l2.967-10.454c-.134-.072-.257-.148-.387-.206a4.029,4.029,0,0,1-1.154-.8,2.292,2.292,0,0,1-.6-1.317,4.065,4.065,0,0,1,.1-1.635c.261-1.107.554-2.21.746-3.33a25.124,25.124,0,0,0,.411-3.774,2.8,2.8,0,0,0-.362-1.46,15.783,15.783,0,0,1-.877-1.895c-.464-1.178-.889-2.37-1.329-3.558-.051-.138-.091-.278-.143-.437a.659.659,0,0,0-.116-.05,3.583,3.583,0,0,1-1.767-1.01,13.762,13.762,0,0,1-1.3-1.439,10.207,10.207,0,0,1-.9-1.584,3.159,3.159,0,0,0-.639-.905c-.96-.929-1.914-1.865-2.875-2.793a18.882,18.882,0,0,1-2.263-2.632c-1.1-1.544-2.216-3.075-3.289-4.636a19.976,19.976,0,0,1-2.095-3.847,11.871,11.871,0,0,1-.894-4.446,10.66,10.66,0,0,1,1-4.478,1.579,1.579,0,0,0,.152-.681c0-.707.023-1.415,0-2.122-.021-.657-.087-1.312-.14-1.968-.041-.52-.076-1.038-.142-1.555a21.488,21.488,0,0,0-.627-2.935c-.142-.521-.312-1.032-.465-1.55-.051-.177-.086-.357-.136-.563l.959-.5c.325.318.341.757.53,1.147.108-.058.211-.109.312-.164,1.408-.759,2.8-1.56,4.229-2.27a31.288,31.288,0,0,1,6.043-2.3,26.351,26.351,0,0,1,3.808-.747,11.6,11.6,0,0,1,1.237-.041,16.3,16.3,0,0,1,2.645.137,2.589,2.589,0,0,1,.259.054.245.245,0,0,1,.206.252.263.263,0,0,1-.211.253.779.779,0,0,1-.2.032c-.373.014-.746.037-1.119.033a18.712,18.712,0,0,0-4.95.624,31.547,31.547,0,0,0-5.969,2.237c-1.447.713-2.834,1.529-4.23,2.329-.553.317-1.1.64-1.655.959l.572,2.932c.093-.057.182-.105.266-.161a57.761,57.761,0,0,1,5.345-3.108,30.3,30.3,0,0,1,6.692-2.479,18.775,18.775,0,0,1,2.749-.5,15.736,15.736,0,0,1,3.761.078,1.018,1.018,0,0,1,.255.065.224.224,0,0,1,.038.427.673.673,0,0,1-.271.1,3.43,3.43,0,0,1-.528.045,22.244,22.244,0,0,0-7.382,1.332,34.289,34.289,0,0,0-5.707,2.576c-1.653.931-3.251,1.945-4.816,3.017-.081.055-.159.114-.248.177l.2,2.39c.1-.1.157-.162.214-.225a8.868,8.868,0,0,1,1.441-1.3.56.56,0,0,1,.526-.1c.114.037.2.108.166.238a1.109,1.109,0,0,1-.13.379c-.183.268-.392.517-.591.772a5.2,5.2,0,0,0-.46.659,1.354,1.354,0,0,0,.142-.069c1.583-.987,3.2-1.918,4.86-2.769,1.284-.658,2.565-1.326,3.878-1.922a34.577,34.577,0,0,1,3.934-1.485,26.026,26.026,0,0,1,2.88-.728,12.011,12.011,0,0,1,3.306-.278,4.972,4.972,0,0,1,.525.066c.2.038.291.139.287.281s-.082.217-.276.253a4.728,4.728,0,0,1-.671.088,14.721,14.721,0,0,0-2.586.4,31.1,31.1,0,0,0-5.9,2.007c-1.941.861-3.806,1.868-5.657,2.9-2.059,1.149-4.059,2.395-6.021,3.7a.641.641,0,0,0-.265.3,9.756,9.756,0,0,0-.778,3.574c-.006.323.023.647.037.972a.541.541,0,0,0,.011.088c.087.452.348.578.737.337a3.951,3.951,0,0,0,.591-.437,1.068,1.068,0,0,0,.245-1.119c-.076-.325-.181-.644-.251-.969a2.625,2.625,0,0,1-.042-.555.248.248,0,0,1,.19-.266.249.249,0,0,1,.274.132c.086.13.158.27.237.405a2.553,2.553,0,0,0,.18.3.343.343,0,0,0,.557.041.556.556,0,0,0,.041-.042,18.329,18.329,0,0,1,3.921-3.321,26.27,26.27,0,0,1,3.224-1.83,43.843,43.843,0,0,1,6.969-2.68,25.667,25.667,0,0,1,3.383-.771,10.332,10.332,0,0,1,2.29-.105c.363.024.726.046,1.088.075.251.019.372.1.382.246a.369.369,0,0,1-.353.336c-.369.052-.741.094-1.113.109a16.037,16.037,0,0,0-3.162.513,38.8,38.8,0,0,0-5.78,2,36.136,36.136,0,0,0-5.434,2.812,24.018,24.018,0,0,0-3.767,2.921,3.358,3.358,0,0,0-.948,1.6,1.491,1.491,0,0,0,.087,1.147c.4.7.848,1.367,1.278,2.047.007.012.033.013.076.028a2.512,2.512,0,0,0-.042-.264c-.109-.407-.239-.81-.331-1.221-.116-.516-.208-1.037-.3-1.558a1.435,1.435,0,0,1,.012-.381.317.317,0,0,1,.207-.3.278.278,0,0,1,.33.137,6.6,6.6,0,0,1,.364.636,1.191,1.191,0,0,0,.469.551.379.379,0,0,0,.534-.055,23.022,23.022,0,0,1,3.924-3,38.5,38.5,0,0,1,3.635-2.065,28.5,28.5,0,0,1,4.634-1.869,28.1,28.1,0,0,1,3.766-.935c1.084-.179,2.174-.319,3.262-.467.272-.036.549-.034.823-.05a.59.59,0,0,1,.059,0c.2.014.314.095.331.23s-.064.248-.265.3c-.3.077-.613.136-.92.2-1.322.288-2.65.552-3.965.87a33.372,33.372,0,0,0-4.142,1.338,20.429,20.429,0,0,0-2.811,1.348c-1.116.64-2.236,1.275-3.311,1.979a23.783,23.783,0,0,0-4.034,3.149,2.442,2.442,0,0,0-.725,1.383,1.74,1.74,0,0,0,.179,1.087.849.849,0,0,0,1.1.42,3.419,3.419,0,0,0,.88-.465,55.185,55.185,0,0,1,5.684-3.68,37.52,37.52,0,0,1,8.663-3.635c1.225-.347,2.475-.616,3.724-.868a6.757,6.757,0,0,1,1.349-.012.208.208,0,0,1,.138.044.343.343,0,0,1,.115.183c0,.049-.058.119-.109.153a.429.429,0,0,1-.2.06,14.043,14.043,0,0,0-2.658.634,41.752,41.752,0,0,0-5.878,2.159,39.671,39.671,0,0,0-3.789,1.964c-1.539.911-3.066,1.84-4.529,2.867-.8.558-1.555,1.168-2.315,1.772a1.88,1.88,0,0,0-.68,1.732,2.525,2.525,0,0,0,.4,1.159,1.328,1.328,0,0,0,1.263.663,2.06,2.06,0,0,0,1.227-.578c.644-.561,1.286-1.126,1.949-1.663a44.781,44.781,0,0,1,3.862-2.75,47.612,47.612,0,0,1,6.044-3.3,41.719,41.719,0,0,1,6.632-2.49c.218-.059.439-.1.661-.144a1.145,1.145,0,0,1,.351-.008.238.238,0,0,1,.155.4.78.78,0,0,1-.281.206c-.664.292-1.326.59-2,.857a60.141,60.141,0,0,0-7.319,3.45,50.059,50.059,0,0,0-6.176,4.054,31.848,31.848,0,0,0-3.057,2.588c-.2.2-.4.408-.591.616a1.918,1.918,0,0,0-.474,1,1.6,1.6,0,0,0,.473,1.343,4.531,4.531,0,0,0,.752.652,1.461,1.461,0,0,0,1.785-.034,3.029,3.029,0,0,0,.719-.646,29.727,29.727,0,0,1,3.462-3.53,37.921,37.921,0,0,1,3.671-2.859c1.666-1.148,3.36-2.252,5.133-3.23a43.793,43.793,0,0,1,4.007-1.85c.3-.127.591-.265.891-.386a2.2,2.2,0,0,1,.477-.14.276.276,0,0,1,.216.1.223.223,0,0,1-.036.2,1.8,1.8,0,0,1-.412.369q-1.09.614-2.2,1.194a40.069,40.069,0,0,0-4.548,2.831c-1.9,1.342-3.762,2.742-5.547,4.238a31.091,31.091,0,0,0-3.639,3.521,3.371,3.371,0,0,0-.638,1.087,1.787,1.787,0,0,0,.2,1.607,1.3,1.3,0,0,0,.507.387,1.584,1.584,0,0,0,1.341.068,2.069,2.069,0,0,0,.813-.516,49.564,49.564,0,0,1,4.724-4.477c1.666-1.393,3.359-2.748,5.148-3.984a67.943,67.943,0,0,1,5.891-3.627c.172-.094.34-.2.511-.292.1-.058.206-.077.288.034a.222.222,0,0,1-.01.3,1.786,1.786,0,0,1-.29.247c-.748.523-1.5,1.043-2.247,1.566-1.884,1.32-3.706,2.724-5.449,4.222-1.556,1.339-3.076,2.721-4.6,4.1a42.542,42.542,0,0,0-3.226,3.231,3.327,3.327,0,0,0-.852,1.681.955.955,0,0,0,.335,1.027,1.184,1.184,0,0,0,1.223.182,2.489,2.489,0,0,0,.905-.739,47.12,47.12,0,0,1,3.521-3.885c1.155-1.124,2.319-2.238,3.577-3.247.283-.227.58-.438.879-.645a.789.789,0,0,1,.32-.131.229.229,0,0,1,.271.309.649.649,0,0,1-.155.275c-1.149,1.212-2.295,2.428-3.455,3.628a50.2,50.2,0,0,0-4.537,5.38,4.255,4.255,0,0,0-.755,1.894,1.877,1.877,0,0,0-.019.382.576.576,0,0,0,.8.554,2.147,2.147,0,0,0,.935-.641c.7-.835,1.406-1.666,2.123-2.487a13.862,13.862,0,0,1,1.908-1.707.663.663,0,0,1,.176-.1c.18-.063.341.051.3.232a1.319,1.319,0,0,1-.24.459c-.433.546-.907,1.062-1.317,1.625-.972,1.333-1.92,2.683-2.869,4.032a3.292,3.292,0,0,0-.55,1.477,1.007,1.007,0,0,0,.185.754c.12.164.2.188.374.082a1.379,1.379,0,0,0,.359-.294,23.91,23.91,0,0,1,2.194-2.3,8.566,8.566,0,0,1,2.523-1.6c.114-.048.229-.083.329.013a.26.26,0,0,1,.01.352.858.858,0,0,1-.21.243,16.728,16.728,0,0,0-3.511,3.667c-.364.476-.7.973-1.056,1.455a3.174,3.174,0,0,0-.449,1.017,1.625,1.625,0,0,0,.106,1.035.312.312,0,0,0,.295.2.871.871,0,0,0,.663-.189,3.352,3.352,0,0,0,.484-.47,17.729,17.729,0,0,1,3.051-2.979c.344-.26.705-.5,1.059-.746a.567.567,0,0,1,.127-.073.277.277,0,0,1,.346.079.265.265,0,0,1-.014.352,1.588,1.588,0,0,1-.191.183,20.169,20.169,0,0,0-4.2,5.019,10.675,10.675,0,0,0-.535,1.047,1.264,1.264,0,0,0-.1.543c.017.412.32.586.667.374a3.363,3.363,0,0,0,.679-.555c.711-.747,1.386-1.528,2.112-2.26a17.912,17.912,0,0,1,1.373-1.154.5.5,0,0,1,.228-.128.339.339,0,0,1,.261.057.38.38,0,0,1,.051.266c-.005.06-.068.116-.112.167q-1.641,1.916-3.106,3.967a2.457,2.457,0,0,0-.328.747.911.911,0,0,0,.618.981.613.613,0,0,0,.6-.243q.891-1.039,1.793-2.069c.123-.142.255-.274.387-.405a.766.766,0,0,1,.188-.14c.146-.073.262.011.238.172a.587.587,0,0,1-.076.189c-.221.394-.44.788-.67,1.176s-.475.77-.707,1.156a1.468,1.468,0,0,0-.14.322.48.48,0,0,0,.4.627,1.172,1.172,0,0,0,1.181-.5,4.806,4.806,0,0,0,.859-2.29c.137-1.3.281-2.6.4-3.9a16.2,16.2,0,0,0-.016-3.529,8.025,8.025,0,0,0-1.029-3.017c-.3-.527-.62-1.049-.92-1.578a6.358,6.358,0,0,1-.851-2.671,4.9,4.9,0,0,1,.3-2.083,26.584,26.584,0,0,1,1.536-3.309,22.463,22.463,0,0,1,2.119-3.184c.623-.808,1.323-1.557,2-2.318.98-1.1,1.975-2.187,2.884-3.349C-784.435,15897.157-784.352,15896.988-784.071,15897.064Zm-15.077,28.577c-1.654,5.828-3.289,11.59-4.93,17.374h.927c.038-.094.076-.184.111-.273.26-.679.515-1.358.78-2.034a3.616,3.616,0,0,1,.271-.554.428.428,0,0,1,.486-.2.412.412,0,0,1,.3.42,2.141,2.141,0,0,1-.043.556c-.145.591-.31,1.177-.468,1.764-.027.1-.061.2-.1.314h1.386c.054-.129.106-.245.151-.363l.825-2.175a1.29,1.29,0,0,1,.092-.216.328.328,0,0,1,.317-.176.331.331,0,0,1,.29.218.671.671,0,0,1,.067.255,3.833,3.833,0,0,1-.036.789c-.106.488-.259.966-.39,1.448-.019.07-.029.142-.045.223H-798c.052-.126.1-.245.149-.358.311-.679.62-1.356.941-2.029a1.066,1.066,0,0,1,.25-.322.256.256,0,0,1,.409.038.629.629,0,0,1,.146.605c-.133.492-.279.98-.422,1.47-.056.2-.12.387-.185.595h1.67c.285-.714.569-1.423.851-2.134.05-.127.084-.262.139-.387a.351.351,0,0,1,.336-.243.329.329,0,0,1,.33.248,2.047,2.047,0,0,1,.094.6,5.056,5.056,0,0,1-.336,1.429c-.05.155-.107.31-.167.482h1.268c.041-.111.079-.212.115-.313a30.991,30.991,0,0,1,1.829-4.176,1.415,1.415,0,0,1,.173-.273.321.321,0,0,1,.567.09.81.81,0,0,1,.037.43,13.76,13.76,0,0,1-.35,1.366c-.279.85-.589,1.688-.884,2.529-.038.109-.068.221-.107.352h1.061c.049-.129.093-.248.14-.365.588-1.5,1.161-3,1.772-4.491.29-.707.648-1.386.98-2.076a1.466,1.466,0,0,1,.21-.317.3.3,0,0,1,.35-.087.311.311,0,0,1,.219.286,1.122,1.122,0,0,1-.019.322c-.093.4-.175.807-.3,1.2-.571,1.754-1.157,3.5-1.736,5.255-.028.086-.048.175-.076.279h1.5c.038-.112.077-.222.112-.333.923-2.878,1.853-5.754,2.935-8.577.4-1.054.777-2.117,1.165-3.177a.632.632,0,0,1,.033-.081.331.331,0,0,1,.333-.2.339.339,0,0,1,.3.286.8.8,0,0,1,.01.233,9.963,9.963,0,0,1-.161,1.225c-.232.933-.484,1.86-.766,2.779-.771,2.516-1.56,5.023-2.342,7.534-.03.1-.057.2-.088.3h1.582c.219-.68.462-1.345.649-2.024.756-2.754,1.542-5.5,2.416-8.218.468-1.458,1.07-2.864,1.572-4.31a.258.258,0,0,1,.38-.154.5.5,0,0,1,.172.227,1.392,1.392,0,0,1,.027.813c-.212.928-.412,1.859-.658,2.777-.948,3.525-1.912,7.046-2.869,10.568-.028.1-.052.2-.08.315h1.169c.025-.081.047-.145.064-.211.147-.55.281-1.1.441-1.648q1.851-6.346,3.713-12.686a21.477,21.477,0,0,1,1.334-3.551c.07-.14.13-.285.19-.43.079-.189.176-.271.314-.257a.3.3,0,0,1,.262.312,2.409,2.409,0,0,1-.032.668c-.128.615-.275,1.226-.425,1.836-.787,3.192-1.622,6.371-2.532,9.53q-.885,3.069-1.756,6.142c-.026.092-.045.188-.071.3h1.6c.271-.73,5.8-20.333,5.8-20.591q-8.6-2.427-17.211-4.854c-.006,0-.016.007-.024.013a.281.281,0,0,0-.025.027,12.4,12.4,0,0,1,.245,3.335,38.236,38.236,0,0,1-.8,5.978,6.7,6.7,0,0,1-1.13,2.6,2.166,2.166,0,0,1-1.69.887,4.426,4.426,0,0,1-2.849-.76,9.031,9.031,0,0,1-2.734-2.845C-798.688,15926.438-798.9,15926.072-799.148,15925.642Zm14.992-15.663c-.092.029-.184.056-.275.088a3.073,3.073,0,0,1-1.5.187c-.455-.067-.905-.168-1.359-.249a3.883,3.883,0,0,0-.464-.057c-.089-.006-.2.016-.2.127a.366.366,0,0,0,.084.257,2.118,2.118,0,0,0,.42.269,9.87,9.87,0,0,0,1.8.711c.3.091.6.165.9.264a.259.259,0,0,1,.158.175.251.251,0,0,1-.147.186,1.149,1.149,0,0,1-.458.078c-.585-.057-1.168-.137-1.752-.207a6.839,6.839,0,0,0-.757-.081.389.389,0,0,0-.4.47,1.26,1.26,0,0,0,.559.931,3.209,3.209,0,0,0,2.074.494c.116-.014.231-.039.347-.056a.148.148,0,0,1,.187.138.256.256,0,0,1-.1.288,2.034,2.034,0,0,1-.512.269,3.353,3.353,0,0,1-1.971-.084,1.515,1.515,0,0,0-.427-.09c-.3-.011-.436.228-.281.493a1.594,1.594,0,0,0,.237.3,3.381,3.381,0,0,0,1.842.978c.308.059.622.082.933.125.2.027.3.125.292.27s-.1.217-.282.246c-.107.016-.214.025-.321.043a3.639,3.639,0,0,1-2.9-.675,1.153,1.153,0,0,0-.122-.083c-.116-.067-.235-.111-.347,0a.3.3,0,0,0,0,.4,1.073,1.073,0,0,0,.318.2c.259.116.524.219.787.326.317.13.627.284.954.384.768.235,1.545.445,2.319.663.081.023.166.031.244.046A19.141,19.141,0,0,0-784.156,15909.979Zm-5.953,5.85.048-.168c.137-.491.268-.983.413-1.471.153-.517.323-1.027.477-1.543a.379.379,0,0,0-.01-.247,10.421,10.421,0,0,1-.642-2.076c-.07-.293-.127-.589-.192-.9a3.826,3.826,0,0,1-1.624-.192c-.105.276-.207.52-.289.77a3.66,3.66,0,0,0-.1,2,6.121,6.121,0,0,0,.66,1.662l1.151,2.02A1.611,1.611,0,0,0-790.109,15915.828Zm7.028-6.127a19.639,19.639,0,0,1-.26,8.389l.985.281,1.771-3.774a2.9,2.9,0,0,1-.595-1.007c-.3-.788-.6-1.575-.892-2.367a3.926,3.926,0,0,1-.222-1.4Zm-21.353,1.526a4.855,4.855,0,0,0-.169-.615,4.463,4.463,0,0,0-.865-1.458.637.637,0,0,0-1.005-.035,2.336,2.336,0,0,0-.382.48c-.158.26-.293.532-.427.8a1.462,1.462,0,0,0-.119.359,1.926,1.926,0,0,0,.918,2.04.822.822,0,0,0,.992-.015,3.314,3.314,0,0,0,.739-.71A1.417,1.417,0,0,0-804.434,15911.228Zm-10.773-13.619a1.443,1.443,0,0,0-.13-.414c-.331-.475-.683-.935-1.029-1.4a1.24,1.24,0,0,0-.129-.12.388.388,0,0,0-.463-.082,1.761,1.761,0,0,0-1.04,1.058,4.529,4.529,0,0,0-.156.688,1.981,1.981,0,0,0,.63,1.7.775.775,0,0,0,1.023.123,1.3,1.3,0,0,0,.3-.23c.261-.266.513-.541.766-.814A.794.794,0,0,0-815.207,15897.608Zm-.517,3.47a1.436,1.436,0,0,0,.595,1.323c.07.053.14.107.212.157a1.156,1.156,0,0,0,.9.182,1.578,1.578,0,0,0,1.059-.774.537.537,0,0,0,.021-.536c-.324-.7-.643-1.407-.977-2.105a.494.494,0,0,0-.785-.187,2.074,2.074,0,0,0-.3.285A2.231,2.231,0,0,0-815.724,15901.078Zm6.3,5.244a.715.715,0,0,0-.517.33,1.278,1.278,0,0,0,.151,1.778,2.743,2.743,0,0,1,.63.843,1.378,1.378,0,0,0,.251.322c.19.194.33.215.493,0,.319-.419.6-.866.9-1.3a.316.316,0,0,0,.03-.083.77.77,0,0,0-.307-.817c-.331-.226-.651-.468-.976-.7a3.716,3.716,0,0,0-.334-.24A2.178,2.178,0,0,0-809.419,15906.322Zm9.126,14.4a1.758,1.758,0,0,0-.794.455,3.526,3.526,0,0,0-.943,2.074,3.308,3.308,0,0,0-.018.612c.049.384.273.533.64.422a5.309,5.309,0,0,0,1.575-.771.335.335,0,0,0,.152-.354c-.035-.2-.065-.406-.116-.6-.111-.436-.234-.868-.352-1.3C-800.2,15921.087-800.241,15920.919-800.293,15920.724Zm-19.782-26.439a3.773,3.773,0,0,0,.151.583.913.913,0,0,0,1.535.308c.134-.13.259-.269.4-.394a.824.824,0,0,0,.233-1.062,6.865,6.865,0,0,0-.491-.97.388.388,0,0,0-.446-.205,1.1,1.1,0,0,0-.6.285c-.126.125-.249.251-.379.371A1.42,1.42,0,0,0-820.075,15894.284Zm8.379,11.85c.058,0,.118,0,.176-.01a.874.874,0,0,0,.848-.723.5.5,0,0,0-.1-.414c-.321-.434-.632-.873-.948-1.311a1.676,1.676,0,0,0-.16-.21.527.527,0,0,0-.773.067c-.132.183-.259.37-.382.559a.978.978,0,0,0,.139,1.213c.21.207.427.406.638.611A.711.711,0,0,0-811.7,15906.134Zm7.415,8.513a4.471,4.471,0,0,0,.253,1.224.443.443,0,0,0,.419.313.708.708,0,0,0,.572-.181c.141-.136.279-.277.407-.425a.7.7,0,0,0,.175-.571,4.523,4.523,0,0,0-.656-1.811,3.167,3.167,0,0,0-.217-.315.294.294,0,0,0-.5-.011.806.806,0,0,0-.141.223A3.5,3.5,0,0,0-804.281,15914.646Zm4.147,10.264c-.122.059-.192.09-.259.126a7.524,7.524,0,0,0-1.667,1.248,2.566,2.566,0,0,0-.647,1.073c-.151.464-.016.667.515.765a.379.379,0,0,0,.088,0l1.083-.084Zm-1.831-5c.308-.614.608-1.208.9-1.807a.351.351,0,0,0,.023-.224c-.1-.408-.219-.812-.324-1.221a.224.224,0,0,0-.258-.185.623.623,0,0,0-.49.231c-.132.171-.255.348-.392.515a1.821,1.821,0,0,0,0,2.357A.733.733,0,0,0-801.965,15919.91Zm.653,9.149a4.419,4.419,0,0,0-1.438.417.754.754,0,0,0-.421.78,1.869,1.869,0,0,0,1.047,1.432c.011.007.036-.008.071-.015Z"/>
  </g>
</svg>
