<svg xmlns="http://www.w3.org/2000/svg" width="69.442" height="83.881" viewBox="0 0 69.442 83.881">
  <g id="Group_270" data-name="Group 270" transform="translate(460.68 -15863.109)">
    <path id="Path_273" data-name="Path 273" d="M-416.211,15945.743c-.388-.058-.774-.109-1.158-.173-1.006-.169-2.012-.348-3.019-.515a.545.545,0,0,1-.37-.211c-.325-.419-.676-.82-.975-1.258a14.315,14.315,0,0,0-3.635-3.619c-.731-.514-1.442-1.057-2.143-1.61a13.76,13.76,0,0,0-1.8-1.232,11.612,11.612,0,0,1-1.966-1.4c-.266-.232-.533-.465-.8-.693a8.38,8.38,0,0,1-1.385-1.523,21.332,21.332,0,0,1-1.6-2.647c-.27-.523-.543-1.045-.8-1.577a10.324,10.324,0,0,1-.808-3.034q-.361-2.571-.484-5.163c-.047-.972-.071-1.946-.163-2.914s-.261-1.946-.388-2.919a18.28,18.28,0,0,0-1.107-3.964c-.521-1.411-.957-2.847-1.336-4.3-.148-.57-.341-1.128-.5-1.7a9.483,9.483,0,0,1-.4-2.791c.018-.776.031-1.552.06-2.327a9.36,9.36,0,0,1,.624-2.927c.037-.1.072-.2.122-.343a1.055,1.055,0,0,1-.157-.115c-.251-.261-.513-.515-.739-.8a.5.5,0,0,0-.414-.21c-.941-.041-1.887-.057-2.822-.16a7.009,7.009,0,0,1-3.86-1.681,5.339,5.339,0,0,1-1.793-3.2,5.693,5.693,0,0,1-.01-1.381,1.155,1.155,0,0,1,.681-.937,3.919,3.919,0,0,1,2.224-.427c.529.041,1.059.063,1.588.091.106.006.211,0,.381,0-.1-.135-.158-.23-.23-.317-.268-.313-.529-.634-.811-.936a8.528,8.528,0,0,1-1.8-3.183,10.611,10.611,0,0,1-.585-3.912,3.276,3.276,0,0,1,1.448-2.609,1.726,1.726,0,0,1,.967-.315c.137,0,.276.007.412-.008a2.345,2.345,0,0,1,1.607.47,21.2,21.2,0,0,1,3.253,2.62,83.809,83.809,0,0,1,6.547,7.62c.148.2.306.385.452.581a.378.378,0,0,0,.3.158c.9.077,1.8.151,2.7.244a14.923,14.923,0,0,1,3.937.956,23.46,23.46,0,0,1,2.72,1.269c.368.2.7.473,1.053.7a1.175,1.175,0,0,0,.418.193c.668.108,1.338.213,2.011.286a8.384,8.384,0,0,1,1.866.4,20.829,20.829,0,0,1,2.546,1.083,5.55,5.55,0,0,1,1.873,1.5.656.656,0,0,0,.523.271,12.265,12.265,0,0,1,3.043.654,3.479,3.479,0,0,1,1.046.528,9.04,9.04,0,0,1,1.722,1.6,27.619,27.619,0,0,1,1.681,2.311,14.95,14.95,0,0,1,1.3,2.543,6.9,6.9,0,0,1,.51,2.02,17.06,17.06,0,0,0,.261,1.925,7.664,7.664,0,0,0,.424,1.313,31.777,31.777,0,0,1,1.127,3.1,29.5,29.5,0,0,1,.79,3.954,31.055,31.055,0,0,1,.205,5.118c-.016.649-.051,1.3-.068,1.945a20.526,20.526,0,0,0,.2,3.938c.208,1.25.406,2.5.705,3.732a13.791,13.791,0,0,0,2.816,5.614c.7.839,1.438,1.64,2.158,2.459.986,1.122,1.966,2.249,2.957,3.366.442.5.906.979,1.36,1.469l.47.507-.952.708c-.365-.387-.712-.746-1.047-1.115-.632-.7-1.257-1.4-1.886-2.107-.073-.08-.152-.154-.224-.235-1.106-1.238-2.222-2.468-3.315-3.718a15.98,15.98,0,0,1-2.775-4.391,16.821,16.821,0,0,1-1.026-3.59c-.23-1.325-.425-2.656-.633-3.985a1.557,1.557,0,0,1-.019-.235c.005-1.2.007-2.4.019-3.6s.081-2.4.04-3.6a26,26,0,0,0-.615-4.609,17.985,17.985,0,0,0-1.068-3.395,10.807,10.807,0,0,1-.792-2.824c-.1-.7-.19-1.4-.3-2.1a4.969,4.969,0,0,0-.5-1.621,26,26,0,0,0-2.779-4.193,7.471,7.471,0,0,0-1.478-1.346,2.462,2.462,0,0,0-.627-.316c-.456-.15-.922-.272-1.387-.395-.23-.06-.313.042-.238.269a.65.65,0,0,0,.534.4,8.3,8.3,0,0,1,.98.307,4.911,4.911,0,0,1,.638.363.807.807,0,0,1,.094.07c.1.08.168.175.107.306-.055.115-.162.127-.278.111a2.5,2.5,0,0,0-.38-.035c-.362.012-.471.223-.274.525.151.23.3.459.468.68a2.087,2.087,0,0,0,.793.6c.369.183.734.374,1.1.567a.785.785,0,0,1,.255.2.4.4,0,0,1,.074.266.227.227,0,0,1-.237.185c-.147.007-.3,0-.442,0-.268.006-.33.1-.24.353.062.177.132.35.192.526a.49.49,0,0,1-.195.618.473.473,0,0,1-.619-.085,4.828,4.828,0,0,1-.567-.749,59.692,59.692,0,0,0-4.208-6.007,5.89,5.89,0,0,0-2.386-1.864,14.869,14.869,0,0,0-2.593-.956,4.672,4.672,0,0,0-.668-.1c-.238-.017-.316.1-.245.339a.731.731,0,0,0,.451.476,3.712,3.712,0,0,0,.674.2,8.091,8.091,0,0,1,1.67.465,2.385,2.385,0,0,1,.491.264,1.731,1.731,0,0,1,.336.363.285.285,0,0,1,.007.358c-.085.111-.208.088-.326.065-.327-.062-.654-.124-.981-.184a.709.709,0,0,0-.176-.012.375.375,0,0,0-.34.576,1.34,1.34,0,0,0,1.269.808,4.27,4.27,0,0,1,2.1.6,1.737,1.737,0,0,1,.2.129.266.266,0,0,1,.124.279.262.262,0,0,1-.261.2,3.555,3.555,0,0,1-.381-.012,3.953,3.953,0,0,0-.67-.022c-.3.035-.4.219-.308.5a1.358,1.358,0,0,0,.983.968c.343.086.691.151,1.031.245.321.088.637.2.952.307a1.2,1.2,0,0,1,.282.155c.1.071.188.181.133.3a.453.453,0,0,1-.239.229,1.636,1.636,0,0,1-.466.036c-.147,0-.294-.025-.441-.021a.984.984,0,0,0-.313.065c-.22.088-.265.189-.2.416.03.1.081.2.115.3a.489.489,0,0,1-.164.628.474.474,0,0,1-.632-.129c-.2-.214-.4-.434-.583-.665-.7-.876-1.4-1.748-2.077-2.641-.723-.956-1.421-1.931-2.121-2.9a21.021,21.021,0,0,0-2.67-3.061,7.075,7.075,0,0,0-1.707-1.192,20.986,20.986,0,0,0-3.2-1.346,13.571,13.571,0,0,0-3.062-.575c-.41-.026-.819-.077-1.269-.121a1.69,1.69,0,0,0,.108.2c.211.284.422.567.64.846a1.09,1.09,0,0,0,1.356.389,3.5,3.5,0,0,1,2-.051,4.214,4.214,0,0,1,1.411.577c.041.026.083.052.122.081a.266.266,0,0,1,.13.277.268.268,0,0,1-.258.206,1.413,1.413,0,0,1-.351-.022,7.516,7.516,0,0,0-1.934-.137.679.679,0,0,0-.709.581.742.742,0,0,0,.147.557,3.168,3.168,0,0,0,1.142,1.124,1.041,1.041,0,0,0,1.04,0,3.427,3.427,0,0,1,3.25.024,1.6,1.6,0,0,1,.274.172.63.63,0,0,1,.143.146.254.254,0,0,1,.011.327.362.362,0,0,1-.262.07c-.312-.03-.621-.095-.933-.116-.293-.02-.588,0-.883,0a1.5,1.5,0,0,0-1.065.5.722.722,0,0,0-.142.939,5.029,5.029,0,0,0,.481.7.944.944,0,0,0,.723.342,2.033,2.033,0,0,0,1.048-.244,4.2,4.2,0,0,1,2.736-.464.953.953,0,0,1,.535.223.292.292,0,0,1,.113.313.277.277,0,0,1-.275.182c-.323.032-.646.057-.967.105a3.655,3.655,0,0,0-1.482.539,1.276,1.276,0,0,0-.494,1.351,1.082,1.082,0,0,0,.144.285c.1.145.215.28.324.42a1.265,1.265,0,0,0,1.686.3c.185-.112.362-.238.552-.339a4.217,4.217,0,0,1,2.621-.479.792.792,0,0,1,.482.2.256.256,0,0,1-.074.451.879.879,0,0,1-.255.063c-.234.032-.469.055-.7.083a3.22,3.22,0,0,0-2.132,1.247,1.133,1.133,0,0,0-.133,1.017,4.159,4.159,0,0,0,.212.579,2.213,2.213,0,0,1,.1.244.392.392,0,0,1-.144.421.38.38,0,0,1-.417.043,1.248,1.248,0,0,1-.26-.189,11.535,11.535,0,0,1-1.44-1.557c-3.217-4.1-6.5-8.143-9.63-12.3q-1.791-2.377-3.693-4.671a65.2,65.2,0,0,0-4.525-4.927,9.493,9.493,0,0,0-.855-.722c-.364-.284-.741-.551-1.114-.823-.159-.115-.327-.217-.485-.334a1.767,1.767,0,0,0-1.41-.246,1.015,1.015,0,0,0-.6.4,2.138,2.138,0,0,0-.56,1.453c.013.529.061,1.059.11,1.586.016.173.059.36.275.409a.48.48,0,0,0,.52-.187,6.024,6.024,0,0,1,1.617-1.358,2.559,2.559,0,0,1,.481-.217.241.241,0,0,1,.315.083c.08.137.007.237-.089.337-.319.332-.657.65-.944,1.01a5.276,5.276,0,0,0-.982,2.217,2.182,2.182,0,0,0,.03,1.108.785.785,0,0,0,.878.617.5.5,0,0,0,.463-.347c.107-.264.214-.528.336-.785a4.462,4.462,0,0,1,1.041-1.416q.49-.445.994-.878a1.111,1.111,0,0,1,.248-.153.215.215,0,0,1,.292.058.374.374,0,0,1,.03.273.917.917,0,0,1-.176.268c-.227.3-.472.579-.683.886a4.739,4.739,0,0,0-.739,1.689c-.116.538-.245,1.072-.357,1.611a1.076,1.076,0,0,0,.215.889.494.494,0,0,0,.767.092,1.735,1.735,0,0,0,.252-.285,1.625,1.625,0,0,0,.148-.255,4.9,4.9,0,0,1,2.185-2.078,2.353,2.353,0,0,1,.383-.15.233.233,0,0,1,.29.078c.073.11.017.21-.062.291-.165.169-.337.33-.5.5a4.7,4.7,0,0,0-1.14,1.631c-.237.646-.479,1.29-.667,1.95a3.554,3.554,0,0,0-.08,1.635c.093.489.346.61.779.371a2.259,2.259,0,0,0,.861-.91,8.1,8.1,0,0,1,2.554-2.769,1.931,1.931,0,0,1,.174-.111.229.229,0,0,1,.3.036.22.22,0,0,1,.014.3,4.1,4.1,0,0,1-.327.379,7.706,7.706,0,0,0-1.052,1.342,10.955,10.955,0,0,0-1.207,2.9,4.409,4.409,0,0,0-.147,1.868,3.673,3.673,0,0,0,.147.508.586.586,0,0,0,.91.215,4.156,4.156,0,0,0,.52-.632,7.924,7.924,0,0,1,1.762-2.12,6.042,6.042,0,0,1,1.535-.923,3.155,3.155,0,0,1,.506-.148c.2-.045.326.011.367.147.049.166-.064.249-.177.335-.305.231-.612.46-.909.7a6.843,6.843,0,0,0-1.148,1.26,1.225,1.225,0,0,0-.273.734.614.614,0,0,0,.324.586,6.813,6.813,0,0,0,.792.39,1.075,1.075,0,0,0,1.178-.192,4.943,4.943,0,0,1,1.88-1.069c.266-.08.408-.045.463.1.076.21-.1.291-.219.4-.28.247-.56.494-.828.753a2.792,2.792,0,0,0-.645,1.046,1.175,1.175,0,0,0,.125,1.123c.192.284.375.576.55.872a.676.676,0,0,0,1.18.156c.1-.1.181-.234.286-.336.353-.341.708-.682,1.072-1.01.188-.171.311-.187.416-.1s.11.2-.006.431c-.062.121-.145.232-.216.351-.293.487-.6.967-.874,1.465a3.4,3.4,0,0,0-.275,2.6c.114.426.238.851.354,1.276a.347.347,0,0,0,.308.276c.176.021.267-.095.331-.237a7.707,7.707,0,0,1,.941-1.6,7.738,7.738,0,0,1,1.39-1.354.429.429,0,0,1,.173-.106.442.442,0,0,1,.273.021.221.221,0,0,1,.067.291,1.376,1.376,0,0,1-.173.271c-.184.23-.382.45-.56.685a6.736,6.736,0,0,0-1.121,2.353,16.57,16.57,0,0,0-.6,3.12,6.4,6.4,0,0,0,.033,1.115,1.649,1.649,0,0,0,.2.579.416.416,0,0,0,.707.113,1.366,1.366,0,0,0,.31-.489,15.012,15.012,0,0,1,1.082-2.288,6.533,6.533,0,0,1,1.386-1.746c.3-.256.622-.479.94-.709.056-.041.175-.078.2-.052a.308.308,0,0,1,.085.227,1.067,1.067,0,0,1-.105.331.721.721,0,0,1-.14.189,8.25,8.25,0,0,0-1.615,2.787c-.193.5-.348,1.021-.526,1.532a7.074,7.074,0,0,0-.3,1.8,8.718,8.718,0,0,0-.008.97,2.064,2.064,0,0,0,.081.4.49.49,0,0,0,.408.377.492.492,0,0,0,.533-.237c.157-.26.3-.527.452-.793.37-.658.717-1.332,1.115-1.973a13.407,13.407,0,0,1,2.091-2.545,2.7,2.7,0,0,1,.393-.309.247.247,0,0,1,.326.022.243.243,0,0,1,.03.322c-.064.111-.137.217-.206.324-.377.586-.763,1.167-1.129,1.762a21.461,21.461,0,0,0-1.725,3.706c-.208.551-.388,1.112-.562,1.676a7.736,7.736,0,0,0-.249,3.179,13.9,13.9,0,0,1,.052,1.5.821.821,0,0,1-.133.38c-.1.177-.254.186-.367.009a1.566,1.566,0,0,1-.206-.479c-.145-.611-.257-1.23-.409-1.84a14.925,14.925,0,0,0-2.279-5.172,13.131,13.131,0,0,1-2.119-4.7,22.984,22.984,0,0,1-.372-2.3,12.565,12.565,0,0,0-.564-2.374c-.115-.346-.227-.691-.353-1.032a11.889,11.889,0,0,0-2.669-4.3,6.866,6.866,0,0,0-.7-.578,1.293,1.293,0,0,0-1.065-.221,1.951,1.951,0,0,0-1.634,1.271,9.737,9.737,0,0,0-.565,2.16,2.326,2.326,0,0,0-.015.236.315.315,0,0,0,.184.312.357.357,0,0,0,.39-.038c.061-.049.113-.108.17-.163a4.512,4.512,0,0,1,1.714-1.113,2.311,2.311,0,0,1,.519-.084.508.508,0,0,1,.227.048.284.284,0,0,1,.21.258c0,.14-.1.21-.209.256a3.4,3.4,0,0,0-.6.241,4.3,4.3,0,0,0-.747.616,6.456,6.456,0,0,0-1.487,2.614,4.414,4.414,0,0,0-.138.989.777.777,0,0,0,.253.635.32.32,0,0,0,.494,0c.106-.1.2-.22.3-.328a6,6,0,0,1,2.452-1.634,2.144,2.144,0,0,1,.516-.1.546.546,0,0,1,.28.064.233.233,0,0,1,.042.409.938.938,0,0,1-.231.126,5.618,5.618,0,0,0-2.883,2.826,3.72,3.72,0,0,0-.265,2.419.754.754,0,0,0,.671.61.8.8,0,0,0,.811-.364c.2-.266.386-.546.6-.8a5.725,5.725,0,0,1,1.078-1,3.906,3.906,0,0,1,1.228-.553.364.364,0,0,1,.2-.018.338.338,0,0,1,.2.143.282.282,0,0,1-.048.237.578.578,0,0,1-.242.159,3.263,3.263,0,0,0-1.427,1.237,8.3,8.3,0,0,0-1.088,2.051,6.905,6.905,0,0,0-.391,2.87,2.422,2.422,0,0,0,.137.57.457.457,0,0,0,.557.321,1.065,1.065,0,0,0,.449-.2,6.467,6.467,0,0,0,.77-.765,6.167,6.167,0,0,1,1.729-1.537,2.42,2.42,0,0,1,.578-.207.276.276,0,0,1,.344.156.289.289,0,0,1-.113.337.206.206,0,0,1-.022.02,7.7,7.7,0,0,0-2.234,3.094,15.423,15.423,0,0,0-1.119,4.226,4.937,4.937,0,0,0,0,1.761c.054.284.133.413.319.436a.5.5,0,0,0,.5-.291c.35-.569.687-1.147,1.066-1.7a18.128,18.128,0,0,1,2.188-2.66,10.217,10.217,0,0,1,.989-.788.516.516,0,0,1,.241-.1.225.225,0,0,1,.235.329.77.77,0,0,1-.177.23,6.392,6.392,0,0,0-1.086,1.39c-.536.869-1.106,1.719-1.612,2.6a24.8,24.8,0,0,0-1.563,3.364,2.694,2.694,0,0,0-.141.57,9.7,9.7,0,0,0-.211,2.312,3.844,3.844,0,0,0,.146.837.674.674,0,0,0,1.148.317,1.926,1.926,0,0,0,.576-.772,33.716,33.716,0,0,1,1.436-3.164,19.232,19.232,0,0,1,1.615-2.67,9.466,9.466,0,0,1,1.247-1.332c.161-.144.314-.3.484-.43a.268.268,0,0,1,.235-.039.252.252,0,0,1,.111.211,1.33,1.33,0,0,1-.176.428c-.332.511-.693,1-1.015,1.518a20.715,20.715,0,0,0-1.672,3.44c-.615,1.563-1.2,3.138-1.813,4.7a2.51,2.51,0,0,0-.075,1.7c.114.374.274.734.417,1.1a1.119,1.119,0,0,0,.1.18.65.65,0,0,0,1.21-.026,2.091,2.091,0,0,0,.158-.38,44.644,44.644,0,0,1,2.536-5.959c.866-1.652,1.743-3.3,2.656-4.928a29.094,29.094,0,0,0,2-4.452,44.643,44.643,0,0,1,2.516-5.967,14.89,14.89,0,0,1,1.219-1.946,7.779,7.779,0,0,1,2.88-2.335,17.75,17.75,0,0,1,4.9-1.538,4.749,4.749,0,0,1,.763-.063,24.308,24.308,0,0,1,3.264.159c.039,0,.087,0,.115.016.067.047.167.1.174.163a.256.256,0,0,1-.126.2.967.967,0,0,1-.367.092c-.5.027-1,.066-1.5.059a14.059,14.059,0,0,0-6.316,1.565,7.214,7.214,0,0,0-3.35,3.316,43.909,43.909,0,0,0-2.126,4.727c-.406,1.074-.818,2.146-1.2,3.229a23.513,23.513,0,0,1-1.724,3.546c-1.036,1.852-2.052,3.714-2.987,5.62a39.647,39.647,0,0,0-2.023,4.929,5.192,5.192,0,0,0-.314,1.88,1.85,1.85,0,0,0,.05.379,1.1,1.1,0,0,0,1.544.81,4.737,4.737,0,0,0,.482-.221,1.5,1.5,0,0,0,.693-.981c.245-.726.464-1.461.742-2.174a64.451,64.451,0,0,1,3.376-7.326,45.786,45.786,0,0,0,2.866-6.329c.394-1.1.685-2.232,1.052-3.342a17.712,17.712,0,0,1,.741-1.922,9.3,9.3,0,0,1,3.858-4.172,12.209,12.209,0,0,1,5.725-1.708c.449-.02.9.032,1.352.053a.611.611,0,0,1,.2.037.187.187,0,0,1,.059.331.9.9,0,0,1-.394.174c-.349.053-.7.064-1.054.111a11.582,11.582,0,0,0-4.356,1.358,18.5,18.5,0,0,0-1.693,1.068,7.74,7.74,0,0,0-2.4,3.087,19.663,19.663,0,0,0-1.068,3.056,40.033,40.033,0,0,1-2.78,7.03c-.449.917-.911,1.829-1.4,2.728a54.763,54.763,0,0,0-2.352,5.076,27.223,27.223,0,0,0-1.27,3.577,4.981,4.981,0,0,0-.2,1.572,1.763,1.763,0,0,0,.24.811.852.852,0,0,0,1.288.284,2.212,2.212,0,0,0,.773-.98,30.358,30.358,0,0,1,1.539-3.279c.4-.72.847-1.417,1.252-2.135.729-1.291,1.472-2.576,2.156-3.892a29.983,29.983,0,0,0,1.771-4.646c.449-1.383.889-2.769,1.472-4.1a35.7,35.7,0,0,1,1.767-3.528,6.809,6.809,0,0,1,2.664-2.725,10.327,10.327,0,0,1,2.674-.979c.431-.094.87-.153,1.307-.215a2.181,2.181,0,0,1,.529-.013,1.513,1.513,0,0,1,.418.125.178.178,0,0,1,.116.238.281.281,0,0,1-.2.137,7.684,7.684,0,0,0-1.725.361,10.872,10.872,0,0,0-2.329.981,5.909,5.909,0,0,0-2.406,2.673,53.52,53.52,0,0,0-3.176,8.015,27.565,27.565,0,0,1-2.21,5.356c-.7,1.253-1.412,2.5-2.156,3.723a29.946,29.946,0,0,0-2.2,4.426,5.235,5.235,0,0,0-.363,2.107,1.792,1.792,0,0,0,.557,1.2.744.744,0,0,0,.5.229c.1.007.2.01.294.02a1,1,0,0,0,1-.487c.293-.465.6-.923.851-1.411.464-.909.894-1.836,1.331-2.759a43.778,43.778,0,0,1,2.492-4.411,28.712,28.712,0,0,0,2.867-6.025c.526-1.553,1.087-3.094,1.645-4.636a16.335,16.335,0,0,1,1.02-2.252,9.858,9.858,0,0,1,2.121-2.51,5.381,5.381,0,0,1,1.5-1.082c.261-.109.535-.191.8-.277a.363.363,0,0,1,.2,0,.171.171,0,0,1,.077.285.589.589,0,0,1-.192.131,5.814,5.814,0,0,0-2.379,2.095,15.567,15.567,0,0,0-1.692,3.393c-.636,1.66-1.2,3.345-1.738,5.038a27.787,27.787,0,0,1-3.054,6.519,56.53,56.53,0,0,0-3.4,6.3,21.2,21.2,0,0,0-1.135,2.81c-.172.562-.294,1.14-.421,1.714a1.786,1.786,0,0,0,.068.871,1.1,1.1,0,0,0,1.218.754.969.969,0,0,0,.645-.384,7.824,7.824,0,0,0,.691-1.058c.525-1.032,1.011-2.085,1.529-3.122.859-1.723,1.717-3.445,2.6-5.155.659-1.272,1.332-2.539,2.047-3.78a23.79,23.79,0,0,0,2.021-4.476c.377-1.147.74-2.3,1.126-3.443a11.365,11.365,0,0,1,1.248-2.757c.343-.513.764-.972,1.154-1.451a.234.234,0,0,1,.315-.071c.11.06.139.185.073.337a1.226,1.226,0,0,1-.146.256,10.446,10.446,0,0,0-1.594,3.554c-.4,1.428-.81,2.853-1.223,4.275a19.415,19.415,0,0,1-1.684,3.981c-1.18,2.132-2.228,4.331-3.3,6.52-.556,1.14-1.152,2.258-1.721,3.39-.348.693-.689,1.391-1.015,2.095A3.639,3.639,0,0,0-416.211,15945.743Zm-28.285-56.606c-.329.023-.641.061-.954.064-.726.01-1.452.012-2.178,0a2.508,2.508,0,0,0-1.024.232.273.273,0,0,0-.188.267,3.739,3.739,0,0,0,.09,1.169,4.863,4.863,0,0,0,.952,1.779.586.586,0,0,0,.127.12.309.309,0,0,0,.517-.253c.009-.137,0-.274,0-.412a3.358,3.358,0,0,1,.189-1.156,1.522,1.522,0,0,1,.3-.5c.155-.171.359-.1.419.127a.879.879,0,0,1,.019.146c.038.381.066.763.114,1.142a4.151,4.151,0,0,0,.661,1.716,1.012,1.012,0,0,0,.164.208,2.574,2.574,0,0,0,2.01.657,1.984,1.984,0,0,0,.536-.149.463.463,0,0,0,.324-.478,2.026,2.026,0,0,0-.107-.6c-.16-.411-.344-.813-.537-1.21-.408-.838-.827-1.671-1.243-2.5C-444.366,15889.378-444.432,15889.259-444.5,15889.137Z"/>
    <path id="Path_274" data-name="Path 274" d="M-449.643,15870.943c.2.269.394.525.58.788a7.865,7.865,0,0,1,1.163,2.236,2.566,2.566,0,0,1,.079,1.507,1.433,1.433,0,0,1-1.008.985,2.961,2.961,0,0,1-1.486.055c-.442-.083-.873-.221-1.309-.333a1.529,1.529,0,0,0-.162-.022c-.112.252-.219.5-.334.75a4.269,4.269,0,0,1-1.008,1.436,1.653,1.653,0,0,1-1,.462,1.562,1.562,0,0,1-1.153-.434,4.2,4.2,0,0,1-1.034-1.453c-.115-.248-.223-.5-.344-.772l-.538.158a4.765,4.765,0,0,1-1.826.253,2.682,2.682,0,0,1-.847-.212,1.349,1.349,0,0,1-.808-1.236,3.952,3.952,0,0,1,.455-1.956,10.017,10.017,0,0,1,1.137-1.82c.1-.123.184-.251.286-.389-.164-.226-.321-.437-.474-.651a7.841,7.841,0,0,1-1.164-2.236,2.533,2.533,0,0,1-.074-1.533,1.426,1.426,0,0,1,1.022-.97,3.113,3.113,0,0,1,1.516-.042c.431.085.856.2,1.3.3.118-.271.234-.55.36-.823a4.5,4.5,0,0,1,.724-1.14,3.612,3.612,0,0,1,.358-.349,1.489,1.489,0,0,1,2.014,0,3.232,3.232,0,0,1,.8.97c.211.4.391.813.584,1.221.02.042.039.086.066.144.149-.042.289-.082.428-.123a4.863,4.863,0,0,1,1.768-.253,2.864,2.864,0,0,1,.8.174,1.394,1.394,0,0,1,.916,1.35,3.992,3.992,0,0,1-.472,1.894,9.768,9.768,0,0,1-1.138,1.819C-449.52,15870.77-449.575,15870.849-449.643,15870.943Zm-4.617,2.718a.616.616,0,0,0,.1-.026,15.752,15.752,0,0,0,1.967-1.539.463.463,0,0,0,.143-.37c0-.5-.005-1,0-1.5a.533.533,0,0,0-.216-.457c-.589-.457-1.179-.91-1.766-1.368a.261.261,0,0,0-.368,0c-.594.467-1.192.927-1.787,1.39a.476.476,0,0,0-.194.407q.008.765,0,1.529a.522.522,0,0,0,.2.435c.294.244.579.5.88.735C-454.952,15873.162-454.593,15873.415-454.26,15873.661Zm-2.693,1.469a15.934,15.934,0,0,1-.408-2.491.311.311,0,0,0-.069-.189c-.225-.212-.462-.413-.706-.629-.1.128-.216.281-.328.441a6.86,6.86,0,0,0-1.153,2.3c-.157.641.064.957.721.952a6.365,6.365,0,0,0,1.133-.144A7.938,7.938,0,0,0-456.953,15875.13Zm5.5-.029a.656.656,0,0,0,.153.092c.466.11.93.239,1.4.314a2.078,2.078,0,0,0,.725-.053.406.406,0,0,0,.376-.48,3.318,3.318,0,0,0-.143-.8,7.406,7.406,0,0,0-1.257-2.212c-.046-.06-.1-.113-.149-.164-.176.167-.333.328-.5.473a.717.717,0,0,0-.249.542,5.775,5.775,0,0,1-.068.644C-451.256,15873.992-451.354,15874.531-451.453,15875.1Zm1.067-4.985c.048-.026.071-.031.081-.045a7.494,7.494,0,0,0,1.283-2.265,3,3,0,0,0,.127-.778.41.41,0,0,0-.368-.458,2.006,2.006,0,0,0-.492-.069,5.077,5.077,0,0,0-1.411.253c-.322.095-.284.1-.235.414.1.678.2,1.355.318,2.031a.736.736,0,0,0,.136.345C-450.777,15869.744-450.579,15869.921-450.386,15870.115Zm-7.7.028c.191-.187.352-.355.523-.513a.7.7,0,0,0,.221-.462c.07-.574.154-1.146.239-1.717.021-.146.064-.287.1-.43a.168.168,0,0,0-.123-.228,5.106,5.106,0,0,0-1.64-.3c-.683.016-.885.3-.733.968a5.952,5.952,0,0,0,.893,1.938C-458.453,15869.648-458.276,15869.88-458.088,15870.144Zm5.345-3.913c-.118-.282-.211-.529-.323-.769a3.607,3.607,0,0,0-.668-1.035c-.361-.363-.623-.374-.97.01a4.375,4.375,0,0,0-.507.72,4.529,4.529,0,0,0-.458,1.074c.455.248.889.494,1.333.724a.363.363,0,0,0,.273-.021c.195-.092.376-.211.567-.312C-453.255,15866.491-453.011,15866.369-452.743,15866.23Zm-.05,9.493-1.425-.777-1.415.771a.318.318,0,0,0,0,.094,5.107,5.107,0,0,0,.78,1.509,2.4,2.4,0,0,0,.439.384.323.323,0,0,0,.388,0,1.127,1.127,0,0,0,.3-.231,7.421,7.421,0,0,0,.559-.824A3.1,3.1,0,0,0-452.793,15875.724Zm-3.33-2.139-.079.033a6.375,6.375,0,0,0,.268,1.062,3.085,3.085,0,0,0,.7-.415Zm2.886.705.74.395a2.147,2.147,0,0,0,.183-1.1Zm-2.962-5.954.058.032.916-.692a3.551,3.551,0,0,0-.763-.391Zm2.971-.667.964.719a2.341,2.341,0,0,0-.254-1.094Z"/>
    <path id="Path_275" data-name="Path 275" d="M-412.576,15946.258l-2.037-.277a2.39,2.39,0,0,0,.748-1.018l1.767-3.027a60.453,60.453,0,0,0,3.317-6.5c.616-1.423,1.243-2.842,1.854-4.268a35.494,35.494,0,0,0,1.448-4.325.784.784,0,0,1,.066-.192.213.213,0,0,1,.382-.029.87.87,0,0,1,.136.438,10.112,10.112,0,0,1-.08,1.086,18.084,18.084,0,0,1-1,3.777,57.524,57.524,0,0,1-3.986,9.013c-.537.972-1.121,1.916-1.663,2.885a12.791,12.791,0,0,0-.677,1.4A8.267,8.267,0,0,0-412.576,15946.258Z"/>
    <path id="Path_276" data-name="Path 276" d="M-408.443,15946.75l-1.748-.192c.688-.875,1.271-1.779,1.881-2.665a32.919,32.919,0,0,0,3.6-7.032q.41-1.074.84-2.137c.092-.226.217-.438.332-.655.053-.1.133-.187.258-.148a.222.222,0,0,1,.135.29c-.14.662-.271,1.326-.427,1.984a27.184,27.184,0,0,1-2.479,6.468c-.39.736-.857,1.431-1.3,2.14A7.681,7.681,0,0,0-408.443,15946.75Z"/>
    <path id="Path_277" data-name="Path 277" d="M-403.555,15946.99h-1.79c-.007-.038-.02-.063-.012-.074a24.445,24.445,0,0,0,3.451-7.283c.19-.711.375-1.423.565-2.134a2.083,2.083,0,0,1,.14-.416.269.269,0,0,1,.2-.129c.067,0,.145.086.187.153a.629.629,0,0,1,.05.227,6.738,6.738,0,0,1-.146,2.313,19.942,19.942,0,0,1-2.3,6.365A2.092,2.092,0,0,0-403.555,15946.99Z"/>
    <path id="Path_278" data-name="Path 278" d="M-398.758,15946.728l-2.067.235a2.136,2.136,0,0,1,.093-.218c.173-.285.345-.572.527-.853a10.33,10.33,0,0,0,1.331-3.1c.172-.675.355-1.348.535-2.021.027-.1.057-.208.094-.31a.307.307,0,0,1,.3-.233c.138,0,.248.111.281.294a1.719,1.719,0,0,1,.023.352,11.621,11.621,0,0,1-.327,2.508c-.176.705-.383,1.4-.593,2.1A2.943,2.943,0,0,0-398.758,15946.728Z"/>
    <path id="Path_279" data-name="Path 279" d="M-416.841,15902.926c.154.019.368.038.581.07a.284.284,0,0,1,.28.255c.014.134-.094.236-.284.284-.341.086-.687.157-1.022.263a5.8,5.8,0,0,0-2.369,1.492,2.988,2.988,0,0,1-.3.279.61.61,0,0,1-.809-.023.63.63,0,0,1-.06-.833,1.481,1.481,0,0,1,.243-.255,6.173,6.173,0,0,1,3.151-1.487C-417.258,15902.945-417.08,15902.943-416.841,15902.926Z"/>
    <path id="Path_280" data-name="Path 280" d="M-396.242,15946.049a4.617,4.617,0,0,0,.523-1.524c.065-.277.094-.562.146-.843a1.249,1.249,0,0,1,.09-.309.286.286,0,0,1,.533-.014.8.8,0,0,1,.077.19,4.363,4.363,0,0,1,.032,1.9.167.167,0,0,1-.077.112A6.678,6.678,0,0,1-396.242,15946.049Z"/>
    <path id="Path_281" data-name="Path 281" d="M-412.924,15902.371c.323.073.647.143.969.221a.488.488,0,0,1,.208.106c.059.056.135.146.124.209a.41.41,0,0,1-.169.212.426.426,0,0,1-.2.053,6.631,6.631,0,0,0-1.551.326.576.576,0,0,1-.114.03.493.493,0,0,1-.59-.318.484.484,0,0,1,.306-.6A3.33,3.33,0,0,1-412.924,15902.371Z"/>
    <path id="Path_282" data-name="Path 282" d="M-454.286,15870.011a.745.745,0,0,1,.793.846.783.783,0,0,1-.83.884.871.871,0,0,1-.893-.888A.862.862,0,0,1-454.286,15870.011Z"/>
  </g>
</svg>
