<svg xmlns="http://www.w3.org/2000/svg" width="69.064" height="81.667" viewBox="0 0 69.064 81.667">
  <g id="Group_267" data-name="Group 267" transform="translate(835.906 -15748.168)">
    <path id="Path_262" data-name="Path 262" d="M-827.267,15763.183c0-.153,0-.307,0-.46a20.412,20.412,0,0,1,.419-4.125,6.517,6.517,0,0,1,1.9-3.489,3.682,3.682,0,0,1,1.829-.96,3.329,3.329,0,0,1,2.268.425,3,3,0,0,1,1.436,1.577c.077.19.163.378.263.606.1-.1.178-.2.259-.288a24.168,24.168,0,0,1,5.827-4.879,24.176,24.176,0,0,1,7.883-3,23.565,23.565,0,0,1,5.807-.385,23.724,23.724,0,0,1,13.453,5,23.915,23.915,0,0,1,7.858,10.612,23.542,23.542,0,0,1,1.392,5.795,24.164,24.164,0,0,1,.034,5.115,23.84,23.84,0,0,1-2.58,8.669,24.144,24.144,0,0,1-1.748,2.863c-.039.056-.072.114-.118.188.062.054.116.107.177.15a14.818,14.818,0,0,1,3.465,3.5c.363.5.724,1.006,1.063,1.522a6.333,6.333,0,0,0,1.3,1.435c.653.536,1.3,1.074,1.975,1.587a9.845,9.845,0,0,1,2.3,2.423c.528.8,1.067,1.6,1.591,2.408a5.409,5.409,0,0,1,.411.748c.347.78.7,1.561,1.011,2.354a10.333,10.333,0,0,1,.658,2.771c.045.43.111.857.157,1.286.035.332.068.665.08,1,.025.706.039,1.414.053,2.121a30.573,30.573,0,0,1-.264,3.552c-.068.7-.193,1.4-.235,2.108a8.673,8.673,0,0,0,.127,2.255c.121.594.183,1.2.255,1.806.055.457.108.916.119,1.375a2.034,2.034,0,0,1-.354,1.225c-.322.47-.616.958-.921,1.438a.289.289,0,0,1-.423.132c.007-.081.013-.175.023-.267.071-.683.141-1.366.214-2.048a12.163,12.163,0,0,0-.315-3.418,11.482,11.482,0,0,1-.081-3.4,39.073,39.073,0,0,0,.409-4.426,27.746,27.746,0,0,0-.222-4.232,11.545,11.545,0,0,0-.506-2.444c-.269-.716-.578-1.418-.872-2.124a8.231,8.231,0,0,0-.85-1.511c-.463-.672-.889-1.367-1.352-2.038a4.9,4.9,0,0,0-1.152-1.206,40.2,40.2,0,0,1-3.182-2.53,7.922,7.922,0,0,1-1.295-1.521,30.741,30.741,0,0,0-2.072-2.826,13.021,13.021,0,0,0-2.125-1.946,1.274,1.274,0,0,0-.137-.067,1.787,1.787,0,0,1-.116.179,23.294,23.294,0,0,1-2.288,2.376.408.408,0,0,0-.178.372,14.111,14.111,0,0,1-.224,3.576,3,3,0,0,0,.1,1.424,1.363,1.363,0,0,0,.708.789.874.874,0,0,0,.74.043,1.6,1.6,0,0,0,1.1-1.2,20.062,20.062,0,0,0,.472-3.261c.038-.567.044-1.138.063-1.707,0-.095,0-.19,0-.284a.218.218,0,0,1,.311.168c.112.364.242.727.32,1.1a11.422,11.422,0,0,1-.089,5.024,4.92,4.92,0,0,0-.133,1.313,1.335,1.335,0,0,0,.424.972,4.2,4.2,0,0,0,.54.452,1.111,1.111,0,0,0,.439.144.8.8,0,0,0,.845-.415,2.748,2.748,0,0,0,.29-.638,34.42,34.42,0,0,0,.758-3.568c.053-.32.088-.643.133-.963.009-.066.026-.131.04-.2.139,0,.149.11.164.183.067.308.135.615.175.926a15,15,0,0,1-.065,3.992,20.9,20.9,0,0,0-.28,3.489,2.768,2.768,0,0,0,.293,1.306c.142.257.233.54.354.809a.573.573,0,0,0,1.057.128,2.5,2.5,0,0,0,.495-.994c.116-.527.248-1.052.345-1.582.259-1.429.5-2.861.751-4.292.025-.141.035-.286.053-.444.218.044.256.2.3.346a6.208,6.208,0,0,1,.235,1.538,18.54,18.54,0,0,1-.368,4.217c-.223,1.278-.6,2.518-.936,3.77-.347,1.309-.633,2.633-.935,3.952a12.089,12.089,0,0,1-.867,2.8,5.5,5.5,0,0,1-.514.785c-.147.2-.264.234-.391.17s-.18-.224-.124-.443c.09-.362.193-.721.286-1.081a5.722,5.722,0,0,0,.167-1.929c-.044.1-.092.205-.131.311a27.188,27.188,0,0,1-2.662,5.109,78.672,78.672,0,0,1-5.375,7.3c-.193.235-.393.466-.6.692a4.128,4.128,0,0,0-.9,1.768,1.478,1.478,0,0,0,.258,1.287,2.394,2.394,0,0,0,.706.615,1.122,1.122,0,0,0,.65.157,2.658,2.658,0,0,0,1.912-.912,31.4,31.4,0,0,0,2.858-3.816,24.349,24.349,0,0,0,1.385-2.53c.8-1.674,1.587-3.354,2.407-5.018.342-.7.779-1.343,1.126-2.035.407-.816.765-1.657,1.142-2.489.453-1,.925-2,1.349-3.008a19.924,19.924,0,0,0,1.3-4.637,7.616,7.616,0,0,0,.09-.878c.029-.7.042-1.395.062-2.092,0-.055.011-.109.019-.181a.373.373,0,0,1,.324.28,5.452,5.452,0,0,1,.246.784,10.535,10.535,0,0,1,.149,3.049,14.288,14.288,0,0,1-.953,3.848c-.542,1.431-1.147,2.839-1.7,4.267a27.135,27.135,0,0,1-1.571,3.261c-.458.833-.848,1.7-1.267,2.559-.008.015,0,.036-.006.087.1-.05.2-.091.288-.139a8.4,8.4,0,0,1,2.514-.894.828.828,0,0,0,.668-.507c.651-1.254,1.357-2.48,1.977-3.751a17.958,17.958,0,0,0,1.62-5c.01-.058.024-.114.04-.172.005-.017.023-.029.048-.062a7.146,7.146,0,0,1,.218,2.81,11.7,11.7,0,0,1-1.231,3.82c-.455.913-.883,1.841-1.323,2.762-.024.052-.046.1-.076.171a4.806,4.806,0,0,1,.452.229,1.861,1.861,0,0,1,.359.3.315.315,0,0,1,.043.384.312.312,0,0,1-.325.156c-.126-.011-.251-.05-.378-.056-.214-.01-.43,0-.661,0a3.244,3.244,0,0,0-.424.982,26.324,26.324,0,0,1-1.123,3.317,25.945,25.945,0,0,1-3.081,5.647.572.572,0,0,1-.37.264c-.463.078-.925.168-1.389.245a2.2,2.2,0,0,1-.339,0,33.252,33.252,0,0,0,4.962-10.163c-.108.031-.18.051-.25.073a7.836,7.836,0,0,0-2.632,1.527,3.512,3.512,0,0,0-1.263,1.579,29.069,29.069,0,0,1-3.857,5.694,2.292,2.292,0,0,0-.185.229,3.426,3.426,0,0,1-2.2,1.459,5.87,5.87,0,0,1-2.311.087,3.994,3.994,0,0,1-1.859-.84,2.71,2.71,0,0,1-.846-1.353c-.234-.76-.442-1.528-.713-2.274s-.584-1.457-.909-2.172c-.259-.571-.546-1.131-.851-1.679a4.366,4.366,0,0,0-1.017-1.175c-.373-.317-.711-.678-1.074-1.008-.247-.224-.5-.44-.769-.64-.526-.4-1.063-.776-1.6-1.161a7.046,7.046,0,0,0-1.516-.842,37.937,37.937,0,0,1-4.3-2.184,59.226,59.226,0,0,1-6-3.9,24.213,24.213,0,0,1-3.848-3.462c-.5-.556-1.04-1.071-1.536-1.63a37.64,37.64,0,0,1-2.745-3.534c-.112-.161-.225-.322-.345-.479a9.838,9.838,0,0,1-.978-1.606c-.244-.48-.537-.936-.816-1.4-.173-.286-.345-.573-.543-.841a9.8,9.8,0,0,0-.849-1.052,46.139,46.139,0,0,1-3.406-3.946c-1.474-1.889-2.943-3.784-4.353-5.721a37.289,37.289,0,0,1-3.24-5.229,20.2,20.2,0,0,1-1.4-3.932c-.344-1.313-.543-2.654-.821-3.979-.455-2.171-.921-4.34-1.419-6.5-.2-.849-.5-1.673-.737-2.514a9.925,9.925,0,0,1-.408-2.611,10.086,10.086,0,0,1,.1-1.319,1.059,1.059,0,0,1,.569-.784,4.27,4.27,0,0,1,1.92-.606,4.536,4.536,0,0,1,2.722.7,10.09,10.09,0,0,1,2.612,2.312c.171.217.34.433.509.649.046.059.086.122.129.182Zm-1.2,2.836c-.03.048-.05.109-.092.139a5.233,5.233,0,0,1-.649.4,7.586,7.586,0,0,0-2.613,1.973,2.825,2.825,0,0,0-.7,1.925,1.078,1.078,0,0,0,1.527,1.034,1.475,1.475,0,0,0,.306-.173,7.108,7.108,0,0,1,1.427-.76,5.625,5.625,0,0,1,1.637-.459,2.408,2.408,0,0,1,.554.041.21.21,0,0,1,.192.226.477.477,0,0,1-.157.224c-.039.036-.109.038-.165.058-.166.058-.338.1-.5.175a8.453,8.453,0,0,0-3.444,2.688,2.094,2.094,0,0,0-.384.819,3.947,3.947,0,0,0,.138,1.918.482.482,0,0,0,.583.275,1.385,1.385,0,0,0,.37-.231c.349-.287.682-.593,1.034-.876a7.28,7.28,0,0,1,3.311-1.517.982.982,0,0,1,.349-.019.269.269,0,0,1,.179.16.294.294,0,0,1-.075.231.534.534,0,0,1-.235.112,5.4,5.4,0,0,0-1.323.633,9.447,9.447,0,0,0-1.781,1.535,8.686,8.686,0,0,0-.9,1.048,2.575,2.575,0,0,0-.454,1.957,5.359,5.359,0,0,0,.588,1.627.571.571,0,0,0,.709.251,1.418,1.418,0,0,0,.407-.28c.2-.2.376-.428.56-.646.215-.255.417-.521.644-.766a5.8,5.8,0,0,1,2.536-1.6,1.61,1.61,0,0,1,.345-.068.28.28,0,0,1,.324.191.276.276,0,0,1-.159.316,1.382,1.382,0,0,1-.131.067,4.689,4.689,0,0,0-1.482,1.145,13.314,13.314,0,0,0-1.2,1.6,3.8,3.8,0,0,0-.582,2.476,4.2,4.2,0,0,0,.267.988.641.641,0,0,0,.652.415,1.1,1.1,0,0,0,.951-.5,7.389,7.389,0,0,1,1.114-1.253c.437-.38.881-.755,1.349-1.095a8.046,8.046,0,0,1,1-.564.574.574,0,0,1,.31-.07.369.369,0,0,1,.258.149.377.377,0,0,1-.023.3.89.89,0,0,1-.232.218c-.276.236-.571.452-.824.71a14.9,14.9,0,0,0-1.965,2.532,2.112,2.112,0,0,0-.25.561,2.627,2.627,0,0,0,.532,2.589.9.9,0,0,0,1.386.069,1.964,1.964,0,0,0,.262-.318c.218-.338.435-.678.635-1.025a8.791,8.791,0,0,1,1.892-2.278.564.564,0,0,1,.218-.143.427.427,0,0,1,.274.039.228.228,0,0,1,.083.288.878.878,0,0,1-.072.159c-.238.417-.483.831-.718,1.251a12.29,12.29,0,0,0-1.315,3.142,3.058,3.058,0,0,0,.259,2.255,7.549,7.549,0,0,0,.951,1.376,2.516,2.516,0,0,0,1.242.8,1.135,1.135,0,0,0,.546,0,1.772,1.772,0,0,0,1.062-.74,4.948,4.948,0,0,1,1.072-1.205,1.309,1.309,0,0,1,.25-.152.283.283,0,0,1,.326.065.3.3,0,0,1,.087.323,1.327,1.327,0,0,1-.1.21c-.076.148-.165.291-.227.444-.309.754-.608,1.512-.916,2.266a2.787,2.787,0,0,0-.178,1.357,1.789,1.789,0,0,0,.225.785c.149.243.3.48.446.729a.633.633,0,0,0,.521.334.847.847,0,0,0,.834-.445,6.3,6.3,0,0,1,.9-1.16,4.9,4.9,0,0,1,.472-.4.294.294,0,0,1,.381-.024.3.3,0,0,1,.062.378c-.056.146-.124.289-.187.432-.218.494-.444.984-.65,1.483a4.573,4.573,0,0,0-.333,2.277,1.127,1.127,0,0,0,.149.5c.26.38.55.74.837,1.1a.637.637,0,0,0,.578.229,1.15,1.15,0,0,0,.694-.288c.253-.219.5-.446.755-.657a.78.78,0,0,1,.313-.15.268.268,0,0,1,.341.267.7.7,0,0,1-.037.26,4.037,4.037,0,0,1-.237.6,2.64,2.64,0,0,0-.167,1.891,1.84,1.84,0,0,0,.481.862.752.752,0,0,0,1.039.144,2.259,2.259,0,0,0,1.12-1.485.748.748,0,0,0-.079-.567c-.114-.194-.208-.4-.323-.595a30,30,0,0,1-2.322-4.92,8.293,8.293,0,0,0-.9-1.814c-.2-.3-.375-.622-.566-.931a8.583,8.583,0,0,1-1.328-3.678.41.41,0,0,0-.19-.311,24.505,24.505,0,0,1-3.167-2.728c-.051-.052-.113-.095-.192-.161-.181.263-.365.5-.51.749-.267.468-.513.949-.763,1.426-.043.083-.082.18-.184.156a.3.3,0,0,1-.2-.14,1.1,1.1,0,0,1-.068-.428,3.553,3.553,0,0,1,.373-1.384c.222-.437.467-.863.708-1.29a1.237,1.237,0,0,0,.2-.7,3.1,3.1,0,0,0-.065-.52c-.13-.514-.286-1.021-.41-1.536a5.588,5.588,0,0,0-1.452-2.653,6.6,6.6,0,0,1-1.079-1.607,13.27,13.27,0,0,1-1.061-3.021,12.194,12.194,0,0,0-.9-2.642,5.975,5.975,0,0,1-.433-1.088,24.1,24.1,0,0,0-1.4-3.391,19.141,19.141,0,0,1-.9-2.173c-.266-.841-.577-1.669-.88-2.5a8.254,8.254,0,0,0-.374-.832,10.585,10.585,0,0,0-1.893-2.577,8.51,8.51,0,0,0-2.216-1.736,3.054,3.054,0,0,0-1.6-.3,2.089,2.089,0,0,0-.6.128.826.826,0,0,0-.595.667,2.913,2.913,0,0,0,.017,1.024.936.936,0,0,0,1.065.79,3.911,3.911,0,0,0,.712-.171,3.506,3.506,0,0,1,1.94-.154c.2.05.31.133.313.261s-.12.23-.34.26l-.029,0a3.543,3.543,0,0,0-1.828.67c-.171.131-.355.245-.53.372a1.33,1.33,0,0,0-.545,1.648.791.791,0,0,0,.817.627,3.331,3.331,0,0,0,1.7-.395,7.249,7.249,0,0,1,1.7-.653A1.394,1.394,0,0,1-828.469,15766.019Zm14.184,13.135a.7.7,0,0,0-.024.139c.028.569.059,1.137.087,1.706a.762.762,0,0,0,.632.72,2.007,2.007,0,0,0,.637.029c.341-.016.682-.079,1.023-.074a1.62,1.62,0,0,1,.62.158c.205.092.2.295,0,.407a1.532,1.532,0,0,1-.331.119c-.123.033-.253.044-.373.083a2.111,2.111,0,0,0-1.531,1.449,2.687,2.687,0,0,0,0,1.482.6.6,0,0,0,.634.5,1.259,1.259,0,0,0,.7-.174,4.983,4.983,0,0,1,1.953-.7,1.231,1.231,0,0,1,.435.03.341.341,0,0,1,.2.179c.044.107-.06.177-.148.222a1.928,1.928,0,0,1-.3.126,3.979,3.979,0,0,0-1.354.756,9.477,9.477,0,0,0-1.186,1.308,3.485,3.485,0,0,0-.665,1.584,3.353,3.353,0,0,0-.024.763.418.418,0,0,0,.533.4,1.535,1.535,0,0,0,.462-.184c.29-.182.567-.387.844-.588.39-.283.766-.584,1.164-.853a5.449,5.449,0,0,1,1.415-.714.763.763,0,0,1,.286-.045.212.212,0,0,1,.141.12c.016.038-.022.11-.054.152a.368.368,0,0,1-.123.077,7.212,7.212,0,0,0-1.957,1.543c-.448.509-.867,1.042-1.316,1.549a3.035,3.035,0,0,0-.689,1.987.877.877,0,0,0,.917.9,1.615,1.615,0,0,0,1.061-.45,13.1,13.1,0,0,1,3.039-2.058c.155-.077.251-.064.307.04.068.127-.011.205-.1.271-.159.114-.323.223-.483.337a9.585,9.585,0,0,0-1.986,2.081,4.878,4.878,0,0,0-.722,1.241,1.659,1.659,0,0,0,.164,1.491,2,2,0,0,0,.436.47.574.574,0,0,0,.5.109,1.652,1.652,0,0,0,.83-.417c.239-.219.478-.437.712-.663a17.138,17.138,0,0,1,2.607-2.015,1.252,1.252,0,0,1,.129-.069c.094-.044.193-.071.264.031a.213.213,0,0,1-.038.293c-.179.181-.35.372-.538.544a10.492,10.492,0,0,0-1.977,2.44,3.624,3.624,0,0,0-.439,1.149,1.556,1.556,0,0,0,.04.814.5.5,0,0,0,.257.3,1.048,1.048,0,0,0,1.164-.091,2.068,2.068,0,0,0,.386-.4,13.622,13.622,0,0,1,3.195-2.854.863.863,0,0,1,.32-.14.282.282,0,0,1,.222.093.251.251,0,0,1,.006.214.722.722,0,0,1-.156.211c-.2.216-.4.435-.61.64a16.712,16.712,0,0,0-2.545,3.38,1.772,1.772,0,0,0-.245,1.218.762.762,0,0,0,.655.66,1.515,1.515,0,0,0,1.406-.509c.355-.407.706-.817,1.045-1.239a43.366,43.366,0,0,1,2.969-3.351c.135-.136.264-.277.408-.429l-.234-.12a9,9,0,0,1-2.27-1.567c-.506-.493-1.009-.989-1.516-1.483-.464-.453-.927-.906-1.4-1.354a4.2,4.2,0,0,1-1.29-2.644,21.038,21.038,0,0,0-.481-2.544,20.614,20.614,0,0,0-.979-3.207,2.336,2.336,0,0,0-.334-.512c-.279-.354-.6-.677-.849-1.052a13.681,13.681,0,0,0-1.671-2.091,4.742,4.742,0,0,0-.815-.715,12.747,12.747,0,0,0-2.289-1.143A1.381,1.381,0,0,0-814.285,15779.153Zm31.038,19.271a1.107,1.107,0,0,0-.026.15,8.669,8.669,0,0,1-.427,2.664,28.384,28.384,0,0,1-1.7,4.419c-.62,1.3-1.246,2.6-1.915,3.879-.451.859-.955,1.694-1.484,2.508-.694,1.07-1.43,2.113-2.16,3.159-.377.539-.782,1.058-1.172,1.587a3.483,3.483,0,0,0-.468,1.01,1.1,1.1,0,0,0,.277,1.142,1.155,1.155,0,0,0,.683.432,1.594,1.594,0,0,0,1.054-.182,6.464,6.464,0,0,0,1.726-1.408c.968-1.176,1.871-2.4,2.731-3.657a40.988,40.988,0,0,0,3.164-5.543,29.153,29.153,0,0,0,1.771-4.58,14.637,14.637,0,0,0,.548-2.828.615.615,0,0,0-.12-.493,12.041,12.041,0,0,0-1.626-1.618C-782.655,15798.851-782.936,15798.656-783.247,15798.425Zm3.779,4.071c-.044.043-.066.054-.069.069-.015.066-.026.135-.036.2a14.985,14.985,0,0,1-.508,2.327,33.74,33.74,0,0,1-2.027,4.984,44.185,44.185,0,0,1-4.772,7.52c-.709.916-1.432,1.821-2.152,2.729a3.207,3.207,0,0,0-.662,1.49,2.363,2.363,0,0,0,0,1.081.818.818,0,0,0,.77.62,1.407,1.407,0,0,0,.721-.1c.312-.142.626-.284.924-.453a3,3,0,0,0,.9-.749,80.814,80.814,0,0,0,4.776-6.537,30.015,30.015,0,0,0,2.413-4.377,26.02,26.02,0,0,0,1.337-3.924,1.326,1.326,0,0,0,.021-.55,12.9,12.9,0,0,0-.973-3.018C-779.011,15803.37-779.242,15802.941-779.468,15802.5Zm-7.817-5.675c0,.109,0,.207,0,.3a12.777,12.777,0,0,1-.058,1.439,19.493,19.493,0,0,1-1.721,5.33c-.376.809-.811,1.593-1.26,2.363-.577.992-1.17,1.978-1.8,2.935-.85,1.286-1.8,2.5-2.757,3.711a4.663,4.663,0,0,0-.867,1.627,2.775,2.775,0,0,0-.034,1.425.619.619,0,0,0,.617.528,2.836,2.836,0,0,0,.5-.014,2.842,2.842,0,0,0,1.862-1.187q.717-.9,1.381-1.835a46.863,46.863,0,0,0,3.871-6.423c.679-1.384,1.37-2.762,1.933-4.2a20.476,20.476,0,0,0,1.121-3.5c.1-.488.151-.985.226-1.488A9.473,9.473,0,0,0-787.285,15796.821Zm-13.5-15.266c.064-.373.052-8.561-.01-8.794a41.507,41.507,0,0,1-6.949-.521,48.66,48.66,0,0,0-.278,8.656l.739.121c.005-.082.01-.13.012-.178.016-.3.028-.606.049-.91a3.45,3.45,0,0,1,.056-.378c.021-.114.031-.255.191-.249.139,0,.155.128.171.237s.033.194.04.291c.027.333.047.666.074,1,.008.094.029.187.045.285l1.177.141c0-.135,0-.231,0-.328.005-.441.005-.884.02-1.325a2.949,2.949,0,0,1,.078-.552.22.22,0,0,1,.152-.141.221.221,0,0,1,.158.137,2.024,2.024,0,0,1,.069.463c.014.51.016,1.021.025,1.531,0,.085.015.17.024.27l1.138.106c0-.128-.006-.233,0-.338.035-.568.069-1.135.11-1.7.01-.132.007-.291.178-.334.1-.025.164.1.177.355.027.577.048,1.156.074,1.734.005.1.018.207.03.336Zm6.914-9.479c-.542.088-1.042.175-1.545.248s-.991.139-1.489.192-1.016.1-1.525.135-1.008.066-1.507.1v8.775a37.338,37.338,0,0,0,5.947-.582A68.663,68.663,0,0,0-793.871,15772.076Zm.7,8.713a40.746,40.746,0,0,0,4.681-1.2c.054-.307.1-.578.151-.847.02-.1.077-.211.189-.185.076.019.14.116.191.191a.377.377,0,0,1,.034.171c.013.146.022.29.036.477l1.064-.377a35.826,35.826,0,0,0-.477-8.685,45,45,0,0,1-5.774,1.582A71.96,71.96,0,0,1-793.172,15780.789Zm1.035,19.185c-.049.137-.086.236-.121.337a24.77,24.77,0,0,1-2.753,5.582,35.031,35.031,0,0,1-3.464,4.572c-.326.354-.671.689-1,1.037a1.842,1.842,0,0,0-.619,1.35,1.12,1.12,0,0,0,1.033,1.184,2.093,2.093,0,0,0,1.55-.417,6.9,6.9,0,0,0,1.334-1.364c1.063-1.3,2.091-2.629,3.019-4.028a47.807,47.807,0,0,0,2.53-4.248,23.61,23.61,0,0,0,1.951-4.975,8.336,8.336,0,0,0,.282-2.064c0-.095-.011-.188-.016-.285a6.259,6.259,0,0,0-1.327-.077c-.233.753-.454,1.484-.686,2.214-.123.383-.253.764-.4,1.137-.095.24-.154.255-.412.21C-791.528,15800.086-791.816,15800.033-792.137,15799.974Zm-14.19-36.35a79.279,79.279,0,0,0-1.324,7.82,37.218,37.218,0,0,0,6.878.5c.059-.478.039-7.639-.025-7.879A41.288,41.288,0,0,1-806.327,15763.624Zm-2.112,7.65c.31-2.6.758-5.187,1.316-7.773a42.646,42.646,0,0,1-5.364-1.269,42.07,42.07,0,0,0-2.226,7.326A29.107,29.107,0,0,0-808.439,15771.274Zm-7.09,7.131a2.965,2.965,0,0,1,.424-.262,3.033,3.033,0,0,1,2.459-.01c.5.228.987.481,1.473.737a5.219,5.219,0,0,1,1.753,1.457,2.907,2.907,0,0,0,.3.32.214.214,0,0,0,.277.043,51.58,51.58,0,0,1,.3-8.58,36.336,36.336,0,0,1-6.338-1.729l-.1.595c.1.046.174.086.255.117a34.365,34.365,0,0,0,4.313,1.377c.267.065.532.138.795.212.087.025.183.082.138.186a.227.227,0,0,1-.191.088,8.179,8.179,0,0,1-.816-.107,26.443,26.443,0,0,1-4.264-1.23c-.1-.035-.2-.065-.321-.107A32.353,32.353,0,0,0-815.529,15778.405Zm15.594-14.347v7.883a40.061,40.061,0,0,0,6.019-.68,60.413,60.413,0,0,0-.971-7.642A35.874,35.874,0,0,1-799.935,15764.059Zm4.692,35.106c-.23.455-.425.885-.657,1.293a37.756,37.756,0,0,1-2.623,3.912,31.24,31.24,0,0,1-3.519,3.882,4.349,4.349,0,0,0-.485.588.906.906,0,0,0-.066,1.121.21.21,0,0,1-.031.314.211.211,0,0,1-.31-.062,5.5,5.5,0,0,1-.4-.543c-.358-.586-.7-1.182-1.053-1.771a1.88,1.88,0,0,0-.133-.175c-.187.266-.349.511-.525.745s-.37.46-.55.692a1.261,1.261,0,0,0,.159,1.708,3.419,3.419,0,0,0,1.158.686,3.212,3.212,0,0,0,1.57.113,3.668,3.668,0,0,0,1.892-.824,20.618,20.618,0,0,0,2.074-2.173c.841-1,1.612-2.055,2.359-3.127a28.7,28.7,0,0,0,2.71-4.819c.142-.321.261-.652.4-1.006Zm1.158-35.633a64.755,64.755,0,0,1,.967,7.575,43.482,43.482,0,0,0,5.667-1.556,9.016,9.016,0,0,0-.246-1.121c-.456.122-.877.251-1.307.347-.352.078-.713.122-1.072.165a.252.252,0,0,1-.216-.094c-.047-.126.084-.151.17-.191a1.1,1.1,0,0,1,.138-.049l1.4-.438.771-.242-.167-.606c-.247.056-.473.111-.7.157a3.628,3.628,0,0,1-.436.061c-.1.008-.222-.006-.225-.128,0-.063.077-.15.143-.188a1.809,1.809,0,0,1,.329-.125c.247-.085.495-.168.757-.257a32.97,32.97,0,0,0-1.653-4.362Zm12.679,5.454c-.159.078-.28.142-.4.2-.671.3-1.333.628-2.018.894a14.073,14.073,0,0,1-1.469.416c-.122.033-.257.053-.323-.107.125-.141.123-.146.469-.273a24.4,24.4,0,0,0,2.723-1.189c.3-.156.6-.317.916-.481l-.139-.582a40.728,40.728,0,0,1-4.88,2.2,37.064,37.064,0,0,1,.524,8.65l.725-.306c.031-.64.06-1.256.093-1.873a1.107,1.107,0,0,1,.048-.288.178.178,0,0,1,.12-.107.173.173,0,0,1,.136.084.584.584,0,0,1,.073.25c.013.49.016.98.022,1.471,0,.074-.008.15-.015.273l1.6-.734c0-.483,0-.926,0-1.366a1.377,1.377,0,0,1-.007-.293.3.3,0,0,1,.14-.19c.035-.016.149.059.175.115a1.535,1.535,0,0,1,.132.418c.051.329.084.66.128,1.027.242-.125.471-.233.688-.36a.258.258,0,0,0,.1-.191,16.926,16.926,0,0,0-.171-2.906,3.764,3.764,0,0,1-.035-.416c.164-.059.228.014.268.109a3.042,3.042,0,0,1,.141.388,11.211,11.211,0,0,1,.306,2.241c.008.133.02.265.034.434l.553-.312a29.775,29.775,0,0,0-.456-6.1c-.6.23-1.164.461-1.737.662a6.582,6.582,0,0,1-.884.216.275.275,0,0,1-.346-.159c.961-.422,1.934-.791,2.872-1.259Zm-12.25,19.924a1.767,1.767,0,0,0,.052-.184q.473-2.471.945-4.943c.065-.337.146-.67.227-1,.026-.109.088-.22.216-.2s.154.138.151.252c0,.176,0,.354-.022.529-.179,1.551-.429,3.091-.729,4.623-.048.245-.1.491-.148.765.1-.013.167-.023.233-.028.248-.019.359-.146.413-.4.171-.8.372-1.586.562-2.377a3.39,3.39,0,0,1,.116-.426c.023-.06.1-.1.153-.146.04.061.11.12.115.184a1.993,1.993,0,0,1-.013.47c-.119.716-.249,1.43-.374,2.145-.015.09-.02.182-.034.313l.65-.185c.223-.929.445-1.844.662-2.759.166-.7.323-1.4.493-2.092.026-.1.052-.267.207-.241s.125.185.114.294c-.038.38-.067.764-.139,1.139-.207,1.079-.434,2.154-.652,3.23-.014.07-.013.142-.022.241.225-.071.409-.14.6-.187a.289.289,0,0,0,.232-.264c.092-.452.206-.9.29-1.354.28-1.5.551-3.011.825-4.517a3.512,3.512,0,0,1,.09-.461c.022-.069.109-.118.166-.176.053.063.134.119.153.189a1.212,1.212,0,0,1,.029.38c-.028.372-.056.744-.105,1.114-.2,1.537-.453,3.067-.791,4.581a1.753,1.753,0,0,0-.021.21c.24-.087.444-.177.657-.235a.39.39,0,0,0,.3-.345,54.742,54.742,0,0,0,1.1-6.408c.026-.235.037-.474.058-.741a44.219,44.219,0,0,1-6.337,1.721c-.215,2.487-.527,4.933-.952,7.4Zm-.4-7.113c-1.019.124-1.98.262-2.946.354s-1.95.138-2.923.2c-.061.43-.039,7.034.028,7.252l.263-.014c.012-.091.027-.166.033-.242.115-1.369.226-2.739.344-4.108.034-.4.081-.8.132-1.2.011-.094-.02-.228.133-.255.1.158.112.158.1.437-.039,1.492-.084,2.983-.124,4.476-.007.281,0,.563,0,.846h.353c.016-.154.027-.29.044-.425.053-.419.107-.837.167-1.254a.679.679,0,0,1,.085-.248.18.18,0,0,1,.144-.072.179.179,0,0,1,.122.105.854.854,0,0,1,.024.263c-.012.451-.028.9-.041,1.354,0,.074,0,.148,0,.254l.66-.063c.011-.1.017-.155.025-.213.081-.622.16-1.245.243-1.868a1.654,1.654,0,0,1,.064-.287c.026-.081.05-.183.167-.174s.118.113.123.2a1.833,1.833,0,0,1-.006.234c-.041.588-.085,1.176-.126,1.763-.006.094,0,.188,0,.3l.52-.055c.02-.067.037-.113.048-.16.128-.594.256-1.189.385-1.783a.955.955,0,0,1,.077-.251.168.168,0,0,1,.141-.07c.044.008.09.066.112.113a.31.31,0,0,1,0,.146c-.025.273-.053.548-.077.82-.032.358-.062.716-.1,1.114l.825-.127C-794.589,15786.7-794.273,15784.264-794.059,15781.8Zm5.04-19.605a34.82,34.82,0,0,1,1.668,4.382c.15-.059.277-.1.4-.155.245-.1.486-.211.735-.3.193-.07.351-.021.39.092s-.032.23-.194.329a1.394,1.394,0,0,1-.184.092c-.2.084-.4.166-.6.249l-.413.174.169.6c.278-.118.53-.225.781-.333.126-.056.248-.119.376-.169.19-.075.335-.044.393.07s-.013.252-.187.357a3.884,3.884,0,0,1-.394.2c-.275.125-.553.244-.846.373l.246,1.121a37.448,37.448,0,0,0,4.855-2.144,33.118,33.118,0,0,0-1.377-4.185c-.108.051-.2.091-.282.133a16.62,16.62,0,0,1-2.494,1.044,5.286,5.286,0,0,1-.718.148c-.052.009-.114-.05-.172-.076.034-.055.056-.131.1-.156.173-.091.356-.164.534-.244q1.329-.6,2.655-1.2a1.448,1.448,0,0,0,.187-.118l-.228-.511c-.1.053-.17.091-.241.123-.556.245-1.112.492-1.67.732-.121.052-.256.105-.37-.017.009-.173.14-.221.248-.278.439-.24.882-.473,1.323-.708.171-.092.34-.187.525-.289l-.3-.611c-.143.077-.263.141-.382.206a16.742,16.742,0,0,1-2.568,1.171,1.462,1.462,0,0,1-.309.089c-.056.009-.118-.038-.178-.06.029-.065.04-.154.089-.189a2.945,2.945,0,0,1,.386-.213q1.168-.592,2.337-1.184c.138-.07.271-.152.416-.234a1.389,1.389,0,0,0-.067-.149,1.74,1.74,0,0,0-.1-.151A30.483,30.483,0,0,1-789.019,15762.191Zm-.574-8.73a10.452,10.452,0,0,1-3.1,2.127,56.079,56.079,0,0,1,3.317,5.851,22.423,22.423,0,0,0,4.533-1.978A21.508,21.508,0,0,0-789.593,15753.461Zm-17.342,9.219a58.319,58.319,0,0,1,1.727-6.054c-.644-.179-1.263-.326-1.865-.526s-1.205-.458-1.831-.7a35.5,35.5,0,0,0-3.271,6.072A30.88,30.88,0,0,0-806.935,15762.68Zm.792.144a28.758,28.758,0,0,0,5.382.4v-6.205a23.139,23.139,0,0,1-3.66-.276A62.133,62.133,0,0,0-806.143,15762.823Zm-13.457,14.008c.05-.242.083-.443.133-.64.045-.174.163-.285.244-.246.124.059.091.183.092.286s-.016.215-.021.322a3.049,3.049,0,0,0-.009.382.243.243,0,0,0,.083.17c.164.1.338.179.544.284.024-.261.035-.475.069-.686.01-.058.092-.1.14-.155a.693.693,0,0,1,.125.146.513.513,0,0,1,.025.174c.02.242.04.483.059.727a1.447,1.447,0,0,0,.522.222c0-.225-.014-.432,0-.637.047-.575.1-1.15.163-1.727.012-.109,0-.274.167-.259s.12.176.122.286c.006.441-.005.884.014,1.324s.064.879.1,1.326l.639.271c.038-1.229.038-2.429.122-3.62s.253-2.376.388-3.6a38.171,38.171,0,0,1-4.377-2.132l-.192.826c.118.065.2.113.289.158q1.521.773,3.042,1.549a2.832,2.832,0,0,1,.407.236.277.277,0,0,1,.109.211c-.021.117-.141.128-.239.1a3.269,3.269,0,0,1-.5-.167q-.951-.434-1.894-.882c-.432-.205-.86-.419-1.331-.648l-.132.712c.088.054.151.1.22.134l1.509.732c.105.052.214.1.319.151.089.046.194.109.144.218-.025.056-.142.092-.219.095a.785.785,0,0,1-.317-.053c-.465-.181-.926-.371-1.388-.562-.114-.048-.222-.11-.365-.182a27,27,0,0,0-.412,4.23l.412.231c.026-.152.048-.275.067-.4.039-.252.068-.506.119-.756.011-.06.09-.105.138-.157a.637.637,0,0,1,.13.168,1.083,1.083,0,0,1,.026.263c.029.4.058.8.088,1.218Zm4.124-7.548a43.968,43.968,0,0,1,2.21-7.265l-3.583-1.423a24.569,24.569,0,0,0-1.424,2.742c.075.043.123.074.175.1.494.262.991.518,1.481.787a4.136,4.136,0,0,1,.456.32c.074.056.131.13.07.228s-.146.08-.235.043c-.162-.069-.329-.128-.486-.206-.55-.275-1.1-.558-1.661-.846l-.291.7c.1.067.172.128.255.176q.6.349,1.2.691c.358.2.717.405,1.075.61a.5.5,0,0,1,.161.126.219.219,0,0,1,.046.177.219.219,0,0,1-.167.074.552.552,0,0,1-.2-.06,14.209,14.209,0,0,1-2.089-1.017c-.151-.087-.3-.179-.483-.29l-.3.8.645.383a23.8,23.8,0,0,0,2.654,1.336c.12.052.28.091.243.28-.023.118-.158.165-.381.11a5.057,5.057,0,0,1-.615-.2,16.9,16.9,0,0,1-2.439-1.239c-.088-.051-.178-.1-.287-.158l-.291.9A37.639,37.639,0,0,0-815.476,15769.283Zm15.539-6.012a35.564,35.564,0,0,0,4.889-.439,46.79,46.79,0,0,0-1.687-6.045l-3.2.265Zm1.538,34.745c-.48.6-.946,1.182-1.41,1.764q-1.587,1.992-3.173,3.986c-.256.322-.509.647-.765.971a1.576,1.576,0,0,0,.025,1.77.648.648,0,0,0,.461.279,1.384,1.384,0,0,0,1.136-.379c.412-.393.806-.807,1.182-1.233a48.478,48.478,0,0,0,4.409-5.888c.09-.14.17-.285.264-.444Zm2.462-41.38a50.883,50.883,0,0,1,1.686,6.066,33.93,33.93,0,0,0,4.125-1,53.409,53.409,0,0,0-3.262-5.789Zm-13.609-1.6-1.474-1.048a22.245,22.245,0,0,0-5.389,5.891,29.828,29.828,0,0,0,3.465,1.359A33.389,33.389,0,0,1-809.546,15755.036Zm-16.147,7.366c.075-.014.1-.011.111-.021.094-.071.187-.144.279-.218a8.318,8.318,0,0,1,3.5-1.8.423.423,0,0,0,.281-.229c.339-.54.677-1.082,1.037-1.608a.652.652,0,0,0,.1-.552,5.148,5.148,0,0,0-.429-1.155,1.909,1.909,0,0,0-.873-.883,1.664,1.664,0,0,0-1.786.05,2.7,2.7,0,0,0-.44.343,4.861,4.861,0,0,0-1.194,1.937c-.022.068-.03.142-.055.262.132-.095.22-.155.3-.219a5.055,5.055,0,0,1,1.649-.828,2.177,2.177,0,0,1,.985-.113c.259.047.4.157.4.316s-.112.27-.352.346a4.582,4.582,0,0,0-1.28.651,11.8,11.8,0,0,0-2.018,1.973.452.452,0,0,0-.1.236C-825.614,15761.383-825.651,15761.881-825.693,15762.4Zm39.667,17.189c-.16,1.24-.291,2.46-.481,3.671s-.441,2.419-.67,3.653c.121-.047.21-.091.3-.116a.481.481,0,0,0,.37-.432c.167-.827.378-1.646.531-2.476.228-1.234.42-2.476.631-3.714a1.467,1.467,0,0,1,.079-.234c.213.038.235.186.245.315a3.013,3.013,0,0,1-.007.529,40.69,40.69,0,0,1-.782,5.268c-.017.08-.019.163-.031.271.08-.032.123-.053.169-.067a.518.518,0,0,0,.371-.437c.171-.8.373-1.585.548-2.38.127-.575.226-1.156.348-1.732.015-.073.085-.184.139-.189.124-.014.149.1.148.206a3.712,3.712,0,0,1-.025.559c-.176,1.075-.362,2.147-.543,3.222-.014.082-.022.165-.033.255a.521.521,0,0,0,.446-.457,35.575,35.575,0,0,0,1.022-6.09c.02-.269,0-.541,0-.822Zm-18.9-23.756a19.37,19.37,0,0,1,2.4-4.733c-.085-.031-.146-.056-.209-.076-.3-.1-.6-.188-.886-.309a.444.444,0,0,0-.461.038,16.583,16.583,0,0,0-4.192,3.79c-.039.05-.069.107-.114.175A13.768,13.768,0,0,0-804.921,15755.836Zm-3.428,49.915a4.064,4.064,0,0,0-.865,1.172.784.784,0,0,0-.038.6,1.973,1.973,0,0,0,.9,1.126.861.861,0,0,0,.68.1,3.218,3.218,0,0,0,1.447-.813,14.4,14.4,0,0,0,1.008-1.188.227.227,0,0,0,.02-.292,19.439,19.439,0,0,0-1.867-3.062,29.752,29.752,0,0,0-2.188-2.428,2.251,2.251,0,0,0-.186-.146l-.045.04c.07.157.133.319.211.475a29.287,29.287,0,0,1,1.824,4.274c.081.252.168.5.247.755a.3.3,0,0,1-.122.361.287.287,0,0,1-.374-.067,2.894,2.894,0,0,1-.266-.352C-808.09,15806.131-808.21,15805.953-808.349,15805.751Zm-9.209-45.537-1.538-.867c-.049.065-.086.11-.119.158a22.762,22.762,0,0,0-2.875,5.711.437.437,0,0,0,.124.519,4.921,4.921,0,0,0,.957.679c.18.109.363.215.566.335A32.414,32.414,0,0,1-817.558,15760.214Zm14.339,22.056c.113,2.443.227,4.859.378,7.283h.707c0-.12,0-.217,0-.313-.019-1.69-.042-3.379-.052-5.068,0-.372.042-.745.068-1.117.007-.092.039-.182.147-.192.125-.014.165.083.191.182a.789.789,0,0,1,.028.144c.024.295.056.588.065.882q.084,2.637.16,5.271c0,.085.02.169.03.247a1.5,1.5,0,0,0,.737-.022c.055-.656.028-6.982-.035-7.222Zm12.975-29.312c-.112-.085-.2-.158-.3-.226a23,23,0,0,0-2.3-1.427,6.188,6.188,0,0,0-1.279-.52c-.339-.1-.678-.2-1.022-.28-.458-.108-.919-.205-1.38-.3-.116-.024-.249-.071-.352.084a30.655,30.655,0,0,1,3.729,4.608A8.8,8.8,0,0,0-790.244,15752.958Zm-13.91,3.01a21.448,21.448,0,0,0,3.4.264l.1-4.907-1.252-.106A21.412,21.412,0,0,0-804.154,15755.968Zm-.865,32.038.046-.006c-.011-.132-.021-.264-.032-.4-.1-1.262-.211-2.523-.312-3.785a1.474,1.474,0,0,1,.027-.38c.007-.041.075-.089.122-.1.031-.007.09.039.111.075a.6.6,0,0,1,.063.2c.033.2.062.407.089.611q.318,2.335.634,4.668c.025.182.055.362.084.547l.693.063-.32-7.28c-.358-.031-.7-.066-1.04-.085-.062,0-.133.057-.191.1-.139.1-.214.1-.327-.026-.049-.054-.1-.136-.16-.146-.336-.053-.675-.088-1.036-.131,0,.088-.005.146,0,.2.057.527.108,1.055.179,1.58a4.747,4.747,0,0,0,.187.919c.257.741.556,1.467.822,2.2C-805.241,15787.218-805.138,15787.615-805.019,15788.006Zm-7.012-35.121a22.8,22.8,0,0,0-6.616,5.842,13.191,13.191,0,0,0,1.509.811,21.945,21.945,0,0,1,5.611-6.062Zm15.009,3.092c-.609-1.667-1.307-3.259-2-4.864l-1.023.166.1,4.94A19.565,19.565,0,0,0-797.022,15755.977Zm17.076,19.721c.217-.136.37-.24.532-.327a.349.349,0,0,0,.189-.333,28.02,28.02,0,0,0-.14-4.615.565.565,0,0,1,0-.231.272.272,0,0,1,.143-.159c.043-.016.13.039.168.085a.671.671,0,0,1,.118.233c.051.18.1.36.13.543a18.371,18.371,0,0,1,.234,3.49c0,.123,0,.247,0,.4a.524.524,0,0,0,.415-.5,24.105,24.105,0,0,0-.183-5.4,2.328,2.328,0,0,0-.061-.239,5.454,5.454,0,0,0-2.067,1.066A33.847,33.847,0,0,1-779.946,15775.7Zm-18.3-24.815,2.063,4.939a8.6,8.6,0,0,0,2.3-.665,35.266,35.266,0,0,0-3.6-4.577Zm17.182,15.854c.439-.253.874-.5,1.3-.754a4.609,4.609,0,0,0,.4-.3.391.391,0,0,0,.124-.511,24.885,24.885,0,0,0-1.348-3.16c-.04-.076-.089-.147-.129-.213a3.547,3.547,0,0,0-1.729.779Zm-4.68,24.61c-.888.589-1.729,1.145-2.565,1.706a.306.306,0,0,0-.107.19c-.034.2-.05.408-.072.613a1.332,1.332,0,0,0,.98,1.449.834.834,0,0,0,.73-.1,1.4,1.4,0,0,0,.661-.964c.1-.677.2-1.356.295-2.035C-785.785,15791.927-785.771,15791.647-785.744,15791.346Zm-36.545-29.859a1.529,1.529,0,0,0-.2.087c-.23.149-.461.3-.685.459-.881.632-1.619,1.429-2.435,2.136a.349.349,0,0,0-.123.284c0,.471-.012.941-.017,1.414a1.171,1.171,0,0,0,.03.165c.115-.075.205-.13.291-.19a7.451,7.451,0,0,1,1.557-.887.458.458,0,0,0,.3-.324,22.814,22.814,0,0,1,1.165-2.861C-822.367,15761.694-822.34,15761.614-822.289,15761.486Zm39.248-3.2a21,21,0,0,0-5.367-4.8,24.024,24.024,0,0,1,4.271,5.646A2.369,2.369,0,0,0-783.041,15758.284Zm-21.381-7.913-.031-.07a2.03,2.03,0,0,0-.23.06,26,26,0,0,0-5.655,3.117,8.4,8.4,0,0,0,1.3.9,18.123,18.123,0,0,1,2.136-2.231A16.185,16.185,0,0,1-804.422,15750.371Zm20.9,34.764c.376-.116.652-.3.689-.713a2.728,2.728,0,0,1,.089-.372,33.372,33.372,0,0,0,.862-5.908c.009-.134,0-.269,0-.443-.2.1-.373.191-.551.267a.3.3,0,0,0-.191.318c-.022.717-.032,1.435-.1,2.147a34.017,34.017,0,0,1-.764,4.5C-783.5,15784.991-783.51,15785.058-783.522,15785.135Zm-34.564-6.627c0,.1-.006.2,0,.293.078,1.068.131,2.139.246,3.2.108,1,.278,2,.428,3a.4.4,0,0,0,.123.25c.189.13.4.23.647.367-.07-.4-.132-.749-.189-1.095-.29-1.765-.5-3.539-.664-5.318-.048-.525-.05-.525-.523-.712C-818.025,15778.493-818.036,15778.5-818.086,15778.508Zm2.947,7.883c-.013-.084-.017-.13-.027-.174-.094-.421-.192-.842-.284-1.263a38.438,38.438,0,0,1-.683-4.031c-.052-.478-.093-.957-.141-1.435-.009-.095.005-.2-.115-.248-.162-.065-.321-.139-.529-.229.015.189.02.333.039.476.17,1.322.33,2.646.518,3.968.112.786.27,1.564.406,2.348.019.109.037.211.153.267C-815.591,15786.167-815.383,15786.272-815.139,15786.391Zm-7.628-14.959a2.519,2.519,0,0,1,.16.834c.01.813.022,1.627.049,2.44a.624.624,0,0,0,.548.65c.057-.684.1-1.367.176-2.048s.183-1.354.278-2.04l-1.591-.882a19.767,19.767,0,0,0-.035,3.063c.04-.331.078-.663.092-1A2.122,2.122,0,0,1-822.767,15771.432Zm30.38,25.167c-.059.26-.1.471-.158.677s-.128.41-.2.612a1.763,1.763,0,0,0-.1.751.636.636,0,0,0,1.01.5,1.546,1.546,0,0,0,.641-.851c.15-.465.271-.939.4-1.411a2.194,2.194,0,0,0,.04-.273Zm-3.615-6.486c-.2,1.255-.4,2.475-.587,3.7a1.17,1.17,0,0,0,.034.407.262.262,0,0,0,.124.176.193.193,0,0,0,.247-.106,2.058,2.058,0,0,0,.159-.408c.262-1.177.517-2.356.773-3.535.022-.1.034-.2.056-.336Zm-24.107-21.614a25.409,25.409,0,0,0,4.375,2.127l.08-.5-4.326-2.125Zm28.368,24.45a.82.82,0,0,0,.736-.617,1.962,1.962,0,0,1,.075-.192,30.565,30.565,0,0,0,.954-3.151c.014-.054.017-.109.031-.2-.219.065-.4.134-.588.174a.313.313,0,0,0-.266.266c-.271,1.034-.556,2.064-.829,3.1C-791.68,15792.517-791.7,15792.721-791.741,15792.948Zm3.372-4.646c-.042-.014-.062-.027-.077-.023a1.973,1.973,0,0,1-.25.083c-.436.063-.614.32-.71.746-.179.791-.43,1.565-.649,2.348a1.054,1.054,0,0,0-.021.71.85.85,0,0,0,.568-.488,14.988,14.988,0,0,0,.977-2.732C-788.478,15788.729-788.423,15788.515-788.369,15788.3Zm-12.449,6.259a33.332,33.332,0,0,0,.025-4.141h-.675c0,.076-.013.142-.011.207.011.314.017.628.038.94.054.82.115,1.641.175,2.462C-801.247,15794.3-801.166,15794.53-800.818,15794.561Zm5.372,2.2c-.037.072-.064.123-.09.176a.832.832,0,0,0,.479,1.215.853.853,0,0,0,1.079-.252,9.282,9.282,0,0,0,.578-1.258Zm16.119-20.548c-.195.116-.324.2-.462.273a.355.355,0,0,0-.2.354,30.976,30.976,0,0,1-.85,6.021,1.4,1.4,0,0,0-.022.174l.063.018a6.253,6.253,0,0,0,.331-.774,37.194,37.194,0,0,0,1-4.923C-779.412,15777-779.377,15776.639-779.327,15776.216Zm-18.932-26.226a18.991,18.991,0,0,0-4.954.021A6.524,6.524,0,0,0-798.259,15749.99Zm-21.973,27.326c-.009.089-.017.127-.017.165a29.516,29.516,0,0,0,.249,3.55,1.882,1.882,0,0,0,.649,1.088,25.032,25.032,0,0,1-.312-4.485Zm1.073.593c.018.329.019.593.047.854.146,1.345.3,2.688.446,4.033a2.185,2.185,0,0,0,.4.918,39.213,39.213,0,0,1-.317-5.508Zm37.052,6.468c.083-.1.144-.148.159-.2a33.371,33.371,0,0,0,1.16-7.068c-.1.048-.152.074-.2.094a.447.447,0,0,0-.3.493c0,.6-.024,1.2-.071,1.794a31.2,31.2,0,0,1-.715,4.649C-782.095,15784.19-782.094,15784.248-782.107,15784.377Zm-15.917,10.267c.078-.737.16-1.457.227-2.178s.185-1.446.228-2.192l-.6.063-.215,4.365Zm-4.778-4.284c.077.927.151,1.806.224,2.685a.959.959,0,0,0,.62.774l-.137-3.426Zm8.709,3.442a.384.384,0,0,0,.457-.312c.027-.105.069-.205.1-.31.219-.823.439-1.646.652-2.473.1-.385.183-.774.282-1.2l-.527.121a.642.642,0,0,0-.038.082q-.447,1.9-.893,3.807A2.164,2.164,0,0,0-794.093,15793.8Zm1.172-.371a.42.42,0,0,0,.4-.29c.059-.155.129-.308.174-.468q.449-1.617.888-3.236c.017-.062.023-.127.041-.227l-.545.141Zm-1.419-3.567c-.1.494-.188.974-.29,1.452-.14.66-.293,1.318-.433,1.979a2.072,2.072,0,0,0-.067.8.185.185,0,0,0,.242-.133,2.809,2.809,0,0,0,.107-.3q.357-1.411.707-2.82c.083-.338.154-.678.24-1.06Zm-26.642-21.221c-.515-.308-1.018-.61-1.524-.906a.931.931,0,0,0-.237-.057c-.031.134-.048.249-.085.358a.465.465,0,0,0,.22.6q.6.371,1.2.734a2.434,2.434,0,0,0,.225.1Zm-3.164-2.152-.044-.035-1.133.884a9.365,9.365,0,0,0,.633,2.114Zm13.277-13.487a33.879,33.879,0,0,1,3.544-2.144,19.929,19.929,0,0,0-3.994,1.635Zm11.761,37.379c-.086,1.474-.2,2.912-.169,4.345.149.055.2-.007.223-.105a6.045,6.045,0,0,0,.135-.75c.07-1.055.125-2.111.184-3.167.006-.1,0-.21,0-.322Zm10.808.683.061.06a1.7,1.7,0,0,0,.3-.3,2.788,2.788,0,0,0,.276-.583c.259-.77.5-1.544.752-2.317.023-.07.031-.146.054-.258-.133.048-.228.091-.327.119a.428.428,0,0,0-.326.363c-.152.637-.328,1.269-.5,1.9C-788.1,15790.392-788.2,15790.728-788.3,15791.064Zm-1.35,2.774-3.117,1.324c.4,0,.843,0,1.283,0a1.816,1.816,0,0,0,.379-.029,2.129,2.129,0,0,0,1.38-1.056A1.2,1.2,0,0,0-789.65,15793.839Zm8.854-25.8c.071-.031.126-.051.176-.079.476-.272.958-.537,1.426-.824.558-.342.437-.268.292-.808,0-.015-.026-.026-.064-.062l-1.962,1.205Zm-16.531,26.5c.3-1.436.537-2.881.758-4.336-.129,0-.216,0-.3,0-.047,0-.094.019-.18.035C-797.14,15791.677-797.346,15793.1-797.327,15794.547Zm-23.974-24.493-1.71-.95-.081.732,1.645.912Zm17.209,20.2c.074.554.136,1.05.206,1.544a1.075,1.075,0,0,0,.627.792l-.168-2.281Zm-16.6-22.714-1.754-1.107c-.039.125-.069.207-.09.292s-.035.188-.05.271a9.184,9.184,0,0,0,1.757,1.056Zm42.059-.065c-.724.335-1.358.774-2.052,1.112l.111.535a.339.339,0,0,0,.086-.017c.584-.36,1.171-.716,1.749-1.085C-778.522,15767.886-778.526,15767.849-778.629,15767.477Zm-3.031-7.295c-.07-.111-.123-.2-.182-.292-.119-.177-.209-.211-.39-.1-.393.236-.778.487-1.182.741l.307.61A16.841,16.841,0,0,0-781.66,15760.182Zm.338.531a7.4,7.4,0,0,0-1.595.868l.242.547a6.9,6.9,0,0,0,1.573-1.048Zm-34.788,27.981c-.016-.122-.02-.181-.032-.235-.13-.594-.26-1.187-.395-1.78a.239.239,0,0,0-.086-.139c-.156-.1-.32-.179-.512-.283.011.109.011.177.024.242.076.354.182.705.225,1.064A1.708,1.708,0,0,0-816.11,15788.694Zm30.451-1.523a.6.6,0,0,0-.543.528c-.189.729-.427,1.447-.645,2.17-.025.081-.048.163-.078.264.347-.194.394-.217.506-.532.2-.553.369-1.114.546-1.676C-785.8,15787.685-785.735,15787.44-785.659,15787.171Zm-29.243,2.386.06-.019c-.039-.673-.08-1.346-.116-2.021a.23.23,0,0,0-.143-.229c-.177-.077-.352-.161-.586-.27A12.462,12.462,0,0,0-814.9,15789.557Zm-5.987-9.908.075-.013c0-.3,0-.6,0-.905,0-.538.01-1.075,0-1.613a.339.339,0,0,0-.123-.206,1.332,1.332,0,0,0-.254-.142.741.741,0,0,0-.023.123c.028.664.051,1.327.088,1.99A1.522,1.522,0,0,0-820.889,15779.648Zm20.965,10.768a.454.454,0,0,0-.027.092q0,1.576,0,3.152a.767.767,0,0,0,.063.178l.2-3.436Zm-7.995-8.693-.065.058a2.39,2.39,0,0,0,.16.355c.11.172.243.33.366.494.1.137.2.275.3.412l.059-.023-.115-1.184Zm23.671,5.992a2.867,2.867,0,0,0,.888-1.7c-.194.095-.429.11-.5.352C-783.99,15786.793-784.108,15787.224-784.248,15787.715Zm1.778-28.7-1.3.808.166.285,1.334-.849Zm-2.214,27.681a.4.4,0,0,0-.362.347c-.13.532-.278,1.059-.416,1.588-.018.068-.023.141-.038.233A4.989,4.989,0,0,0-784.684,15786.7Zm6.36-11.1a.388.388,0,0,0-.344.384c-.059.622-.132,1.243-.2,1.864a1.539,1.539,0,0,0,0,.166A13.166,13.166,0,0,0-778.324,15775.594Zm-19.492,21.186-.03.055a4.342,4.342,0,0,0,.506.262c.192.072.416-.064.538-.316Z"/>
    <path id="Path_263" data-name="Path 263" d="M-772.733,15827.152c.193-.458.394-.913.578-1.375.463-1.165.934-2.328,1.372-3.5a8.544,8.544,0,0,0,.524-2.075.6.6,0,0,1,.011-.087c.039-.173.131-.273.257-.284s.25.08.3.268a2.791,2.791,0,0,1,.075,1.021,16.888,16.888,0,0,1-.519,2.65,19.738,19.738,0,0,1-.84,2.287.394.394,0,0,1-.133.187c-.521.329-1.048.648-1.573.971Z"/>
    <path id="Path_264" data-name="Path 264" d="M-784.712,15771.914a1.745,1.745,0,0,1,.3-.145,9.39,9.39,0,0,0,1.756-.674,3.206,3.206,0,0,1,.413-.152c.091-.028.194-.01.218.091a.3.3,0,0,1-.068.2.474.474,0,0,1-.163.123,6.455,6.455,0,0,1-1.824.728,1.216,1.216,0,0,1-.351.024,1.3,1.3,0,0,1-.284-.1Z"/>
    <path id="Path_265" data-name="Path 265" d="M-795.294,15783.006a.576.576,0,0,1,.2.527,14.794,14.794,0,0,1-.3,2.3c-.028.118-.046.284-.225.25s-.153-.186-.141-.312c.057-.606.12-1.211.18-1.817.015-.146.024-.293.042-.439A.739.739,0,0,1-795.294,15783.006Z"/>
    <path id="Path_266" data-name="Path 266" d="M-796.874,15785.69c.043-.292.087-.6.137-.913a.7.7,0,0,1,.072-.222.115.115,0,0,1,.211,0,.434.434,0,0,1,.061.224c-.031.42-.072.84-.113,1.26a.233.233,0,0,1-.053.133c-.039.038-.106.083-.147.072a.212.212,0,0,1-.14-.123A3.159,3.159,0,0,1-796.874,15785.69Z"/>
    <path id="Path_267" data-name="Path 267" d="M-819.266,15774.616c.044-.354.094-.771.153-1.186.014-.1.015-.245.163-.235.132.007.152.138.16.245a3.292,3.292,0,0,1,0,.409c-.019.322-.043.644-.067.966a1.98,1.98,0,0,1-.029.2c-.04.215-.118.328-.217.3-.154-.045-.153-.187-.162-.313C-819.272,15774.9-819.266,15774.79-819.266,15774.616Z"/>
  </g>
</svg>
