<svg id="Component_4_1" data-name="Component 4 – 1" xmlns="http://www.w3.org/2000/svg" width="102.407" height="123.467" viewBox="0 0 102.407 123.467">
  <path id="Path_6837" data-name="Path 6837" d="M-6035.412-5501.447c-.028.954-.048,1.908-.087,2.861a23.083,23.083,0,0,1-.363,3.766,13.734,13.734,0,0,1-.472,1.556c-.094.279-.277.376-.5.32-.2-.05-.286-.2-.285-.484q.015-4.516.031-9.033a26.444,26.444,0,0,0-.663-5.5,2.608,2.608,0,0,0-.175-.545c-.514-1.12-1.037-2.237-1.559-3.354a.373.373,0,0,0-.189-.18c-.026.234-.057.467-.076.7-.038.453-.055.909-.108,1.36a1.564,1.564,0,0,1-.177.583.358.358,0,0,1-.664,0,1.815,1.815,0,0,1-.192-.713c-.067-1.305-.129-2.611-.153-3.917a2.383,2.383,0,0,0-.346-1.284c-.9-1.447-1.767-2.913-2.649-4.37a.835.835,0,0,0-.294-.307c.069.251.136.5.207.754a18.975,18.975,0,0,1,.685,6.538c-.07,1-.1,1.994-.2,2.986a13.612,13.612,0,0,1-.339,1.634,2.025,2.025,0,0,1-.166.406c-.088.186-.174.415-.431.361-.284-.059-.2-.321-.2-.513q-.022-2.224-.03-4.45a24.744,24.744,0,0,0-1.477-8.46c-.181-.5-.434-.962-.639-1.448a.808.808,0,0,0-.465-.432,17.927,17.927,0,0,0-3.368-1.012c-.341-.076-.684-.14-1.127-.23a2.121,2.121,0,0,0,.217.261,8.091,8.091,0,0,1,2.39,3.167,15.917,15.917,0,0,1,1.365,4.719,6.306,6.306,0,0,1-.07,1.31.737.737,0,0,1-.163.354.248.248,0,0,1-.454-.055,2.165,2.165,0,0,1-.122-.466,17.927,17.927,0,0,0-1.562-4.614,14.8,14.8,0,0,0-1-1.759,6.548,6.548,0,0,0-2.3-2.012c-.6-.339-1.221-.641-1.84-.945a.725.725,0,0,0-.458-.09,8.036,8.036,0,0,0-2.848,1.123c-.992.757-1.989,1.507-2.972,2.275q-2.363,1.844-4.708,3.709c-.965.768-1.881,1.6-2.878,2.326-2.2,1.6-4.246,3.386-6.371,5.075a15.368,15.368,0,0,0-1.847,1.886,4.395,4.395,0,0,0-.593,1.017,1.463,1.463,0,0,0-.048,1.119,4.03,4.03,0,0,0,1.608,2.14c.342.227.681.461,1.037.665a5.232,5.232,0,0,0,.762.337.366.366,0,0,0,.459-.164c.112-.165.052-.3-.065-.434-.19-.224-.375-.452-.55-.688a5.709,5.709,0,0,1-.777-1.523,2.407,2.407,0,0,1-.036-1.386c.037-.163.1-.351.284-.337.115.009.241.145.322.253a3.5,3.5,0,0,1,.281.5,8.832,8.832,0,0,0,3.749,3.609,2.583,2.583,0,0,0,1.3.361.721.721,0,0,0,.677-1.074,1.708,1.708,0,0,0-.156-.264c-.277-.4-.56-.792-.836-1.19a9.724,9.724,0,0,1-1.443-2.758,3.439,3.439,0,0,1-.1-1.265c.015-.179.053-.367.273-.4s.316.127.385.3a14.071,14.071,0,0,0,2.944,4.2,6.333,6.333,0,0,0,1.228.991,1.566,1.566,0,0,0,1.86-.031,1.01,1.01,0,0,0,.5-.97,4.7,4.7,0,0,0-.237-1.108,10.225,10.225,0,0,0-.656-1.295c-.7-1.24-1.413-2.473-2.12-3.708a1.018,1.018,0,0,1-.116-.236.32.32,0,0,1,.421-.383.584.584,0,0,1,.189.11,8.275,8.275,0,0,1,1.487,1.493c.745,1.109,1.51,2.2,2.269,3.3.109.157.237.3.353.451a1.083,1.083,0,0,0,1.223.39,1.189,1.189,0,0,0,.874-.962,1.99,1.99,0,0,0,.016-.787,19.741,19.741,0,0,0-1.7-5.121l-.825-1.506c-.094-.172-.192-.355,0-.518a.442.442,0,0,1,.573,0,4.623,4.623,0,0,1,.692.606,11.034,11.034,0,0,1,2.332,4.153c.063.2.11.4.189.587a3.283,3.283,0,0,0,.319.624,1.018,1.018,0,0,0,1.788.02,2.059,2.059,0,0,0,.36-.981,6.33,6.33,0,0,0-.25-2.787,22.424,22.424,0,0,0-.9-2.524,8.157,8.157,0,0,0-.816-1.3c-.173-.255-.389-.481-.553-.74a.4.4,0,0,1-.016-.359.383.383,0,0,1,.339-.11,3.747,3.747,0,0,1,.86.317,3.341,3.341,0,0,1,1.148,1.136,12.657,12.657,0,0,1,1.219,2.437,5.6,5.6,0,0,0,.39.734.834.834,0,0,0,1.382.059,2.063,2.063,0,0,0,.52-1.322,7.125,7.125,0,0,0-.558-3.1,16.34,16.34,0,0,0-.854-1.736,9.329,9.329,0,0,0-.839-1.068c-.037-.045-.088-.079-.128-.121-.143-.152-.294-.3-.184-.539a.492.492,0,0,1,.614-.208,2.7,2.7,0,0,1,1.5,1.095,10.153,10.153,0,0,1,2.037,4.813c.069.539.12,1.08.158,1.621a2.9,2.9,0,0,1-.276,1.456,13.62,13.62,0,0,1-1.53,2.617c-.117.149-.223.3-.374.513a4.172,4.172,0,0,0,1.063-.144,6.541,6.541,0,0,0,3.352-1.741,6.083,6.083,0,0,1,.559-.5,1.17,1.17,0,0,1,.3-.186.45.45,0,0,1,.655.518,1.464,1.464,0,0,1-.121.375,5.464,5.464,0,0,1-2.312,2.58,9.965,9.965,0,0,1-3.694,1.233c-.145.019-.289.05-.433.08-.022,0-.041.031-.084.066a5.29,5.29,0,0,0,1.485.648,7.371,7.371,0,0,0,4.631-.19,2.129,2.129,0,0,1,.422-.118c.268-.031.417.127.389.4a.984.984,0,0,1-.416.7,6.16,6.16,0,0,1-3.063,1.242,8.037,8.037,0,0,1-4.694-.858,1.826,1.826,0,0,0-2.16.235,6.937,6.937,0,0,0-2.113,2.826c-.593,1.437-1.138,2.9-1.695,4.348a2.121,2.121,0,0,0-.114.558,2.262,2.262,0,0,0,.077.473,4.34,4.34,0,0,0,.469-.446c.308-.411.6-.834.9-1.255a47.112,47.112,0,0,1,4.017-4.733,1.812,1.812,0,0,1,.26-.237.461.461,0,0,1,.6-.023.437.437,0,0,1,.035.6c-.291.459-.593.91-.9,1.362-.579.867-1.166,1.729-1.741,2.6a42.634,42.634,0,0,0-3.633,6.884,8.713,8.713,0,0,0-.645,2.364,14.152,14.152,0,0,0,.228,4.2,1.93,1.93,0,0,0,.227.615.631.631,0,0,0,1.137.033,3.872,3.872,0,0,0,.256-.511c.66-1.409,1.331-2.813,1.972-4.23.465-1.03.9-2.073,1.331-3.118a30.99,30.99,0,0,1,3.961-7.044c.258-.338.487-.7.73-1.048a1.168,1.168,0,0,1,.207-.282.477.477,0,0,1,.339-.126.374.374,0,0,1,.227.279,2.283,2.283,0,0,1-.153.759,12.88,12.88,0,0,1-.6,1.176,54.816,54.816,0,0,0-3.246,7.174c-.763,2.017-1.652,3.986-2.462,5.985a8.591,8.591,0,0,0-.655,2.549c-.069.893-.157,1.785-.187,2.679a3.4,3.4,0,0,0,.643,2.113,1.52,1.52,0,0,0,1.769.651,2.828,2.828,0,0,0,2.074-1.853c.281-.678.54-1.365.8-2.052q2.379-6.327,4.751-12.657c.559-1.5,1.079-3.012,1.637-4.511.261-.7.563-1.387.867-2.071a1.547,1.547,0,0,1,.361-.487c.174-.161.347-.123.485.073a.861.861,0,0,1,.125.716c-.143.629-.267,1.264-.434,1.887-1.359,5.08-3,10.068-4.813,15-.823,2.246-1.61,4.506-2.439,6.751-.376,1.018-.84,2-1.217,3.022-.626,1.693-1.182,3.411-1.824,5.1q-1.5,3.95-3.087,7.87c-.641,1.593-1.325,3.169-2.016,4.741a4.922,4.922,0,0,0-.291,2.808,2.074,2.074,0,0,0,2.15,1.811,3.527,3.527,0,0,0,2.412-.914,6.115,6.115,0,0,0,1.537-2.021,42.492,42.492,0,0,0,3.265-8.54c.329-1.338.556-2.7.8-4.059a43.628,43.628,0,0,1,2.911-9.537c.741-1.709,1.327-3.485,2.055-5.2a48.769,48.769,0,0,0,2.565-8.639c.42-1.906.931-3.792,1.337-5.7.286-1.347.482-2.715.688-4.079.324-2.148.62-4.3.935-6.45a1.786,1.786,0,0,1,.163-.543.35.35,0,0,1,.279-.16.361.361,0,0,1,.246.209,1.909,1.909,0,0,1,.079.518,40.478,40.478,0,0,1-.432,7.554c-.295,2.2-.678,4.378-1.125,6.551-.375,1.825-.646,3.672-.989,5.5a43.029,43.029,0,0,1-2.1,7.037c-.934,2.517-1.805,5.058-2.7,7.59a43.022,43.022,0,0,0-1.76,7.221,32.828,32.828,0,0,1-1.266,5.17c-.036.107-.062.218-.113.4.16-.094.259-.142.348-.205a8.7,8.7,0,0,0,2.924-3.118c.484-.955.888-1.95,1.378-2.9a14.31,14.31,0,0,1,1.059-1.667c.288-.406.652-.758.953-1.156.593-.784,1.17-1.58,1.743-2.379a2.6,2.6,0,0,0,.251-.513c.8-1.909,1.63-3.805,2.379-5.734a44.888,44.888,0,0,0,2.576-9.818c.107-.739.141-1.49.208-2.235a3.088,3.088,0,0,1,.032-.35.341.341,0,0,1,.322-.31.325.325,0,0,1,.35.274c.064.3.116.6.167.909a15.565,15.565,0,0,1-.053,3.6,32.749,32.749,0,0,1-1.567,7.529c-.568,1.835-1.232,3.642-1.86,5.459a1.144,1.144,0,0,0-.015,1,.817.817,0,0,0,.71-.48c.584-1.052,1.175-2.1,1.744-3.161.36-.673.694-1.36,1.026-2.047.2-.409.385-.824.549-1.247a3.779,3.779,0,0,1,.725-1.248c.19-.2.365-.176.449.094a1.265,1.265,0,0,1,.045.52c-.121.989-.23,1.982-.4,2.964-.116.678-.316,1.342-.49,2.01a4.849,4.849,0,0,1-.236.709,13.952,13.952,0,0,1-3.254,4.871,2.2,2.2,0,0,1-.269.227,8.375,8.375,0,0,0-2.914,3.838,11.26,11.26,0,0,0-.392,1.485c-.515,1.913-1,3.836-1.56,5.735q-1.006,3.4-2.13,6.76a43.45,43.45,0,0,1-2.342,5.65,6.978,6.978,0,0,0-.688,2.488,1.3,1.3,0,0,0,1.572,1.4,3.3,3.3,0,0,0,1.335-.646,9.382,9.382,0,0,0,2.789-3.418,40.96,40.96,0,0,0,3.265-9.7c.282-1.4.578-2.788.864-4.183a22.422,22.422,0,0,1,1.508-4.545c1.049-2.376,2.057-4.771,3.088-7.156.471-1.091.98-2.167,1.425-3.269.28-.691.474-1.417.705-2.127.045-.14.068-.288.124-.422a.409.409,0,0,1,.452-.277.4.4,0,0,1,.357.34,2.7,2.7,0,0,1,.05.569,9.014,9.014,0,0,1-.523,3.022q-1.885,5.265-3.755,10.534a43.744,43.744,0,0,0-1.394,5.5c-.395,1.851-.739,3.718-1.245,5.54a39.4,39.4,0,0,1-2.8,7.4c-.114.222-.232.442-.351.661a3.817,3.817,0,0,0-.378,2.437.828.828,0,0,0,.5.671l-.7.484q-2.087,1.438-4.172,2.875a1.083,1.083,0,0,1-1.5-.11,13.168,13.168,0,0,1-1.048-1.13,53.21,53.21,0,0,0-5.116-5.523c-1.333-1.241-2.69-2.457-4.014-3.707a11.961,11.961,0,0,0-5.625-3.045q-1.608-.369-3.217-.738a4.587,4.587,0,0,0-1.535,0c-.23.026-.228.043-.42.514,5.144,4.059,7.862,9.336,7.692,15.933a18.285,18.285,0,0,1-6.112,13.371,18.946,18.946,0,0,1-26.7-.931,18.356,18.356,0,0,1-5.09-14.947,18.764,18.764,0,0,1,7.954-13.663c-.471-.493-.945-.955-1.379-1.451-1.1-1.259-2.182-2.541-3.286-3.8-.895-1.02-.834-.842-.813-2.2.01-.661,0-1.322,0-1.983,0-.176,0-.353.017-.528a1.138,1.138,0,0,1,1.181-1.116c.73-.032,1.46-.069,2.209-.1a7.414,7.414,0,0,0,.294-1.628c.152-1,.284-2.006.451-3a.956.956,0,0,0-.274-.99,3.05,3.05,0,0,1-.384-.482,7.764,7.764,0,0,0-2.256-2.073,27.723,27.723,0,0,1-3.881-2.893c-.854-.719-1.725-1.421-2.531-2.191-.774-.739-1.5-1.531-2.2-2.345a18.237,18.237,0,0,1-2.505-3.926l-.384-.792a5.41,5.41,0,0,0-2.14-2.338,12.031,12.031,0,0,1-2.724-2.218c-.275-.3-.5-.65-.744-.979-.175-.235-.343-.476-.517-.712a9.166,9.166,0,0,1-1.784-6.474,29.933,29.933,0,0,1,1.779-8.1c.368-.957.643-1.951,1-2.913a37.339,37.339,0,0,1,3.174-6.377,80.882,80.882,0,0,1,7.053-9.511,53.622,53.622,0,0,1,4.044-4.419,48.994,48.994,0,0,1,5.007-4.24c.71-.518,1.372-1.1,2.034-1.685a27.413,27.413,0,0,1,5.705-3.72c1.294-.661,2.582-1.334,3.872-2a16.907,16.907,0,0,1,4.765-1.516,14.366,14.366,0,0,1,4.907.12,2.26,2.26,0,0,0,.3.045,6.837,6.837,0,0,1,4.011,1.519,18.115,18.115,0,0,1,1.716,1.513,41.861,41.861,0,0,1,2.894,3.135c.682.807,1.427,1.561,2.135,2.346.866.959,1.732,1.919,2.578,2.9a8.26,8.26,0,0,1,.617.95c.375-.086.782-.208,1.2-.267a12.625,12.625,0,0,1,3.861.033,13.076,13.076,0,0,0,2.582.168,5.551,5.551,0,0,1,2.33.357,11.144,11.144,0,0,1,2.8,1.554,7.656,7.656,0,0,1,.982.938,21.722,21.722,0,0,1,2.331,3.364c1.2,2.068,2.426,4.126,3.6,6.213,1.12,2,1.939,4.147,2.87,6.239a43.3,43.3,0,0,1,2.61,8.578c.266,1.232.375,2.5.592,3.74.406,2.329.82,4.656,1.269,6.976a27.1,27.1,0,0,0,1.432,4.345c.49,1.305,1.018,2.6,1.564,3.88a10.439,10.439,0,0,0,.809,1.51,32.758,32.758,0,0,0,3.034,4.269c.9,1.011,1.839,1.98,2.742,2.986,1.167,1.3,2.331,2.6,3.464,3.935.818.96,1.6,1.952,2.367,2.956.64.84,1.235,1.714,1.837,2.582a4.066,4.066,0,0,1,.4.733.783.783,0,0,1-.117.942.994.994,0,0,1-1.13.266,3.276,3.276,0,0,1-.772-.5,11.487,11.487,0,0,1-2.031-2.31,59.087,59.087,0,0,0-6.453-7.742,38.583,38.583,0,0,1-5.184-6.608,17.451,17.451,0,0,1-1.239-2.328c-.9-2.106-1.707-4.249-2.466-6.411a30.98,30.98,0,0,1-1.076-4.583c-.28-1.486-.529-2.977-.774-4.47-.2-1.231-.342-2.473-.575-3.7-.192-1.008-.48-2-.727-2.994a1.614,1.614,0,0,0-.08-.2Zm-47.259,13.61a15.539,15.539,0,0,1-1.487,3.089,5.5,5.5,0,0,1-3.449,2.684.461.461,0,0,0-.389.448c-.223,1.391-.469,2.779-.687,4.17-.106.681-.145,1.372-.255,2.052-.255,1.578-.562,3.149-.8,4.73-.486,3.249-.941,6.5-1.412,9.777h3.973c.04-.529.078-1.04.118-1.55.16-2.035.334-4.068.48-6.1.22-3.061.385-6.127.819-9.167.118-.825.344-1.635.53-2.449.048-.208.157-.392.411-.392s.364.195.412.4a3.661,3.661,0,0,1,.108.826c0,.631-.03,1.262-.042,1.893-.038,2.026-.032,4.054-.121,6.078-.13,2.948-.327,5.893-.5,8.84-.031.537-.07,1.073-.1,1.6a9.715,9.715,0,0,0,2.445-.018c.005-.11.015-.226.017-.342.042-3.275.176-6.547.452-9.811a17.5,17.5,0,0,1,.472-3,1.253,1.253,0,0,1,.172-.4.34.34,0,0,1,.613-.007,1.4,1.4,0,0,1,.213.652c.052.879.094,1.76.1,2.64.011,3.231.006,6.462.006,9.693v.614h4.247c-.018-.252-.029-.47-.049-.688-.073-.789-.157-1.578-.221-2.368-.188-2.312-.364-4.625-.553-6.937-.246-3-.515-6-.742-9-.083-1.1-.085-2.2-.1-3.3a1.623,1.623,0,0,1,.148-.677.358.358,0,0,1,.662-.033,1.638,1.638,0,0,1,.2.438,8.572,8.572,0,0,1,.286,1.062c.285,1.678.6,3.353.815,5.04.348,2.678.654,5.363.934,8.049.248,2.395.436,4.8.651,7.194.036.4.071.81.11,1.251,1.26-.008,2.5.015,3.731-.015-.153-1.085-.3-2.115-.444-3.146q-.707-5.148-1.411-10.3c-.406-2.937-.829-5.872-1.229-8.81-.359-2.632-.688-5.269-1.052-7.9a4.485,4.485,0,0,0-.527-2.207c-.092.119-.176.234-.265.344-.689.859-1.35,1.741-2.075,2.568a7.178,7.178,0,0,1-2.487,1.929A5.792,5.792,0,0,1-6082.671-5487.837Zm6.769-48.566a3.094,3.094,0,0,0-.471,0,10.26,10.26,0,0,0-2.766.694c-1.294.594-2.591,1.181-3.881,1.782a19.283,19.283,0,0,0-3.169,1.815c-.917.661-1.811,1.354-2.72,2.026a51.96,51.96,0,0,0-5.663,4.9c-1.136,1.127-2.237,2.291-3.34,3.451a61.731,61.731,0,0,0-4.423,5.084q-1.589,2.084-3.226,4.132a17.18,17.18,0,0,0-2.29,3.646c-.707,1.565-1.34,3.163-2.029,4.736a42.884,42.884,0,0,0-1.775,4.832,17.761,17.761,0,0,0-.49,2.1c-.126.736-.169,1.486-.261,2.228a13.237,13.237,0,0,0,.013,3.512,4.518,4.518,0,0,0,.732,2.057,14.708,14.708,0,0,0,2.255,2.523q1.534,1.323,3.081,2.634a1.51,1.51,0,0,0,.38.216,16.446,16.446,0,0,0,3.06.963,17.175,17.175,0,0,0,3.817.257c.118,0,.235-.015.353-.024a1.7,1.7,0,0,0-.513-.144,6.082,6.082,0,0,1-3.123-1.424c-.467-.4-.933-.809-1.378-1.236a11.976,11.976,0,0,1-3.691-6.761,19.125,19.125,0,0,1-.179-3.3,27.3,27.3,0,0,1,1.989-10.225,59.045,59.045,0,0,1,4.525-8.851c.771-1.25,1.524-2.509,2.413-3.683a34.507,34.507,0,0,1,5.015-5.061c.12-.1.246-.178.386-.05.125.115.064.245-.008.36a2.647,2.647,0,0,1-.23.323c-.22.255-.448.505-.673.757a35.538,35.538,0,0,0-5.31,7.38c-1.434,2.8-2.922,5.559-4.1,8.482a27.93,27.93,0,0,0-2.047,11.447c.005.148.022.3.034.444a6.254,6.254,0,0,0,.152-1.1,16.984,16.984,0,0,1,1.385-5.793c.883-2.128,1.831-4.23,2.778-6.331a29.678,29.678,0,0,1,2.537-4.58c.539-.788,1.091-1.567,1.606-2.371a49.067,49.067,0,0,1,4.832-6.278c.833-.93,1.689-1.842,2.474-2.811a68.835,68.835,0,0,1,9.127-9.232A33.355,33.355,0,0,1-6075.9-5536.4Zm.312,39.012c-.831-.233-1.583-.479-2.352-.653a7.739,7.739,0,0,1-3.039-1.624,31.914,31.914,0,0,1-3.688-3.466c-2.155-2.329-4.274-4.69-6.418-7.028-.814-.887-1.657-1.747-2.486-2.621a1.148,1.148,0,0,0-.895-.407,2.026,2.026,0,0,0-1.615.775,32.826,32.826,0,0,0-2.4,3.744c-1.055,1.953-1.9,4-2.8,6.027a4.377,4.377,0,0,0-.27,2.251c.035.358.16.429.5.33a1.527,1.527,0,0,0,.869-.644,6.338,6.338,0,0,0,.648-1.24,21.062,21.062,0,0,1,2.326-4.681,21.994,21.994,0,0,1,2.336-2.92.9.9,0,0,1,.344-.263.563.563,0,0,1,.442.036.613.613,0,0,1,.138.423.661.661,0,0,1-.14.316c-.162.262-.332.519-.5.777a21.987,21.987,0,0,0-2.785,5.673,10.948,10.948,0,0,0-.7,3.7,2.422,2.422,0,0,0,.47,1.344,1.2,1.2,0,0,0,1.313.5,2.672,2.672,0,0,0,1.685-1.118,7.9,7.9,0,0,0,.633-1.154,16.32,16.32,0,0,1,1.7-2.977c.474-.616,1-1.195,1.508-1.781.23-.263.454-.3.654-.149s.214.337.076.633c-.024.054-.055.1-.083.156-.265.491-.525.984-.795,1.472a25,25,0,0,0-2.213,5.642,1.587,1.587,0,0,0,.1,1.116,2.75,2.75,0,0,0,.887,1.132,2.254,2.254,0,0,0,.869.392,2.156,2.156,0,0,0,2.5-1.187c.061-.117.129-.23.195-.345.311-.549.617-1.1.936-1.646a7.827,7.827,0,0,1,1.316-1.758,2.5,2.5,0,0,1,.449-.35.492.492,0,0,1,.647.041c.148.162.144.331.012.609-.46.968-.928,1.932-1.365,2.909a12.2,12.2,0,0,0-.623,1.643,2.286,2.286,0,0,0,.207,1.833,1.352,1.352,0,0,0,.513.518,2.07,2.07,0,0,0,1.328.194,7.023,7.023,0,0,0,3.82-1.858c.352-.354.706-.709,1.025-1.091.527-.632,1.021-1.289,1.537-1.93a4.974,4.974,0,0,1,.511-.543.279.279,0,0,1,.4-.011.8.8,0,0,1,.159.378c.015.076-.046.166-.074.25a11.712,11.712,0,0,1-1.037,2.232,9.889,9.889,0,0,1-2.988,3.246,2.321,2.321,0,0,0-.22.19c.126.195.271.114.406.071a4.317,4.317,0,0,0,1.691-.909,18.065,18.065,0,0,0,3.733-4.926C-6075.977-5496.533-6075.791-5496.963-6075.59-5497.391Zm3.366-17.572c-.5-.748-.918-1.483-1.446-2.125a28.546,28.546,0,0,0-2.665-2.99,57.809,57.809,0,0,0-5.3-4.444,4.1,4.1,0,0,0-1.808-.751,3.01,3.01,0,0,0-1.73.161,4.922,4.922,0,0,0-1.808,1.29c-1.314,1.562-2.684,3.076-4.007,4.63a9.951,9.951,0,0,0-1.486,2.281,4.1,4.1,0,0,0-.254.7c-.149.587.19.981.785.875a1.949,1.949,0,0,0,1.352-.823q.411-.626.822-1.252a26,26,0,0,1,3.153-4.122c.724-.727,1.492-1.413,2.255-2.1.3-.273.523-.285.708-.125s.175.384-.077.744c-.034.048-.07.1-.106.141-.286.373-.562.753-.861,1.116a32.352,32.352,0,0,0-4.643,7.555,2.57,2.57,0,0,0,0,2.05,1.2,1.2,0,0,0,1.063.654,4.458,4.458,0,0,0,.819-.161,1.722,1.722,0,0,0,1.018-.781c.435-.731.923-1.431,1.4-2.137a12.388,12.388,0,0,1,3.414-3.635c.172-.112.334-.24.51-.345a.4.4,0,0,1,.527.025.382.382,0,0,1,0,.523c-.09.134-.2.256-.294.385a24.047,24.047,0,0,0-1.608,2.147c-1.052,1.764-2.03,3.572-3.034,5.366a2.532,2.532,0,0,0-.245,1.413,1.148,1.148,0,0,0,1.09,1.175,1.139,1.139,0,0,0,1.283-.7,15.455,15.455,0,0,1,4.277-5.472c.127-.1.238-.22.364-.32.226-.177.4-.2.56-.073s.2.323.067.6a2.023,2.023,0,0,1-.159.264c-.1.145-.206.286-.31.428a24.894,24.894,0,0,0-3.089,5.418,4.817,4.817,0,0,0-.357,1.978,3.563,3.563,0,0,0,1.258,2.8c.576.478,1.109,1.006,1.671,1.5a4.152,4.152,0,0,0,2.5,1.068,5.288,5.288,0,0,1,.563.094,6.787,6.787,0,0,0,1.6.175,1.639,1.639,0,0,0-.409-.141,7.092,7.092,0,0,1-3.327-1.8,6.481,6.481,0,0,1-1.676-2.855,6.518,6.518,0,0,1-.366-1.262,3.551,3.551,0,0,1,.783-2.806,15.128,15.128,0,0,1,1.6-1.755c1.111-.981,2.279-1.9,3.429-2.832C-6073.7-5513.8-6072.97-5514.367-6072.224-5514.963Zm12.44-10.006c-.344-.528-.65-.993-.95-1.462a7.267,7.267,0,0,0-1.1-1.367,43.772,43.772,0,0,1-3.087-3.323c-.905-1.06-1.834-2.1-2.8-3.106a6.324,6.324,0,0,0-2.652-1.684,3.062,3.062,0,0,0-1.821-.086,13.866,13.866,0,0,0-4.148,2.093,43.029,43.029,0,0,0-3.522,3.062,1.6,1.6,0,0,0-.244.309,3.383,3.383,0,0,0-.377,2.629,1.089,1.089,0,0,0,.39.63c.075-.1.139-.18.2-.264a29.994,29.994,0,0,1,3.065-3.632,12.1,12.1,0,0,1,4.9-3.02,1.715,1.715,0,0,1,.648-.083.3.3,0,0,1,.211.533,2.693,2.693,0,0,1-.515.407c-.271.176-.556.33-.835.492a8.725,8.725,0,0,0-2.52,2.041c-.861,1.077-1.714,2.166-2.493,3.3a3.4,3.4,0,0,0-.586,2.175,1.587,1.587,0,0,0,1,1.419,1.926,1.926,0,0,0,1.793-.563c.686-.843,1.366-1.691,2.086-2.5a14.145,14.145,0,0,1,4.586-3.439c.053-.025.1-.054.158-.078.34-.151.558-.132.675.056s.044.409-.229.634c-.08.065-.166.122-.244.189-.55.463-1.117.909-1.646,1.4a23.124,23.124,0,0,0-3.526,4.381,4.339,4.339,0,0,0-.652,2.389.836.836,0,0,0,1.021.941,2.042,2.042,0,0,0,1.517-.783,20.46,20.46,0,0,1,3.713-3.621,24.932,24.932,0,0,1,2.088-1.384,2.275,2.275,0,0,1,.747-.233.319.319,0,0,1,.378.234.586.586,0,0,1-.067.406,2.182,2.182,0,0,1-.373.371,50.87,50.87,0,0,0-3.7,3.772,10.01,10.01,0,0,0-1.623,2.451,4.932,4.932,0,0,0-.27.7.753.753,0,0,0,.825.949,2.231,2.231,0,0,0,1.239-.521c.173-.159.364-.3.548-.444,1.854-1.49,3.748-2.931,5.467-4.584a7.726,7.726,0,0,1,2.216-1.5C-6060.137-5524.758-6059.992-5524.854-6059.784-5524.969Zm-10.266,86.951a26.113,26.113,0,0,0-7.237-.244c-.068-.174-.133-.335-.194-.5-.326-.864-.635-1.735-.98-2.592a13.729,13.729,0,0,0-1.435-2.769c-.132-.187-.288-.357-.464-.574a6.353,6.353,0,0,0-.465.652,15.476,15.476,0,0,0-.887,1.767c-.476,1.246-.889,2.515-1.328,3.775-.062.177-.122.354-.177.513-1.1.07-2.153.127-3.207.209a15.968,15.968,0,0,0-3.505.6c-.187.058-.364.146-.589.238a6.558,6.558,0,0,0,.464.547,12.885,12.885,0,0,0,1.25,1.109c1.181.845,2.39,1.649,3.588,2.471.106.072.208.149.317.228-.077.25-.144.473-.215.695a29.766,29.766,0,0,0-1.241,4.854,5.414,5.414,0,0,0-.055,1.333,1.64,1.64,0,0,0,.286-.05,26.943,26.943,0,0,0,5.974-3.808l1.042.668a27.63,27.63,0,0,0,3.677,2.074,5.918,5.918,0,0,0,1.757.549,3.375,3.375,0,0,0,.012-.534c-.078-.566-.146-1.136-.269-1.693a32.02,32.02,0,0,0-1.341-4.186c-.054-.148-.1-.3-.156-.464.386-.293.747-.567,1.109-.84a27.7,27.7,0,0,0,3.438-2.952A4.378,4.378,0,0,0-6070.05-5438.018Zm-33.36-54.633v.4a10.791,10.791,0,0,0,.52,3.07c.054.183.126.332.338.351a.5.5,0,0,0,.474-.331,1.472,1.472,0,0,0,.072-.343,11.453,11.453,0,0,1,.724-2.941,15.508,15.508,0,0,1,.726-1.5.431.431,0,0,1,.544-.262c.205.075.279.234.23.552-.038.246-.1.488-.145.734a14.27,14.27,0,0,0-.227,5.073,4.165,4.165,0,0,0,.617,1.771.879.879,0,0,0,1.149.373,1.461,1.461,0,0,0,.979-.94,7.31,7.31,0,0,0,.256-1.022,7.62,7.62,0,0,1,.644-2.232,6.182,6.182,0,0,1,.668-.975.391.391,0,0,1,.52-.094.415.415,0,0,1,.174.464c-.009.058-.033.114-.038.172-.1,1.169-.227,2.337-.283,3.508a2.858,2.858,0,0,0,.567,1.775,1.292,1.292,0,0,0,1.58.539,2.166,2.166,0,0,0,1.271-.962c.225-.393.421-.8.614-1.215s.36-.869.577-1.284a2.573,2.573,0,0,1,.525-.7c.254-.233.557-.075.584.272a.871.871,0,0,1-.01.22,15.4,15.4,0,0,0-.084,2.679,1.076,1.076,0,0,0,1.113,1.118,2.254,2.254,0,0,0,2.073-.918c.289-.406.544-.835.827-1.245a1.508,1.508,0,0,0-.5-2.049,11.182,11.182,0,0,0-1.364-.706c-1.171-.543-2.381-1.01-3.517-1.616-2.148-1.148-4.258-2.366-6.378-3.566-1.149-.65-2.28-1.331-3.43-1.978a1.983,1.983,0,0,0-.751-.216.768.768,0,0,0-.923.568A7.531,7.531,0,0,0-6103.41-5492.651Zm36.086,39.9a2.731,2.731,0,0,0,1.322-.608,6.608,6.608,0,0,0,1.522-2.031c1.093-2.483,2.207-4.958,3.272-7.454,1.152-2.7,2.251-5.418,3.391-8.12a5.81,5.81,0,0,0,.41-2.1,1.952,1.952,0,0,0-.767-1.563c-.588-.529-1.213-1.017-1.814-1.533a.987.987,0,0,0-1.6.32c-.045.092-.086.186-.128.28-1.723,3.793-3.406,7.6-5.261,11.336a5.944,5.944,0,0,0-.454,1.327,1.541,1.541,0,0,0,1.45,2.006,6.319,6.319,0,0,1,.78.122,1.077,1.077,0,0,1,.789.643,2.438,2.438,0,0,1,.217.756,11.39,11.39,0,0,1,0,1.581,3.568,3.568,0,0,1-.822,2.095c-.294.347-.576.705-.855,1.064C-6066.346-5454.034-6066.807-5453.428-6067.324-5452.754Zm-.48-2.73h-25.92c1.363,1.634,2.646,3.229,4.075,4.688a19.277,19.277,0,0,1,18.195-.174A41.577,41.577,0,0,0-6067.8-5455.484Zm-36.792-26.048c.074.2.106.31.157.413.308.615.617,1.23.934,1.841a9.1,9.1,0,0,0,.456.8c.277.427.6.427.9.01.094-.131.154-.287.255-.411.35-.433.7-.868,1.071-1.281a.483.483,0,0,1,.637-.125.521.521,0,0,1,.188.627c-.044.17-.109.335-.169.5a7.881,7.881,0,0,0-.566,2.255,1.58,1.58,0,0,0,.647,1.416.907.907,0,0,0,1.308-.089,2.188,2.188,0,0,0,.466-.68,8.144,8.144,0,0,1,1-1.8,1.489,1.489,0,0,1,.525-.445.409.409,0,0,1,.588.418,1.051,1.051,0,0,1-.04.216c-.237,1-.454,2-.721,2.993a2.66,2.66,0,0,0,.117,1.68c.243.642.645.787,1.252.457a1.551,1.551,0,0,0,.4-.332,1.938,1.938,0,0,0,.426-.857,12.531,12.531,0,0,1,1.112-3.007,7.764,7.764,0,0,1,.73-1.041.39.39,0,0,1,.475-.136.473.473,0,0,1,.281.417,1.041,1.041,0,0,1-.01.307c-.051.319-.1.637-.169.953-.219,1.079-.472,2.152-.652,3.237a10.87,10.87,0,0,0-.1,1.841,1.931,1.931,0,0,0,.223.746c.118.259.337.3.582.138a.881.881,0,0,0,.409-.645c.207-1.35.428-2.7.64-4.046q.48-3.066.955-6.135c.02-.125.024-.252.036-.377a1.141,1.141,0,0,0-.159-.041c-1.562-.164-3.125-.324-4.686-.5a.827.827,0,0,0-.54.128,6.617,6.617,0,0,1-2.429.877c-.608.088-1.224.137-1.838.179a13.2,13.2,0,0,1-3.9-.3C-6104.03-5481.385-6104.268-5481.449-6104.6-5481.532Zm59.628,18.794-.06-.023c-.147.267-.3.531-.439.8a10.685,10.685,0,0,1-1.9,2.682,11.868,11.868,0,0,1-4.364,2.664.718.718,0,0,0-.474.456c-.22.56-.456,1.114-.715,1.657a25.528,25.528,0,0,0-1.6,4.049c-.2.719-.4,1.443-.539,2.176a2.425,2.425,0,0,0,.6,2.206,2.393,2.393,0,0,0,2.567.661,3.54,3.54,0,0,0,2.108-1.945c.354-.806.669-1.63.969-2.457,1.5-4.159,2.671-8.42,3.814-12.688A1.763,1.763,0,0,0-6044.968-5462.738Zm-19.873-21.41c-.078.128-.144.221-.2.321-.89,1.736-1.75,3.489-2.674,5.207a14.707,14.707,0,0,0-1.9,5.814,13.824,13.824,0,0,0-.092,1.708,12.817,12.817,0,0,0,.245,1.742,3.906,3.906,0,0,0,.254.743.863.863,0,0,0,1.353.135,13.338,13.338,0,0,0,.832-1.238c1.243-2.413,2.459-4.84,3.69-7.259a6.108,6.108,0,0,0,.6-1.834,1.686,1.686,0,0,0-.133-1.069c-.456-.887-.891-1.785-1.314-2.688C-6064.41-5483.069-6064.607-5483.591-6064.841-5484.148Zm.394-13.167-.077-.091a2.143,2.143,0,0,0-.346.193.9.9,0,0,0-.172.253q-1.928,3.258-3.855,6.517a10.931,10.931,0,0,0-1.256,2.8c-.117.454-.239.908-.376,1.356a17.812,17.812,0,0,0-.621,4.257,1.541,1.541,0,0,0,.308,1.033,1.1,1.1,0,0,0,1.684.013,7.293,7.293,0,0,0,.618-.961c.8-1.518,1.591-3.043,2.382-4.566a2.24,2.24,0,0,0,.147-.366,5.472,5.472,0,0,0,.305-2.38,6.013,6.013,0,0,1-.032-.616,16.822,16.822,0,0,1,.753-5.82Q-6064.717-5496.5-6064.447-5497.315Zm-8.513,73.21a5.608,5.608,0,0,1-2.663-.479c-.717-.3-1.423-.627-2.108-.992-.787-.419-1.547-.892-2.336-1.352-.113.08-.23.165-.35.246-.96.648-1.9,1.321-2.886,1.936a8.738,8.738,0,0,1-2.729,1.193c-.263.058-.535.08-.841.124A12.328,12.328,0,0,0-6072.96-5424.1Zm-8.47-22.536a12.2,12.2,0,0,0-7.081,2.907,12.021,12.021,0,0,0-3.612,5.208,6.835,6.835,0,0,1,1.937-.813,18.57,18.57,0,0,1,3.294-.55c.685-.059,1.371-.111,2.074-.167.068-.2.132-.374.191-.553a25.424,25.424,0,0,1,1.39-3.515,6.975,6.975,0,0,1,1.746-2.4C-6081.462-5446.55-6081.452-5446.6-6081.43-5446.641Zm-13.226-10.919c.695.1,28.215.058,28.535-.04,0-.168,0-.343,0-.519s-.013-.338-.021-.536c-9.534,0-19.014,0-28.514,0Zm1.947,21.115a12.276,12.276,0,0,0,4.287,11.883,1.2,1.2,0,0,0-.015-.223,5.646,5.646,0,0,1-.1-2.01,19.086,19.086,0,0,1,.607-3.15c.156-.577.323-1.151.488-1.734l-.343-.236c-.625-.436-1.267-.853-1.874-1.314A9.9,9.9,0,0,1-6092.709-5436.445Zm21,11.323a12.018,12.018,0,0,0,3.474-5.856,12.589,12.589,0,0,0,.091-5.948,21.788,21.788,0,0,1-4.69,4.523c.324,1.089.666,2.119.933,3.169a19.1,19.1,0,0,1,.38,2.206A4.679,4.679,0,0,1-6071.71-5425.122Zm2.355-14.929a12.338,12.338,0,0,0-9.953-6.6c.024.041.035.087.065.111a6.724,6.724,0,0,1,1.85,2.435c.506,1.04.943,2.115,1.409,3.175.063.144.121.289.181.435A22.335,22.335,0,0,1-6069.355-5440.051Zm-3.479-54.458c.1.682.2,1.32.268,1.962a1.591,1.591,0,0,0,.614,1.078.688.688,0,0,0,1.012-.085,2.045,2.045,0,0,0,.169-.257q2.055-3.286,4.1-6.575a3.094,3.094,0,0,0,.273-.645.365.365,0,0,0-.209-.471,1.6,1.6,0,0,0-1.24-.125,6.85,6.85,0,0,0-4.437,3.137A6.572,6.572,0,0,0-6072.834-5494.509Zm6.019,54.637c.178.519.363,1.012.514,1.515s.274,1.037.421,1.6l1.986-.7a10.617,10.617,0,0,0-1.211-3.646Zm-10,20.047.189,2.115a15.567,15.567,0,0,0,3.724-1.324l-1.078-1.818Zm5.473-.088a15.519,15.519,0,0,0,2.865-2.308l-1.812-1.179-2.162,1.688Zm6.549-7.8a15.32,15.32,0,0,0,.976-3.325l-2.218.287-.776,2.359Zm-2.485,4.178a16.081,16.081,0,0,0,1.716-2.572c-.723-.24-1.378-.525-2.05-.68l-1.461,2.092Zm-5.152-23.031,1.036-1.852a14.6,14.6,0,0,0-2.635-1.355l-.687,2.01Zm-20.449,1.093c.6.433,1.162.871,1.741,1.235l1.85-1.666-1.521-1.509A15.136,15.136,0,0,0-6092.884-5445.469Zm27.174,12.937,2.139-.31a16.585,16.585,0,0,0-.05-2.869l-2.089.685Zm-14.991,13.118-.218,2.123a14.012,14.012,0,0,0,2.789-.164l-.153-2.1Zm-1.533-.11-2.107-.43-.942,1.953a14.994,14.994,0,0,0,2.811.578Zm-1.294-31.2a13.456,13.456,0,0,0-2.551.708,17.269,17.269,0,0,0,.629,2.019l2.243-.622Zm13.931,6.545,1.376-1.646a14.739,14.739,0,0,0-1.9-1.689l-1.1,1.84Zm-12.449-6.747.268,2.13c.391-.023.738-.051,1.087-.062s.688,0,1.044,0l.184-2.134A16.624,16.624,0,0,0-6082.046-5450.924Zm4.129.056-.246,2.156,2.025.456.678-2.059Zm-8.8,32.4,1-1.938-1.869-.888-1.3,1.753Zm-8.374-16.692.3-2.113-2.171.07a11.409,11.409,0,0,0-.259,2.2Zm26.478-7.834,1.065,1.623,1.718-1.306a15.21,15.21,0,0,0-1.341-1.935Zm-25.291-1.241a14.811,14.811,0,0,0-1.333,2.09l2.168.513.978-1.46Zm3.789,23.9,1.319-1.723-1.331-1.036-1.69,1.389Zm-6.015-7.656,1.9-1.132-.5-1.636-2.034.754Zm-.52-10.747h2.268l.629-1.616-2.2-.374Zm5.552,14.7-1.147-1.357c-.6.4-1.213.747-1.787,1.215l1.239,1.487Zm3.6-25.4a12.767,12.767,0,0,0-1.989,1.117l1.431,1.623,1.27-.7Zm-9.764,15.976.2,2.025,2.1-.661-.157-1.6Zm1.7,6.723.776,1.4,1.829-1.142-.791-1.458Z" transform="translate(6115.037 5538.591)"/>
  <g id="Group_4212" data-name="Group 4212" transform="translate(6115.037 5538.591)">
    <path id="Path_6838" data-name="Path 6838" d="M-6035.108-5443.856c.049-.134.093-.271.149-.4a22.126,22.126,0,0,0,1.465-5.693c.2-1.468.376-2.939.6-4.4a10.936,10.936,0,0,1,1.014-3.13,60.664,60.664,0,0,0,3.126-8.078,24.053,24.053,0,0,0,.976-4.014c.008-.058,0-.13.031-.171.083-.11.166-.251.281-.3a.3.3,0,0,1,.391.2,2.009,2.009,0,0,1,.183.712,11.55,11.55,0,0,1-.131,1.311,46.252,46.252,0,0,1-1.668,7.1q-.663,2.26-1.372,4.5a19.867,19.867,0,0,0-.71,3.889c-.123,1.152-.288,2.3-.4,3.454a14.6,14.6,0,0,0-.025,1.8.728.728,0,0,1-.337.694c-1.109.8-2.2,1.614-3.3,2.424-.07.051-.143.1-.215.147Z"/>
    <path id="Path_6839" data-name="Path 6839" d="M-6026.423-5450.256a27.328,27.328,0,0,1,1.983-7.259,19.948,19.948,0,0,0,1.62-6.369c.036-.391.138-.564.347-.591.233-.031.444.179.524.554a7.569,7.569,0,0,1,.055,2.235,25.407,25.407,0,0,1-1.255,5.792,11.857,11.857,0,0,0-.447,1.926,5.481,5.481,0,0,0,.02,1.311.43.43,0,0,1-.185.445c-.825.612-1.644,1.232-2.466,1.848C-6026.272-5450.331-6026.325-5450.31-6026.423-5450.256Z"/>
    <path id="Path_6840" data-name="Path 6840" d="M-6018.837-5454.986c0-.312-.013-.543,0-.773q.159-2.279.331-4.556a.819.819,0,0,1,.024-.174.388.388,0,0,1,.7-.184,1.646,1.646,0,0,1,.328.657,10.553,10.553,0,0,1,.238,1.428c.065.7.08,1.4.131,2.1a.459.459,0,0,1-.236.469C-6017.807-5455.7-6018.285-5455.361-6018.837-5454.986Z"/>
  </g>
</svg>
