<svg xmlns="http://www.w3.org/2000/svg" width="68.481" height="82.564" viewBox="0 0 68.481 82.564">
  <g id="Group_272" data-name="Group 272" transform="translate(98.819 -15867.188)">
    <path id="Path_283" data-name="Path 283" d="M-45.573,15892.028c-.019.638-.032,1.275-.058,1.913a15.5,15.5,0,0,1-.243,2.518,9.059,9.059,0,0,1-.316,1.041c-.062.187-.185.252-.334.214-.132-.034-.191-.134-.19-.324q.009-3.019.02-6.04a17.649,17.649,0,0,0-.443-3.678,1.723,1.723,0,0,0-.117-.364c-.344-.749-.694-1.5-1.043-2.242a.249.249,0,0,0-.126-.12c-.018.155-.038.312-.051.468-.025.3-.037.608-.072.91a1.053,1.053,0,0,1-.118.39.24.24,0,0,1-.445,0,1.223,1.223,0,0,1-.128-.477c-.045-.873-.087-1.746-.1-2.619a1.6,1.6,0,0,0-.232-.859c-.6-.968-1.181-1.948-1.771-2.923a.555.555,0,0,0-.2-.205c.046.168.091.337.139.5a12.706,12.706,0,0,1,.458,4.372c-.047.665-.067,1.333-.135,2a8.971,8.971,0,0,1-.226,1.092,1.421,1.421,0,0,1-.111.272c-.059.124-.116.276-.289.241-.19-.039-.135-.216-.136-.344q-.015-1.487-.02-2.976a16.536,16.536,0,0,0-.988-5.658c-.121-.33-.29-.643-.427-.968a.538.538,0,0,0-.311-.288,11.885,11.885,0,0,0-2.252-.677c-.228-.052-.458-.095-.754-.154a1.4,1.4,0,0,0,.145.174,5.417,5.417,0,0,1,1.6,2.119,10.643,10.643,0,0,1,.912,3.155,4.176,4.176,0,0,1-.047.876.5.5,0,0,1-.108.236.166.166,0,0,1-.3-.036,1.426,1.426,0,0,1-.082-.312,12.03,12.03,0,0,0-1.044-3.085,9.927,9.927,0,0,0-.669-1.176,4.375,4.375,0,0,0-1.54-1.346c-.4-.228-.817-.43-1.231-.633a.49.49,0,0,0-.306-.06,5.372,5.372,0,0,0-1.9.751c-.663.506-1.33,1.008-1.988,1.521q-1.579,1.233-3.148,2.481c-.645.513-1.258,1.071-1.925,1.555-1.471,1.068-2.839,2.265-4.26,3.395a10.21,10.21,0,0,0-1.235,1.261,2.983,2.983,0,0,0-.4.68.976.976,0,0,0-.032.748,2.7,2.7,0,0,0,1.075,1.433c.229.151.456.308.694.443a3.491,3.491,0,0,0,.51.227.245.245,0,0,0,.306-.11c.075-.111.035-.2-.043-.291-.127-.148-.251-.3-.368-.459a3.833,3.833,0,0,1-.52-1.019,1.612,1.612,0,0,1-.023-.928c.024-.107.065-.234.189-.225.077.006.161.1.216.169a2.32,2.32,0,0,1,.188.333,5.91,5.91,0,0,0,2.507,2.414,1.726,1.726,0,0,0,.871.241.482.482,0,0,0,.453-.718,1.143,1.143,0,0,0-.105-.178c-.185-.266-.374-.528-.559-.8a6.487,6.487,0,0,1-.964-1.844,2.3,2.3,0,0,1-.066-.846c.01-.12.036-.245.183-.268s.211.085.257.2a9.41,9.41,0,0,0,1.969,2.807,4.225,4.225,0,0,0,.821.662,1.045,1.045,0,0,0,1.243-.021.674.674,0,0,0,.332-.648,3.183,3.183,0,0,0-.159-.741,6.846,6.846,0,0,0-.438-.865c-.469-.829-.945-1.654-1.418-2.48a.661.661,0,0,1-.078-.157.214.214,0,0,1,.282-.256.379.379,0,0,1,.126.073,5.565,5.565,0,0,1,1,1c.5.742,1.009,1.474,1.517,2.209.072.1.158.2.236.3a.725.725,0,0,0,.818.261.793.793,0,0,0,.584-.644,1.312,1.312,0,0,0,.011-.525,13.233,13.233,0,0,0-1.139-3.425q-.276-.5-.551-1.007c-.063-.115-.129-.238,0-.347a.3.3,0,0,1,.383,0,3.057,3.057,0,0,1,.463.4,7.4,7.4,0,0,1,1.559,2.777c.042.131.074.266.127.393a2.112,2.112,0,0,0,.213.417.681.681,0,0,0,1.2.015,1.376,1.376,0,0,0,.24-.656,4.229,4.229,0,0,0-.167-1.864,14.83,14.83,0,0,0-.6-1.687,5.448,5.448,0,0,0-.546-.868c-.115-.17-.26-.321-.37-.5a.263.263,0,0,1-.01-.239.257.257,0,0,1,.226-.074,2.542,2.542,0,0,1,.576.213,2.223,2.223,0,0,1,.767.76,8.447,8.447,0,0,1,.815,1.629,3.809,3.809,0,0,0,.261.491.558.558,0,0,0,.924.039,1.377,1.377,0,0,0,.348-.884,4.772,4.772,0,0,0-.373-2.069,10.738,10.738,0,0,0-.572-1.161,6.086,6.086,0,0,0-.56-.714c-.025-.03-.059-.054-.086-.081-.1-.1-.2-.2-.123-.361a.329.329,0,0,1,.411-.138,1.8,1.8,0,0,1,1,.731,6.786,6.786,0,0,1,1.363,3.219c.045.359.079.722.105,1.084a1.927,1.927,0,0,1-.185.974,9.067,9.067,0,0,1-1.023,1.75c-.078.1-.149.2-.25.343a2.743,2.743,0,0,0,.711-.1,4.36,4.36,0,0,0,2.241-1.163,4.285,4.285,0,0,1,.374-.333.8.8,0,0,1,.2-.124.3.3,0,0,1,.438.346,1.024,1.024,0,0,1-.081.251,3.652,3.652,0,0,1-1.546,1.726,6.679,6.679,0,0,1-2.47.825c-.1.013-.194.032-.29.053-.015,0-.027.021-.056.045a3.545,3.545,0,0,0,.993.433,4.923,4.923,0,0,0,3.1-.127,1.377,1.377,0,0,1,.282-.079c.179-.021.279.084.26.266a.655.655,0,0,1-.278.466,4.114,4.114,0,0,1-2.048.831,5.378,5.378,0,0,1-3.139-.574,1.221,1.221,0,0,0-1.444.157,4.635,4.635,0,0,0-1.414,1.89c-.4.961-.761,1.937-1.133,2.908a1.384,1.384,0,0,0-.076.373,1.544,1.544,0,0,0,.051.316,2.857,2.857,0,0,0,.313-.3c.207-.274.4-.558.6-.839a31.529,31.529,0,0,1,2.687-3.165,1.319,1.319,0,0,1,.173-.159.31.31,0,0,1,.405-.015.292.292,0,0,1,.023.4c-.194.307-.4.608-.6.911-.387.58-.78,1.155-1.164,1.737a28.451,28.451,0,0,0-2.43,4.6,5.822,5.822,0,0,0-.431,1.58,9.487,9.487,0,0,0,.152,2.81,1.324,1.324,0,0,0,.152.412.422.422,0,0,0,.76.022,2.691,2.691,0,0,0,.172-.343c.441-.941.89-1.881,1.318-2.829.312-.687.6-1.386.89-2.085a20.745,20.745,0,0,1,2.649-4.71c.173-.226.326-.467.488-.7a.764.764,0,0,1,.139-.189.328.328,0,0,1,.227-.084.249.249,0,0,1,.151.187,1.528,1.528,0,0,1-.1.508,8.61,8.61,0,0,1-.4.787,36.643,36.643,0,0,0-2.171,4.8c-.51,1.349-1.1,2.665-1.646,4a5.723,5.723,0,0,0-.438,1.7c-.046.6-.1,1.193-.125,1.792a2.275,2.275,0,0,0,.43,1.412,1.015,1.015,0,0,0,1.183.435,1.889,1.889,0,0,0,1.387-1.238c.188-.454.361-.913.534-1.373q1.59-4.23,3.176-8.464c.375-1,.722-2.014,1.1-3.016.175-.469.377-.928.58-1.385a1.04,1.04,0,0,1,.242-.326c.116-.108.231-.082.324.049a.575.575,0,0,1,.083.479c-.1.421-.178.846-.29,1.263-.909,3.4-2.009,6.732-3.218,10.034-.551,1.5-1.077,3.013-1.631,4.514-.252.681-.562,1.34-.814,2.021-.419,1.133-.791,2.282-1.22,3.409q-1.007,2.641-2.065,5.264c-.428,1.064-.886,2.118-1.348,3.17a3.3,3.3,0,0,0-.194,1.878,1.389,1.389,0,0,0,1.437,1.212,2.367,2.367,0,0,0,1.613-.612,4.1,4.1,0,0,0,1.029-1.352,28.494,28.494,0,0,0,2.183-5.71c.22-.9.371-1.808.537-2.715a29.15,29.15,0,0,1,1.947-6.378c.495-1.143.887-2.331,1.373-3.478a32.619,32.619,0,0,0,1.716-5.777c.281-1.274.622-2.536.894-3.812.191-.9.323-1.816.46-2.729.217-1.437.415-2.876.625-4.312a1.185,1.185,0,0,1,.11-.364.233.233,0,0,1,.186-.107.247.247,0,0,1,.164.141,1.214,1.214,0,0,1,.053.347,27.016,27.016,0,0,1-.289,5.051c-.2,1.471-.453,2.929-.752,4.382-.251,1.221-.432,2.454-.661,3.681a28.753,28.753,0,0,1-1.407,4.705c-.625,1.684-1.207,3.383-1.806,5.076a28.7,28.7,0,0,0-1.177,4.829,22.064,22.064,0,0,1-.846,3.456c-.025.071-.042.146-.076.269.107-.063.173-.095.233-.137a5.829,5.829,0,0,0,1.955-2.085c.324-.639.594-1.3.922-1.94a9.421,9.421,0,0,1,.708-1.115c.192-.271.436-.506.637-.771.4-.525.782-1.058,1.166-1.592a1.74,1.74,0,0,0,.168-.343c.533-1.276,1.089-2.545,1.59-3.835a30.027,30.027,0,0,0,1.723-6.564c.072-.5.094-1,.139-1.5a2.267,2.267,0,0,1,.021-.234.228.228,0,0,1,.216-.208.219.219,0,0,1,.234.185c.043.2.077.4.112.606a10.39,10.39,0,0,1-.036,2.41,21.849,21.849,0,0,1-1.048,5.034c-.38,1.227-.823,2.435-1.243,3.649a.765.765,0,0,0-.011.671.547.547,0,0,0,.475-.32c.391-.7.786-1.405,1.166-2.114.241-.45.464-.91.686-1.369.133-.272.258-.551.368-.834a2.515,2.515,0,0,1,.484-.834c.127-.136.245-.118.3.063a.843.843,0,0,1,.03.347c-.081.662-.154,1.326-.267,1.982-.078.454-.212.9-.327,1.344a3.274,3.274,0,0,1-.159.475,9.309,9.309,0,0,1-2.176,3.257,1.54,1.54,0,0,1-.179.152,5.59,5.59,0,0,0-1.949,2.566,7.562,7.562,0,0,0-.262.993c-.345,1.279-.668,2.564-1.044,3.835q-.672,2.272-1.424,4.521a28.979,28.979,0,0,1-1.566,3.778,4.663,4.663,0,0,0-.46,1.664.866.866,0,0,0,1.051.937,2.193,2.193,0,0,0,.893-.431,6.273,6.273,0,0,0,1.865-2.286,27.43,27.43,0,0,0,2.184-6.485c.188-.933.386-1.863.577-2.8a14.985,14.985,0,0,1,1.009-3.039c.7-1.59,1.375-3.19,2.064-4.786.316-.729.656-1.448.954-2.186.187-.462.317-.947.471-1.423.03-.093.046-.191.083-.281a.274.274,0,0,1,.3-.186.266.266,0,0,1,.239.228,1.859,1.859,0,0,1,.034.38,6.058,6.058,0,0,1-.35,2.021q-1.261,3.52-2.511,7.045a29.014,29.014,0,0,0-.933,3.679c-.263,1.238-.494,2.486-.832,3.7a26.4,26.4,0,0,1-1.874,4.95c-.076.147-.155.295-.235.441a2.555,2.555,0,0,0-.252,1.629.551.551,0,0,0,.332.449l-.468.324-2.79,1.922a.722.722,0,0,1-1-.073,8.75,8.75,0,0,1-.7-.756,35.351,35.351,0,0,0-3.421-3.692c-.891-.83-1.8-1.644-2.684-2.479a8.007,8.007,0,0,0-3.762-2.036q-1.076-.248-2.151-.494a3.092,3.092,0,0,0-1.026,0c-.154.018-.153.029-.281.345a12.584,12.584,0,0,1,5.143,10.653,12.227,12.227,0,0,1-4.087,8.942,12.671,12.671,0,0,1-17.853-.623,12.274,12.274,0,0,1-3.4-10,12.545,12.545,0,0,1,5.319-9.136c-.315-.33-.632-.639-.923-.971-.738-.843-1.459-1.7-2.2-2.541-.6-.683-.558-.563-.544-1.468.007-.441,0-.884,0-1.325,0-.118,0-.236.012-.354a.761.761,0,0,1,.79-.746c.488-.021.976-.046,1.477-.069a5.032,5.032,0,0,0,.2-1.09c.1-.669.19-1.341.3-2.009a.638.638,0,0,0-.183-.662,2.092,2.092,0,0,1-.257-.321,5.177,5.177,0,0,0-1.509-1.388,18.446,18.446,0,0,1-2.6-1.935c-.571-.48-1.153-.95-1.692-1.465-.518-.494-1-1.024-1.471-1.567a12.2,12.2,0,0,1-1.676-2.626q-.129-.264-.256-.53a3.624,3.624,0,0,0-1.432-1.563,8.012,8.012,0,0,1-1.821-1.483,8.127,8.127,0,0,1-.5-.654c-.117-.157-.229-.317-.346-.476a6.128,6.128,0,0,1-1.192-4.33,20,20,0,0,1,1.189-5.417c.246-.641.43-1.3.669-1.948a24.935,24.935,0,0,1,2.122-4.265,54.181,54.181,0,0,1,4.717-6.36,35.909,35.909,0,0,1,2.7-2.955,32.645,32.645,0,0,1,3.348-2.835c.475-.347.918-.738,1.361-1.128a18.312,18.312,0,0,1,3.815-2.486c.865-.442,1.726-.893,2.589-1.341a11.348,11.348,0,0,1,3.187-1.013,9.592,9.592,0,0,1,3.281.08,1.469,1.469,0,0,0,.2.03,4.566,4.566,0,0,1,2.682,1.016,12.1,12.1,0,0,1,1.148,1.012,28.163,28.163,0,0,1,1.935,2.1c.456.54.954,1.044,1.428,1.568.579.642,1.158,1.283,1.723,1.937a5.464,5.464,0,0,1,.413.636c.251-.057.523-.139.8-.179a8.478,8.478,0,0,1,2.582.021,8.729,8.729,0,0,0,1.727.113,3.716,3.716,0,0,1,1.558.239,7.41,7.41,0,0,1,1.872,1.038,5,5,0,0,1,.657.628,14.492,14.492,0,0,1,1.559,2.249c.8,1.383,1.622,2.759,2.4,4.155.749,1.339,1.3,2.773,1.919,4.172a28.965,28.965,0,0,1,1.746,5.736c.177.824.25,1.669.4,2.5.272,1.558.549,3.113.849,4.664a18.281,18.281,0,0,0,.957,2.906c.328.873.681,1.737,1.046,2.595a7.031,7.031,0,0,0,.541,1.01,22.039,22.039,0,0,0,2.029,2.855c.6.675,1.23,1.324,1.834,2,.78.87,1.559,1.742,2.316,2.631.548.644,1.072,1.306,1.583,1.978.428.562.826,1.146,1.229,1.727a2.776,2.776,0,0,1,.265.49.525.525,0,0,1-.079.63.666.666,0,0,1-.756.178,2.226,2.226,0,0,1-.516-.333,7.716,7.716,0,0,1-1.358-1.545,39.623,39.623,0,0,0-4.315-5.177,25.857,25.857,0,0,1-3.467-4.419,11.672,11.672,0,0,1-.829-1.558c-.6-1.407-1.141-2.841-1.648-4.286a20.67,20.67,0,0,1-.72-3.065c-.187-.993-.354-1.991-.517-2.989-.135-.822-.229-1.653-.385-2.473-.128-.674-.321-1.335-.486-2a1.09,1.09,0,0,0-.054-.133Zm-31.6,9.1a10.376,10.376,0,0,1-.995,2.065,3.681,3.681,0,0,1-2.306,1.795.308.308,0,0,0-.26.3c-.15.931-.314,1.858-.459,2.789-.071.455-.1.917-.171,1.372-.17,1.056-.376,2.105-.534,3.163-.325,2.173-.629,4.349-.944,6.539h2.656c.027-.355.052-.7.079-1.037.108-1.361.224-2.722.321-4.082.147-2.047.257-4.1.548-6.13.079-.553.23-1.094.355-1.639.031-.139.1-.262.274-.262s.244.13.276.264a2.524,2.524,0,0,1,.072.553c0,.422-.02.844-.028,1.266-.026,1.355-.022,2.711-.081,4.065-.087,1.971-.219,3.94-.333,5.91-.02.359-.046.719-.069,1.073a6.413,6.413,0,0,0,1.635-.012c0-.073.01-.151.011-.229.028-2.19.118-4.378.3-6.561a11.7,11.7,0,0,1,.315-2,.845.845,0,0,1,.115-.268.228.228,0,0,1,.41-.006.947.947,0,0,1,.143.438c.035.588.062,1.177.065,1.765.007,2.161,0,4.322,0,6.482v.411h2.84c-.012-.169-.02-.315-.033-.46-.049-.528-.1-1.056-.148-1.584-.126-1.547-.243-3.094-.37-4.64-.164-2.006-.344-4.011-.5-6.018-.056-.733-.057-1.472-.069-2.207a1.092,1.092,0,0,1,.1-.453.239.239,0,0,1,.443-.022,1.134,1.134,0,0,1,.135.293,5.881,5.881,0,0,1,.191.711c.19,1.121.4,2.241.545,3.37q.35,2.687.624,5.383c.167,1.6.293,3.207.436,4.811l.074.836c.842,0,1.67.011,2.494-.01-.1-.726-.2-1.414-.3-2.1q-.473-3.442-.944-6.885c-.271-1.964-.554-3.926-.822-5.891-.24-1.76-.46-3.524-.7-5.284a3,3,0,0,0-.353-1.475c-.061.078-.117.155-.177.229-.46.574-.9,1.164-1.388,1.717a4.792,4.792,0,0,1-1.663,1.29A3.865,3.865,0,0,1-77.176,15901.13Zm4.526-32.478a1.98,1.98,0,0,0-.314,0,6.832,6.832,0,0,0-1.85.464c-.866.4-1.733.79-2.6,1.191a12.978,12.978,0,0,0-2.119,1.214c-.613.441-1.211.905-1.819,1.354a34.632,34.632,0,0,0-3.786,3.274c-.761.753-1.5,1.531-2.234,2.308a40.967,40.967,0,0,0-2.958,3.4q-1.062,1.395-2.157,2.763a11.4,11.4,0,0,0-1.531,2.438c-.473,1.047-.9,2.114-1.357,3.166a28.574,28.574,0,0,0-1.187,3.232,11.777,11.777,0,0,0-.328,1.4c-.084.493-.113.994-.175,1.489a8.844,8.844,0,0,0,.009,2.35,3.026,3.026,0,0,0,.49,1.375,9.818,9.818,0,0,0,1.508,1.688q1.026.886,2.06,1.762a1.009,1.009,0,0,0,.254.144,11.038,11.038,0,0,0,2.046.645,11.532,11.532,0,0,0,2.553.172c.079,0,.157-.011.236-.017a1.122,1.122,0,0,0-.343-.1,4.063,4.063,0,0,1-2.089-.953c-.312-.269-.624-.54-.921-.826a8.008,8.008,0,0,1-2.469-4.521,12.888,12.888,0,0,1-.119-2.2,18.246,18.246,0,0,1,1.33-6.838,39.425,39.425,0,0,1,3.026-5.919c.516-.836,1.019-1.679,1.614-2.463a23.005,23.005,0,0,1,3.353-3.385c.081-.07.165-.119.259-.033s.042.164-.006.24a1.855,1.855,0,0,1-.153.217c-.148.171-.3.338-.451.506a23.743,23.743,0,0,0-3.551,4.936c-.959,1.869-1.954,3.717-2.739,5.672a18.66,18.66,0,0,0-1.369,7.654c0,.1.015.2.022.3a4.135,4.135,0,0,0,.1-.732,11.362,11.362,0,0,1,.926-3.875c.591-1.424,1.225-2.828,1.858-4.233a19.912,19.912,0,0,1,1.7-3.063c.361-.526.73-1.048,1.074-1.585a32.872,32.872,0,0,1,3.232-4.2c.557-.622,1.129-1.231,1.654-1.879a45.977,45.977,0,0,1,6.1-6.175A22.37,22.37,0,0,1-72.65,15868.652Zm.209,26.088c-.555-.156-1.059-.32-1.573-.437a5.156,5.156,0,0,1-2.032-1.085,21.47,21.47,0,0,1-2.467-2.317c-1.44-1.558-2.857-3.137-4.291-4.7-.544-.593-1.108-1.168-1.663-1.753a.768.768,0,0,0-.6-.272,1.359,1.359,0,0,0-1.08.519,21.956,21.956,0,0,0-1.6,2.5c-.706,1.306-1.27,2.677-1.875,4.029a2.941,2.941,0,0,0-.18,1.506c.023.239.107.287.336.222a1.026,1.026,0,0,0,.581-.431,4.2,4.2,0,0,0,.433-.83,14.1,14.1,0,0,1,1.555-3.129,14.634,14.634,0,0,1,1.563-1.953.6.6,0,0,1,.23-.177.375.375,0,0,1,.3.024.408.408,0,0,1,.092.283.438.438,0,0,1-.093.211c-.108.175-.222.347-.335.52a14.734,14.734,0,0,0-1.862,3.793,7.325,7.325,0,0,0-.47,2.476,1.622,1.622,0,0,0,.314.9.8.8,0,0,0,.879.334,1.786,1.786,0,0,0,1.126-.748,5.321,5.321,0,0,0,.424-.771,10.882,10.882,0,0,1,1.137-1.99c.317-.412.666-.8,1.009-1.19.153-.177.3-.2.437-.1s.143.226.051.423c-.017.036-.037.07-.056.1-.177.329-.351.659-.532.984a16.736,16.736,0,0,0-1.479,3.773,1.058,1.058,0,0,0,.068.746,1.824,1.824,0,0,0,.592.757,1.493,1.493,0,0,0,.582.262,1.44,1.44,0,0,0,1.67-.794c.041-.078.086-.153.13-.229.209-.368.413-.737.627-1.1a5.209,5.209,0,0,1,.879-1.176,1.628,1.628,0,0,1,.3-.232.326.326,0,0,1,.432.026c.1.108.1.221.008.407-.307.646-.62,1.292-.913,1.946a8.193,8.193,0,0,0-.416,1.1,1.528,1.528,0,0,0,.138,1.226.911.911,0,0,0,.343.347,1.389,1.389,0,0,0,.888.13,4.7,4.7,0,0,0,2.555-1.243c.235-.237.472-.473.686-.729.352-.424.682-.862,1.027-1.29a3.32,3.32,0,0,1,.342-.364.185.185,0,0,1,.268-.007.525.525,0,0,1,.106.253c.01.05-.03.11-.049.167a7.9,7.9,0,0,1-.693,1.492,6.617,6.617,0,0,1-2,2.171,1.784,1.784,0,0,0-.147.127c.084.13.182.077.272.048a2.89,2.89,0,0,0,1.131-.608,12.113,12.113,0,0,0,2.5-3.294C-72.7,15895.314-72.576,15895.027-72.441,15894.74Zm2.251-11.75c-.336-.5-.614-.992-.967-1.421a19,19,0,0,0-1.782-2,39,39,0,0,0-3.541-2.973,2.743,2.743,0,0,0-1.21-.5,2.015,2.015,0,0,0-1.157.108,3.277,3.277,0,0,0-1.209.863c-.878,1.044-1.795,2.056-2.679,3.095a6.644,6.644,0,0,0-.994,1.525,2.821,2.821,0,0,0-.17.471c-.1.392.127.656.525.585a1.3,1.3,0,0,0,.9-.55c.184-.279.366-.56.55-.837a17.26,17.26,0,0,1,2.109-2.758c.484-.485,1-.944,1.508-1.4.2-.184.349-.191.473-.084s.117.257-.052.5c-.022.031-.046.063-.07.094-.192.249-.376.5-.576.746a21.629,21.629,0,0,0-3.105,5.053,1.716,1.716,0,0,0,0,1.371.8.8,0,0,0,.711.437,2.959,2.959,0,0,0,.547-.107,1.146,1.146,0,0,0,.681-.522c.291-.488.617-.957.936-1.429a8.3,8.3,0,0,1,2.283-2.431c.116-.075.224-.161.342-.231a.265.265,0,0,1,.352.018.256.256,0,0,1,0,.35c-.06.089-.132.171-.2.257a15.91,15.91,0,0,0-1.075,1.437c-.7,1.179-1.358,2.389-2.028,3.588a1.674,1.674,0,0,0-.164.944.767.767,0,0,0,.728.786.764.764,0,0,0,.859-.466,10.338,10.338,0,0,1,2.86-3.659c.085-.065.158-.146.243-.213.151-.119.266-.132.375-.05s.132.216.044.4a1.224,1.224,0,0,1-.106.177c-.067.1-.138.191-.207.287a16.6,16.6,0,0,0-2.066,3.623,3.222,3.222,0,0,0-.239,1.321,2.385,2.385,0,0,0,.841,1.871c.385.32.742.673,1.118,1a2.777,2.777,0,0,0,1.674.714,3.793,3.793,0,0,1,.377.063,4.6,4.6,0,0,0,1.066.117,1.077,1.077,0,0,0-.273-.095,4.741,4.741,0,0,1-2.225-1.205,4.328,4.328,0,0,1-1.12-1.909,4.246,4.246,0,0,1-.245-.845,2.371,2.371,0,0,1,.523-1.876,10.138,10.138,0,0,1,1.07-1.173c.743-.655,1.524-1.269,2.293-1.894C-71.175,15883.769-70.689,15883.388-70.19,15882.99Zm8.319-6.692c-.23-.353-.435-.663-.635-.977a4.813,4.813,0,0,0-.738-.914,29.85,29.85,0,0,1-2.064-2.223c-.605-.71-1.226-1.405-1.873-2.077a4.214,4.214,0,0,0-1.773-1.126,2.048,2.048,0,0,0-1.218-.058,9.291,9.291,0,0,0-2.774,1.4,28.485,28.485,0,0,0-2.355,2.048,1.058,1.058,0,0,0-.164.207,2.259,2.259,0,0,0-.251,1.758.726.726,0,0,0,.261.421c.05-.066.092-.12.132-.176a19.843,19.843,0,0,1,2.049-2.429,8.091,8.091,0,0,1,3.277-2.021,1.159,1.159,0,0,1,.433-.055.2.2,0,0,1,.141.355,1.75,1.75,0,0,1-.345.272c-.181.118-.371.221-.558.329a5.865,5.865,0,0,0-1.685,1.365c-.576.721-1.146,1.447-1.667,2.209a2.275,2.275,0,0,0-.392,1.455,1.06,1.06,0,0,0,.671.947,1.285,1.285,0,0,0,1.2-.376c.458-.563.913-1.131,1.395-1.674a9.457,9.457,0,0,1,3.066-2.3c.036-.018.07-.036.106-.052.227-.1.373-.09.452.037s.029.273-.154.424c-.053.044-.11.082-.163.127-.368.309-.747.607-1.1.933a15.468,15.468,0,0,0-2.359,2.93,2.905,2.905,0,0,0-.436,1.6.559.559,0,0,0,.683.629,1.367,1.367,0,0,0,1.015-.524,13.651,13.651,0,0,1,2.483-2.421,16.568,16.568,0,0,1,1.4-.926,1.555,1.555,0,0,1,.5-.156.213.213,0,0,1,.253.157.4.4,0,0,1-.044.272,1.514,1.514,0,0,1-.25.247,34.251,34.251,0,0,0-2.474,2.522,6.725,6.725,0,0,0-1.085,1.639,3.447,3.447,0,0,0-.181.467.5.5,0,0,0,.552.634,1.488,1.488,0,0,0,.829-.35c.116-.1.244-.2.366-.3,1.24-1,2.507-1.961,3.656-3.065a5.165,5.165,0,0,1,1.482-1C-62.107,15876.44-62.01,15876.375-61.871,15876.3Zm-6.865,58.146a17.416,17.416,0,0,0-4.84-.163c-.045-.116-.088-.225-.129-.332-.218-.578-.425-1.161-.656-1.733a9.131,9.131,0,0,0-.96-1.852c-.087-.125-.192-.239-.31-.384a4.231,4.231,0,0,0-.311.436,10.563,10.563,0,0,0-.593,1.182c-.318.833-.595,1.683-.888,2.524-.041.118-.081.236-.118.343-.735.047-1.44.085-2.145.141a10.672,10.672,0,0,0-2.344.4c-.125.039-.243.1-.394.159a4.545,4.545,0,0,0,.31.366,8.858,8.858,0,0,0,.836.742c.79.564,1.6,1.1,2.4,1.651.071.048.139.1.212.153-.051.167-.1.315-.144.465a19.945,19.945,0,0,0-.83,3.246,3.652,3.652,0,0,0-.036.891,1.188,1.188,0,0,0,.191-.032,18.047,18.047,0,0,0,4-2.548l.7.447a18.466,18.466,0,0,0,2.46,1.386,3.913,3.913,0,0,0,1.175.368,2.28,2.28,0,0,0,.007-.356c-.052-.379-.1-.761-.179-1.132a21.627,21.627,0,0,0-.9-2.8c-.037-.1-.068-.2-.105-.31l.742-.562a18.391,18.391,0,0,0,2.3-1.974A2.931,2.931,0,0,0-68.736,15934.444Zm-22.309-36.534c0,.088,0,.177,0,.265a7.235,7.235,0,0,0,.348,2.053c.036.122.084.223.226.235a.338.338,0,0,0,.317-.222.987.987,0,0,0,.048-.229,7.644,7.644,0,0,1,.484-1.967,10.237,10.237,0,0,1,.486-1,.287.287,0,0,1,.363-.175c.138.05.187.156.154.368-.025.165-.066.326-.1.49a9.539,9.539,0,0,0-.152,3.394,2.783,2.783,0,0,0,.412,1.184.587.587,0,0,0,.769.249.972.972,0,0,0,.654-.628,4.878,4.878,0,0,0,.172-.683,5.1,5.1,0,0,1,.43-1.493,4.141,4.141,0,0,1,.446-.652.263.263,0,0,1,.349-.062.278.278,0,0,1,.116.311c-.006.038-.022.076-.026.114-.066.782-.151,1.563-.189,2.346a1.919,1.919,0,0,0,.379,1.188.865.865,0,0,0,1.057.359,1.448,1.448,0,0,0,.85-.643c.15-.264.282-.539.411-.813s.24-.58.386-.857a1.707,1.707,0,0,1,.35-.466c.17-.156.373-.05.391.182a.609.609,0,0,1-.006.147,10.11,10.11,0,0,0-.057,1.791.72.72,0,0,0,.745.748,1.507,1.507,0,0,0,1.385-.614c.194-.271.365-.559.554-.833a1.01,1.01,0,0,0-.334-1.37,7.626,7.626,0,0,0-.912-.472c-.783-.363-1.592-.676-2.352-1.081-1.436-.768-2.847-1.582-4.265-2.385-.768-.435-1.525-.89-2.294-1.321a1.316,1.316,0,0,0-.5-.146.515.515,0,0,0-.618.38A5.053,5.053,0,0,0-91.045,15897.91Zm24.132,26.68a1.809,1.809,0,0,0,.884-.407,4.383,4.383,0,0,0,1.017-1.357c.731-1.66,1.476-3.316,2.189-4.984.77-1.8,1.505-3.623,2.268-5.431a3.892,3.892,0,0,0,.273-1.4,1.31,1.31,0,0,0-.512-1.046c-.394-.353-.812-.68-1.213-1.025a.661.661,0,0,0-1.073.215c-.03.062-.058.125-.086.187-1.152,2.537-2.277,5.085-3.518,7.581a4.058,4.058,0,0,0-.3.888,1.031,1.031,0,0,0,.97,1.342,4.26,4.26,0,0,1,.522.08.724.724,0,0,1,.527.432,1.611,1.611,0,0,1,.145.5,7.453,7.453,0,0,1,0,1.057,2.389,2.389,0,0,1-.549,1.4c-.2.231-.385.471-.572.712C-66.259,15923.734-66.567,15924.139-66.913,15924.59Zm-.321-1.825H-84.567c.911,1.093,1.769,2.158,2.724,3.135a12.892,12.892,0,0,1,12.168-.116A27.968,27.968,0,0,0-67.234,15922.765Zm-24.6-17.419c.05.131.071.207.1.276.206.411.413.822.625,1.23a6.09,6.09,0,0,0,.305.538c.185.285.4.285.6.007.062-.088.1-.191.17-.275.234-.289.467-.58.716-.856a.324.324,0,0,1,.426-.084.348.348,0,0,1,.126.419c-.03.114-.073.225-.113.335a5.258,5.258,0,0,0-.379,1.509,1.059,1.059,0,0,0,.433.946.607.607,0,0,0,.875-.06,1.461,1.461,0,0,0,.311-.455,5.479,5.479,0,0,1,.671-1.206,1,1,0,0,1,.351-.3.273.273,0,0,1,.393.279.639.639,0,0,1-.027.144c-.158.668-.3,1.34-.481,2a1.771,1.771,0,0,0,.078,1.124c.162.429.431.526.837.3a1.04,1.04,0,0,0,.27-.222,1.3,1.3,0,0,0,.285-.573,8.334,8.334,0,0,1,.744-2.011,5.046,5.046,0,0,1,.488-.7.261.261,0,0,1,.317-.091.32.32,0,0,1,.189.279.743.743,0,0,1-.007.205c-.035.213-.071.426-.113.638-.147.721-.316,1.438-.436,2.164a7.228,7.228,0,0,0-.067,1.231,1.289,1.289,0,0,0,.149.5c.079.173.225.2.389.092a.592.592,0,0,0,.274-.432c.138-.9.286-1.8.427-2.7q.322-2.052.639-4.1c.013-.084.017-.169.024-.252a.832.832,0,0,0-.106-.028c-1.045-.109-2.089-.216-3.133-.331a.557.557,0,0,0-.362.086,4.4,4.4,0,0,1-1.624.587c-.407.059-.819.092-1.229.119a8.849,8.849,0,0,1-2.605-.2C-91.46,15905.444-91.619,15905.4-91.838,15905.346Zm39.874,12.567-.04-.015c-.1.179-.2.354-.293.535a7.13,7.13,0,0,1-1.273,1.793,7.928,7.928,0,0,1-2.919,1.782.477.477,0,0,0-.316.306c-.148.374-.306.744-.479,1.107a17.027,17.027,0,0,0-1.067,2.707c-.135.481-.269.965-.361,1.456a1.618,1.618,0,0,0,.4,1.475,1.6,1.6,0,0,0,1.716.442,2.37,2.37,0,0,0,1.41-1.3c.237-.539.448-1.09.648-1.644,1.007-2.78,1.786-5.631,2.551-8.484A1.047,1.047,0,0,0-51.964,15917.913Zm-13.289-14.317c-.052.086-.1.148-.131.215-.595,1.161-1.17,2.333-1.788,3.482a9.835,9.835,0,0,0-1.268,3.888,9.318,9.318,0,0,0-.061,1.143,8.573,8.573,0,0,0,.164,1.165,2.648,2.648,0,0,0,.17.5.577.577,0,0,0,.9.091,9.056,9.056,0,0,0,.556-.828c.831-1.614,1.644-3.236,2.467-4.854a4.071,4.071,0,0,0,.4-1.226,1.131,1.131,0,0,0-.089-.715c-.305-.593-.6-1.194-.879-1.8C-64.965,15904.318-65.1,15903.969-65.253,15903.6Zm.264-8.8-.052-.06a1.284,1.284,0,0,0-.231.128.584.584,0,0,0-.115.17q-1.29,2.178-2.578,4.357a7.331,7.331,0,0,0-.84,1.873c-.078.3-.16.607-.252.907a11.965,11.965,0,0,0-.415,2.847,1.037,1.037,0,0,0,.206.691.738.738,0,0,0,1.126.008,4.8,4.8,0,0,0,.413-.642c.537-1.016,1.064-2.035,1.593-3.055a1.407,1.407,0,0,0,.1-.244,3.666,3.666,0,0,0,.2-1.592,3.754,3.754,0,0,1-.022-.412,11.278,11.278,0,0,1,.5-3.892Zm-5.693,48.957a3.749,3.749,0,0,1-1.781-.32c-.479-.2-.951-.42-1.409-.663-.527-.28-1.035-.6-1.563-.9-.075.053-.153.109-.234.164-.642.433-1.274.883-1.93,1.295a5.87,5.87,0,0,1-1.825.8c-.176.039-.358.053-.562.083A8.243,8.243,0,0,0-70.682,15943.748Zm-5.664-15.07a8.157,8.157,0,0,0-4.735,1.944,8.039,8.039,0,0,0-2.416,3.481,4.577,4.577,0,0,1,1.3-.543,12.35,12.35,0,0,1,2.2-.367c.458-.04.917-.074,1.387-.112.046-.131.089-.25.128-.369a17.093,17.093,0,0,1,.929-2.351,4.67,4.67,0,0,1,1.168-1.607C-76.367,15928.738-76.361,15928.707-76.346,15928.678Zm-8.845-7.3c.465.064,18.868.039,19.082-.026,0-.112,0-.229,0-.347s-.008-.226-.014-.359c-6.376,0-12.715,0-19.068,0Zm1.3,14.12a8.211,8.211,0,0,0,2.867,7.946.738.738,0,0,0-.01-.149,3.749,3.749,0,0,1-.07-1.344,12.9,12.9,0,0,1,.4-2.106c.1-.386.217-.77.327-1.16l-.229-.157c-.419-.291-.847-.57-1.253-.878A6.629,6.629,0,0,1-83.889,15935.5Zm14.043,7.572a8.047,8.047,0,0,0,2.323-3.916,8.429,8.429,0,0,0,.061-3.979,14.6,14.6,0,0,1-3.137,3.025c.217.728.446,1.417.624,2.119a12.826,12.826,0,0,1,.255,1.476A3.14,3.14,0,0,1-69.846,15943.068Zm1.574-9.984a8.251,8.251,0,0,0-6.655-4.411c.016.027.023.059.043.074a4.481,4.481,0,0,1,1.237,1.628c.339.7.631,1.414.943,2.123.042.1.08.194.121.291A14.961,14.961,0,0,1-68.272,15933.084Zm-2.326-36.416c.063.456.134.882.179,1.311a1.068,1.068,0,0,0,.411.723.461.461,0,0,0,.677-.058,1.47,1.47,0,0,0,.113-.172q1.374-2.2,2.745-4.4a2.1,2.1,0,0,0,.182-.433.242.242,0,0,0-.14-.313,1.069,1.069,0,0,0-.829-.084,4.578,4.578,0,0,0-2.967,2.1A4.406,4.406,0,0,0-70.6,15896.668Zm4.025,36.536c.119.347.243.677.344,1.013s.183.694.281,1.07l1.328-.47a7.068,7.068,0,0,0-.809-2.437Zm-6.69,13.406.126,1.415a10.436,10.436,0,0,0,2.49-.887l-.72-1.215Zm3.66-.06a10.284,10.284,0,0,0,1.915-1.543l-1.211-.788-1.446,1.128Zm4.379-5.213a10.257,10.257,0,0,0,.653-2.224l-1.483.192-.52,1.577Zm-1.662,2.794a10.7,10.7,0,0,0,1.147-1.72c-.483-.16-.921-.352-1.37-.455l-.977,1.4Zm-3.445-15.4.693-1.238a9.765,9.765,0,0,0-1.762-.906l-.46,1.344Zm-13.674.731c.4.289.776.582,1.164.825l1.236-1.114-1.017-1.009A10.112,10.112,0,0,0-84,15929.462Zm18.171,8.651,1.431-.208a11.154,11.154,0,0,0-.034-1.918l-1.4.458Zm-10.025,8.771-.145,1.42a9.378,9.378,0,0,0,1.865-.109l-.1-1.407Zm-1.025-.073-1.409-.287-.63,1.306a10.031,10.031,0,0,0,1.88.387Zm-.865-20.862a9.043,9.043,0,0,0-1.706.473,11.636,11.636,0,0,0,.42,1.352l1.5-.417Zm9.316,4.377.92-1.1a9.765,9.765,0,0,0-1.268-1.129l-.734,1.23Zm-8.325-4.512.179,1.424c.261-.016.494-.034.727-.041s.46,0,.7,0l.123-1.428A11.108,11.108,0,0,0-76.758,15925.814Zm2.761.036-.164,1.442,1.354.3.453-1.377Zm-5.888,21.665.666-1.3-1.25-.594-.869,1.172Zm-5.6-11.162.2-1.413-1.452.047a7.687,7.687,0,0,0-.173,1.472Zm17.706-5.238.712,1.085,1.149-.873a10.216,10.216,0,0,0-.9-1.294Zm-16.913-.83a9.846,9.846,0,0,0-.891,1.4l1.45.344.654-.977Zm2.534,15.98.882-1.151-.89-.692-1.13.928Zm-4.022-5.118,1.268-.758-.333-1.094-1.36.5Zm-.348-7.187h1.517l.421-1.081-1.468-.25Zm3.713,9.828-.767-.908c-.4.271-.811.5-1.195.813l.828.994Zm2.405-16.988a8.572,8.572,0,0,0-1.33.747l.957,1.085.849-.467Zm-6.53,10.685.137,1.353,1.4-.44-.106-1.07Zm1.134,4.5.519.938,1.223-.764-.528-.976Z"/>
    <g id="Group_271" data-name="Group 271">
      <path id="Path_284" data-name="Path 284" d="M-45.37,15930.54c.033-.09.063-.181.1-.271a14.8,14.8,0,0,0,.98-3.807c.13-.981.251-1.965.4-2.944a7.326,7.326,0,0,1,.679-2.093,40.721,40.721,0,0,0,2.09-5.4,16.109,16.109,0,0,0,.653-2.686c0-.039,0-.087.02-.114.056-.073.111-.168.188-.2a.2.2,0,0,1,.262.135,1.338,1.338,0,0,1,.122.476,7.621,7.621,0,0,1-.088.876,30.937,30.937,0,0,1-1.115,4.751q-.444,1.512-.917,3.013a13.275,13.275,0,0,0-.475,2.6c-.083.771-.193,1.539-.265,2.31a9.888,9.888,0,0,0-.017,1.205.487.487,0,0,1-.225.465c-.742.531-1.472,1.079-2.207,1.62-.047.034-.1.066-.144.1Z"/>
      <path id="Path_285" data-name="Path 285" d="M-39.562,15926.26a18.286,18.286,0,0,1,1.326-4.854,13.34,13.34,0,0,0,1.083-4.259c.024-.263.093-.378.233-.4.156-.021.3.119.35.37a5.1,5.1,0,0,1,.037,1.5,17.012,17.012,0,0,1-.84,3.873,8.091,8.091,0,0,0-.3,1.288,3.681,3.681,0,0,0,.014.877.286.286,0,0,1-.124.3c-.551.41-1.1.824-1.649,1.236C-39.461,15926.21-39.5,15926.225-39.562,15926.26Z"/>
      <path id="Path_286" data-name="Path 286" d="M-34.489,15923.1c0-.209-.009-.363,0-.517.071-1.016.147-2.032.221-3.047a.58.58,0,0,1,.016-.117.26.26,0,0,1,.469-.123,1.119,1.119,0,0,1,.219.44,6.987,6.987,0,0,1,.159.954c.044.468.053.938.087,1.407a.3.3,0,0,1-.157.314C-33.8,15922.623-34.12,15922.847-34.489,15923.1Z"/>
    </g>
  </g>
</svg>
