<svg xmlns="http://www.w3.org/2000/svg" width="99.629" height="12.405" viewBox="0 0 99.629 12.405">
  <g id="Group_797" data-name="Group 797" transform="translate(-4443.849 -10008.488)">
    <g id="Group_796" data-name="Group 796" transform="translate(10)">
      <g id="Group_795" data-name="Group 795">
        <path id="Path_548" data-name="Path 548" d="M4519.064,10015.456c1.723.977,3.235,2.165,4.636,2.165a2.66,2.66,0,0,0,2.1-1.134c4.375,2.03,5.309,4.406,5.309,4.406a3.117,3.117,0,0,0,2.368-2.8c0-1.236-.94-2.561-3.024-3.407,2.095-.85,3.024-2.166,3.024-3.394a3.117,3.117,0,0,0-2.368-2.808s-.934,2.376-5.309,4.406a2.667,2.667,0,0,0-2.1-1.145c-1.378,0-2.874,1.172-4.641,2.171"/>
      </g>
    </g>
    <line id="Line_488" data-name="Line 488" x2="88.004" transform="translate(4443.849 10014.691)" fill="none" stroke="#000" stroke-miterlimit="10" stroke-width="1.131"/>
  </g>
</svg>
