<svg xmlns="http://www.w3.org/2000/svg" width="99.632" height="12.405" viewBox="0 0 99.632 12.405">
  <g id="Group_800" data-name="Group 800" transform="translate(-4678.224 -10008.488)">
    <g id="Group_799" data-name="Group 799" transform="translate(-10)">
      <g id="Group_798" data-name="Group 798">
        <path id="Path_549" data-name="Path 549" d="M4702.637,10013.927c-1.723-.978-3.235-2.166-4.636-2.166a2.661,2.661,0,0,0-2.1,1.134c-4.375-2.03-5.308-4.406-5.308-4.406a3.116,3.116,0,0,0-2.368,2.8c0,1.237.939,2.56,3.024,3.408-2.1.848-3.024,2.166-3.024,3.392a3.115,3.115,0,0,0,2.368,2.808s.933-2.376,5.308-4.406a2.666,2.666,0,0,0,2.1,1.145c1.378,0,2.874-1.172,4.641-2.171"/>
      </g>
    </g>
    <path id="Path_8764" data-name="Path 8764" d="M-11.729,0H75.219" transform="translate(4702.637 10014.691)" fill="none" stroke="#000" stroke-width="1.131"/>
  </g>
</svg>
