<svg xmlns="http://www.w3.org/2000/svg" width="457.381" height="11.446" viewBox="0 0 457.381 11.446">
  <g id="Group_419" data-name="Group 419" transform="translate(847.978 -8933.209)">
    <g id="Group_418" data-name="Group 418">
      <g id="Group_417" data-name="Group 417">
        <path id="Path_354" data-name="Path 354" d="M-403.894,8939.637c1.589.9,2.984,2,4.276,2a2.457,2.457,0,0,0,1.939-1.047c4.036,1.874,4.9,4.066,4.9,4.066a2.877,2.877,0,0,0,2.184-2.581c0-1.142-.867-2.362-2.79-3.145,1.934-.782,2.79-2,2.79-3.13a2.878,2.878,0,0,0-2.184-2.591s-.862,2.193-4.9,4.066a2.459,2.459,0,0,0-1.933-1.057c-1.272,0-2.652,1.081-4.282,2"/>
      </g>
    </g>
    <line id="Line_300" data-name="Line 300" x2="444.084" transform="translate(-847.978 8938.933)" fill="none" stroke="#000" stroke-miterlimit="10" stroke-width="1.044"/>
  </g>
</svg>
