<svg xmlns="http://www.w3.org/2000/svg" width="457.385" height="11.446" viewBox="0 0 457.385 11.446">
  <g id="Group_422" data-name="Group 422" transform="translate(247.834 -8933.209)">
    <g id="Group_421" data-name="Group 421">
      <g id="Group_420" data-name="Group 420">
        <path id="Path_355" data-name="Path 355" d="M-234.536,8938.227c-1.59-.9-2.985-2-4.277-2a2.451,2.451,0,0,0-1.938,1.047c-4.036-1.873-4.9-4.066-4.9-4.066a2.878,2.878,0,0,0-2.185,2.581c0,1.142.867,2.362,2.79,3.145-1.933.782-2.79,2-2.79,3.13a2.877,2.877,0,0,0,2.185,2.591s.862-2.192,4.9-4.066a2.461,2.461,0,0,0,1.933,1.058c1.272,0,2.651-1.082,4.282-2"/>
      </g>
    </g>
    <line id="Line_301" data-name="Line 301" x2="444.087" transform="translate(-234.536 8938.933)" fill="none" stroke="#000" stroke-miterlimit="10" stroke-width="1.044"/>
  </g>
</svg>
