
<svg xmlns="http://www.w3.org/2000/svg" width="54.109" height="55.274" viewBox="0 0 54.109 55.274">
  <g id="Group_973" data-name="Group 973" transform="translate(0)">
    <g id="Group_972" data-name="Group 972">
      <path id="Path_746" data-name="Path 746" d="M-2886.993,7403.313c-5.286-8.993-16.307-9.9-18.062-9.9s-12.775.911-18.061,9.9-4.132,10.877-8.993,13.915c4.861,3.038,3.706,4.921,8.993,13.914,5.1,8.676,15.534,9.83,17.839,9.9-1.316.295-2.6.556-3.537.773a11.032,11.032,0,0,0-2.393-.265c-3.81,0-5.538,2.171-5.538,4.076a2.748,2.748,0,0,0,2.969,2.791c2.525,0,5.759-1.861,5.848-4.785,1.772,0,5.051,5.051,11.076,5.051,3.589,0,7.8-1.773,9.791-4.431l-.886-1.417a12.131,12.131,0,0,1-7.443,2.215c-4.918,0-9.215-1.9-10.766-2.3,2.13-.777,4.115-1.557,5.932-2.4,4.146-1.02,9.856-3.465,13.231-9.206,5.286-8.993,4.132-10.876,8.993-13.914C-2882.861,7414.19-2881.707,7412.306-2886.993,7403.313Zm-4.162,21c0,6.28-6.173,16.332-13.9,16.332s-13.9-10.052-13.9-16.332a9.563,9.563,0,0,1,3.118-7.085,9.567,9.567,0,0,1-3.118-7.086c0-6.28,6.173-16.332,13.9-16.332s13.9,10.052,13.9,16.332a9.567,9.567,0,0,1-3.118,7.086A9.564,9.564,0,0,1-2891.155,7424.313Z" transform="translate(2932.109 -7393.409)"/>
    </g>
  </g>
</svg>

